0
SECTION
2
HEADER
9
$INSUNITS
70
4
9
$ACADVER
1
AC1014
9
$HANDSEED
5
FFFF
0
ENDSEC
0
SECTION
2
TABLES
0
TABLE
2
VPORT
5
8
100
AcDbSymbolTable
0
ENDTAB
0
TABLE
2
LTYPE
5
5
100
AcDbSymbolTable
0
LTYPE
5
14
100
AcDbSymbolTableRecord
100
AcDbLinetypeTableRecord
2
BYBLOCK
70
0
0
LTYPE
5
15
100
AcDbSymbolTableRecord
100
AcDbLinetypeTableRecord
2
BYLAYER
70
0
0
ENDTAB
0
TABLE
2
LAYER
5
2
100
AcDbSymbolTable
70
2
0
LAYER
5
50
100
AcDbSymbolTableRecord
100
AcDbLayerTableRecord
2
0
70
0
6
CONTINUOUS
0
ENDTAB
0
TABLE
2
STYLE
5
3
100
AcDbSymbolTable
70
1
0
STYLE
5
11
100
AcDbSymbolTableRecord
100
AcDbTextStyleTableRecord
2
STANDARD
70
0
0
ENDTAB
0
TABLE
2
VIEW
5
6
100
AcDbSymbolTable
70
0
0
ENDTAB
0
TABLE
2
UCS
5
7
100
AcDbSymbolTable
70
0
0
ENDTAB
0
TABLE
2
APPID
5
9
100
AcDbSymbolTable
70
2
0
APPID
5
12
100
AcDbSymbolTableRecord
100
AcDbRegAppTableRecord
2
ACAD
70
0
0
ENDTAB
0
TABLE
2
DIMSTYLE
5
A
100
AcDbSymbolTable
70
1
0
ENDTAB
0
TABLE
2
BLOCK_RECORD
5
1
100
AcDbSymbolTable
70
1
0
BLOCK_RECORD
5
1F
100
AcDbSymbolTableRecord
100
AcDbBlockTableRecord
2
*MODEL_SPACE
0
BLOCK_RECORD
5
1B
100
AcDbSymbolTableRecord
100
AcDbBlockTableRecord
2
*PAPER_SPACE
0
ENDTAB
0
ENDSEC
0
SECTION
2
BLOCKS
0
BLOCK
5
20
100
AcDbEntity
100
AcDbBlockBegin
2
*MODEL_SPACE
0
ENDBLK
5
21
100
AcDbEntity
100
AcDbBlockEnd
0
BLOCK
5
1C
100
AcDbEntity
100
AcDbBlockBegin
2
*PAPER_SPACE
0
ENDBLK
5
1D
100
AcDbEntity
100
AcDbBlockEnd
0
ENDSEC
0
SECTION
2
ENTITIES
0
ARC
5
100
100
AcDbEntity
8
0
100
AcDbCircle
10
-7.3562299999999254
20
-115.1335052564727
30
0
40
1.5874700001260007
210
0
220
0
230
1
100
AcDbArc
50
-90.000721840015601
51
0.00072185034474312772
0
LINE
5
101
100
AcDbEntity
8
0
100
AcDbLine
10
-5.7687599999999133
20
-115.13348525647271
30
0
11
-5.7687499999999234
21
-24.645985256364451
31
1.5407439555097887e-32
0
ARC
5
102
100
AcDbEntity
8
0
100
AcDbCircle
10
-7.356249999999922
20
-24.645975256472763
30
0
40
1.5874899999999985
210
-0
220
0
230
1
100
AcDbArc
50
-0.00036091507417995749
51
90
0
LINE
5
103
100
AcDbEntity
8
0
100
AcDbLine
10
-7.356249999999922
20
-23.058485256472764
30
0
11
-350.25625017722757
21
-23.05848525647276
31
0
0
ARC
5
104
100
AcDbEntity
8
0
100
AcDbCircle
10
-350.25599999999969
20
-24.645735256472765
30
0
40
1.5877500196820007
210
-6.0702212125870486e-38
220
3.8518598409435678e-34
230
1
100
AcDbArc
50
90.00902935381022
51
180.00902153659135
0
LINE
5
105
100
AcDbEntity
8
0
100
AcDbLine
10
-351.84374999999977
20
-24.645985256472773
30
-8.3441276058484934e-41
11
-351.84374999999966
21
-115.13348543711673
31
0
0
ARC
5
106
100
AcDbEntity
8
0
100
AcDbCircle
10
-350.25599999999969
20
-115.1337352564727
30
0
40
1.5872400196880325
210
1.5407742442170223e-33
220
1.923505297736123e-34
230
1
100
AcDbArc
50
179.99098353407035
51
269.99097556465341
0
LINE
5
107
100
AcDbEntity
8
0
100
AcDbLine
10
-350.25624999999968
20
-116.72097525647244
30
3.0569164843887838e-34
11
-7.3562499997168214
21
-116.72097525647273
31
0
0
CIRCLE
5
108
100
AcDbEntity
8
0
100
AcDbCircle
10
-15.962499999999917
20
-26.709735256472769
30
0
40
0.69999999999999962
210
5.7944703675827358e-52
220
1.9259299443872359e-34
230
1
0
CIRCLE
5
109
100
AcDbEntity
8
0
100
AcDbCircle
10
-22.562499999999911
20
-26.709735256472769
30
0
40
0.69999999999999962
210
5.7944703675827358e-52
220
1.9259299443872359e-34
230
1
0
CIRCLE
5
110
100
AcDbEntity
8
0
100
AcDbCircle
10
-39.774999999999899
20
-26.709735256472769
30
0
40
0.69999999999999962
210
5.7944703675827358e-52
220
1.9259299443872359e-34
230
1
0
CIRCLE
5
111
100
AcDbEntity
8
0
100
AcDbCircle
10
-46.374999999999893
20
-26.709735256472769
30
0
40
0.69999999999999962
210
5.7944703675827358e-52
220
1.9259299443872359e-34
230
1
0
CIRCLE
5
112
100
AcDbEntity
8
0
100
AcDbCircle
10
-15.962499999999917
20
-32.429735256472753
30
0
40
0.69999999999999962
210
5.7944703675827358e-52
220
1.9259299443872359e-34
230
1
0
CIRCLE
5
113
100
AcDbEntity
8
0
100
AcDbCircle
10
-22.562499999999911
20
-32.429735256472753
30
0
40
0.69999999999999962
210
5.7944703675827358e-52
220
1.9259299443872359e-34
230
1
0
CIRCLE
5
114
100
AcDbEntity
8
0
100
AcDbCircle
10
-39.774999999999899
20
-32.429735256472753
30
0
40
0.69999999999999962
210
5.7944703675827358e-52
220
1.9259299443872359e-34
230
1
0
CIRCLE
5
115
100
AcDbEntity
8
0
100
AcDbCircle
10
-46.374999999999893
20
-32.429735256472753
30
0
40
0.69999999999999962
210
5.7944703675827358e-52
220
1.9259299443872359e-34
230
1
0
CIRCLE
5
116
100
AcDbEntity
8
0
100
AcDbCircle
10
-63.587499999999892
20
-26.709735256472769
30
0
40
0.69999999999999962
210
5.7944703675827358e-52
220
1.9259299443872359e-34
230
1
0
CIRCLE
5
117
100
AcDbEntity
8
0
100
AcDbCircle
10
-70.187499999999886
20
-26.709735256472769
30
0
40
0.69999999999999962
210
5.7944703675827358e-52
220
1.9259299443872359e-34
230
1
0
CIRCLE
5
118
100
AcDbEntity
8
0
100
AcDbCircle
10
-63.587499999999892
20
-32.429735256472753
30
0
40
0.69999999999999962
210
5.7944703675827358e-52
220
1.9259299443872359e-34
230
1
0
CIRCLE
5
119
100
AcDbEntity
8
0
100
AcDbCircle
10
-70.187499999999886
20
-32.429735256472753
30
0
40
0.69999999999999962
210
5.7944703675827358e-52
220
1.9259299443872359e-34
230
1
0
CIRCLE
5
120
100
AcDbEntity
8
0
100
AcDbCircle
10
-13.581249999999919
20
-45.759735256472752
30
0
40
0.69999999999999962
210
5.7944703675827358e-52
220
1.9259299443872359e-34
230
1
0
CIRCLE
5
121
100
AcDbEntity
8
0
100
AcDbCircle
10
-20.18124999999992
20
-45.759735256472752
30
0
40
0.69999999999999962
210
5.7944703675827358e-52
220
1.9259299443872359e-34
230
1
0
CIRCLE
5
122
100
AcDbEntity
8
0
100
AcDbCircle
10
-35.012499999999903
20
-45.759735256472752
30
0
40
0.69999999999999962
210
5.7944703675827358e-52
220
1.9259299443872359e-34
230
1
0
CIRCLE
5
123
100
AcDbEntity
8
0
100
AcDbCircle
10
-41.612499999999898
20
-45.759735256472752
30
0
40
0.69999999999999962
210
5.7944703675827358e-52
220
1.9259299443872359e-34
230
1
0
CIRCLE
5
124
100
AcDbEntity
8
0
100
AcDbCircle
10
-54.062499999999893
20
-45.759735256472752
30
0
40
0.69999999999999962
210
5.7944703675827358e-52
220
1.9259299443872359e-34
230
1
0
CIRCLE
5
125
100
AcDbEntity
8
0
100
AcDbCircle
10
-60.662499999999895
20
-45.759735256472752
30
0
40
0.69999999999999962
210
5.7944703675827358e-52
220
1.9259299443872359e-34
230
1
0
CIRCLE
5
126
100
AcDbEntity
8
0
100
AcDbCircle
10
-73.112499999999883
20
-45.759735256472752
30
0
40
0.69999999999999962
210
5.7944703675827358e-52
220
1.9259299443872359e-34
230
1
0
CIRCLE
5
127
100
AcDbEntity
8
0
100
AcDbCircle
10
-79.712499999999892
20
-45.759735256472752
30
0
40
0.69999999999999962
210
5.7944703675827358e-52
220
1.9259299443872359e-34
230
1
0
CIRCLE
5
128
100
AcDbEntity
8
0
100
AcDbCircle
10
-92.162499999999866
20
-45.759735256472752
30
0
40
0.69999999999999962
210
5.7944703675827358e-52
220
1.9259299443872359e-34
230
1
0
CIRCLE
5
129
100
AcDbEntity
8
0
100
AcDbCircle
10
-144.54999999999987
20
-26.709735256472769
30
0
40
0.69999999999999962
210
5.7944703675827358e-52
220
1.9259299443872359e-34
230
1
0
CIRCLE
5
130
100
AcDbEntity
8
0
100
AcDbCircle
10
-151.14999999999984
20
-26.709735256472769
30
0
40
0.69999999999999962
210
5.7944703675827358e-52
220
1.9259299443872359e-34
230
1
0
CIRCLE
5
131
100
AcDbEntity
8
0
100
AcDbCircle
10
-144.54999999999987
20
-32.429735256472753
30
0
40
0.69999999999999962
210
5.7944703675827358e-52
220
1.9259299443872359e-34
230
1
0
CIRCLE
5
132
100
AcDbEntity
8
0
100
AcDbCircle
10
-151.14999999999984
20
-32.429735256472753
30
0
40
0.69999999999999962
210
5.7944703675827358e-52
220
1.9259299443872359e-34
230
1
0
CIRCLE
5
133
100
AcDbEntity
8
0
100
AcDbCircle
10
-98.762499999999875
20
-45.759735256472752
30
0
40
0.69999999999999962
210
5.7944703675827358e-52
220
1.9259299443872359e-34
230
1
0
CIRCLE
5
134
100
AcDbEntity
8
0
100
AcDbCircle
10
-111.21249999999986
20
-45.759735256472752
30
0
40
0.69999999999999962
210
5.7944703675827358e-52
220
1.9259299443872359e-34
230
1
0
CIRCLE
5
135
100
AcDbEntity
8
0
100
AcDbCircle
10
-117.81249999999986
20
-45.759735256472752
30
0
40
0.69999999999999962
210
5.7944703675827358e-52
220
1.9259299443872359e-34
230
1
0
CIRCLE
5
136
100
AcDbEntity
8
0
100
AcDbCircle
10
-130.26249999999987
20
-45.759735256472752
30
0
40
0.69999999999999962
210
5.7944703675827358e-52
220
1.9259299443872359e-34
230
1
0
CIRCLE
5
137
100
AcDbEntity
8
0
100
AcDbCircle
10
-136.86249999999984
20
-45.759735256472752
30
0
40
0.69999999999999962
210
5.7944703675827358e-52
220
1.9259299443872359e-34
230
1
0
CIRCLE
5
138
100
AcDbEntity
8
0
100
AcDbCircle
10
-149.31249999999983
20
-45.759735256472752
30
0
40
0.69999999999999962
210
5.7944703675827358e-52
220
1.9259299443872359e-34
230
1
0
CIRCLE
5
139
100
AcDbEntity
8
0
100
AcDbCircle
10
-155.91249999999982
20
-45.759735256472752
30
0
40
0.69999999999999962
210
5.7944703675827358e-52
220
1.9259299443872359e-34
230
1
0
CIRCLE
5
140
100
AcDbEntity
8
0
100
AcDbCircle
10
-168.36249999999981
20
-45.759735256472752
30
0
40
0.69999999999999962
210
5.7944703675827358e-52
220
1.9259299443872359e-34
230
1
0
CIRCLE
5
141
100
AcDbEntity
8
0
100
AcDbCircle
10
-174.96249999999981
20
-45.759735256472752
30
0
40
0.69999999999999962
210
5.7944703675827358e-52
220
1.9259299443872359e-34
230
1
0
CIRCLE
5
142
100
AcDbEntity
8
0
100
AcDbCircle
10
-13.581249999999921
20
-51.47973525647275
30
0
40
0.69999999999999962
210
5.7944703675827358e-52
220
1.9259299443872359e-34
230
1
0
CIRCLE
5
143
100
AcDbEntity
8
0
100
AcDbCircle
10
-20.18124999999992
20
-51.47973525647275
30
0
40
0.69999999999999962
210
5.7944703675827358e-52
220
1.9259299443872359e-34
230
1
0
CIRCLE
5
144
100
AcDbEntity
8
0
100
AcDbCircle
10
-35.012499999999903
20
-51.47973525647275
30
0
40
0.69999999999999962
210
5.7944703675827358e-52
220
1.9259299443872359e-34
230
1
0
CIRCLE
5
145
100
AcDbEntity
8
0
100
AcDbCircle
10
-41.612499999999898
20
-51.47973525647275
30
0
40
0.69999999999999962
210
5.7944703675827358e-52
220
1.9259299443872359e-34
230
1
0
CIRCLE
5
146
100
AcDbEntity
8
0
100
AcDbCircle
10
-54.062499999999893
20
-51.47973525647275
30
0
40
0.69999999999999962
210
5.7944703675827358e-52
220
1.9259299443872359e-34
230
1
0
CIRCLE
5
147
100
AcDbEntity
8
0
100
AcDbCircle
10
-60.662499999999895
20
-51.47973525647275
30
0
40
0.69999999999999962
210
5.7944703675827358e-52
220
1.9259299443872359e-34
230
1
0
CIRCLE
5
148
100
AcDbEntity
8
0
100
AcDbCircle
10
-73.112499999999883
20
-51.47973525647275
30
0
40
0.69999999999999962
210
5.7944703675827358e-52
220
1.9259299443872359e-34
230
1
0
CIRCLE
5
149
100
AcDbEntity
8
0
100
AcDbCircle
10
-79.712499999999892
20
-51.47973525647275
30
0
40
0.69999999999999962
210
5.7944703675827358e-52
220
1.9259299443872359e-34
230
1
0
CIRCLE
5
150
100
AcDbEntity
8
0
100
AcDbCircle
10
-92.162499999999866
20
-51.47973525647275
30
0
40
0.69999999999999962
210
5.7944703675827358e-52
220
1.9259299443872359e-34
230
1
0
CIRCLE
5
151
100
AcDbEntity
8
0
100
AcDbCircle
10
-18.343749999999915
20
-64.809735256472734
30
0
40
0.69999999999999962
210
5.7944703675827358e-52
220
1.9259299443872359e-34
230
1
0
CIRCLE
5
152
100
AcDbEntity
8
0
100
AcDbCircle
10
-24.943749999999913
20
-64.809735256472734
30
0
40
0.69999999999999962
210
5.7944703675827358e-52
220
1.9259299443872359e-34
230
1
0
CIRCLE
5
153
100
AcDbEntity
8
0
100
AcDbCircle
10
-44.537499999999895
20
-64.809735256472734
30
0
40
0.69999999999999962
210
5.7944703675827358e-52
220
1.9259299443872359e-34
230
1
0
CIRCLE
5
154
100
AcDbEntity
8
0
100
AcDbCircle
10
-51.137499999999896
20
-64.809735256472734
30
0
40
0.69999999999999962
210
5.7944703675827358e-52
220
1.9259299443872359e-34
230
1
0
CIRCLE
5
155
100
AcDbEntity
8
0
100
AcDbCircle
10
-63.587499999999892
20
-64.809735256472734
30
0
40
0.69999999999999962
210
5.7944703675827358e-52
220
1.9259299443872359e-34
230
1
0
CIRCLE
5
156
100
AcDbEntity
8
0
100
AcDbCircle
10
-70.187499999999886
20
-64.809735256472734
30
0
40
0.69999999999999962
210
5.7944703675827358e-52
220
1.9259299443872359e-34
230
1
0
CIRCLE
5
157
100
AcDbEntity
8
0
100
AcDbCircle
10
-82.637499999999875
20
-64.809735256472734
30
0
40
0.69999999999999962
210
5.7944703675827358e-52
220
1.9259299443872359e-34
230
1
0
CIRCLE
5
158
100
AcDbEntity
8
0
100
AcDbCircle
10
-89.237499999999855
20
-64.809735256472734
30
0
40
0.69999999999999962
210
5.7944703675827358e-52
220
1.9259299443872359e-34
230
1
0
CIRCLE
5
159
100
AcDbEntity
8
0
100
AcDbCircle
10
-98.762499999999875
20
-51.47973525647275
30
0
40
0.69999999999999962
210
5.7944703675827358e-52
220
1.9259299443872359e-34
230
1
0
CIRCLE
5
160
100
AcDbEntity
8
0
100
AcDbCircle
10
-111.21249999999986
20
-51.47973525647275
30
0
40
0.69999999999999962
210
5.7944703675827358e-52
220
1.9259299443872359e-34
230
1
0
CIRCLE
5
161
100
AcDbEntity
8
0
100
AcDbCircle
10
-117.81249999999986
20
-51.47973525647275
30
0
40
0.69999999999999962
210
5.7944703675827358e-52
220
1.9259299443872359e-34
230
1
0
CIRCLE
5
162
100
AcDbEntity
8
0
100
AcDbCircle
10
-130.26249999999987
20
-51.47973525647275
30
0
40
0.69999999999999962
210
5.7944703675827358e-52
220
1.9259299443872359e-34
230
1
0
CIRCLE
5
163
100
AcDbEntity
8
0
100
AcDbCircle
10
-136.86249999999984
20
-51.47973525647275
30
0
40
0.69999999999999962
210
5.7944703675827358e-52
220
1.9259299443872359e-34
230
1
0
CIRCLE
5
164
100
AcDbEntity
8
0
100
AcDbCircle
10
-149.31249999999983
20
-51.47973525647275
30
0
40
0.69999999999999962
210
5.7944703675827358e-52
220
1.9259299443872359e-34
230
1
0
CIRCLE
5
165
100
AcDbEntity
8
0
100
AcDbCircle
10
-155.91249999999982
20
-51.47973525647275
30
0
40
0.69999999999999962
210
5.7944703675827358e-52
220
1.9259299443872359e-34
230
1
0
CIRCLE
5
166
100
AcDbEntity
8
0
100
AcDbCircle
10
-168.36249999999981
20
-51.47973525647275
30
0
40
0.69999999999999962
210
5.7944703675827358e-52
220
1.9259299443872359e-34
230
1
0
CIRCLE
5
167
100
AcDbEntity
8
0
100
AcDbCircle
10
-174.96249999999981
20
-51.47973525647275
30
0
40
0.69999999999999962
210
5.7944703675827358e-52
220
1.9259299443872359e-34
230
1
0
CIRCLE
5
168
100
AcDbEntity
8
0
100
AcDbCircle
10
-101.68749999999987
20
-64.809735256472734
30
0
40
0.69999999999999962
210
5.7944703675827358e-52
220
1.9259299443872359e-34
230
1
0
CIRCLE
5
169
100
AcDbEntity
8
0
100
AcDbCircle
10
-108.28749999999985
20
-64.809735256472734
30
0
40
0.69999999999999962
210
5.7944703675827358e-52
220
1.9259299443872359e-34
230
1
0
CIRCLE
5
170
100
AcDbEntity
8
0
100
AcDbCircle
10
-120.73749999999987
20
-64.809735256472734
30
0
40
0.69999999999999962
210
5.7944703675827358e-52
220
1.9259299443872359e-34
230
1
0
CIRCLE
5
171
100
AcDbEntity
8
0
100
AcDbCircle
10
-127.33749999999986
20
-64.809735256472734
30
0
40
0.69999999999999962
210
5.7944703675827358e-52
220
1.9259299443872359e-34
230
1
0
CIRCLE
5
172
100
AcDbEntity
8
0
100
AcDbCircle
10
-139.78749999999985
20
-64.809735256472734
30
0
40
0.69999999999999962
210
5.7944703675827358e-52
220
1.9259299443872359e-34
230
1
0
CIRCLE
5
173
100
AcDbEntity
8
0
100
AcDbCircle
10
-146.38749999999982
20
-64.809735256472734
30
0
40
0.69999999999999962
210
5.7944703675827358e-52
220
1.9259299443872359e-34
230
1
0
CIRCLE
5
174
100
AcDbEntity
8
0
100
AcDbCircle
10
-158.83749999999986
20
-64.809735256472734
30
0
40
0.69999999999999962
210
5.7944703675827358e-52
220
1.9259299443872359e-34
230
1
0
CIRCLE
5
175
100
AcDbEntity
8
0
100
AcDbCircle
10
-165.43749999999983
20
-64.809735256472734
30
0
40
0.69999999999999962
210
5.7944703675827358e-52
220
1.9259299443872359e-34
230
1
0
CIRCLE
5
176
100
AcDbEntity
8
0
100
AcDbCircle
10
-177.88749999999982
20
-64.809735256472734
30
0
40
0.69999999999999962
210
5.7944703675827358e-52
220
1.9259299443872359e-34
230
1
0
CIRCLE
5
177
100
AcDbEntity
8
0
100
AcDbCircle
10
-225.51249999999979
20
-26.709735256472769
30
0
40
0.69999999999999962
210
5.7944703675827358e-52
220
1.9259299443872359e-34
230
1
0
CIRCLE
5
178
100
AcDbEntity
8
0
100
AcDbCircle
10
-232.11249999999981
20
-26.709735256472769
30
0
40
0.69999999999999962
210
5.7944703675827358e-52
220
1.9259299443872359e-34
230
1
0
CIRCLE
5
179
100
AcDbEntity
8
0
100
AcDbCircle
10
-249.32499999999979
20
-26.709735256472769
30
0
40
0.69999999999999962
210
5.7944703675827358e-52
220
1.9259299443872359e-34
230
1
0
CIRCLE
5
180
100
AcDbEntity
8
0
100
AcDbCircle
10
-255.92499999999976
20
-26.709735256472769
30
0
40
0.69999999999999962
210
5.7944703675827358e-52
220
1.9259299443872359e-34
230
1
0
CIRCLE
5
181
100
AcDbEntity
8
0
100
AcDbCircle
10
-225.51249999999979
20
-32.429735256472753
30
0
40
0.69999999999999962
210
5.7944703675827358e-52
220
1.9259299443872359e-34
230
1
0
CIRCLE
5
182
100
AcDbEntity
8
0
100
AcDbCircle
10
-232.11249999999981
20
-32.429735256472753
30
0
40
0.69999999999999962
210
5.7944703675827358e-52
220
1.9259299443872359e-34
230
1
0
CIRCLE
5
183
100
AcDbEntity
8
0
100
AcDbCircle
10
-249.32499999999979
20
-32.429735256472753
30
0
40
0.69999999999999962
210
5.7944703675827358e-52
220
1.9259299443872359e-34
230
1
0
CIRCLE
5
184
100
AcDbEntity
8
0
100
AcDbCircle
10
-255.92499999999976
20
-32.429735256472753
30
0
40
0.69999999999999962
210
5.7944703675827358e-52
220
1.9259299443872359e-34
230
1
0
CIRCLE
5
185
100
AcDbEntity
8
0
100
AcDbCircle
10
-187.41249999999982
20
-45.759735256472752
30
0
40
0.69999999999999962
210
5.7944703675827358e-52
220
1.9259299443872359e-34
230
1
0
CIRCLE
5
186
100
AcDbEntity
8
0
100
AcDbCircle
10
-194.01249999999979
20
-45.759735256472752
30
0
40
0.69999999999999962
210
5.7944703675827358e-52
220
1.9259299443872359e-34
230
1
0
CIRCLE
5
187
100
AcDbEntity
8
0
100
AcDbCircle
10
-206.46249999999981
20
-45.759735256472752
30
0
40
0.69999999999999962
210
5.7944703675827358e-52
220
1.9259299443872359e-34
230
1
0
CIRCLE
5
188
100
AcDbEntity
8
0
100
AcDbCircle
10
-213.0624999999998
20
-45.759735256472752
30
0
40
0.69999999999999962
210
5.7944703675827358e-52
220
1.9259299443872359e-34
230
1
0
CIRCLE
5
189
100
AcDbEntity
8
0
100
AcDbCircle
10
-225.51249999999979
20
-45.759735256472752
30
0
40
0.69999999999999962
210
5.7944703675827358e-52
220
1.9259299443872359e-34
230
1
0
CIRCLE
5
190
100
AcDbEntity
8
0
100
AcDbCircle
10
-232.11249999999981
20
-45.759735256472752
30
0
40
0.69999999999999962
210
5.7944703675827358e-52
220
1.9259299443872359e-34
230
1
0
CIRCLE
5
191
100
AcDbEntity
8
0
100
AcDbCircle
10
-261.2312499999997
20
-45.759735256472752
30
0
40
0.69999999999999962
210
5.7944703675827358e-52
220
1.9259299443872359e-34
230
1
0
CIRCLE
5
192
100
AcDbEntity
8
0
100
AcDbCircle
10
-273.13749999999976
20
-26.709735256472769
30
0
40
0.69999999999999962
210
5.7944703675827358e-52
220
1.9259299443872359e-34
230
1
0
CIRCLE
5
193
100
AcDbEntity
8
0
100
AcDbCircle
10
-279.73749999999978
20
-26.709735256472769
30
0
40
0.69999999999999962
210
5.7944703675827358e-52
220
1.9259299443872359e-34
230
1
0
CIRCLE
5
194
100
AcDbEntity
8
0
100
AcDbCircle
10
-301.71249999999975
20
-26.709735256472769
30
0
40
0.69999999999999962
210
5.7944703675827358e-52
220
1.9259299443872359e-34
230
1
0
CIRCLE
5
195
100
AcDbEntity
8
0
100
AcDbCircle
10
-273.13749999999976
20
-32.429735256472753
30
0
40
0.69999999999999962
210
5.7944703675827358e-52
220
1.9259299443872359e-34
230
1
0
CIRCLE
5
196
100
AcDbEntity
8
0
100
AcDbCircle
10
-279.73749999999978
20
-32.429735256472753
30
0
40
0.69999999999999962
210
5.7944703675827358e-52
220
1.9259299443872359e-34
230
1
0
CIRCLE
5
197
100
AcDbEntity
8
0
100
AcDbCircle
10
-301.71249999999975
20
-32.429735256472753
30
0
40
0.69999999999999962
210
5.7944703675827358e-52
220
1.9259299443872359e-34
230
1
0
CIRCLE
5
198
100
AcDbEntity
8
0
100
AcDbCircle
10
-308.31249999999972
20
-26.709735256472769
30
0
40
0.69999999999999962
210
5.7944703675827358e-52
220
1.9259299443872359e-34
230
1
0
CIRCLE
5
199
100
AcDbEntity
8
0
100
AcDbCircle
10
-320.76249999999965
20
-26.709735256472769
30
0
40
0.69999999999999962
210
5.7944703675827358e-52
220
1.9259299443872359e-34
230
1
0
CIRCLE
5
200
100
AcDbEntity
8
0
100
AcDbCircle
10
-327.36249999999973
20
-26.709735256472769
30
0
40
0.69999999999999962
210
5.7944703675827358e-52
220
1.9259299443872359e-34
230
1
0
CIRCLE
5
201
100
AcDbEntity
8
0
100
AcDbCircle
10
-339.81249999999966
20
-26.709735256472769
30
0
40
0.69999999999999962
210
5.7944703675827358e-52
220
1.9259299443872359e-34
230
1
0
CIRCLE
5
202
100
AcDbEntity
8
0
100
AcDbCircle
10
-346.41249999999968
20
-26.709735256472769
30
0
40
0.69999999999999962
210
5.7944703675827358e-52
220
1.9259299443872359e-34
230
1
0
CIRCLE
5
203
100
AcDbEntity
8
0
100
AcDbCircle
10
-308.31249999999972
20
-32.429735256472753
30
0
40
0.69999999999999962
210
5.7944703675827358e-52
220
1.9259299443872359e-34
230
1
0
CIRCLE
5
204
100
AcDbEntity
8
0
100
AcDbCircle
10
-320.76249999999965
20
-32.429735256472753
30
0
40
0.69999999999999962
210
5.7944703675827358e-52
220
1.9259299443872359e-34
230
1
0
CIRCLE
5
205
100
AcDbEntity
8
0
100
AcDbCircle
10
-327.36249999999973
20
-32.429735256472753
30
0
40
0.69999999999999962
210
5.7944703675827358e-52
220
1.9259299443872359e-34
230
1
0
CIRCLE
5
206
100
AcDbEntity
8
0
100
AcDbCircle
10
-339.81249999999966
20
-32.429735256472753
30
0
40
0.69999999999999962
210
5.7944703675827358e-52
220
1.9259299443872359e-34
230
1
0
CIRCLE
5
207
100
AcDbEntity
8
0
100
AcDbCircle
10
-346.41249999999968
20
-32.429735256472753
30
0
40
0.69999999999999962
210
5.7944703675827358e-52
220
1.9259299443872359e-34
230
1
0
CIRCLE
5
208
100
AcDbEntity
8
0
100
AcDbCircle
10
-267.83124999999978
20
-45.759735256472752
30
0
40
0.69999999999999962
210
5.7944703675827358e-52
220
1.9259299443872359e-34
230
1
0
CIRCLE
5
209
100
AcDbEntity
8
0
100
AcDbCircle
10
-294.6839999999998
20
-46.349735256472748
30
0
40
0.49529999999999985
210
5.7944703675827358e-52
220
1.9259299443872359e-34
230
1
0
CIRCLE
5
210
100
AcDbEntity
8
0
100
AcDbCircle
10
-296.71599999999978
20
-46.349735256472748
30
0
40
0.49529999999999985
210
5.7944703675827358e-52
220
1.9259299443872359e-34
230
1
0
CIRCLE
5
211
100
AcDbEntity
8
0
100
AcDbCircle
10
-320.76249999999965
20
-45.759735256472752
30
0
40
0.69999999999999962
210
5.7944703675827358e-52
220
1.9259299443872359e-34
230
1
0
CIRCLE
5
212
100
AcDbEntity
8
0
100
AcDbCircle
10
-327.36249999999973
20
-45.759735256472752
30
0
40
0.69999999999999962
210
5.7944703675827358e-52
220
1.9259299443872359e-34
230
1
0
CIRCLE
5
213
100
AcDbEntity
8
0
100
AcDbCircle
10
-187.41249999999982
20
-51.47973525647275
30
0
40
0.69999999999999962
210
5.7944703675827358e-52
220
1.9259299443872359e-34
230
1
0
CIRCLE
5
214
100
AcDbEntity
8
0
100
AcDbCircle
10
-194.01249999999979
20
-51.47973525647275
30
0
40
0.69999999999999962
210
5.7944703675827358e-52
220
1.9259299443872359e-34
230
1
0
CIRCLE
5
215
100
AcDbEntity
8
0
100
AcDbCircle
10
-206.46249999999981
20
-51.47973525647275
30
0
40
0.69999999999999962
210
5.7944703675827358e-52
220
1.9259299443872359e-34
230
1
0
CIRCLE
5
216
100
AcDbEntity
8
0
100
AcDbCircle
10
-213.0624999999998
20
-51.47973525647275
30
0
40
0.69999999999999962
210
5.7944703675827358e-52
220
1.9259299443872359e-34
230
1
0
CIRCLE
5
217
100
AcDbEntity
8
0
100
AcDbCircle
10
-225.51249999999979
20
-51.47973525647275
30
0
40
0.69999999999999962
210
5.7944703675827358e-52
220
1.9259299443872359e-34
230
1
0
CIRCLE
5
218
100
AcDbEntity
8
0
100
AcDbCircle
10
-232.11249999999981
20
-51.47973525647275
30
0
40
0.69999999999999962
210
5.7944703675827358e-52
220
1.9259299443872359e-34
230
1
0
CIRCLE
5
219
100
AcDbEntity
8
0
100
AcDbCircle
10
-261.2312499999997
20
-51.47973525647275
30
0
40
0.69999999999999962
210
5.7944703675827358e-52
220
1.9259299443872359e-34
230
1
0
CIRCLE
5
220
100
AcDbEntity
8
0
100
AcDbCircle
10
-184.48749999999984
20
-64.809735256472734
30
0
40
0.69999999999999962
210
5.7944703675827358e-52
220
1.9259299443872359e-34
230
1
0
CIRCLE
5
221
100
AcDbEntity
8
0
100
AcDbCircle
10
-196.93749999999983
20
-64.809735256472734
30
0
40
0.69999999999999962
210
5.7944703675827358e-52
220
1.9259299443872359e-34
230
1
0
CIRCLE
5
222
100
AcDbEntity
8
0
100
AcDbCircle
10
-203.53749999999977
20
-64.809735256472734
30
0
40
0.69999999999999962
210
5.7944703675827358e-52
220
1.9259299443872359e-34
230
1
0
CIRCLE
5
223
100
AcDbEntity
8
0
100
AcDbCircle
10
-215.98749999999981
20
-64.809735256472734
30
0
40
0.69999999999999962
210
5.7944703675827358e-52
220
1.9259299443872359e-34
230
1
0
CIRCLE
5
224
100
AcDbEntity
8
0
100
AcDbCircle
10
-222.58749999999981
20
-64.809735256472734
30
0
40
0.69999999999999962
210
5.7944703675827358e-52
220
1.9259299443872359e-34
230
1
0
CIRCLE
5
225
100
AcDbEntity
8
0
100
AcDbCircle
10
-235.0374999999998
20
-64.809735256472734
30
0
40
0.69999999999999962
210
5.7944703675827358e-52
220
1.9259299443872359e-34
230
1
0
CIRCLE
5
226
100
AcDbEntity
8
0
100
AcDbCircle
10
-241.63749999999979
20
-64.809735256472734
30
0
40
0.69999999999999962
210
5.7944703675827358e-52
220
1.9259299443872359e-34
230
1
0
CIRCLE
5
227
100
AcDbEntity
8
0
100
AcDbCircle
10
-254.08749999999981
20
-64.809735256472734
30
0
40
0.69999999999999962
210
5.7944703675827358e-52
220
1.9259299443872359e-34
230
1
0
CIRCLE
5
228
100
AcDbEntity
8
0
100
AcDbCircle
10
-260.68749999999977
20
-64.809735256472734
30
0
40
0.69999999999999962
210
5.7944703675827358e-52
220
1.9259299443872359e-34
230
1
0
CIRCLE
5
229
100
AcDbEntity
8
0
100
AcDbCircle
10
-267.83124999999978
20
-51.47973525647275
30
0
40
0.69999999999999962
210
5.7944703675827358e-52
220
1.9259299443872359e-34
230
1
0
CIRCLE
5
230
100
AcDbEntity
8
0
100
AcDbCircle
10
-295.69999999999976
20
-51.429735256472746
30
0
40
0.49529999999999985
210
5.7944703675827358e-52
220
1.9259299443872359e-34
230
1
0
CIRCLE
5
231
100
AcDbEntity
8
0
100
AcDbCircle
10
-320.76249999999965
20
-51.47973525647275
30
0
40
0.69999999999999962
210
5.7944703675827358e-52
220
1.9259299443872359e-34
230
1
0
CIRCLE
5
232
100
AcDbEntity
8
0
100
AcDbCircle
10
-327.36249999999973
20
-51.47973525647275
30
0
40
0.69999999999999962
210
5.7944703675827358e-52
220
1.9259299443872359e-34
230
1
0
CIRCLE
5
233
100
AcDbEntity
8
0
100
AcDbCircle
10
-18.343749999999915
20
-70.529735256472733
30
0
40
0.69999999999999962
210
5.7944703675827358e-52
220
1.9259299443872359e-34
230
1
0
CIRCLE
5
234
100
AcDbEntity
8
0
100
AcDbCircle
10
-24.943749999999913
20
-70.529735256472733
30
0
40
0.69999999999999962
210
5.7944703675827358e-52
220
1.9259299443872359e-34
230
1
0
CIRCLE
5
235
100
AcDbEntity
8
0
100
AcDbCircle
10
-44.537499999999895
20
-70.529735256472733
30
0
40
0.69999999999999962
210
5.7944703675827358e-52
220
1.9259299443872359e-34
230
1
0
CIRCLE
5
236
100
AcDbEntity
8
0
100
AcDbCircle
10
-51.137499999999896
20
-70.529735256472733
30
0
40
0.69999999999999962
210
5.7944703675827358e-52
220
1.9259299443872359e-34
230
1
0
CIRCLE
5
237
100
AcDbEntity
8
0
100
AcDbCircle
10
-63.587499999999892
20
-70.529735256472733
30
0
40
0.69999999999999962
210
5.7944703675827358e-52
220
1.9259299443872359e-34
230
1
0
CIRCLE
5
238
100
AcDbEntity
8
0
100
AcDbCircle
10
-70.187499999999886
20
-70.529735256472733
30
0
40
0.69999999999999962
210
5.7944703675827358e-52
220
1.9259299443872359e-34
230
1
0
CIRCLE
5
239
100
AcDbEntity
8
0
100
AcDbCircle
10
-82.637499999999875
20
-70.529735256472733
30
0
40
0.69999999999999962
210
5.7944703675827358e-52
220
1.9259299443872359e-34
230
1
0
CIRCLE
5
240
100
AcDbEntity
8
0
100
AcDbCircle
10
-89.237499999999855
20
-70.529735256472733
30
0
40
0.69999999999999962
210
5.7944703675827358e-52
220
1.9259299443872359e-34
230
1
0
CIRCLE
5
241
100
AcDbEntity
8
0
100
AcDbCircle
10
-15.96249999999992
20
-83.859735256472732
30
0
40
0.69999999999999962
210
5.7944703675827358e-52
220
1.9259299443872359e-34
230
1
0
CIRCLE
5
242
100
AcDbEntity
8
0
100
AcDbCircle
10
-22.562499999999915
20
-83.859735256472732
30
0
40
0.69999999999999962
210
5.7944703675827358e-52
220
1.9259299443872359e-34
230
1
0
CIRCLE
5
243
100
AcDbEntity
8
0
100
AcDbCircle
10
-39.774999999999906
20
-83.859735256472732
30
0
40
0.69999999999999962
210
5.7944703675827358e-52
220
1.9259299443872359e-34
230
1
0
CIRCLE
5
244
100
AcDbEntity
8
0
100
AcDbCircle
10
-46.374999999999893
20
-83.859735256472732
30
0
40
0.69999999999999962
210
5.7944703675827358e-52
220
1.9259299443872359e-34
230
1
0
CIRCLE
5
245
100
AcDbEntity
8
0
100
AcDbCircle
10
-58.824999999999896
20
-83.859735256472732
30
0
40
0.69999999999999962
210
5.7944703675827358e-52
220
1.9259299443872359e-34
230
1
0
CIRCLE
5
246
100
AcDbEntity
8
0
100
AcDbCircle
10
-65.424999999999883
20
-83.859735256472732
30
0
40
0.69999999999999962
210
5.7944703675827358e-52
220
1.9259299443872359e-34
230
1
0
CIRCLE
5
247
100
AcDbEntity
8
0
100
AcDbCircle
10
-77.874999999999886
20
-83.859735256472732
30
0
40
0.69999999999999962
210
5.7944703675827358e-52
220
1.9259299443872359e-34
230
1
0
CIRCLE
5
248
100
AcDbEntity
8
0
100
AcDbCircle
10
-84.474999999999881
20
-83.859735256472732
30
0
40
0.69999999999999962
210
5.7944703675827358e-52
220
1.9259299443872359e-34
230
1
0
CIRCLE
5
249
100
AcDbEntity
8
0
100
AcDbCircle
10
-101.68749999999987
20
-70.529735256472733
30
0
40
0.69999999999999962
210
5.7944703675827358e-52
220
1.9259299443872359e-34
230
1
0
CIRCLE
5
250
100
AcDbEntity
8
0
100
AcDbCircle
10
-108.28749999999985
20
-70.529735256472733
30
0
40
0.69999999999999962
210
5.7944703675827358e-52
220
1.9259299443872359e-34
230
1
0
CIRCLE
5
251
100
AcDbEntity
8
0
100
AcDbCircle
10
-120.73749999999987
20
-70.529735256472733
30
0
40
0.69999999999999962
210
5.7944703675827358e-52
220
1.9259299443872359e-34
230
1
0
CIRCLE
5
252
100
AcDbEntity
8
0
100
AcDbCircle
10
-127.33749999999986
20
-70.529735256472733
30
0
40
0.69999999999999962
210
5.7944703675827358e-52
220
1.9259299443872359e-34
230
1
0
CIRCLE
5
253
100
AcDbEntity
8
0
100
AcDbCircle
10
-139.78749999999985
20
-70.529735256472733
30
0
40
0.69999999999999962
210
5.7944703675827358e-52
220
1.9259299443872359e-34
230
1
0
CIRCLE
5
254
100
AcDbEntity
8
0
100
AcDbCircle
10
-146.38749999999982
20
-70.529735256472733
30
0
40
0.69999999999999962
210
5.7944703675827358e-52
220
1.9259299443872359e-34
230
1
0
CIRCLE
5
255
100
AcDbEntity
8
0
100
AcDbCircle
10
-158.83749999999986
20
-70.529735256472733
30
0
40
0.69999999999999962
210
5.7944703675827358e-52
220
1.9259299443872359e-34
230
1
0
CIRCLE
5
256
100
AcDbEntity
8
0
100
AcDbCircle
10
-165.43749999999983
20
-70.529735256472733
30
0
40
0.69999999999999962
210
5.7944703675827358e-52
220
1.9259299443872359e-34
230
1
0
CIRCLE
5
257
100
AcDbEntity
8
0
100
AcDbCircle
10
-177.88749999999982
20
-70.529735256472733
30
0
40
0.69999999999999962
210
5.7944703675827358e-52
220
1.9259299443872359e-34
230
1
0
CIRCLE
5
258
100
AcDbEntity
8
0
100
AcDbCircle
10
-96.924999999999869
20
-83.859735256472732
30
0
40
0.69999999999999962
210
5.7944703675827358e-52
220
1.9259299443872359e-34
230
1
0
CIRCLE
5
259
100
AcDbEntity
8
0
100
AcDbCircle
10
-103.52499999999989
20
-83.859735256472732
30
0
40
0.69999999999999962
210
5.7944703675827358e-52
220
1.9259299443872359e-34
230
1
0
CIRCLE
5
260
100
AcDbEntity
8
0
100
AcDbCircle
10
-115.97499999999985
20
-83.859735256472732
30
0
40
0.69999999999999962
210
5.7944703675827358e-52
220
1.9259299443872359e-34
230
1
0
CIRCLE
5
261
100
AcDbEntity
8
0
100
AcDbCircle
10
-122.57499999999986
20
-83.859735256472732
30
0
40
0.69999999999999962
210
5.7944703675827358e-52
220
1.9259299443872359e-34
230
1
0
CIRCLE
5
262
100
AcDbEntity
8
0
100
AcDbCircle
10
-135.02499999999986
20
-83.859735256472732
30
0
40
0.69999999999999962
210
5.7944703675827358e-52
220
1.9259299443872359e-34
230
1
0
CIRCLE
5
263
100
AcDbEntity
8
0
100
AcDbCircle
10
-141.62499999999983
20
-83.859735256472732
30
0
40
0.69999999999999962
210
5.7944703675827358e-52
220
1.9259299443872359e-34
230
1
0
CIRCLE
5
264
100
AcDbEntity
8
0
100
AcDbCircle
10
-154.07499999999982
20
-83.859735256472732
30
0
40
0.69999999999999962
210
5.7944703675827358e-52
220
1.9259299443872359e-34
230
1
0
CIRCLE
5
265
100
AcDbEntity
8
0
100
AcDbCircle
10
-160.67499999999984
20
-83.859735256472732
30
0
40
0.69999999999999962
210
5.7944703675827358e-52
220
1.9259299443872359e-34
230
1
0
CIRCLE
5
266
100
AcDbEntity
8
0
100
AcDbCircle
10
-173.12499999999983
20
-83.859735256472732
30
0
40
0.69999999999999962
210
5.7944703675827358e-52
220
1.9259299443872359e-34
230
1
0
CIRCLE
5
267
100
AcDbEntity
8
0
100
AcDbCircle
10
-15.96249999999992
20
-89.57973525647273
30
0
40
0.69999999999999962
210
5.7944703675827358e-52
220
1.9259299443872359e-34
230
1
0
CIRCLE
5
268
100
AcDbEntity
8
0
100
AcDbCircle
10
-22.562499999999915
20
-89.57973525647273
30
0
40
0.69999999999999962
210
5.7944703675827358e-52
220
1.9259299443872359e-34
230
1
0
CIRCLE
5
269
100
AcDbEntity
8
0
100
AcDbCircle
10
-39.774999999999906
20
-89.57973525647273
30
0
40
0.69999999999999962
210
5.7944703675827358e-52
220
1.9259299443872359e-34
230
1
0
CIRCLE
5
270
100
AcDbEntity
8
0
100
AcDbCircle
10
-46.374999999999893
20
-89.57973525647273
30
0
40
0.69999999999999962
210
5.7944703675827358e-52
220
1.9259299443872359e-34
230
1
0
CIRCLE
5
271
100
AcDbEntity
8
0
100
AcDbCircle
10
-58.824999999999896
20
-89.57973525647273
30
0
40
0.69999999999999962
210
5.7944703675827358e-52
220
1.9259299443872359e-34
230
1
0
CIRCLE
5
272
100
AcDbEntity
8
0
100
AcDbCircle
10
-65.424999999999883
20
-89.57973525647273
30
0
40
0.69999999999999962
210
5.7944703675827358e-52
220
1.9259299443872359e-34
230
1
0
CIRCLE
5
273
100
AcDbEntity
8
0
100
AcDbCircle
10
-77.874999999999886
20
-89.57973525647273
30
0
40
0.69999999999999962
210
5.7944703675827358e-52
220
1.9259299443872359e-34
230
1
0
CIRCLE
5
274
100
AcDbEntity
8
0
100
AcDbCircle
10
-84.474999999999881
20
-89.57973525647273
30
0
40
0.69999999999999962
210
5.7944703675827358e-52
220
1.9259299443872359e-34
230
1
0
CIRCLE
5
275
100
AcDbEntity
8
0
100
AcDbCircle
10
-11.199999999999923
20
-102.90973525647273
30
0
40
0.69999999999999962
210
5.7944703675827358e-52
220
1.9259299443872359e-34
230
1
0
CIRCLE
5
276
100
AcDbEntity
8
0
100
AcDbCircle
10
-17.799999999999919
20
-102.90973525647273
30
0
40
0.69999999999999962
210
5.7944703675827358e-52
220
1.9259299443872359e-34
230
1
0
CIRCLE
5
277
100
AcDbEntity
8
0
100
AcDbCircle
10
-30.249999999999915
20
-102.90973525647273
30
0
40
0.69999999999999962
210
5.7944703675827358e-52
220
1.9259299443872359e-34
230
1
0
CIRCLE
5
278
100
AcDbEntity
8
0
100
AcDbCircle
10
-36.849999999999909
20
-102.90973525647273
30
0
40
0.69999999999999962
210
5.7944703675827358e-52
220
1.9259299443872359e-34
230
1
0
CIRCLE
5
279
100
AcDbEntity
8
0
100
AcDbCircle
10
-49.299999999999898
20
-102.90973525647273
30
0
40
0.69999999999999962
210
5.7944703675827358e-52
220
1.9259299443872359e-34
230
1
0
CIRCLE
5
280
100
AcDbEntity
8
0
100
AcDbCircle
10
-11.199999999999923
20
-108.62973525647271
30
0
40
0.69999999999999962
210
5.7944703675827358e-52
220
1.9259299443872359e-34
230
1
0
CIRCLE
5
281
100
AcDbEntity
8
0
100
AcDbCircle
10
-17.799999999999919
20
-108.62973525647271
30
0
40
0.69999999999999962
210
5.7944703675827358e-52
220
1.9259299443872359e-34
230
1
0
CIRCLE
5
282
100
AcDbEntity
8
0
100
AcDbCircle
10
-30.249999999999915
20
-108.62973525647271
30
0
40
0.69999999999999962
210
5.7944703675827358e-52
220
1.9259299443872359e-34
230
1
0
CIRCLE
5
283
100
AcDbEntity
8
0
100
AcDbCircle
10
-36.849999999999909
20
-108.62973525647271
30
0
40
0.69999999999999962
210
5.7944703675827358e-52
220
1.9259299443872359e-34
230
1
0
CIRCLE
5
284
100
AcDbEntity
8
0
100
AcDbCircle
10
-49.299999999999898
20
-108.62973525647271
30
0
40
0.69999999999999962
210
5.7944703675827358e-52
220
1.9259299443872359e-34
230
1
0
CIRCLE
5
285
100
AcDbEntity
8
0
100
AcDbCircle
10
-55.899999999999892
20
-102.90973525647273
30
0
40
0.69999999999999962
210
5.7944703675827358e-52
220
1.9259299443872359e-34
230
1
0
CIRCLE
5
286
100
AcDbEntity
8
0
100
AcDbCircle
10
-68.349999999999895
20
-102.90973525647273
30
0
40
0.69999999999999962
210
5.7944703675827358e-52
220
1.9259299443872359e-34
230
1
0
CIRCLE
5
287
100
AcDbEntity
8
0
100
AcDbCircle
10
-74.949999999999889
20
-102.90973525647273
30
0
40
0.69999999999999962
210
5.7944703675827358e-52
220
1.9259299443872359e-34
230
1
0
CIRCLE
5
288
100
AcDbEntity
8
0
100
AcDbCircle
10
-87.399999999999878
20
-102.90973525647273
30
0
40
0.69999999999999962
210
5.7944703675827358e-52
220
1.9259299443872359e-34
230
1
0
CIRCLE
5
289
100
AcDbEntity
8
0
100
AcDbCircle
10
-93.999999999999858
20
-102.90973525647273
30
0
40
0.69999999999999962
210
5.7944703675827358e-52
220
1.9259299443872359e-34
230
1
0
CIRCLE
5
290
100
AcDbEntity
8
0
100
AcDbCircle
10
-55.899999999999892
20
-108.62973525647271
30
0
40
0.69999999999999962
210
5.7944703675827358e-52
220
1.9259299443872359e-34
230
1
0
CIRCLE
5
291
100
AcDbEntity
8
0
100
AcDbCircle
10
-68.349999999999895
20
-108.62973525647271
30
0
40
0.69999999999999962
210
5.7944703675827358e-52
220
1.9259299443872359e-34
230
1
0
CIRCLE
5
292
100
AcDbEntity
8
0
100
AcDbCircle
10
-74.949999999999889
20
-108.62973525647271
30
0
40
0.69999999999999962
210
5.7944703675827358e-52
220
1.9259299443872359e-34
230
1
0
CIRCLE
5
293
100
AcDbEntity
8
0
100
AcDbCircle
10
-87.399999999999878
20
-108.62973525647271
30
0
40
0.69999999999999962
210
5.7944703675827358e-52
220
1.9259299443872359e-34
230
1
0
CIRCLE
5
294
100
AcDbEntity
8
0
100
AcDbCircle
10
-93.999999999999858
20
-108.62973525647271
30
0
40
0.69999999999999962
210
5.7944703675827358e-52
220
1.9259299443872359e-34
230
1
0
CIRCLE
5
295
100
AcDbEntity
8
0
100
AcDbCircle
10
-96.924999999999869
20
-89.57973525647273
30
0
40
0.69999999999999962
210
5.7944703675827358e-52
220
1.9259299443872359e-34
230
1
0
CIRCLE
5
296
100
AcDbEntity
8
0
100
AcDbCircle
10
-103.52499999999989
20
-89.57973525647273
30
0
40
0.69999999999999962
210
5.7944703675827358e-52
220
1.9259299443872359e-34
230
1
0
CIRCLE
5
297
100
AcDbEntity
8
0
100
AcDbCircle
10
-115.97499999999985
20
-89.57973525647273
30
0
40
0.69999999999999962
210
5.7944703675827358e-52
220
1.9259299443872359e-34
230
1
0
CIRCLE
5
298
100
AcDbEntity
8
0
100
AcDbCircle
10
-122.57499999999986
20
-89.57973525647273
30
0
40
0.69999999999999962
210
5.7944703675827358e-52
220
1.9259299443872359e-34
230
1
0
CIRCLE
5
299
100
AcDbEntity
8
0
100
AcDbCircle
10
-135.02499999999986
20
-89.57973525647273
30
0
40
0.69999999999999962
210
5.7944703675827358e-52
220
1.9259299443872359e-34
230
1
0
CIRCLE
5
300
100
AcDbEntity
8
0
100
AcDbCircle
10
-141.62499999999983
20
-89.57973525647273
30
0
40
0.69999999999999962
210
5.7944703675827358e-52
220
1.9259299443872359e-34
230
1
0
CIRCLE
5
301
100
AcDbEntity
8
0
100
AcDbCircle
10
-154.07499999999982
20
-89.57973525647273
30
0
40
0.69999999999999962
210
5.7944703675827358e-52
220
1.9259299443872359e-34
230
1
0
CIRCLE
5
302
100
AcDbEntity
8
0
100
AcDbCircle
10
-160.67499999999984
20
-89.57973525647273
30
0
40
0.69999999999999962
210
5.7944703675827358e-52
220
1.9259299443872359e-34
230
1
0
CIRCLE
5
303
100
AcDbEntity
8
0
100
AcDbCircle
10
-173.12499999999983
20
-89.57973525647273
30
0
40
0.69999999999999962
210
5.7944703675827358e-52
220
1.9259299443872359e-34
230
1
0
CIRCLE
5
304
100
AcDbEntity
8
0
100
AcDbCircle
10
-106.44999999999987
20
-102.90973525647273
30
0
40
0.69999999999999962
210
5.7944703675827358e-52
220
1.9259299443872359e-34
230
1
0
CIRCLE
5
305
100
AcDbEntity
8
0
100
AcDbCircle
10
-113.04999999999986
20
-102.90973525647273
30
0
40
0.69999999999999962
210
5.7944703675827358e-52
220
1.9259299443872359e-34
230
1
0
CIRCLE
5
306
100
AcDbEntity
8
0
100
AcDbCircle
10
-125.49999999999986
20
-102.90973525647273
30
0
40
0.69999999999999962
210
5.7944703675827358e-52
220
1.9259299443872359e-34
230
1
0
CIRCLE
5
307
100
AcDbEntity
8
0
100
AcDbCircle
10
-132.09999999999985
20
-102.90973525647273
30
0
40
0.69999999999999962
210
5.7944703675827358e-52
220
1.9259299443872359e-34
230
1
0
CIRCLE
5
308
100
AcDbEntity
8
0
100
AcDbCircle
10
-106.44999999999987
20
-108.62973525647271
30
0
40
0.69999999999999962
210
5.7944703675827358e-52
220
1.9259299443872359e-34
230
1
0
CIRCLE
5
309
100
AcDbEntity
8
0
100
AcDbCircle
10
-113.04999999999986
20
-108.62973525647271
30
0
40
0.69999999999999962
210
5.7944703675827358e-52
220
1.9259299443872359e-34
230
1
0
CIRCLE
5
310
100
AcDbEntity
8
0
100
AcDbCircle
10
-125.49999999999986
20
-108.62973525647271
30
0
40
0.69999999999999962
210
5.7944703675827358e-52
220
1.9259299443872359e-34
230
1
0
CIRCLE
5
311
100
AcDbEntity
8
0
100
AcDbCircle
10
-132.09999999999985
20
-108.62973525647271
30
0
40
0.69999999999999962
210
5.7944703675827358e-52
220
1.9259299443872359e-34
230
1
0
CIRCLE
5
312
100
AcDbEntity
8
0
100
AcDbCircle
10
-144.54999999999987
20
-102.90973525647273
30
0
40
0.69999999999999962
210
5.7944703675827358e-52
220
1.9259299443872359e-34
230
1
0
CIRCLE
5
313
100
AcDbEntity
8
0
100
AcDbCircle
10
-151.14999999999984
20
-102.90973525647273
30
0
40
0.69999999999999962
210
5.7944703675827358e-52
220
1.9259299443872359e-34
230
1
0
CIRCLE
5
314
100
AcDbEntity
8
0
100
AcDbCircle
10
-163.59999999999982
20
-102.90973525647273
30
0
40
0.69999999999999962
210
5.7944703675827358e-52
220
1.9259299443872359e-34
230
1
0
CIRCLE
5
315
100
AcDbEntity
8
0
100
AcDbCircle
10
-170.19999999999982
20
-102.90973525647273
30
0
40
0.69999999999999962
210
5.7944703675827358e-52
220
1.9259299443872359e-34
230
1
0
CIRCLE
5
316
100
AcDbEntity
8
0
100
AcDbCircle
10
-144.54999999999987
20
-108.62973525647271
30
0
40
0.69999999999999962
210
5.7944703675827358e-52
220
1.9259299443872359e-34
230
1
0
CIRCLE
5
317
100
AcDbEntity
8
0
100
AcDbCircle
10
-151.14999999999984
20
-108.62973525647271
30
0
40
0.69999999999999962
210
5.7944703675827358e-52
220
1.9259299443872359e-34
230
1
0
CIRCLE
5
318
100
AcDbEntity
8
0
100
AcDbCircle
10
-163.59999999999982
20
-108.62973525647271
30
0
40
0.69999999999999962
210
5.7944703675827358e-52
220
1.9259299443872359e-34
230
1
0
CIRCLE
5
319
100
AcDbEntity
8
0
100
AcDbCircle
10
-170.19999999999982
20
-108.62973525647271
30
0
40
0.69999999999999962
210
5.7944703675827358e-52
220
1.9259299443872359e-34
230
1
0
CIRCLE
5
320
100
AcDbEntity
8
0
100
AcDbCircle
10
-184.48749999999984
20
-70.529735256472733
30
0
40
0.69999999999999962
210
5.7944703675827358e-52
220
1.9259299443872359e-34
230
1
0
CIRCLE
5
321
100
AcDbEntity
8
0
100
AcDbCircle
10
-196.93749999999983
20
-70.529735256472733
30
0
40
0.69999999999999962
210
5.7944703675827358e-52
220
1.9259299443872359e-34
230
1
0
CIRCLE
5
322
100
AcDbEntity
8
0
100
AcDbCircle
10
-203.53749999999977
20
-70.529735256472733
30
0
40
0.69999999999999962
210
5.7944703675827358e-52
220
1.9259299443872359e-34
230
1
0
CIRCLE
5
323
100
AcDbEntity
8
0
100
AcDbCircle
10
-215.98749999999981
20
-70.529735256472733
30
0
40
0.69999999999999962
210
5.7944703675827358e-52
220
1.9259299443872359e-34
230
1
0
CIRCLE
5
324
100
AcDbEntity
8
0
100
AcDbCircle
10
-222.58749999999981
20
-70.529735256472733
30
0
40
0.69999999999999962
210
5.7944703675827358e-52
220
1.9259299443872359e-34
230
1
0
CIRCLE
5
325
100
AcDbEntity
8
0
100
AcDbCircle
10
-235.0374999999998
20
-70.529735256472733
30
0
40
0.69999999999999962
210
5.7944703675827358e-52
220
1.9259299443872359e-34
230
1
0
CIRCLE
5
326
100
AcDbEntity
8
0
100
AcDbCircle
10
-241.63749999999979
20
-70.529735256472733
30
0
40
0.69999999999999962
210
5.7944703675827358e-52
220
1.9259299443872359e-34
230
1
0
CIRCLE
5
327
100
AcDbEntity
8
0
100
AcDbCircle
10
-254.08749999999981
20
-70.529735256472733
30
0
40
0.69999999999999962
210
5.7944703675827358e-52
220
1.9259299443872359e-34
230
1
0
CIRCLE
5
328
100
AcDbEntity
8
0
100
AcDbCircle
10
-260.68749999999977
20
-70.529735256472733
30
0
40
0.69999999999999962
210
5.7944703675827358e-52
220
1.9259299443872359e-34
230
1
0
CIRCLE
5
329
100
AcDbEntity
8
0
100
AcDbCircle
10
-179.72499999999982
20
-83.859735256472732
30
0
40
0.69999999999999962
210
5.7944703675827358e-52
220
1.9259299443872359e-34
230
1
0
CIRCLE
5
330
100
AcDbEntity
8
0
100
AcDbCircle
10
-192.17499999999984
20
-83.859735256472732
30
0
40
0.69999999999999962
210
5.7944703675827358e-52
220
1.9259299443872359e-34
230
1
0
CIRCLE
5
331
100
AcDbEntity
8
0
100
AcDbCircle
10
-198.77499999999984
20
-83.859735256472732
30
0
40
0.69999999999999962
210
5.7944703675827358e-52
220
1.9259299443872359e-34
230
1
0
CIRCLE
5
332
100
AcDbEntity
8
0
100
AcDbCircle
10
-211.22499999999977
20
-83.859735256472732
30
0
40
0.69999999999999962
210
5.7944703675827358e-52
220
1.9259299443872359e-34
230
1
0
CIRCLE
5
333
100
AcDbEntity
8
0
100
AcDbCircle
10
-217.82499999999976
20
-83.859735256472732
30
0
40
0.69999999999999962
210
5.7944703675827358e-52
220
1.9259299443872359e-34
230
1
0
CIRCLE
5
334
100
AcDbEntity
8
0
100
AcDbCircle
10
-230.27499999999978
20
-83.859735256472732
30
0
40
0.69999999999999962
210
5.7944703675827358e-52
220
1.9259299443872359e-34
230
1
0
CIRCLE
5
335
100
AcDbEntity
8
0
100
AcDbCircle
10
-236.87499999999977
20
-83.859735256472732
30
0
40
0.69999999999999962
210
5.7944703675827358e-52
220
1.9259299443872359e-34
230
1
0
CIRCLE
5
336
100
AcDbEntity
8
0
100
AcDbCircle
10
-249.32499999999979
20
-83.859735256472732
30
0
40
0.69999999999999962
210
5.7944703675827358e-52
220
1.9259299443872359e-34
230
1
0
CIRCLE
5
337
100
AcDbEntity
8
0
100
AcDbCircle
10
-255.92499999999976
20
-83.859735256472732
30
0
40
0.69999999999999962
210
5.7944703675827358e-52
220
1.9259299443872359e-34
230
1
0
CIRCLE
5
338
100
AcDbEntity
8
0
100
AcDbCircle
10
-278.1599999999998
20
-76.114735256472727
30
0
40
0.69999999999999962
210
5.7944703675827358e-52
220
1.9259299443872359e-34
230
1
0
CIRCLE
5
339
100
AcDbEntity
8
0
100
AcDbCircle
10
-283.87999999999977
20
-76.114735256472727
30
0
40
0.69999999999999962
210
5.7944703675827358e-52
220
1.9259299443872359e-34
230
1
0
CIRCLE
5
340
100
AcDbEntity
8
0
100
AcDbCircle
10
-310.02999999999969
20
-67.789735256472738
30
0
40
0.44999999999999979
210
7.7037197775489451e-34
220
1.9259299443872359e-34
230
1
0
CIRCLE
5
341
100
AcDbEntity
8
0
100
AcDbCircle
10
-310.02999999999969
20
-70.789735256472724
30
0
40
0.44999999999999979
210
7.7037197775489451e-34
220
1.9259299443872359e-34
230
1
0
CIRCLE
5
342
100
AcDbEntity
8
0
100
AcDbCircle
10
-278.1599999999998
20
-82.714735256472736
30
0
40
0.69999999999999962
210
5.7944703675827358e-52
220
1.9259299443872359e-34
230
1
0
CIRCLE
5
343
100
AcDbEntity
8
0
100
AcDbCircle
10
-283.87999999999977
20
-82.714735256472736
30
0
40
0.69999999999999962
210
5.7944703675827358e-52
220
1.9259299443872359e-34
230
1
0
CIRCLE
5
344
100
AcDbEntity
8
0
100
AcDbCircle
10
-301.71249999999975
20
-83.859735256472732
30
0
40
0.69999999999999962
210
5.7944703675827358e-52
220
1.9259299443872359e-34
230
1
0
CIRCLE
5
345
100
AcDbEntity
8
0
100
AcDbCircle
10
-308.31249999999972
20
-83.859735256472732
30
0
40
0.69999999999999962
210
5.7944703675827358e-52
220
1.9259299443872359e-34
230
1
0
CIRCLE
5
346
100
AcDbEntity
8
0
100
AcDbCircle
10
-320.76249999999965
20
-83.859735256472732
30
0
40
0.69999999999999962
210
5.7944703675827358e-52
220
1.9259299443872359e-34
230
1
0
CIRCLE
5
347
100
AcDbEntity
8
0
100
AcDbCircle
10
-327.36249999999973
20
-83.859735256472732
30
0
40
0.69999999999999962
210
5.7944703675827358e-52
220
1.9259299443872359e-34
230
1
0
CIRCLE
5
348
100
AcDbEntity
8
0
100
AcDbCircle
10
-339.81249999999966
20
-83.859735256472732
30
0
40
0.69999999999999962
210
5.7944703675827358e-52
220
1.9259299443872359e-34
230
1
0
CIRCLE
5
349
100
AcDbEntity
8
0
100
AcDbCircle
10
-346.41249999999968
20
-83.859735256472732
30
0
40
0.69999999999999962
210
5.7944703675827358e-52
220
1.9259299443872359e-34
230
1
0
CIRCLE
5
350
100
AcDbEntity
8
0
100
AcDbCircle
10
-179.72499999999982
20
-89.57973525647273
30
0
40
0.69999999999999962
210
5.7944703675827358e-52
220
1.9259299443872359e-34
230
1
0
CIRCLE
5
351
100
AcDbEntity
8
0
100
AcDbCircle
10
-192.17499999999984
20
-89.57973525647273
30
0
40
0.69999999999999962
210
5.7944703675827358e-52
220
1.9259299443872359e-34
230
1
0
CIRCLE
5
352
100
AcDbEntity
8
0
100
AcDbCircle
10
-198.77499999999984
20
-89.57973525647273
30
0
40
0.69999999999999962
210
5.7944703675827358e-52
220
1.9259299443872359e-34
230
1
0
CIRCLE
5
353
100
AcDbEntity
8
0
100
AcDbCircle
10
-211.22499999999977
20
-89.57973525647273
30
0
40
0.69999999999999962
210
5.7944703675827358e-52
220
1.9259299443872359e-34
230
1
0
CIRCLE
5
354
100
AcDbEntity
8
0
100
AcDbCircle
10
-217.82499999999976
20
-89.57973525647273
30
0
40
0.69999999999999962
210
5.7944703675827358e-52
220
1.9259299443872359e-34
230
1
0
CIRCLE
5
355
100
AcDbEntity
8
0
100
AcDbCircle
10
-230.27499999999978
20
-89.57973525647273
30
0
40
0.69999999999999962
210
5.7944703675827358e-52
220
1.9259299443872359e-34
230
1
0
CIRCLE
5
356
100
AcDbEntity
8
0
100
AcDbCircle
10
-236.87499999999977
20
-89.57973525647273
30
0
40
0.69999999999999962
210
5.7944703675827358e-52
220
1.9259299443872359e-34
230
1
0
CIRCLE
5
357
100
AcDbEntity
8
0
100
AcDbCircle
10
-249.32499999999979
20
-89.57973525647273
30
0
40
0.69999999999999962
210
5.7944703675827358e-52
220
1.9259299443872359e-34
230
1
0
CIRCLE
5
358
100
AcDbEntity
8
0
100
AcDbCircle
10
-255.92499999999976
20
-89.57973525647273
30
0
40
0.69999999999999962
210
5.7944703675827358e-52
220
1.9259299443872359e-34
230
1
0
CIRCLE
5
359
100
AcDbEntity
8
0
100
AcDbCircle
10
-182.64999999999984
20
-102.90973525647273
30
0
40
0.69999999999999962
210
5.7944703675827358e-52
220
1.9259299443872359e-34
230
1
0
CIRCLE
5
360
100
AcDbEntity
8
0
100
AcDbCircle
10
-189.24999999999983
20
-102.90973525647273
30
0
40
0.69999999999999962
210
5.7944703675827358e-52
220
1.9259299443872359e-34
230
1
0
CIRCLE
5
361
100
AcDbEntity
8
0
100
AcDbCircle
10
-201.69999999999976
20
-102.90973525647273
30
0
40
0.69999999999999962
210
5.7944703675827358e-52
220
1.9259299443872359e-34
230
1
0
CIRCLE
5
362
100
AcDbEntity
8
0
100
AcDbCircle
10
-208.29999999999981
20
-102.90973525647273
30
0
40
0.69999999999999962
210
5.7944703675827358e-52
220
1.9259299443872359e-34
230
1
0
CIRCLE
5
363
100
AcDbEntity
8
0
100
AcDbCircle
10
-220.74999999999977
20
-102.90973525647273
30
0
40
0.69999999999999962
210
5.7944703675827358e-52
220
1.9259299443872359e-34
230
1
0
CIRCLE
5
364
100
AcDbEntity
8
0
100
AcDbCircle
10
-182.64999999999984
20
-108.62973525647271
30
0
40
0.69999999999999962
210
5.7944703675827358e-52
220
1.9259299443872359e-34
230
1
0
CIRCLE
5
365
100
AcDbEntity
8
0
100
AcDbCircle
10
-189.24999999999983
20
-108.62973525647271
30
0
40
0.69999999999999962
210
5.7944703675827358e-52
220
1.9259299443872359e-34
230
1
0
CIRCLE
5
366
100
AcDbEntity
8
0
100
AcDbCircle
10
-201.69999999999976
20
-108.62973525647271
30
0
40
0.69999999999999962
210
5.7944703675827358e-52
220
1.9259299443872359e-34
230
1
0
CIRCLE
5
367
100
AcDbEntity
8
0
100
AcDbCircle
10
-208.29999999999981
20
-108.62973525647271
30
0
40
0.69999999999999962
210
5.7944703675827358e-52
220
1.9259299443872359e-34
230
1
0
CIRCLE
5
368
100
AcDbEntity
8
0
100
AcDbCircle
10
-220.74999999999977
20
-108.62973525647271
30
0
40
0.69999999999999962
210
5.7944703675827358e-52
220
1.9259299443872359e-34
230
1
0
CIRCLE
5
369
100
AcDbEntity
8
0
100
AcDbCircle
10
-227.3499999999998
20
-102.90973525647273
30
0
40
0.69999999999999962
210
5.7944703675827358e-52
220
1.9259299443872359e-34
230
1
0
CIRCLE
5
370
100
AcDbEntity
8
0
100
AcDbCircle
10
-239.79999999999978
20
-102.90973525647273
30
0
40
0.69999999999999962
210
5.7944703675827358e-52
220
1.9259299443872359e-34
230
1
0
CIRCLE
5
371
100
AcDbEntity
8
0
100
AcDbCircle
10
-246.39999999999981
20
-102.90973525647273
30
0
40
0.69999999999999962
210
5.7944703675827358e-52
220
1.9259299443872359e-34
230
1
0
CIRCLE
5
372
100
AcDbEntity
8
0
100
AcDbCircle
10
-258.8499999999998
20
-102.90973525647273
30
0
40
0.69999999999999962
210
5.7944703675827358e-52
220
1.9259299443872359e-34
230
1
0
CIRCLE
5
373
100
AcDbEntity
8
0
100
AcDbCircle
10
-227.3499999999998
20
-108.62973525647271
30
0
40
0.69999999999999962
210
5.7944703675827358e-52
220
1.9259299443872359e-34
230
1
0
CIRCLE
5
374
100
AcDbEntity
8
0
100
AcDbCircle
10
-239.79999999999978
20
-108.62973525647271
30
0
40
0.69999999999999962
210
5.7944703675827358e-52
220
1.9259299443872359e-34
230
1
0
CIRCLE
5
375
100
AcDbEntity
8
0
100
AcDbCircle
10
-246.39999999999981
20
-108.62973525647271
30
0
40
0.69999999999999962
210
5.7944703675827358e-52
220
1.9259299443872359e-34
230
1
0
CIRCLE
5
376
100
AcDbEntity
8
0
100
AcDbCircle
10
-258.8499999999998
20
-108.62973525647271
30
0
40
0.69999999999999962
210
5.7944703675827358e-52
220
1.9259299443872359e-34
230
1
0
CIRCLE
5
377
100
AcDbEntity
8
0
100
AcDbCircle
10
-301.71249999999975
20
-89.57973525647273
30
0
40
0.69999999999999962
210
5.7944703675827358e-52
220
1.9259299443872359e-34
230
1
0
CIRCLE
5
378
100
AcDbEntity
8
0
100
AcDbCircle
10
-308.31249999999972
20
-89.57973525647273
30
0
40
0.69999999999999962
210
5.7944703675827358e-52
220
1.9259299443872359e-34
230
1
0
CIRCLE
5
379
100
AcDbEntity
8
0
100
AcDbCircle
10
-320.76249999999965
20
-89.57973525647273
30
0
40
0.69999999999999962
210
5.7944703675827358e-52
220
1.9259299443872359e-34
230
1
0
CIRCLE
5
380
100
AcDbEntity
8
0
100
AcDbCircle
10
-327.36249999999973
20
-89.57973525647273
30
0
40
0.69999999999999962
210
5.7944703675827358e-52
220
1.9259299443872359e-34
230
1
0
CIRCLE
5
381
100
AcDbEntity
8
0
100
AcDbCircle
10
-339.81249999999966
20
-89.57973525647273
30
0
40
0.69999999999999962
210
5.7944703675827358e-52
220
1.9259299443872359e-34
230
1
0
CIRCLE
5
382
100
AcDbEntity
8
0
100
AcDbCircle
10
-346.41249999999968
20
-89.57973525647273
30
0
40
0.69999999999999962
210
5.7944703675827358e-52
220
1.9259299443872359e-34
230
1
0
CIRCLE
5
383
100
AcDbEntity
8
0
100
AcDbCircle
10
-265.4499999999997
20
-102.90973525647273
30
0
40
0.69999999999999962
210
5.7944703675827358e-52
220
1.9259299443872359e-34
230
1
0
CIRCLE
5
384
100
AcDbEntity
8
0
100
AcDbCircle
10
-268.37499999999977
20
-102.90973525647273
30
0
40
0.69999999999999962
210
5.7944703675827358e-52
220
1.9259299443872359e-34
230
1
0
CIRCLE
5
385
100
AcDbEntity
8
0
100
AcDbCircle
10
-274.9749999999998
20
-102.90973525647273
30
0
40
0.69999999999999962
210
5.7944703675827358e-52
220
1.9259299443872359e-34
230
1
0
CIRCLE
5
386
100
AcDbEntity
8
0
100
AcDbCircle
10
-277.89999999999975
20
-102.90973525647273
30
0
40
0.69999999999999962
210
5.7944703675827358e-52
220
1.9259299443872359e-34
230
1
0
CIRCLE
5
387
100
AcDbEntity
8
0
100
AcDbCircle
10
-284.49999999999977
20
-102.90973525647273
30
0
40
0.69999999999999962
210
5.7944703675827358e-52
220
1.9259299443872359e-34
230
1
0
CIRCLE
5
388
100
AcDbEntity
8
0
100
AcDbCircle
10
-301.71249999999975
20
-102.90973525647273
30
0
40
0.69999999999999962
210
5.7944703675827358e-52
220
1.9259299443872359e-34
230
1
0
CIRCLE
5
389
100
AcDbEntity
8
0
100
AcDbCircle
10
-265.4499999999997
20
-108.62973525647271
30
0
40
0.69999999999999962
210
5.7944703675827358e-52
220
1.9259299443872359e-34
230
1
0
CIRCLE
5
390
100
AcDbEntity
8
0
100
AcDbCircle
10
-268.37499999999977
20
-108.62973525647271
30
0
40
0.69999999999999962
210
5.7944703675827358e-52
220
1.9259299443872359e-34
230
1
0
CIRCLE
5
391
100
AcDbEntity
8
0
100
AcDbCircle
10
-274.9749999999998
20
-108.62973525647271
30
0
40
0.69999999999999962
210
5.7944703675827358e-52
220
1.9259299443872359e-34
230
1
0
CIRCLE
5
392
100
AcDbEntity
8
0
100
AcDbCircle
10
-277.89999999999975
20
-108.62973525647271
30
0
40
0.69999999999999962
210
5.7944703675827358e-52
220
1.9259299443872359e-34
230
1
0
CIRCLE
5
393
100
AcDbEntity
8
0
100
AcDbCircle
10
-284.49999999999977
20
-108.62973525647271
30
0
40
0.69999999999999962
210
5.7944703675827358e-52
220
1.9259299443872359e-34
230
1
0
CIRCLE
5
394
100
AcDbEntity
8
0
100
AcDbCircle
10
-301.71249999999975
20
-108.62973525647271
30
0
40
0.69999999999999962
210
5.7944703675827358e-52
220
1.9259299443872359e-34
230
1
0
CIRCLE
5
395
100
AcDbEntity
8
0
100
AcDbCircle
10
-308.31249999999972
20
-102.90973525647273
30
0
40
0.69999999999999962
210
5.7944703675827358e-52
220
1.9259299443872359e-34
230
1
0
CIRCLE
5
396
100
AcDbEntity
8
0
100
AcDbCircle
10
-320.76249999999965
20
-102.90973525647273
30
0
40
0.69999999999999962
210
5.7944703675827358e-52
220
1.9259299443872359e-34
230
1
0
CIRCLE
5
397
100
AcDbEntity
8
0
100
AcDbCircle
10
-327.36249999999973
20
-102.90973525647273
30
0
40
0.69999999999999962
210
5.7944703675827358e-52
220
1.9259299443872359e-34
230
1
0
CIRCLE
5
398
100
AcDbEntity
8
0
100
AcDbCircle
10
-339.81249999999966
20
-102.90973525647273
30
0
40
0.69999999999999962
210
5.7944703675827358e-52
220
1.9259299443872359e-34
230
1
0
CIRCLE
5
399
100
AcDbEntity
8
0
100
AcDbCircle
10
-346.41249999999968
20
-102.90973525647273
30
0
40
0.69999999999999962
210
5.7944703675827358e-52
220
1.9259299443872359e-34
230
1
0
CIRCLE
5
400
100
AcDbEntity
8
0
100
AcDbCircle
10
-308.31249999999972
20
-108.62973525647271
30
0
40
0.69999999999999962
210
5.7944703675827358e-52
220
1.9259299443872359e-34
230
1
0
CIRCLE
5
401
100
AcDbEntity
8
0
100
AcDbCircle
10
-320.76249999999965
20
-108.62973525647271
30
0
40
0.69999999999999962
210
5.7944703675827358e-52
220
1.9259299443872359e-34
230
1
0
CIRCLE
5
402
100
AcDbEntity
8
0
100
AcDbCircle
10
-327.36249999999973
20
-108.62973525647271
30
0
40
0.69999999999999962
210
5.7944703675827358e-52
220
1.9259299443872359e-34
230
1
0
CIRCLE
5
403
100
AcDbEntity
8
0
100
AcDbCircle
10
-339.81249999999966
20
-108.62973525647271
30
0
40
0.69999999999999962
210
5.7944703675827358e-52
220
1.9259299443872359e-34
230
1
0
CIRCLE
5
404
100
AcDbEntity
8
0
100
AcDbCircle
10
-346.41249999999968
20
-108.62973525647271
30
0
40
0.69999999999999962
210
5.7944703675827358e-52
220
1.9259299443872359e-34
230
1
0
ELLIPSE
5
405
100
AcDbEntity
8
0
100
AcDbEllipse
10
-157.80624999999949
20
-113.31711055058092
30
0
11
-2.850000000000001
21
-2.8477220581635272e-15
31
0.0
40
0.99144486137380827
41
0
42
6.2831853071795862
0
ELLIPSE
5
406
100
AcDbEntity
8
0
100
AcDbEllipse
10
-195.80624999999955
20
-113.31711055058099
30
0
11
-2.8500000000000063
21
1.6565555568518476e-13
31
0.0
40
0.99144486137380783
41
0
42
6.2831853071795862
0
LINE
5
407
100
AcDbEntity
8
0
100
AcDbLine
10
-199.80624999999952
20
-113.31711055058099
30
0
11
-199.80624999999949
21
-116.72097525647257
31
0
0
LINE
5
408
100
AcDbEntity
8
0
100
AcDbLine
10
-191.80624999999952
20
-113.31711055058099
30
0
11
-191.80624999999952
21
-116.72097525647257
31
0
0
ARC
5
409
100
AcDbEntity
8
0
100
AcDbCircle
10
-195.80624999999955
20
-113.31711055058099
30
0
40
4.0000000000000213
210
0
220
0
230
1
100
AcDbArc
50
0
51
180
0
LINE
5
410
100
AcDbEntity
8
0
100
AcDbLine
10
-157.80624999999949
20
-113.31711055058092
30
0
11
-195.80624999999955
21
-113.31711055058099
31
0
0
LINE
5
411
100
AcDbEntity
8
0
100
AcDbLine
10
-176.80624999999952
20
-113.31711055058095
30
0
11
-176.80624999999952
21
-125.38399722802028
31
0
0
LINE
5
412
100
AcDbEntity
8
0
100
AcDbLine
10
-161.80624999999952
20
-113.31711055058099
30
0
11
-161.80624999999952
21
-116.72097525647257
31
0
0
ARC
5
413
100
AcDbEntity
8
0
100
AcDbCircle
10
-157.80624999999952
20
-113.31711055058099
30
0
40
3.9999999999999858
210
0
220
0
230
1
100
AcDbArc
50
0
51
180
0
LINE
5
414
100
AcDbEntity
8
0
100
AcDbLine
10
-153.80624999999952
20
-113.31711055058099
30
0
11
-153.80624999999955
21
-116.72097525647257
31
0
0
ENDSEC
0
SECTION
2
OBJECTS
0
DICTIONARY
5
C
100
AcDbDictionary
3
ACAD_GROUP
350
D
3
ACAD_MLINESTYLE
350
17
0
DICTIONARY
5
D
100
AcDbDictionary
0
DICTIONARY
5
1A
330
C
100
AcDbDictionary
0
DICTIONARY
5
17
100
AcDbDictionary
0
ENDSEC
0
EOF
