0
SECTION
2
HEADER
9
$INSUNITS
70
4
9
$ACADVER
1
AC1014
9
$HANDSEED
5
FFFF
0
ENDSEC
0
SECTION
2
TABLES
0
TABLE
2
VPORT
5
8
100
AcDbSymbolTable
0
ENDTAB
0
TABLE
2
LTYPE
5
5
100
AcDbSymbolTable
0
LTYPE
5
14
100
AcDbSymbolTableRecord
100
AcDbLinetypeTableRecord
2
BYBLOCK
70
0
0
LTYPE
5
15
100
AcDbSymbolTableRecord
100
AcDbLinetypeTableRecord
2
BYLAYER
70
0
0
ENDTAB
0
TABLE
2
LAYER
5
2
100
AcDbSymbolTable
70
2
0
LAYER
5
50
100
AcDbSymbolTableRecord
100
AcDbLayerTableRecord
2
0
70
0
6
CONTINUOUS
0
ENDTAB
0
TABLE
2
STYLE
5
3
100
AcDbSymbolTable
70
1
0
STYLE
5
11
100
AcDbSymbolTableRecord
100
AcDbTextStyleTableRecord
2
STANDARD
70
0
0
ENDTAB
0
TABLE
2
VIEW
5
6
100
AcDbSymbolTable
70
0
0
ENDTAB
0
TABLE
2
UCS
5
7
100
AcDbSymbolTable
70
0
0
ENDTAB
0
TABLE
2
APPID
5
9
100
AcDbSymbolTable
70
2
0
APPID
5
12
100
AcDbSymbolTableRecord
100
AcDbRegAppTableRecord
2
ACAD
70
0
0
ENDTAB
0
TABLE
2
DIMSTYLE
5
A
100
AcDbSymbolTable
70
1
0
ENDTAB
0
TABLE
2
BLOCK_RECORD
5
1
100
AcDbSymbolTable
70
1
0
BLOCK_RECORD
5
1F
100
AcDbSymbolTableRecord
100
AcDbBlockTableRecord
2
*MODEL_SPACE
0
BLOCK_RECORD
5
1B
100
AcDbSymbolTableRecord
100
AcDbBlockTableRecord
2
*PAPER_SPACE
0
ENDTAB
0
ENDSEC
0
SECTION
2
BLOCKS
0
BLOCK
5
20
100
AcDbEntity
100
AcDbBlockBegin
2
*MODEL_SPACE
0
ENDBLK
5
21
100
AcDbEntity
100
AcDbBlockEnd
0
BLOCK
5
1C
100
AcDbEntity
100
AcDbBlockBegin
2
*PAPER_SPACE
0
ENDBLK
5
1D
100
AcDbEntity
100
AcDbBlockEnd
0
ENDSEC
0
SECTION
2
ENTITIES
0
ARC
5
100
100
AcDbEntity
8
0
100
AcDbCircle
10
-157.65999999999994
20
-27.956608637161079
30
0
40
2.0000000000000284
210
0
220
-0
230
1
100
AcDbArc
50
0
51
90.000003931083356
0
LINE
5
101
100
AcDbEntity
8
0
100
AcDbLine
10
-157.66000013722063
20
-25.956608637161054
30
0
11
-176.27686455767329
21
-25.956609914471102
31
0
0
ARC
5
102
100
AcDbEntity
8
0
100
AcDbCircle
10
-176.27686469489404
20
-23.956609914471105
30
0
40
2.0000000000000022
210
0
220
0
230
1
100
AcDbArc
50
224.9999994702271
51
270.00000393108496
0
LINE
5
103
100
AcDbEntity
8
0
100
AcDbLine
10
-177.69107827034335
20
-25.370823463767984
30
0
11
-182.27216672585993
21
-20.789734923535399
31
0
0
LINE
5
104
100
AcDbEntity
8
0
100
AcDbLine
10
-182.27216672585993
20
-20.789734923535399
30
0
11
-182.8579635623733
21
-20.20394881884588
31
0
0
ARC
5
105
100
AcDbEntity
8
0
100
AcDbCircle
10
-181.44375000000008
20
-18.789735256472795
30
0
40
2.0000000000000639
210
0
220
0
230
1
100
AcDbArc
50
180
51
224.99999999999724
0
LINE
5
106
100
AcDbEntity
8
0
100
AcDbLine
10
-183.44375000000014
20
-18.78973525647277
30
0
11
-183.44374999999999
21
-18.439735256472638
31
0
0
ARC
5
107
100
AcDbEntity
8
0
100
AcDbCircle
10
-185.44375000000005
20
-18.439735256472709
30
0
40
2.0000000000000639
210
0
220
-0
230
1
100
AcDbArc
50
0
51
89.99999999999838
0
LINE
5
108
100
AcDbEntity
8
0
100
AcDbLine
10
-185.44374999999999
20
-16.439735256472648
30
0
11
-186.44374999999999
21
-16.439735256472623
31
0
0
ARC
5
109
100
AcDbEntity
8
0
100
AcDbCircle
10
-186.44374999999999
20
-18.43973525647262
30
0
40
1.9999999999999951
210
0
220
-0
230
1
100
AcDbArc
50
90
51
180
0
LINE
5
110
100
AcDbEntity
8
0
100
AcDbLine
10
-188.44374999999999
20
-18.439735256472638
30
0
11
-188.44374999999997
21
-18.789735256472646
31
0
0
ARC
5
111
100
AcDbEntity
8
0
100
AcDbCircle
10
-190.44375000000002
20
-18.789735256472571
30
0
40
2.0000000000000617
210
0
220
0
230
1
100
AcDbArc
50
270.0000000000008
51
360
0
LINE
5
112
100
AcDbEntity
8
0
100
AcDbLine
10
-190.44374999999999
20
-20.789735256472635
30
0
11
-238.987631582592
21
-20.789735256472657
31
0
0
ARC
5
113
100
AcDbEntity
8
0
100
AcDbCircle
10
-238.98763158259209
20
-22.789735256472504
30
0
40
1.9999999999998463
210
0
220
-0
230
1
100
AcDbArc
50
89.999999999997556
51
118.35763657635204
0
ARC
5
114
100
AcDbEntity
8
0
100
AcDbCircle
10
-241.36249999999984
20
-18.389735256472576
30
0
40
3.0000000000001616
210
0
220
0
230
1
100
AcDbArc
50
241.64236342366158
51
298.35763657631549
0
ARC
5
115
100
AcDbEntity
8
0
100
AcDbCircle
10
-243.73736841740805
20
-22.789735256472717
30
0
40
2.0000000000002638
210
0
220
-0
230
1
100
AcDbArc
50
61.642363423673849
51
89.99999999999838
0
LINE
5
116
100
AcDbEntity
8
0
100
AcDbLine
10
-243.73736841740799
20
-20.789735256472447
30
0
11
-261.22187500000001
21
-20.789735256472635
31
0
0
ARC
5
117
100
AcDbEntity
8
0
100
AcDbCircle
10
-261.22187500000001
20
-18.789735256472653
30
0
40
1.9999999999999929
210
0
220
0
230
1
100
AcDbArc
50
180
51
270
0
LINE
5
118
100
AcDbEntity
8
0
100
AcDbLine
10
-263.22187500000001
20
-18.789735256472635
30
0
11
-263.22187500000001
21
-18.43973525647263
31
0
0
ARC
5
119
100
AcDbEntity
8
0
100
AcDbCircle
10
-265.22187500000001
20
-18.439735256472609
30
0
40
1.9999999999999929
210
-0
220
0
230
1
100
AcDbArc
50
0
51
90
0
LINE
5
120
100
AcDbEntity
8
0
100
AcDbLine
10
-265.22187500000001
20
-16.43973525647262
30
0
11
-266.22187500000001
21
-16.439735256472616
31
0
0
ARC
5
121
100
AcDbEntity
8
0
100
AcDbCircle
10
-266.22187500000001
20
-18.439735256472613
30
0
40
1.9999999999999951
210
0
220
-0
230
1
100
AcDbArc
50
90
51
180
0
LINE
5
122
100
AcDbEntity
8
0
100
AcDbLine
10
-268.22187500000001
20
-18.439735256472627
30
0
11
-268.22187500000001
21
-18.789735256472639
31
0
0
ARC
5
123
100
AcDbEntity
8
0
100
AcDbCircle
10
-270.22187500000001
20
-18.789735256472657
30
0
40
1.9999999999999685
210
0
220
0
230
1
100
AcDbArc
50
-90
51
0
0
LINE
5
124
100
AcDbEntity
8
0
100
AcDbLine
10
-270.22187500000001
20
-20.789735256472625
30
0
11
-329.08749999999998
21
-20.789735256472582
31
0
0
ARC
5
125
100
AcDbEntity
8
0
100
AcDbCircle
10
-329.08750000000003
20
-18.789735256472632
30
0
40
1.9999999999999574
210
0
220
0
230
1
100
AcDbArc
50
180
51
270.00000000000159
0
LINE
5
126
100
AcDbEntity
8
0
100
AcDbLine
10
-331.08749999999998
20
-18.789735256472628
30
0
11
-331.08749999999998
21
-18.439735256472616
31
0
0
ARC
5
127
100
AcDbEntity
8
0
100
AcDbCircle
10
-333.08750000000003
20
-18.439735256472712
30
0
40
2.0000000000000284
210
0
220
-0
230
1
100
AcDbArc
50
0
51
89.99999999999838
0
LINE
5
128
100
AcDbEntity
8
0
100
AcDbLine
10
-333.08749999999998
20
-16.439735256472662
30
0
11
-334.08749999999998
21
-16.439735256472623
31
0
0
ARC
5
129
100
AcDbEntity
8
0
100
AcDbCircle
10
-334.08750000000003
20
-18.439735256472652
30
0
40
2.0000000000000284
210
0
220
-0
230
1
100
AcDbArc
50
89.99999999999838
51
180
0
LINE
5
130
100
AcDbEntity
8
0
100
AcDbLine
10
-336.08750000000009
20
-18.439735256472616
30
0
11
-336.08749999999998
21
-18.789735256472628
31
0
0
ARC
5
131
100
AcDbEntity
8
0
100
AcDbCircle
10
-338.08749999999998
20
-18.789735256472675
30
0
40
1.9999999999999418
210
0
220
0
230
1
100
AcDbArc
50
-90
51
0
0
LINE
5
132
100
AcDbEntity
8
0
100
AcDbLine
10
-338.08749999999998
20
-20.789735256472618
30
0
11
-343.98763158259209
21
-20.789735256472653
31
0
0
ARC
5
133
100
AcDbEntity
8
0
100
AcDbCircle
10
-343.98763158259203
20
-22.789735256472685
30
0
40
2.0000000000000329
210
0
220
0
230
1
100
AcDbArc
50
90.000000000001634
51
118.35763657632614
0
ARC
5
134
100
AcDbEntity
8
0
100
AcDbCircle
10
-346.36249999999995
20
-18.389735256472242
30
0
40
3.0000000000005533
210
0
220
0
230
1
100
AcDbArc
50
241.64236342366692
51
298.35763657633095
0
ARC
5
135
100
AcDbEntity
8
0
100
AcDbCircle
10
-348.73736841740788
20
-22.789735256471939
30
0
40
1.999999999999329
210
0
220
-0
230
1
100
AcDbArc
50
61.642363423666922
51
90.000000000003254
0
LINE
5
136
100
AcDbEntity
8
0
100
AcDbLine
10
-348.73736841740799
20
-20.789735256472611
30
0
11
-352.11250000000001
21
-20.789735256472607
31
0
0
ARC
5
137
100
AcDbEntity
8
0
100
AcDbCircle
10
-352.11249999999995
20
-22.789735256472706
30
0
40
2.0000000000000995
210
0
220
0
230
1
100
AcDbArc
50
90.000000000001634
51
180
0
LINE
5
138
100
AcDbEntity
8
0
100
AcDbLine
10
-354.11250000000001
20
-22.789735256472603
30
0
11
-354.11250000000001
21
-116.9897352564727
31
0
0
ARC
5
139
100
AcDbEntity
8
0
100
AcDbCircle
10
-352.11250000000001
20
-116.98973525647256
30
0
40
2.0000000000000284
210
0
220
0
230
1
100
AcDbArc
50
180
51
270
0
LINE
5
140
100
AcDbEntity
8
0
100
AcDbLine
10
-352.11250000000001
20
-118.98973525647258
30
0
11
-348.737368417406
21
-118.9897352564721
31
0
0
ARC
5
141
100
AcDbEntity
8
0
100
AcDbCircle
10
-348.73736841740595
20
-116.9897352564715
30
0
40
2.0000000000005969
210
0
220
0
230
1
100
AcDbArc
50
269.99999999999835
51
298.35763657628758
0
ARC
5
142
100
AcDbEntity
8
0
100
AcDbCircle
10
-346.36249999999984
20
-121.38973525647285
30
0
40
2.9999999999998699
210
0
220
-0
230
1
100
AcDbArc
50
61.642363423685872
51
118.35763657631792
0
ARC
5
143
100
AcDbEntity
8
0
100
AcDbCircle
10
-343.98763158259419
20
-116.98973525647197
30
0
40
1.9999999999999598
210
0
220
0
230
1
100
AcDbArc
50
241.6423634237118
51
270
0
LINE
5
144
100
AcDbEntity
8
0
100
AcDbLine
10
-343.98763158259419
20
-118.98973525647192
30
0
11
-338.08749999999998
21
-118.9897352564721
31
0
0
ARC
5
145
100
AcDbEntity
8
0
100
AcDbCircle
10
-338.08750000000003
20
-120.9897352564723
30
0
40
2.0000000000001705
210
0
220
0
230
1
100
AcDbArc
50
0
51
89.99999999999838
0
LINE
5
146
100
AcDbEntity
8
0
100
AcDbLine
10
-336.08749999999986
20
-120.9897352564725
30
0
11
-336.08749999999998
21
-121.33973525647241
31
0
0
ARC
5
147
100
AcDbEntity
8
0
100
AcDbCircle
10
-334.08750000000009
20
-121.33973525647251
30
0
40
1.9999999999998863
210
0
220
0
230
1
100
AcDbArc
50
180
51
270.00000000000324
0
LINE
5
148
100
AcDbEntity
8
0
100
AcDbLine
10
-334.08749999999998
20
-123.33973525647239
30
0
11
-333.08749999999986
21
-123.33973525647282
31
0
0
ARC
5
149
100
AcDbEntity
8
0
100
AcDbCircle
10
-333.08750000000003
20
-121.3397352564723
30
0
40
2.0000000000005258
210
-0
220
0
230
1
100
AcDbArc
50
270.00000000000489
51
360
0
LINE
5
150
100
AcDbEntity
8
0
100
AcDbLine
10
-331.08749999999952
20
-121.33973525647241
30
0
11
-331.08749999999998
21
-120.9897352564725
31
0
0
ARC
5
151
100
AcDbEntity
8
0
100
AcDbCircle
10
-329.08749999999998
20
-120.98973525647251
30
0
40
2.0000000000000107
210
0
220
-0
230
1
100
AcDbArc
50
90
51
180
0
LINE
5
152
100
AcDbEntity
8
0
100
AcDbLine
10
-329.08749999999998
20
-118.9897352564725
30
0
11
-243.73736841740711
21
-118.98973525647209
31
0
0
ARC
5
153
100
AcDbEntity
8
0
100
AcDbCircle
10
-243.73736841740683
20
-116.98973525647206
30
0
40
2.0000000000000284
210
0
220
0
230
1
100
AcDbArc
50
269.99999999999187
51
298.35763657631469
0
ARC
5
154
100
AcDbEntity
8
0
100
AcDbCircle
10
-241.3625000000003
20
-121.38973525647305
30
0
40
3.0000000000003375
210
0
220
-0
230
1
100
AcDbArc
50
61.642363423682504
51
118.35763657631023
0
ARC
5
155
100
AcDbEntity
8
0
100
AcDbCircle
10
-238.98763158259399
20
-116.98973525647146
30
0
40
2.0000000000004543
210
0
220
0
230
1
100
AcDbArc
50
241.64236342371007
51
270
0
LINE
5
156
100
AcDbEntity
8
0
100
AcDbLine
10
-238.98763158259399
20
-118.98973525647192
30
0
11
-214.26249999999996
21
-118.98973525647209
31
0
0
ARC
5
157
100
AcDbEntity
8
0
100
AcDbCircle
10
-214.26250000000016
20
-120.98973525647224
30
0
40
2.0000000000001705
210
0
220
0
230
1
100
AcDbArc
50
0
51
89.999999999994301
0
LINE
5
158
100
AcDbEntity
8
0
100
AcDbLine
10
-212.26249999999999
20
-120.9897352564725
30
0
11
-212.26249999999999
21
-121.33973525647241
31
0
0
ARC
5
159
100
AcDbEntity
8
0
100
AcDbCircle
10
-210.26249999999993
20
-121.33973525647232
30
0
40
2.0000000000000639
210
0
220
0
230
1
100
AcDbArc
50
180
51
269.99999999999756
0
LINE
5
160
100
AcDbEntity
8
0
100
AcDbLine
10
-210.26250000000002
20
-123.33973525647239
30
0
11
-209.26249999999996
21
-123.33973525647281
31
0
0
ARC
5
161
100
AcDbEntity
8
0
100
AcDbCircle
10
-209.26249999999999
20
-121.33973525647242
30
0
40
2.0000000000003837
210
-0
220
0
230
1
100
AcDbArc
50
-89.99999999999919
51
0
0
LINE
5
162
100
AcDbEntity
8
0
100
AcDbLine
10
-207.26249999999962
20
-121.33973525647241
30
0
11
-207.26249999999999
21
-120.9897352564725
31
0
0
ARC
5
163
100
AcDbEntity
8
0
100
AcDbCircle
10
-205.26250000000002
20
-120.98973525647251
30
0
40
2.0000000000000107
210
0
220
-0
230
1
100
AcDbArc
50
90
51
180
0
LINE
5
164
100
AcDbEntity
8
0
100
AcDbLine
10
-205.26250000000002
20
-118.9897352564725
30
0
11
-128.53749999999999
21
-118.98973525647222
31
0
0
ARC
5
165
100
AcDbEntity
8
0
100
AcDbCircle
10
-128.53750000000016
20
-120.98973525647237
30
0
40
2.0000000000001528
210
0
220
0
230
1
100
AcDbArc
50
0
51
89.999999999995111
0
LINE
5
166
100
AcDbEntity
8
0
100
AcDbLine
10
-126.53750000000001
20
-120.9897352564725
30
0
11
-126.53750000000001
21
-121.33973525647241
31
0
0
ARC
5
167
100
AcDbEntity
8
0
100
AcDbCircle
10
-124.53750000000001
20
-121.33973525647241
30
0
40
1.9999999999999929
210
0
220
0
230
1
100
AcDbArc
50
180
51
270.0000000000004
0
LINE
5
168
100
AcDbEntity
8
0
100
AcDbLine
10
-124.53749999999999
20
-123.33973525647239
30
0
11
-123.53749999999999
21
-123.33973525647281
31
0
0
ARC
5
169
100
AcDbEntity
8
0
100
AcDbCircle
10
-123.53750000000002
20
-121.33973525647238
30
0
40
2.0000000000004192
210
-0
220
0
230
1
100
AcDbArc
50
270.0000000000008
51
360
0
LINE
5
170
100
AcDbEntity
8
0
100
AcDbLine
10
-121.5374999999996
20
-121.33973525647241
30
0
11
-121.53750000000001
21
-120.9897352564725
31
0
0
ARC
5
171
100
AcDbEntity
8
0
100
AcDbCircle
10
-119.53750000000007
20
-120.98973525647253
30
0
40
1.9999999999999396
210
0
220
-0
230
1
100
AcDbArc
50
89.999999999997954
51
180
0
LINE
5
172
100
AcDbEntity
8
0
100
AcDbLine
10
-119.53749999999999
20
-118.98973525647258
30
0
11
-118.62486841740602
21
-118.98973525647209
31
0
0
ARC
5
173
100
AcDbEntity
8
0
100
AcDbCircle
10
-118.62486841740584
20
-116.98973525647193
30
0
40
2.0000000000001528
210
0
220
0
230
1
100
AcDbArc
50
269.99999999999471
51
298.35763657628979
0
ARC
5
174
100
AcDbEntity
8
0
100
AcDbCircle
10
-116.24999999999979
20
-121.38973525647285
30
0
40
2.9999999999999387
210
0
220
-0
230
1
100
AcDbArc
50
61.642363423688344
51
118.35763657631934
0
ARC
5
175
100
AcDbEntity
8
0
100
AcDbCircle
10
-113.87513158259395
20
-116.9897352564716
30
0
40
2.0000000000003211
210
0
220
0
230
1
100
AcDbArc
50
241.6423634237085
51
269.99999999999835
0
LINE
5
176
100
AcDbEntity
8
0
100
AcDbLine
10
-113.87513158259401
20
-118.98973525647192
30
0
11
-38.049999999999926
21
-118.98973525647222
31
0
0
ARC
5
177
100
AcDbEntity
8
0
100
AcDbCircle
10
-38.050000000000026
20
-120.98973525647233
30
0
40
2.0000000000001217
210
0
220
0
230
1
100
AcDbArc
50
0
51
89.999999999997144
0
LINE
5
178
100
AcDbEntity
8
0
100
AcDbLine
10
-36.049999999999905
20
-120.98973525647251
30
0
11
-36.049999999999898
21
-121.33973525647242
31
0
0
ARC
5
179
100
AcDbEntity
8
0
100
AcDbCircle
10
-34.049999999999926
20
-121.33973525647241
30
0
40
1.9999999999999751
210
0
220
0
230
1
100
AcDbArc
50
180
51
270.0000000000004
0
LINE
5
180
100
AcDbEntity
8
0
100
AcDbLine
10
-34.049999999999912
20
-123.33973525647239
30
0
11
-33.049999999999926
21
-123.33973525647281
31
0
0
ARC
5
181
100
AcDbEntity
8
0
100
AcDbCircle
10
-33.049999999999869
20
-121.33973525647247
30
0
40
2.0000000000003482
210
0
220
0
230
1
100
AcDbArc
50
-90.000000000001634
51
0
0
LINE
5
182
100
AcDbEntity
8
0
100
AcDbLine
10
-31.049999999999514
20
-121.33973525647241
30
0
11
-31.049999999999933
21
-120.9897352564725
31
0
0
ARC
5
183
100
AcDbEntity
8
0
100
AcDbCircle
10
-29.049999999999944
20
-120.98973525647258
30
0
40
1.9999999999999929
210
0
220
-0
230
1
100
AcDbArc
50
89.999999999999389
51
180
0
LINE
5
184
100
AcDbEntity
8
0
100
AcDbLine
10
-29.049999999999923
20
-118.98973525647258
30
0
11
-13.624868417406404
21
-118.98973525647222
31
0
0
ARC
5
185
100
AcDbEntity
8
0
100
AcDbCircle
10
-13.624868417406542
20
-116.98973525647179
30
0
40
2.0000000000004192
210
-0
220
0
230
1
100
AcDbArc
50
270.00000000000398
51
298.35763657630827
0
ARC
5
186
100
AcDbEntity
8
0
100
AcDbCircle
10
-11.250000000000007
20
-121.38973525647279
30
0
40
2.9999999999999538
210
0
220
-0
230
1
100
AcDbArc
50
61.642363423685559
51
118.35763657631445
0
ARC
5
187
100
AcDbEntity
8
0
100
AcDbCircle
10
-8.8751315825937507
20
-116.98973525647187
30
0
40
2.0000000000002243
210
0
220
0
230
1
100
AcDbArc
50
241.64236342369765
51
270.00000000000585
0
LINE
5
188
100
AcDbEntity
8
0
100
AcDbLine
10
-8.8751315825935464
20
-118.98973525647209
30
0
11
-5.4999999999999716
21
-118.98973525647222
31
0
0
ARC
5
189
100
AcDbEntity
8
0
100
AcDbCircle
10
-5.4999999999999751
20
-116.98973525647273
30
0
40
1.9999999999994955
210
-0
220
0
230
1
100
AcDbArc
50
-89.999999999999901
51
0
0
LINE
5
190
100
AcDbEntity
8
0
100
AcDbLine
10
-3.5000000000004872
20
-116.9897352564727
30
0
11
-3.4999999999999432
21
-22.789735256472667
31
0
0
ARC
5
191
100
AcDbEntity
8
0
100
AcDbCircle
10
-5.4999999999999698
20
-22.789735256472664
30
0
40
2.0000000000000262
210
-0
220
0
230
1
100
AcDbArc
50
0
51
90.000000000000057
0
LINE
5
192
100
AcDbEntity
8
0
100
AcDbLine
10
-5.4999999999999716
20
-20.789735256472635
30
0
11
-8.8751315825924593
21
-20.789735256472657
31
0
0
ARC
5
193
100
AcDbEntity
8
0
100
AcDbCircle
10
-8.8751315825924291
20
-22.789735256472675
30
0
40
2.0000000000000195
210
0
220
0
230
1
100
AcDbArc
50
90.000000000000867
51
118.35763657632761
0
ARC
5
194
100
AcDbEntity
8
0
100
AcDbCircle
10
-11.25
20
-18.389735256472616
30
0
40
3.0000000000000284
210
0
220
0
230
1
100
AcDbArc
50
241.64236342367309
51
298.35763657632748
0
ARC
5
195
100
AcDbEntity
8
0
100
AcDbCircle
10
-13.624868417407608
20
-22.78973525647266
30
0
40
2.0000000000000222
210
0
220
-0
230
1
100
AcDbArc
50
61.642363423670403
51
89.999999999996945
0
LINE
5
196
100
AcDbEntity
8
0
100
AcDbLine
10
-13.624868417407502
20
-20.789735256472639
30
0
11
-25.478124999999991
21
-20.789735256472653
31
0
0
ARC
5
197
100
AcDbEntity
8
0
100
AcDbCircle
10
-25.478124999999999
20
-18.789735256472653
30
0
40
2.0000000000000018
210
0
220
0
230
1
100
AcDbArc
50
180
51
270.00000000000023
0
LINE
5
198
100
AcDbEntity
8
0
100
AcDbLine
10
-27.478125000000002
20
-18.789735256472664
30
0
11
-27.478124999999913
21
-18.439735256472666
31
0
0
ARC
5
199
100
AcDbEntity
8
0
100
AcDbCircle
10
-29.478124999999899
20
-18.439735256472662
30
0
40
1.999999999999984
210
-0
220
0
230
1
100
AcDbArc
50
0
51
90.000000000000099
0
LINE
5
200
100
AcDbEntity
8
0
100
AcDbLine
10
-29.478124999999903
20
-16.439735256472662
30
0
11
-30.47812499999992
21
-16.439735256472652
31
0
0
ARC
5
201
100
AcDbEntity
8
0
100
AcDbCircle
10
-30.478124999999892
20
-18.439735256472666
30
0
40
2.0000000000000151
210
0
220
0
230
1
100
AcDbArc
50
90.00000000000081
51
180
0
LINE
5
202
100
AcDbEntity
8
0
100
AcDbLine
10
-32.478124999999906
20
-18.439735256472655
30
0
11
-32.478124999999913
21
-18.789735256472667
31
0
0
ARC
5
203
100
AcDbEntity
8
0
100
AcDbCircle
10
-34.478124999999899
20
-18.789735256472657
30
0
40
1.9999999999999996
210
0
220
0
230
1
100
AcDbArc
50
270
51
360
0
LINE
5
204
100
AcDbEntity
8
0
100
AcDbLine
10
-34.478124999999899
20
-20.789735256472657
30
0
11
-86.199999999999903
21
-20.789735256472635
31
0
0
ARC
5
205
100
AcDbEntity
8
0
100
AcDbCircle
10
-86.199999999999903
20
-18.789735256472621
30
0
40
2.0000000000000107
210
0
220
0
230
1
100
AcDbArc
50
180
51
270
0
LINE
5
206
100
AcDbEntity
8
0
100
AcDbLine
10
-88.199999999999918
20
-18.78973525647266
30
0
11
-88.199999999999918
21
-18.439735256472662
31
0
0
ARC
5
207
100
AcDbEntity
8
0
100
AcDbCircle
10
-90.199999999999847
20
-18.439735256472595
30
0
40
1.9999999999999396
210
-0
220
0
230
1
100
AcDbArc
50
0
51
90.000000000001634
0
LINE
5
208
100
AcDbEntity
8
0
100
AcDbLine
10
-90.199999999999903
20
-16.439735256472655
30
0
11
-91.199999999999903
21
-16.439735256472648
31
0
0
ARC
5
209
100
AcDbEntity
8
0
100
AcDbCircle
10
-91.199999999999889
20
-18.439735256472677
30
0
40
2.0000000000000284
210
0
220
0
230
1
100
AcDbArc
50
90.000000000000398
51
180
0
LINE
5
210
100
AcDbEntity
8
0
100
AcDbLine
10
-93.199999999999918
20
-18.439735256472648
30
0
11
-93.199999999999903
21
-18.789735256472639
31
0
0
ARC
5
211
100
AcDbEntity
8
0
100
AcDbCircle
10
-95.199999999999903
20
-18.789735256472582
30
0
40
2.0000000000000151
210
0
220
0
230
1
100
AcDbArc
50
269.9999999999992
51
360
0
LINE
5
212
100
AcDbEntity
8
0
100
AcDbLine
10
-95.199999999999932
20
-20.7897352564726
30
0
11
-112.59940611989808
21
-20.789735256472653
31
0
0
ARC
5
213
100
AcDbEntity
8
0
100
AcDbCircle
10
-112.59940611989812
20
-22.789735256472596
30
0
40
1.999999999999944
210
0
220
-0
230
1
100
AcDbArc
50
89.999999999998778
51
135.0000000000006
0
LINE
5
214
100
AcDbEntity
8
0
100
AcDbLine
10
-114.0136196822712
20
-21.375521694099547
30
0
11
-118.0089218070174
21
-25.370823818845786
31
0
0
ARC
5
215
100
AcDbEntity
8
0
100
AcDbCircle
10
-119.42313536939051
20
-23.956610256472683
30
0
40
2.0000000000000018
210
-0
220
0
230
1
100
AcDbArc
50
270
51
315.00000000000006
0
LINE
5
216
100
AcDbEntity
8
0
100
AcDbLine
10
-119.42313536939051
20
-25.956610256472686
30
0
11
-138.03999999999991
21
-25.956610256472676
31
0
0
ARC
5
217
100
AcDbEntity
8
0
100
AcDbCircle
10
-138.03999999999991
20
-27.956610256472683
30
0
40
2.0000000000000062
210
0
220
-0
230
1
100
AcDbArc
50
90
51
180
0
LINE
5
218
100
AcDbEntity
8
0
100
AcDbLine
10
-140.03999999999991
20
-27.956610256472683
30
0
11
-140.03999999999991
21
-39.099735256472727
31
0
0
ARC
5
219
100
AcDbEntity
8
0
100
AcDbCircle
10
-140.53999999999991
20
-39.099735256472727
30
0
40
0.49999999999999822
210
0
220
0
230
1
100
AcDbArc
50
-90
51
0
0
LINE
5
220
100
AcDbEntity
8
0
100
AcDbLine
10
-140.53999999999991
20
-39.599735256472719
30
0
11
-144.73397499999993
21
-39.599735256472727
31
0
0
ARC
5
221
100
AcDbEntity
8
0
100
AcDbCircle
10
-144.73397499999993
20
-40.099735256472719
30
0
40
0.49999999999998934
210
0
220
-0
230
1
100
AcDbArc
50
90
51
149.9999768643633
0
ARC
5
222
100
AcDbEntity
8
0
100
AcDbCircle
10
-145.59999999999991
20
-39.599735256472727
30
0
40
0.49999999999998934
210
0
220
0
230
1
100
AcDbArc
50
270
51
330.00000000049204
0
LINE
5
223
100
AcDbEntity
8
0
100
AcDbLine
10
-145.59999999999991
20
-40.099735256472719
30
0
11
-150.10000014904992
21
-40.099735514641708
31
0
0
ARC
5
224
100
AcDbEntity
8
0
100
AcDbCircle
10
-150.09999999999991
20
-39.599735256472734
30
0
40
0.50000025816899929
210
0
220
0
230
1
100
AcDbArc
50
209.99998291968905
51
269.99998292013584
0
ARC
5
225
100
AcDbEntity
8
0
100
AcDbCircle
10
-150.96602499999992
20
-40.099735256472719
30
0
40
0.4999993921435697
210
0
220
-0
230
1
100
AcDbArc
50
30.000040215510985
51
90
0
LINE
5
226
100
AcDbEntity
8
0
100
AcDbLine
10
-150.96602499999992
20
-39.599735864329148
30
0
11
-155.15999999999991
21
-39.599735256472727
31
0
0
ARC
5
227
100
AcDbEntity
8
0
100
AcDbCircle
10
-155.15999999999991
20
-39.099735256472719
30
0
40
0.50000000000000711
210
0
220
0
230
1
100
AcDbArc
50
180
51
270
0
LINE
5
228
100
AcDbEntity
8
0
100
AcDbLine
10
-155.65999999999991
20
-39.099735256472727
30
0
11
-155.65999999999991
21
-27.95660863716105
31
0
0
ARC
5
229
100
AcDbEntity
8
0
100
AcDbCircle
10
-183.73499999999993
20
-81.629735256472685
30
0
40
0.49999999999998934
210
0
220
-0
230
1
100
AcDbArc
50
90
51
180
0
LINE
5
230
100
AcDbEntity
8
0
100
AcDbLine
10
-183.73499999999993
20
-81.129735256472699
30
0
11
-169.11499999999992
21
-81.129735256472699
31
0
0
ARC
5
231
100
AcDbEntity
8
0
100
AcDbCircle
10
-169.1149999999999
20
-81.629735256472671
30
0
40
0.49999999999997158
210
0
220
0
230
1
100
AcDbArc
50
0
51
90.000000000003254
0
LINE
5
232
100
AcDbEntity
8
0
100
AcDbLine
10
-168.61499999999992
20
-81.629735256472713
30
0
11
-168.61499999999992
21
-96.249735256472704
31
0
0
ARC
5
233
100
AcDbEntity
8
0
100
AcDbCircle
10
-169.1149999999999
20
-96.249735256472746
30
0
40
0.49999999999997158
210
0
220
0
230
1
100
AcDbArc
50
-90.000000000003254
51
0
0
LINE
5
234
100
AcDbEntity
8
0
100
AcDbLine
10
-169.11499999999992
20
-96.749735256472718
30
0
11
-173.30897499999992
21
-96.749735256472718
31
0
0
ARC
5
235
100
AcDbEntity
8
0
100
AcDbCircle
10
-173.30897499999992
20
-97.249735256472704
30
0
40
0.49999999999998934
210
0
220
-0
230
1
100
AcDbArc
50
90
51
149.99999999989583
0
ARC
5
236
100
AcDbEntity
8
0
100
AcDbCircle
10
-174.17499999999995
20
-96.749735256472675
30
0
40
0.50000000000004263
210
0
220
0
230
1
100
AcDbArc
50
270.00000000000324
51
329.99997686494305
0
LINE
5
237
100
AcDbEntity
8
0
100
AcDbLine
10
-174.17499999999993
20
-97.249735256472718
30
0
11
-178.67499999999993
21
-97.249735514641728
31
0
0
ARC
5
238
100
AcDbEntity
8
0
100
AcDbCircle
10
-178.67499999999993
20
-96.74973525647269
30
0
40
0.50000025816901927
210
0
220
0
230
1
100
AcDbArc
50
209.99998291969257
51
270
0
ARC
5
239
100
AcDbEntity
8
0
100
AcDbCircle
10
-179.54102499999993
20
-97.249735256472704
30
0
40
0.49999939214356082
210
0
220
-0
230
1
100
AcDbArc
50
30.000040215510278
51
90.000040214812117
0
LINE
5
240
100
AcDbEntity
8
0
100
AcDbLine
10
-179.54102535093995
20
-96.749735864329267
30
0
11
-183.73499999999993
21
-96.749735256472718
31
0
0
ARC
5
241
100
AcDbEntity
8
0
100
AcDbCircle
10
-183.73499999999993
20
-96.249735256472718
30
0
40
0.50000000000000711
210
0
220
0
230
1
100
AcDbArc
50
180
51
270
0
LINE
5
242
100
AcDbEntity
8
0
100
AcDbLine
10
-184.23499999999993
20
-96.249735256472704
30
0
11
-184.2349999999999
21
-81.629735256472713
31
0
0
ARC
5
243
100
AcDbEntity
8
0
100
AcDbCircle
10
-140.83749999999992
20
-77.699735256472664
30
0
40
0.50000000000003375
210
0
220
0
230
1
100
AcDbArc
50
270
51
329.99997686494493
0
LINE
5
244
100
AcDbEntity
8
0
100
AcDbLine
10
-140.83749999999992
20
-78.199735256472692
30
0
11
-145.33749999999995
21
-78.199735514641702
31
0
0
ARC
5
245
100
AcDbEntity
8
0
100
AcDbCircle
10
-145.33749999999995
20
-77.699735256472721
30
0
40
0.50000025816898419
210
0
220
0
230
1
100
AcDbArc
50
209.99998291969277
51
270
0
ARC
5
246
100
AcDbEntity
8
0
100
AcDbCircle
10
-146.20352499999993
20
-78.199735256472707
30
0
40
0.49999939214354094
210
0
220
-0
230
1
100
AcDbArc
50
30.000040215508871
51
90.000040214808848
0
LINE
5
247
100
AcDbEntity
8
0
100
AcDbLine
10
-146.20352535093991
20
-77.699735864329284
30
0
11
-150.39749999999995
21
-77.699735256472721
31
0
0
ARC
5
248
100
AcDbEntity
8
0
100
AcDbCircle
10
-150.39749999999995
20
-77.199735256472721
30
0
40
0.50000000000000711
210
0
220
0
230
1
100
AcDbArc
50
180
51
270
0
LINE
5
249
100
AcDbEntity
8
0
100
AcDbLine
10
-150.89749999999995
20
-77.199735256472707
30
0
11
-150.89749999999995
21
-62.579735256472695
31
0
0
ARC
5
250
100
AcDbEntity
8
0
100
AcDbCircle
10
-150.39749999999995
20
-62.579735256472695
30
0
40
0.49999999999999822
210
0
220
-0
230
1
100
AcDbArc
50
90
51
180
0
LINE
5
251
100
AcDbEntity
8
0
100
AcDbLine
10
-150.39749999999995
20
-62.079735256472695
30
0
11
-135.77749999999992
21
-62.079735256472688
31
0
0
ARC
5
252
100
AcDbEntity
8
0
100
AcDbCircle
10
-135.77749999999995
20
-62.579735256472688
30
0
40
0.50000000000000711
210
0
220
0
230
1
100
AcDbArc
50
0
51
89.999999999996746
0
LINE
5
253
100
AcDbEntity
8
0
100
AcDbLine
10
-135.27749999999995
20
-62.579735256472695
30
0
11
-135.27749999999995
21
-77.199735256472707
31
0
0
ARC
5
254
100
AcDbEntity
8
0
100
AcDbCircle
10
-135.77749999999992
20
-77.199735256472707
30
0
40
0.49999999999999822
210
0
220
0
230
1
100
AcDbArc
50
-90.000000000003254
51
0
0
LINE
5
255
100
AcDbEntity
8
0
100
AcDbLine
10
-135.77749999999995
20
-77.699735256472707
30
0
11
-139.97147499999994
21
-77.699735256472707
31
0
0
ARC
5
256
100
AcDbEntity
8
0
100
AcDbCircle
10
-139.97147499999994
20
-78.199735256472707
30
0
40
0.50000000000000711
210
0
220
0
230
1
100
AcDbArc
50
90
51
149.9999999999055
0
ARC
5
257
100
AcDbEntity
8
0
100
AcDbCircle
10
-92.914999999999907
20
-81.629735256472685
30
0
40
0.49999999999998934
210
0
220
0
230
1
100
AcDbArc
50
0
51
90.000000000003254
0
LINE
5
258
100
AcDbEntity
8
0
100
AcDbLine
10
-92.414999999999907
20
-81.629735256472713
30
0
11
-92.414999999999907
21
-96.249735256472704
31
0
0
ARC
5
259
100
AcDbEntity
8
0
100
AcDbCircle
10
-92.914999999999921
20
-96.249735256472704
30
0
40
0.50000000000000711
210
0
220
0
230
1
100
AcDbArc
50
-90
51
0
0
LINE
5
260
100
AcDbEntity
8
0
100
AcDbLine
10
-92.914999999999921
20
-96.749735256472718
30
0
11
-97.108974999999944
21
-96.74973525647269
31
0
0
ARC
5
261
100
AcDbEntity
8
0
100
AcDbCircle
10
-97.108974999999944
20
-97.249735256472704
30
0
40
0.50000000000000711
210
0
220
-0
230
1
100
AcDbArc
50
90
51
149.99997686436706
0
ARC
5
262
100
AcDbEntity
8
0
100
AcDbCircle
10
-97.974999999999937
20
-96.749735256472675
30
0
40
0.50000000000004263
210
0
220
0
230
1
100
AcDbArc
50
270.00000000000159
51
330.00000000048561
0
LINE
5
263
100
AcDbEntity
8
0
100
AcDbLine
10
-97.974999999999923
20
-97.249735256472718
30
0
11
-102.47500014904993
21
-97.249735514641671
31
0
0
ARC
5
264
100
AcDbEntity
8
0
100
AcDbCircle
10
-102.47499999999991
20
-96.749735256472675
30
0
40
0.50000025816904359
210
0
220
0
230
1
100
AcDbArc
50
209.99998291969314
51
269.99998292013419
0
ARC
5
265
100
AcDbEntity
8
0
100
AcDbCircle
10
-103.34102499999993
20
-97.249735256472704
30
0
40
0.49999939214354538
210
0
220
-0
230
1
100
AcDbArc
50
30.000040215510278
51
90
0
LINE
5
266
100
AcDbEntity
8
0
100
AcDbLine
10
-103.34102499999993
20
-96.749735864329153
30
0
11
-107.53499999999994
21
-96.749735256472718
31
0
0
ARC
5
267
100
AcDbEntity
8
0
100
AcDbCircle
10
-107.53499999999997
20
-96.249735256472718
30
0
40
0.49999999999998934
210
0
220
0
230
1
100
AcDbArc
50
180
51
270.00000000000324
0
LINE
5
268
100
AcDbEntity
8
0
100
AcDbLine
10
-108.03499999999997
20
-96.249735256472704
30
0
11
-108.03499999999997
21
-81.629735256472713
31
0
0
ARC
5
269
100
AcDbEntity
8
0
100
AcDbCircle
10
-107.53499999999995
20
-81.629735256472713
30
0
40
0.50000000000000711
210
0
220
-0
230
1
100
AcDbArc
50
90
51
180
0
LINE
5
270
100
AcDbEntity
8
0
100
AcDbLine
10
-107.53499999999995
20
-81.129735256472699
30
0
11
-92.914999999999935
21
-81.129735256472699
31
0
0
ARC
5
271
100
AcDbEntity
8
0
100
AcDbCircle
10
-150.96602499999992
20
-116.2997352564727
30
0
40
0.49999939214400824
210
0
220
-0
230
1
100
AcDbArc
50
30.000040215513081
51
90.000040214812117
0
LINE
5
272
100
AcDbEntity
8
0
100
AcDbLine
10
-150.96602535093993
20
-115.79973586432882
30
0
11
-155.15999999999991
21
-115.7997352564727
31
0
0
ARC
5
273
100
AcDbEntity
8
0
100
AcDbCircle
10
-155.15999999999988
20
-115.29973525647267
30
0
40
0.50000000000002487
210
0
220
0
230
1
100
AcDbArc
50
180
51
269.99999999999676
0
LINE
5
274
100
AcDbEntity
8
0
100
AcDbLine
10
-155.65999999999991
20
-115.2997352564727
30
0
11
-155.65999999999991
21
-100.6797352564727
31
0
0
ARC
5
275
100
AcDbEntity
8
0
100
AcDbCircle
10
-155.15999999999994
20
-100.6797352564727
30
0
40
0.49999999999998934
210
0
220
-0
230
1
100
AcDbArc
50
89.999999999996746
51
180
0
LINE
5
276
100
AcDbEntity
8
0
100
AcDbLine
10
-155.15999999999991
20
-100.17973525647271
30
0
11
-140.53999999999991
21
-100.17973525647271
31
0
0
ARC
5
277
100
AcDbEntity
8
0
100
AcDbCircle
10
-140.53999999999991
20
-100.67973525647272
30
0
40
0.50000000000000711
210
0
220
0
230
1
100
AcDbArc
50
0
51
90
0
LINE
5
278
100
AcDbEntity
8
0
100
AcDbLine
10
-140.03999999999991
20
-100.67973525647272
30
0
11
-140.03999999999991
21
-115.29973525647272
31
0
0
ARC
5
279
100
AcDbEntity
8
0
100
AcDbCircle
10
-140.53999999999988
20
-115.29973525647273
30
0
40
0.49999999999997158
210
0
220
0
230
1
100
AcDbArc
50
-90.000000000003254
51
0
0
LINE
5
280
100
AcDbEntity
8
0
100
AcDbLine
10
-140.53999999999991
20
-115.7997352564727
30
0
11
-144.73397499999993
21
-115.79973525647269
31
0
0
ARC
5
281
100
AcDbEntity
8
0
100
AcDbCircle
10
-144.73397499999993
20
-116.2997352564727
30
0
40
0.50000000000000711
210
0
220
-0
230
1
100
AcDbArc
50
90
51
149.99999999989305
0
ARC
5
282
100
AcDbEntity
8
0
100
AcDbCircle
10
-145.59999999999991
20
-115.79973525647273
30
0
40
0.49999999999997158
210
0
220
0
230
1
100
AcDbArc
50
270
51
329.99997686494828
0
LINE
5
283
100
AcDbEntity
8
0
100
AcDbLine
10
-145.59999999999991
20
-116.2997352564727
30
0
11
-150.09999999999991
21
-116.29973551464126
31
0
0
ARC
5
284
100
AcDbEntity
8
0
100
AcDbCircle
10
-150.09999999999991
20
-115.79973525647269
30
0
40
0.50000025816857196
210
0
220
0
230
1
100
AcDbArc
50
209.99998291968978
51
270
0
ARC
5
285
100
AcDbEntity
8
0
100
AcDbCircle
10
-193.25999999999991
20
-100.67973525647275
30
0
40
0.50000000000004263
210
0
220
0
230
1
100
AcDbArc
50
90.000000000003254
51
180
0
LINE
5
286
100
AcDbEntity
8
0
100
AcDbLine
10
-193.25999999999993
20
-100.17973525647271
30
0
11
-178.63999999999993
21
-100.17973525647271
31
0
0
ARC
5
287
100
AcDbEntity
8
0
100
AcDbCircle
10
-178.6399999999999
20
-100.67973525647268
30
0
40
0.49999999999997158
210
0
220
0
230
1
100
AcDbArc
50
0
51
90.000000000003254
0
LINE
5
288
100
AcDbEntity
8
0
100
AcDbLine
10
-178.13999999999993
20
-100.67973525647272
30
0
11
-178.13999999999993
21
-115.29973525647272
31
0
0
ARC
5
289
100
AcDbEntity
8
0
100
AcDbCircle
10
-178.63999999999993
20
-115.2997352564727
30
0
40
0.50000000000000711
210
0
220
0
230
1
100
AcDbArc
50
270
51
360
0
LINE
5
290
100
AcDbEntity
8
0
100
AcDbLine
10
-178.63999999999993
20
-115.7997352564727
30
0
11
-182.83397499999992
21
-115.79973525647269
31
0
0
ARC
5
291
100
AcDbEntity
8
0
100
AcDbCircle
10
-182.83397499999992
20
-116.2997352564727
30
0
40
0.50000000000000711
210
0
220
-0
230
1
100
AcDbArc
50
90
51
149.99999999989444
0
ARC
5
292
100
AcDbEntity
8
0
100
AcDbCircle
10
-183.69999999999993
20
-115.79973525647269
30
0
40
0.50000000000000711
210
0
220
0
230
1
100
AcDbArc
50
270
51
329.9999768649443
0
LINE
5
293
100
AcDbEntity
8
0
100
AcDbLine
10
-183.69999999999993
20
-116.2997352564727
30
0
11
-188.19999999999993
21
-116.2997355146417
31
0
0
ARC
5
294
100
AcDbEntity
8
0
100
AcDbCircle
10
-188.19999999999993
20
-115.79973525647267
30
0
40
0.50000025816901927
210
0
220
0
230
1
100
AcDbArc
50
209.99998291969257
51
270
0
ARC
5
295
100
AcDbEntity
8
0
100
AcDbCircle
10
-189.06602499999991
20
-116.2997352564727
30
0
40
0.49999939214353889
210
0
220
-0
230
1
100
AcDbArc
50
30.000040215513323
51
90.000040214818625
0
LINE
5
296
100
AcDbEntity
8
0
100
AcDbLine
10
-189.06602535093998
20
-115.79973586432928
30
0
11
-193.25999999999993
21
-115.7997352564727
31
0
0
ARC
5
297
100
AcDbEntity
8
0
100
AcDbCircle
10
-193.25999999999993
20
-115.29973525647267
30
0
40
0.50000000000000711
210
0
220
0
230
1
100
AcDbArc
50
180
51
270
0
LINE
5
298
100
AcDbEntity
8
0
100
AcDbLine
10
-193.75999999999993
20
-115.2997352564727
30
0
11
-193.75999999999993
21
-100.6797352564727
31
0
0
ARC
5
299
100
AcDbEntity
8
0
100
AcDbCircle
10
-73.899999999999949
20
-115.79973525647273
30
0
40
0.50000025816896077
210
0
220
0
230
1
100
AcDbArc
50
209.99998291968654
51
270.00000000000324
0
ARC
5
300
100
AcDbEntity
8
0
100
AcDbCircle
10
-74.766024999999928
20
-116.2997352564727
30
0
40
0.49999939214357086
210
0
220
-0
230
1
100
AcDbArc
50
30.00004021551371
51
90.000040215497691
0
LINE
5
301
100
AcDbEntity
8
0
100
AcDbLine
10
-74.766025350945924
20
-115.79973586432925
30
0
11
-78.959999999999937
21
-115.79973525647269
31
0
0
ARC
5
302
100
AcDbEntity
8
0
100
AcDbCircle
10
-78.959999999999951
20
-115.2997352564727
30
0
40
0.49999999999998934
210
0
220
0
230
1
100
AcDbArc
50
180
51
270.00000000000159
0
LINE
5
303
100
AcDbEntity
8
0
100
AcDbLine
10
-79.459999999999951
20
-115.2997352564727
30
0
11
-79.459999999999951
21
-100.6797352564727
31
0
0
ARC
5
304
100
AcDbEntity
8
0
100
AcDbCircle
10
-78.959999999999951
20
-100.67973525647272
30
0
40
0.50000000000000711
210
0
220
-0
230
1
100
AcDbArc
50
90
51
180
0
LINE
5
305
100
AcDbEntity
8
0
100
AcDbLine
10
-78.959999999999951
20
-100.17973525647271
30
0
11
-64.339999999999947
21
-100.17973525647271
31
0
0
ARC
5
306
100
AcDbEntity
8
0
100
AcDbCircle
10
-64.339999999999947
20
-100.67973525647272
30
0
40
0.50000000000000711
210
0
220
0
230
1
100
AcDbArc
50
0
51
90
0
LINE
5
307
100
AcDbEntity
8
0
100
AcDbLine
10
-63.839999999999932
20
-100.67973525647272
30
0
11
-63.839999999999932
21
-115.29973525647272
31
0
0
ARC
5
308
100
AcDbEntity
8
0
100
AcDbCircle
10
-64.339999999999918
20
-115.29973525647272
30
0
40
0.49999999999998934
210
0
220
0
230
1
100
AcDbArc
50
-90.000000000001634
51
0
0
LINE
5
309
100
AcDbEntity
8
0
100
AcDbLine
10
-64.339999999999932
20
-115.7997352564727
30
0
11
-68.533974999999927
21
-115.79973525647269
31
0
0
ARC
5
310
100
AcDbEntity
8
0
100
AcDbCircle
10
-68.533974999999941
20
-116.2997352564727
30
0
40
0.50000000000000711
210
0
220
-0
230
1
100
AcDbArc
50
89.99999999999838
51
150.0000000000112
0
ARC
5
311
100
AcDbEntity
8
0
100
AcDbCircle
10
-69.399999999999935
20
-115.79973525647269
30
0
40
0.50000000000000711
210
0
220
0
230
1
100
AcDbArc
50
270
51
329.99997686482669
0
LINE
5
312
100
AcDbEntity
8
0
100
AcDbLine
10
-69.399999999999935
20
-116.2997352564727
30
0
11
-73.89999999999992
21
-116.29973551464168
31
0
0
ARC
5
313
100
AcDbEntity
8
0
100
AcDbCircle
10
-97.67749999999991
20
-77.199735256472707
30
0
40
0.49999999999999822
210
0
220
0
230
1
100
AcDbArc
50
-90.000000000001634
51
0
0
LINE
5
314
100
AcDbEntity
8
0
100
AcDbLine
10
-97.677499999999924
20
-77.699735256472707
30
0
11
-101.87147499999993
21
-77.699735256472707
31
0
0
ARC
5
315
100
AcDbEntity
8
0
100
AcDbCircle
10
-101.87147499999995
20
-78.199735256472707
30
0
40
0.50000000000000711
210
0
220
-0
230
1
100
AcDbArc
50
89.99999999999838
51
149.99997686436623
0
ARC
5
316
100
AcDbEntity
8
0
100
AcDbCircle
10
-102.73749999999993
20
-77.699735256472692
30
0
40
0.50000000000000711
210
0
220
0
230
1
100
AcDbArc
50
270
51
330.00000000048703
0
LINE
5
317
100
AcDbEntity
8
0
100
AcDbLine
10
-102.73749999999993
20
-78.199735256472692
30
0
11
-107.23750014904994
21
-78.199735514641674
31
0
0
ARC
5
318
100
AcDbEntity
8
0
100
AcDbCircle
10
-107.23749999999995
20
-77.699735256472678
30
0
40
0.50000025816900839
210
0
220
0
230
1
100
AcDbArc
50
209.99998291969561
51
269.99998292013908
0
ARC
5
319
100
AcDbEntity
8
0
100
AcDbCircle
10
-108.10352499999993
20
-78.199735256472707
30
0
40
0.49999939214354983
210
0
220
-0
230
1
100
AcDbArc
50
30.000040215510278
51
90
0
LINE
5
320
100
AcDbEntity
8
0
100
AcDbLine
10
-108.10352499999993
20
-77.699735864329142
30
0
11
-112.29749999999994
21
-77.699735256472721
31
0
0
ARC
5
321
100
AcDbEntity
8
0
100
AcDbCircle
10
-112.29749999999996
20
-77.199735256472721
30
0
40
0.50000000000000711
210
0
220
0
230
1
100
AcDbArc
50
180
51
270.00000000000159
0
LINE
5
322
100
AcDbEntity
8
0
100
AcDbLine
10
-112.79749999999996
20
-77.199735256472707
30
0
11
-112.79749999999996
21
-62.579735256472695
31
0
0
ARC
5
323
100
AcDbEntity
8
0
100
AcDbCircle
10
-112.29749999999997
20
-62.579735256472695
30
0
40
0.49999999999999822
210
0
220
-0
230
1
100
AcDbArc
50
89.99999999999838
51
180
0
LINE
5
324
100
AcDbEntity
8
0
100
AcDbLine
10
-112.29749999999996
20
-62.079735256472695
30
0
11
-97.677499999999938
21
-62.079735256472723
31
0
0
ARC
5
325
100
AcDbEntity
8
0
100
AcDbCircle
10
-97.67749999999991
20
-62.579735256472688
30
0
40
0.49999999999995381
210
0
220
0
230
1
100
AcDbArc
50
0
51
90.000000000003254
0
LINE
5
326
100
AcDbEntity
8
0
100
AcDbLine
10
-97.177499999999952
20
-62.579735256472695
30
0
11
-97.177499999999924
21
-77.199735256472707
31
0
0
ARC
5
327
100
AcDbEntity
8
0
100
AcDbCircle
10
-159.58999999999992
20
-100.67973525647272
30
0
40
0.50000000000000711
210
0
220
0
230
1
100
AcDbArc
50
0
51
90
0
LINE
5
328
100
AcDbEntity
8
0
100
AcDbLine
10
-159.08999999999992
20
-100.67973525647272
30
0
11
-159.08999999999992
21
-115.29973525647272
31
0
0
ARC
5
329
100
AcDbEntity
8
0
100
AcDbCircle
10
-159.58999999999989
20
-115.29973525647273
30
0
40
0.49999999999997158
210
0
220
0
230
1
100
AcDbArc
50
-90.000000000003254
51
0
0
LINE
5
330
100
AcDbEntity
8
0
100
AcDbLine
10
-159.58999999999992
20
-115.7997352564727
30
0
11
-163.78397499999991
21
-115.79973525647269
31
0
0
ARC
5
331
100
AcDbEntity
8
0
100
AcDbCircle
10
-163.78397499999991
20
-116.2997352564727
30
0
40
0.50000000000000711
210
0
220
-0
230
1
100
AcDbArc
50
90
51
149.99997686436706
0
ARC
5
332
100
AcDbEntity
8
0
100
AcDbCircle
10
-164.64999999999989
20
-115.79973525647273
30
0
40
0.49999999999997158
210
0
220
0
230
1
100
AcDbArc
50
269.99999999999676
51
330.00000000049045
0
LINE
5
333
100
AcDbEntity
8
0
100
AcDbLine
10
-164.64999999999992
20
-116.2997352564727
30
0
11
-169.15000014904993
21
-116.29973551464168
31
0
0
ARC
5
334
100
AcDbEntity
8
0
100
AcDbCircle
10
-169.14999999999998
20
-115.79973525647289
30
0
40
0.50000025816882043
210
0
220
0
230
1
100
AcDbArc
50
209.9999829196779
51
269.99998292014237
0
ARC
5
335
100
AcDbEntity
8
0
100
AcDbCircle
10
-170.01602499999993
20
-116.2997352564727
30
0
40
0.49999939214360045
210
0
220
-0
230
1
100
AcDbArc
50
30.000040215508431
51
90
0
LINE
5
336
100
AcDbEntity
8
0
100
AcDbLine
10
-170.01602499999993
20
-115.79973586432912
30
0
11
-174.20999999999992
21
-115.7997352564727
31
0
0
ARC
5
337
100
AcDbEntity
8
0
100
AcDbCircle
10
-174.20999999999992
20
-115.29973525647267
30
0
40
0.50000000000000711
210
0
220
0
230
1
100
AcDbArc
50
180
51
270
0
LINE
5
338
100
AcDbEntity
8
0
100
AcDbLine
10
-174.70999999999992
20
-115.2997352564727
30
0
11
-174.70999999999992
21
-100.6797352564727
31
0
0
ARC
5
339
100
AcDbEntity
8
0
100
AcDbCircle
10
-174.20999999999989
20
-100.67973525647275
30
0
40
0.50000000000004263
210
0
220
0
230
1
100
AcDbArc
50
90.000000000003254
51
180
0
LINE
5
340
100
AcDbEntity
8
0
100
AcDbLine
10
-174.20999999999992
20
-100.17973525647271
30
0
11
-159.58999999999992
21
-100.17973525647271
31
0
0
ARC
5
341
100
AcDbEntity
8
0
100
AcDbCircle
10
-316.7525
20
-81.629735256472685
30
0
40
0.50000000000000711
210
0
220
0
230
1
100
AcDbArc
50
0
51
90
0
LINE
5
342
100
AcDbEntity
8
0
100
AcDbLine
10
-316.2525
20
-81.629735256472713
30
0
11
-316.2525
21
-96.249735256472704
31
0
0
ARC
5
343
100
AcDbEntity
8
0
100
AcDbCircle
10
-316.7525
20
-96.249735256472718
30
0
40
0.49999999999998934
210
0
220
0
230
1
100
AcDbArc
50
-90
51
0
0
LINE
5
344
100
AcDbEntity
8
0
100
AcDbLine
10
-316.7525
20
-96.749735256472718
30
0
11
-320.94647499999996
21
-96.74973525647269
31
0
0
ARC
5
345
100
AcDbEntity
8
0
100
AcDbCircle
10
-320.94647499999996
20
-97.249735256472704
30
0
40
0.50000000000000711
210
0
220
-0
230
1
100
AcDbArc
50
90
51
149.99997686436402
0
ARC
5
346
100
AcDbEntity
8
0
100
AcDbCircle
10
-321.81249999999989
20
-96.749735256472775
30
0
40
0.49999999999993605
210
0
220
0
230
1
100
AcDbArc
50
269.99999999998698
51
330.00000000049442
0
LINE
5
347
100
AcDbEntity
8
0
100
AcDbLine
10
-321.8125
20
-97.249735256472718
30
0
11
-326.31250014904992
21
-97.249735514641685
31
0
0
ARC
5
348
100
AcDbEntity
8
0
100
AcDbCircle
10
-326.3125
20
-96.749735256472832
30
0
40
0.50000025816886484
210
0
220
0
230
1
100
AcDbArc
50
209.9999829196878
51
269.99998292014561
0
ARC
5
349
100
AcDbEntity
8
0
100
AcDbCircle
10
-327.17852499999992
20
-97.249735256472704
30
0
40
0.49999939214355188
210
0
220
-0
230
1
100
AcDbArc
50
30.000040215505848
51
90
0
LINE
5
350
100
AcDbEntity
8
0
100
AcDbLine
10
-327.17852499999992
20
-96.749735864329139
30
0
11
-331.37249999999995
21
-96.749735256472675
31
0
0
ARC
5
351
100
AcDbEntity
8
0
100
AcDbCircle
10
-331.37249999999989
20
-96.249735256472647
30
0
40
0.50000000000004263
210
0
220
0
230
1
100
AcDbArc
50
180
51
269.99999999999346
0
LINE
5
352
100
AcDbEntity
8
0
100
AcDbLine
10
-331.87249999999995
20
-96.249735256472704
30
0
11
-331.87249999999995
21
-81.629735256472713
31
0
0
ARC
5
353
100
AcDbEntity
8
0
100
AcDbCircle
10
-331.37249999999995
20
-81.629735256472657
30
0
40
0.49999999999995381
210
0
220
-0
230
1
100
AcDbArc
50
90
51
180
0
LINE
5
354
100
AcDbEntity
8
0
100
AcDbLine
10
-331.37249999999995
20
-81.129735256472699
30
0
11
-316.7525
21
-81.129735256472685
31
0
0
LINE
5
355
100
AcDbEntity
8
0
100
AcDbLine
10
-7.1899999999999409
20
-115.79973525647269
30
0
11
-11.383974999999928
21
-115.79973525647269
31
0
0
ARC
5
356
100
AcDbEntity
8
0
100
AcDbCircle
10
-11.383974999999932
20
-116.2997352564727
30
0
40
0.50000000000000711
210
0
220
-0
230
1
100
AcDbArc
50
89.999999999999588
51
149.99997686482331
0
ARC
5
357
100
AcDbEntity
8
0
100
AcDbCircle
10
-12.249999999999961
20
-115.79973525647264
30
0
40
0.50000000000004263
210
0
220
0
230
1
100
AcDbArc
50
270.00000000000307
51
330.00000000002854
0
LINE
5
358
100
AcDbEntity
8
0
100
AcDbLine
10
-12.249999999999934
20
-116.2997352564727
30
0
11
-16.750000149053932
21
-116.29973551464167
31
0
0
ARC
5
359
100
AcDbEntity
8
0
100
AcDbCircle
10
-16.749999999999929
20
-115.79973525647269
30
0
40
0.50000025816900084
210
0
220
0
230
1
100
AcDbArc
50
209.99998291969217
51
269.99998291967825
0
ARC
5
360
100
AcDbEntity
8
0
100
AcDbCircle
10
-17.616024999999933
20
-116.2997352564727
30
0
40
0.4999993921435697
210
0
220
-0
230
1
100
AcDbArc
50
30.000040215510865
51
90.000000000000398
0
LINE
5
361
100
AcDbEntity
8
0
100
AcDbLine
10
-17.616024999999937
20
-115.79973586432912
30
0
11
-21.809999999999938
21
-115.79973525647269
31
0
0
ARC
5
362
100
AcDbEntity
8
0
100
AcDbCircle
10
-21.809999999999938
20
-115.2997352564727
30
0
40
0.49999999999998934
210
0
220
0
230
1
100
AcDbArc
50
180
51
270
0
LINE
5
363
100
AcDbEntity
8
0
100
AcDbLine
10
-22.309999999999928
20
-115.2997352564727
30
0
11
-22.309999999999945
21
-100.6797352564727
31
0
0
ARC
5
364
100
AcDbEntity
8
0
100
AcDbCircle
10
-21.809999999999935
20
-100.67973525647272
30
0
40
0.50000000000000711
210
0
220
-0
230
1
100
AcDbArc
50
89.999999999999588
51
180
0
LINE
5
365
100
AcDbEntity
8
0
100
AcDbLine
10
-21.809999999999931
20
-100.17973525647271
30
0
11
-7.1899999999999409
21
-100.17973525647271
31
0
0
ARC
5
366
100
AcDbEntity
8
0
100
AcDbCircle
10
-7.189999999999932
20
-100.6797352564727
30
0
40
0.50000000000000044
210
0
220
0
230
1
100
AcDbArc
50
0
51
90.000000000001009
0
LINE
5
367
100
AcDbEntity
8
0
100
AcDbLine
10
-6.689999999999932
20
-100.67973525647272
30
0
11
-6.6899999999999338
21
-115.29973525647272
31
0
0
ARC
5
368
100
AcDbEntity
8
0
100
AcDbCircle
10
-7.1899999999999311
20
-115.2997352564727
30
0
40
0.49999999999998934
210
0
220
0
230
1
100
AcDbArc
50
269.99999999999886
51
360
0
LINE
5
369
100
AcDbEntity
8
0
100
AcDbLine
10
-271.50874999999996
20
-87.224735256472727
30
0
11
-286.12874999999991
21
-87.224735256472727
31
0
0
ARC
5
370
100
AcDbEntity
8
0
100
AcDbCircle
10
-286.12874999999997
20
-86.724735256472755
30
0
40
0.49999999999997158
210
0
220
0
230
1
100
AcDbArc
50
180
51
270.00000000000648
0
LINE
5
371
100
AcDbEntity
8
0
100
AcDbLine
10
-286.62874999999991
20
-86.724735256472712
30
0
11
-286.62874999999991
21
-72.104735256472708
31
0
0
ARC
5
372
100
AcDbEntity
8
0
100
AcDbCircle
10
-286.12874999999985
20
-72.104735256472722
30
0
40
0.50000000000002487
210
0
220
0
230
1
100
AcDbArc
50
90.000000000006523
51
180
0
LINE
5
373
100
AcDbEntity
8
0
100
AcDbLine
10
-286.12874999999991
20
-71.604735256472708
30
0
11
-271.50874999999991
21
-71.604735256472694
31
0
0
ARC
5
374
100
AcDbEntity
8
0
100
AcDbCircle
10
-271.50874999999991
20
-72.104735256472665
30
0
40
0.49999999999997158
210
-0
220
0
230
1
100
AcDbArc
50
0
51
90
0
LINE
5
375
100
AcDbEntity
8
0
100
AcDbLine
10
-271.00874999999991
20
-72.104735256472708
30
0
11
-271.00874999999991
21
-76.298710256472702
31
0
0
ARC
5
376
100
AcDbEntity
8
0
100
AcDbCircle
10
-270.50874999999996
20
-76.298710256472702
30
0
40
0.49999999999997158
210
0
220
0
230
1
100
AcDbArc
50
180
51
240.00000000045753
0
ARC
5
377
100
AcDbEntity
8
0
100
AcDbCircle
10
-271.00874999999996
20
-77.16473525647271
30
0
40
0.50000000000004263
210
0
220
-0
230
1
100
AcDbArc
50
0
51
59.999976864382532
0
LINE
5
378
100
AcDbEntity
8
0
100
AcDbLine
10
-270.50874999999991
20
-77.16473525647271
30
0
11
-270.50874974183091
21
-81.66473525647271
31
0
0
ARC
5
379
100
AcDbEntity
8
0
100
AcDbCircle
10
-271.00874999999985
20
-81.664735256472767
30
0
40
0.50000025816891991
210
-0
220
0
230
1
100
AcDbArc
50
-60.000017080315445
51
0
0
ARC
5
380
100
AcDbEntity
8
0
100
AcDbCircle
10
-270.50874999999996
20
-82.530761256472701
30
0
40
0.50000025816884297
210
0
220
0
230
1
100
AcDbArc
50
119.99998291969027
51
179.99998292452707
0
LINE
5
381
100
AcDbEntity
8
0
100
AcDbLine
10
-271.00875025816879
20
-82.530761107422705
30
0
11
-271.00874999999991
21
-86.724735256472698
31
0
0
ARC
5
382
100
AcDbEntity
8
0
100
AcDbCircle
10
-271.50874999999991
20
-86.724735256472712
30
0
40
0.50000000000000711
210
0
220
0
230
1
100
AcDbArc
50
-90.000000000006523
51
0
0
LINE
5
383
100
AcDbEntity
8
0
100
AcDbLine
10
-11.952499999999944
20
-96.749735256472718
30
0
11
-16.146474999999931
21
-96.749735256472718
31
0
0
ARC
5
384
100
AcDbEntity
8
0
100
AcDbCircle
10
-16.146474999999928
20
-97.249735256472704
30
0
40
0.49999999999998934
210
0
220
0
230
1
100
AcDbArc
50
90.000000000000398
51
150.00000000000855
0
ARC
5
385
100
AcDbEntity
8
0
100
AcDbCircle
10
-17.012499999999946
20
-96.749735256472675
30
0
40
0.50000000000004263
210
0
220
0
230
1
100
AcDbArc
50
270.00000000000205
51
329.99997686482936
0
LINE
5
386
100
AcDbEntity
8
0
100
AcDbLine
10
-17.012499999999928
20
-97.249735256472718
30
0
11
-21.512499999999939
21
-97.249735514641714
31
0
0
ARC
5
387
100
AcDbEntity
8
0
100
AcDbCircle
10
-21.512499999999921
20
-96.74973525647269
30
0
40
0.5000002581690155
210
0
220
0
230
1
100
AcDbArc
50
209.99998291969314
51
269.99999999999795
0
ARC
5
388
100
AcDbEntity
8
0
100
AcDbCircle
10
-22.378524999999925
20
-97.249735256472704
30
0
40
0.49999939214355699
210
0
220
-0
230
1
100
AcDbArc
50
30.000040215509877
51
90.000040215498501
0
LINE
5
389
100
AcDbEntity
8
0
100
AcDbLine
10
-22.378525350945928
20
-96.749735864329267
30
0
11
-26.572499999999941
21
-96.749735256472718
31
0
0
ARC
5
390
100
AcDbEntity
8
0
100
AcDbCircle
10
-26.572499999999934
20
-96.249735256472718
30
0
40
0.49999999999999822
210
0
220
0
230
1
100
AcDbArc
50
180
51
269.9999999999992
0
LINE
5
391
100
AcDbEntity
8
0
100
AcDbLine
10
-27.072499999999931
20
-96.249735256472704
30
0
11
-27.072499999999948
21
-81.629735256472713
31
0
0
ARC
5
392
100
AcDbEntity
8
0
100
AcDbCircle
10
-26.572499999999927
20
-81.629735256472713
30
0
40
0.50000000000000711
210
0
220
0
230
1
100
AcDbArc
50
90.00000000000081
51
180
0
LINE
5
393
100
AcDbEntity
8
0
100
AcDbLine
10
-26.572499999999934
20
-81.129735256472699
30
0
11
-11.952499999999944
21
-81.129735256472699
31
0
0
ARC
5
394
100
AcDbEntity
8
0
100
AcDbCircle
10
-11.952499999999933
20
-81.629735256472685
30
0
40
0.49999999999999822
210
0
220
0
230
1
100
AcDbArc
50
0
51
90.000000000001208
0
LINE
5
395
100
AcDbEntity
8
0
100
AcDbLine
10
-11.452499999999935
20
-81.629735256472713
30
0
11
-11.452499999999937
21
-96.249735256472704
31
0
0
ARC
5
396
100
AcDbEntity
8
0
100
AcDbCircle
10
-11.952499999999933
20
-96.249735256472704
30
0
40
0.50000000000000711
210
0
220
0
230
1
100
AcDbArc
50
-90.000000000001208
51
0
0
ARC
5
397
100
AcDbEntity
8
0
100
AcDbCircle
10
-59.90999999999994
20
-100.67973525647272
30
0
40
0.50000000000000711
210
0
220
-0
230
1
100
AcDbArc
50
89.99999999999919
51
180
0
LINE
5
398
100
AcDbEntity
8
0
100
AcDbLine
10
-59.909999999999933
20
-100.17973525647271
30
0
11
-45.289999999999928
21
-100.17973525647271
31
0
0
ARC
5
399
100
AcDbEntity
8
0
100
AcDbCircle
10
-45.289999999999949
20
-100.67973525647272
30
0
40
0.50000000000000711
210
0
220
0
230
1
100
AcDbArc
50
0
51
89.999999999997556
0
LINE
5
400
100
AcDbEntity
8
0
100
AcDbLine
10
-44.789999999999935
20
-100.67973525647272
30
0
11
-44.789999999999921
21
-115.2997352564727
31
0
0
ARC
5
401
100
AcDbEntity
8
0
100
AcDbCircle
10
-45.289999999999957
20
-115.29973525647267
30
0
40
0.50000000000002487
210
0
220
0
230
1
100
AcDbArc
50
270.00000000000244
51
360
0
LINE
5
402
100
AcDbEntity
8
0
100
AcDbLine
10
-45.289999999999935
20
-115.7997352564727
30
0
11
-49.483974999999916
21
-115.79973525647269
31
0
0
ARC
5
403
100
AcDbEntity
8
0
100
AcDbCircle
10
-49.483974999999923
20
-116.2997352564727
30
0
40
0.50000000000000711
210
0
220
-0
230
1
100
AcDbArc
50
89.99999999999919
51
149.99997686482556
0
ARC
5
404
100
AcDbEntity
8
0
100
AcDbCircle
10
-50.34999999999993
20
-115.7997352564727
30
0
40
0.49999999999998934
210
0
220
0
230
1
100
AcDbArc
50
269.9999999999992
51
330.00000000003075
0
LINE
5
405
100
AcDbEntity
8
0
100
AcDbLine
10
-50.349999999999937
20
-116.2997352564727
30
0
11
-54.850000149053955
21
-116.29973551464167
31
0
0
ARC
5
406
100
AcDbEntity
8
0
100
AcDbCircle
10
-54.849999999999923
20
-115.79973525647269
30
0
40
0.50000025816901039
210
0
220
0
230
1
100
AcDbArc
50
209.99998291969155
51
269.99998291967501
0
ARC
5
407
100
AcDbEntity
8
0
100
AcDbCircle
10
-55.716024999999931
20
-116.2997352564727
30
0
40
0.49999939214356193
210
0
220
-0
230
1
100
AcDbArc
50
30.00004021551127
51
90.000000000001634
0
LINE
5
408
100
AcDbEntity
8
0
100
AcDbLine
10
-55.716024999999945
20
-115.79973586432914
30
0
11
-59.909999999999926
21
-115.79973525647269
31
0
0
ARC
5
409
100
AcDbEntity
8
0
100
AcDbCircle
10
-59.90999999999994
20
-115.2997352564727
30
0
40
0.49999999999998934
210
0
220
0
230
1
100
AcDbArc
50
180
51
270.00000000000159
0
LINE
5
410
100
AcDbEntity
8
0
100
AcDbLine
10
-60.409999999999933
20
-115.2997352564727
30
0
11
-60.409999999999954
21
-100.67973525647268
31
0
0
ARC
5
411
100
AcDbEntity
8
0
100
AcDbCircle
10
-26.23999999999992
20
-115.29973525647272
30
0
40
0.49999999999998934
210
0
220
0
230
1
100
AcDbArc
50
-90.000000000001634
51
0
0
LINE
5
412
100
AcDbEntity
8
0
100
AcDbLine
10
-26.239999999999934
20
-115.7997352564727
30
0
11
-30.43397499999994
21
-115.79973525647269
31
0
0
ARC
5
413
100
AcDbEntity
8
0
100
AcDbCircle
10
-30.433974999999933
20
-116.2997352564727
30
0
40
0.50000000000000711
210
0
220
0
230
1
100
AcDbArc
50
90.00000000000081
51
149.99997686482374
0
ARC
5
414
100
AcDbEntity
8
0
100
AcDbCircle
10
-31.299999999999919
20
-115.7997352564727
30
0
40
0.49999999999998934
210
0
220
0
230
1
100
AcDbArc
50
269.9999999999996
51
330.00000000003132
0
LINE
5
415
100
AcDbEntity
8
0
100
AcDbLine
10
-31.299999999999923
20
-116.2997352564727
30
0
11
-35.800000149053943
21
-116.29973551464164
31
0
0
ARC
5
416
100
AcDbEntity
8
0
100
AcDbCircle
10
-35.79999999999994
20
-115.7997352564727
30
0
40
0.50000025816898241
210
0
220
0
230
1
100
AcDbArc
50
209.99998291969138
51
269.99998291967825
0
ARC
5
417
100
AcDbEntity
8
0
100
AcDbCircle
10
-36.666024999999934
20
-116.2997352564727
30
0
40
0.49999939214357353
210
0
220
-0
230
1
100
AcDbArc
50
30.000040215510865
51
90
0
LINE
5
418
100
AcDbEntity
8
0
100
AcDbLine
10
-36.666024999999934
20
-115.79973586432912
30
0
11
-40.859999999999914
21
-115.79973525647269
31
0
0
ARC
5
419
100
AcDbEntity
8
0
100
AcDbCircle
10
-40.85999999999995
20
-115.2997352564727
30
0
40
0.49999999999998046
210
0
220
0
230
1
100
AcDbArc
50
180
51
270.00000000000409
0
LINE
5
420
100
AcDbEntity
8
0
100
AcDbLine
10
-41.359999999999928
20
-115.2997352564727
30
0
11
-41.359999999999957
21
-100.6797352564727
31
0
0
ARC
5
421
100
AcDbEntity
8
0
100
AcDbCircle
10
-40.859999999999943
20
-100.67973525647272
30
0
40
0.50000000000000711
210
0
220
-0
230
1
100
AcDbArc
50
89.99999999999838
51
180
0
LINE
5
422
100
AcDbEntity
8
0
100
AcDbLine
10
-40.859999999999928
20
-100.17973525647271
30
0
11
-26.239999999999952
21
-100.17973525647271
31
0
0
ARC
5
423
100
AcDbEntity
8
0
100
AcDbCircle
10
-26.239999999999934
20
-100.6797352564727
30
0
40
0.49999999999999822
210
0
220
0
230
1
100
AcDbArc
50
0
51
90.000000000002032
0
LINE
5
424
100
AcDbEntity
8
0
100
AcDbLine
10
-25.739999999999938
20
-100.67973525647272
30
0
11
-25.739999999999931
21
-115.29973525647272
31
0
0
ARC
5
425
100
AcDbEntity
8
0
100
AcDbCircle
10
-54.814999999999955
20
-81.629735256472713
30
0
40
0.50000000000000711
210
0
220
0
230
1
100
AcDbArc
50
0
51
89.99999999999838
0
LINE
5
426
100
AcDbEntity
8
0
100
AcDbLine
10
-54.314999999999941
20
-81.629735256472713
30
0
11
-54.314999999999927
21
-96.249735256472704
31
0
0
ARC
5
427
100
AcDbEntity
8
0
100
AcDbCircle
10
-54.814999999999941
20
-96.249735256472704
30
0
40
0.50000000000000711
210
0
220
0
230
1
100
AcDbArc
50
-90
51
0
0
LINE
5
428
100
AcDbEntity
8
0
100
AcDbLine
10
-54.814999999999941
20
-96.749735256472718
30
0
11
-59.008974999999921
21
-96.74973525647269
31
0
0
ARC
5
429
100
AcDbEntity
8
0
100
AcDbCircle
10
-59.008974999999928
20
-97.249735256472704
30
0
40
0.50000000000000711
210
0
220
-0
230
1
100
AcDbArc
50
89.99999999999919
51
149.99997686482374
0
ARC
5
430
100
AcDbEntity
8
0
100
AcDbCircle
10
-59.874999999999943
20
-96.749735256472675
30
0
40
0.50000000000004263
210
0
220
0
230
1
100
AcDbArc
50
270.00000000000159
51
330.00000000003013
0
LINE
5
431
100
AcDbEntity
8
0
100
AcDbLine
10
-59.874999999999929
20
-97.249735256472718
30
0
11
-64.375000149053932
21
-97.249735514641685
31
0
0
ARC
5
432
100
AcDbEntity
8
0
100
AcDbCircle
10
-64.374999999999886
20
-96.749735256472675
30
0
40
0.50000025816903471
210
0
220
0
230
1
100
AcDbArc
50
209.99998291969172
51
269.99998291967336
0
ARC
5
433
100
AcDbEntity
8
0
100
AcDbCircle
10
-65.241024999999937
20
-97.249735256472704
30
0
40
0.49999939214357741
210
0
220
-0
230
1
100
AcDbArc
50
30.000040215510051
51
90
0
LINE
5
434
100
AcDbEntity
8
0
100
AcDbLine
10
-65.241024999999937
20
-96.749735864329125
30
0
11
-69.434999999999931
21
-96.749735256472718
31
0
0
ARC
5
435
100
AcDbEntity
8
0
100
AcDbCircle
10
-69.434999999999917
20
-96.249735256472704
30
0
40
0.50000000000000711
210
0
220
0
230
1
100
AcDbArc
50
180
51
269.99999999999835
0
LINE
5
436
100
AcDbEntity
8
0
100
AcDbLine
10
-69.934999999999917
20
-96.249735256472704
30
0
11
-69.934999999999945
21
-81.629735256472713
31
0
0
ARC
5
437
100
AcDbEntity
8
0
100
AcDbCircle
10
-69.434999999999917
20
-81.629735256472713
30
0
40
0.50000000000000711
210
0
220
-0
230
1
100
AcDbArc
50
90
51
180
0
LINE
5
438
100
AcDbEntity
8
0
100
AcDbLine
10
-69.434999999999917
20
-81.129735256472699
30
0
11
-54.814999999999941
21
-81.129735256472699
31
0
0
ARC
5
439
100
AcDbEntity
8
0
100
AcDbCircle
10
-35.76499999999993
20
-81.629735256472685
30
0
40
0.49999999999999822
210
0
220
0
230
1
100
AcDbArc
50
0
51
90
0
LINE
5
440
100
AcDbEntity
8
0
100
AcDbLine
10
-35.26499999999993
20
-81.629735256472713
30
0
11
-35.264999999999915
21
-96.249735256472704
31
0
0
ARC
5
441
100
AcDbEntity
8
0
100
AcDbCircle
10
-35.764999999999937
20
-96.249735256472704
30
0
40
0.50000000000000711
210
0
220
0
230
1
100
AcDbArc
50
-89.99999999999919
51
0
0
LINE
5
442
100
AcDbEntity
8
0
100
AcDbLine
10
-35.76499999999993
20
-96.749735256472718
30
0
11
-39.95897499999991
21
-96.749735256472718
31
0
0
ARC
5
443
100
AcDbEntity
8
0
100
AcDbCircle
10
-39.958974999999924
20
-97.249735256472704
30
0
40
0.49999999999998934
210
0
220
-0
230
1
100
AcDbArc
50
89.99999999999838
51
149.99997686482433
0
ARC
5
444
100
AcDbEntity
8
0
100
AcDbCircle
10
-40.824999999999953
20
-96.749735256472675
30
0
40
0.50000000000004263
210
0
220
0
230
1
100
AcDbArc
50
270.00000000000244
51
330.00000000003035
0
LINE
5
445
100
AcDbEntity
8
0
100
AcDbLine
10
-40.824999999999932
20
-97.249735256472718
30
0
11
-45.325000149053949
21
-97.249735514641685
31
0
0
ARC
5
446
100
AcDbEntity
8
0
100
AcDbCircle
10
-45.324999999999918
20
-96.749735256472718
30
0
40
0.50000025816901039
210
0
220
0
230
1
100
AcDbArc
50
209.99998291969018
51
269.99998291967501
0
ARC
5
447
100
AcDbEntity
8
0
100
AcDbCircle
10
-46.191024999999939
20
-97.249735256472704
30
0
40
0.49999939214356853
210
0
220
-0
230
1
100
AcDbArc
50
30.00004021550906
51
90.000000000001634
0
LINE
5
448
100
AcDbEntity
8
0
100
AcDbLine
10
-46.191024999999954
20
-96.749735864329125
30
0
11
-50.38499999999992
21
-96.749735256472718
31
0
0
ARC
5
449
100
AcDbEntity
8
0
100
AcDbCircle
10
-50.38499999999992
20
-96.249735256472704
30
0
40
0.50000000000000711
210
0
220
0
230
1
100
AcDbArc
50
180
51
270
0
LINE
5
450
100
AcDbEntity
8
0
100
AcDbLine
10
-50.884999999999927
20
-96.249735256472704
30
0
11
-50.884999999999927
21
-81.629735256472713
31
0
0
ARC
5
451
100
AcDbEntity
8
0
100
AcDbCircle
10
-50.384999999999948
20
-81.629735256472685
30
0
40
0.49999999999997158
210
0
220
-0
230
1
100
AcDbArc
50
89.999999999997556
51
180
0
LINE
5
452
100
AcDbEntity
8
0
100
AcDbLine
10
-50.384999999999927
20
-81.129735256472713
30
0
11
-35.76499999999993
21
-81.129735256472699
31
0
0
ARC
5
453
100
AcDbEntity
8
0
100
AcDbCircle
10
-24.759774999999927
20
-78.199735256472707
30
0
40
0.49999939214400047
210
0
220
-0
230
1
100
AcDbArc
50
30.000040215512673
51
90.000040215498501
0
LINE
5
454
100
AcDbEntity
8
0
100
AcDbLine
10
-24.75977535094593
20
-77.699735864328829
30
0
11
-28.953749999999943
21
-77.699735256472707
31
0
0
ARC
5
455
100
AcDbEntity
8
0
100
AcDbCircle
10
-28.953749999999939
20
-77.199735256472707
30
0
40
0.49999999999999378
210
0
220
0
230
1
100
AcDbArc
50
180
51
269.9999999999996
0
LINE
5
456
100
AcDbEntity
8
0
100
AcDbLine
10
-29.453749999999932
20
-77.199735256472707
30
0
11
-29.453749999999914
21
-62.579735256472695
31
0
0
ARC
5
457
100
AcDbEntity
8
0
100
AcDbCircle
10
-28.953749999999939
20
-62.579735256472695
30
0
40
0.49999999999999822
210
0
220
-0
230
1
100
AcDbArc
50
89.999999999999588
51
180
0
LINE
5
458
100
AcDbEntity
8
0
100
AcDbLine
10
-28.953749999999935
20
-62.079735256472695
30
0
11
-14.333749999999945
21
-62.079735256472695
31
0
0
ARC
5
459
100
AcDbEntity
8
0
100
AcDbCircle
10
-14.333749999999934
20
-62.579735256472695
30
0
40
0.49999999999999822
210
0
220
0
230
1
100
AcDbArc
50
0
51
90.000000000001208
0
LINE
5
460
100
AcDbEntity
8
0
100
AcDbLine
10
-13.833749999999936
20
-62.579735256472695
30
0
11
-13.833749999999938
21
-77.199735256472707
31
0
0
ARC
5
461
100
AcDbEntity
8
0
100
AcDbCircle
10
-14.333749999999931
20
-77.199735256472707
30
0
40
0.49999999999999822
210
0
220
0
230
1
100
AcDbArc
50
-90.000000000000611
51
0
0
LINE
5
462
100
AcDbEntity
8
0
100
AcDbLine
10
-14.333749999999936
20
-77.699735256472707
30
0
11
-18.527724999999933
21
-77.699735256472707
31
0
0
ARC
5
463
100
AcDbEntity
8
0
100
AcDbCircle
10
-18.527724999999929
20
-78.199735256472707
30
0
40
0.50000000000000711
210
0
220
0
230
1
100
AcDbArc
50
90.000000000000398
51
150.00000000000955
0
ARC
5
464
100
AcDbEntity
8
0
100
AcDbCircle
10
-19.393749999999937
20
-77.699735256472678
30
0
40
0.50000000000001599
210
0
220
0
230
1
100
AcDbArc
50
270.0000000000008
51
329.99997686482777
0
LINE
5
465
100
AcDbEntity
8
0
100
AcDbLine
10
-19.39374999999993
20
-78.199735256472692
30
0
11
-23.89374999999994
21
-78.199735514641276
31
0
0
ARC
5
466
100
AcDbEntity
8
0
100
AcDbCircle
10
-23.89374999999994
20
-77.699735256472707
30
0
40
0.50000025816855209
210
0
220
0
230
1
100
AcDbArc
50
209.99998291968998
51
270
0
ARC
5
467
100
AcDbEntity
8
0
100
AcDbCircle
10
-40.527499999999932
20
-77.199735256472707
30
0
40
0.49999999999999822
210
0
220
0
230
1
100
AcDbArc
50
-90
51
0
0
LINE
5
468
100
AcDbEntity
8
0
100
AcDbLine
10
-40.527499999999932
20
-77.699735256472707
30
0
11
-44.721474999999948
21
-77.699735256472707
31
0
0
ARC
5
469
100
AcDbEntity
8
0
100
AcDbCircle
10
-44.721474999999941
20
-78.199735256472707
30
0
40
0.50000000000000711
210
0
220
0
230
1
100
AcDbArc
50
90.00000000000081
51
149.99997686482112
0
ARC
5
470
100
AcDbEntity
8
0
100
AcDbCircle
10
-45.587499999999928
20
-77.699735256472721
30
0
40
0.49999999999998046
210
0
220
0
230
1
100
AcDbArc
50
269.9999999999992
51
330.00000000003536
0
LINE
5
471
100
AcDbEntity
8
0
100
AcDbLine
10
-45.587499999999935
20
-78.199735256472692
30
0
11
-50.087500149053952
21
-78.199735514641674
31
0
0
ARC
5
472
100
AcDbEntity
8
0
100
AcDbCircle
10
-50.08749999999992
20
-77.699735256472692
30
0
40
0.50000025816901494
210
0
220
0
230
1
100
AcDbArc
50
209.99998291969155
51
269.99998291967501
0
ARC
5
473
100
AcDbEntity
8
0
100
AcDbCircle
10
-50.953524999999928
20
-78.199735256472707
30
0
40
0.49999939214356193
210
0
220
-0
230
1
100
AcDbArc
50
30.00004021551127
51
90.00000000000081
0
LINE
5
474
100
AcDbEntity
8
0
100
AcDbLine
10
-50.953524999999935
20
-77.699735864329142
30
0
11
-55.147499999999923
21
-77.699735256472707
31
0
0
ARC
5
475
100
AcDbEntity
8
0
100
AcDbCircle
10
-55.14749999999993
20
-77.199735256472707
30
0
40
0.49999999999999822
210
0
220
0
230
1
100
AcDbArc
50
180
51
270.0000000000008
0
LINE
5
476
100
AcDbEntity
8
0
100
AcDbLine
10
-55.64749999999993
20
-77.199735256472707
30
0
11
-55.64749999999993
21
-62.579735256472695
31
0
0
ARC
5
477
100
AcDbEntity
8
0
100
AcDbCircle
10
-55.14749999999993
20
-62.579735256472695
30
0
40
0.49999999999999822
210
0
220
-0
230
1
100
AcDbArc
50
90
51
180
0
LINE
5
478
100
AcDbEntity
8
0
100
AcDbLine
10
-55.14749999999993
20
-62.079735256472695
30
0
11
-40.527499999999925
21
-62.079735256472695
31
0
0
ARC
5
479
100
AcDbEntity
8
0
100
AcDbCircle
10
-40.527499999999932
20
-62.579735256472695
30
0
40
0.49999999999999822
210
0
220
0
230
1
100
AcDbArc
50
0
51
89.99999999999919
0
LINE
5
480
100
AcDbEntity
8
0
100
AcDbLine
10
-40.027499999999932
20
-62.579735256472695
30
0
11
-40.027499999999932
21
-77.199735256472707
31
0
0
LINE
5
481
100
AcDbEntity
8
0
100
AcDbLine
10
-69.102499999999935
20
-58.649735256472709
30
0
11
-73.29647499999993
21
-58.649735256472709
31
0
0
ARC
5
482
100
AcDbEntity
8
0
100
AcDbCircle
10
-73.296474999999916
20
-59.149735256472709
30
0
40
0.50000000000000711
210
0
220
0
230
1
100
AcDbArc
50
90.000000000001634
51
150.00000000001199
0
ARC
5
483
100
AcDbEntity
8
0
100
AcDbCircle
10
-74.162499999999952
20
-58.649735256472681
30
0
40
0.50000000000002487
210
0
220
0
230
1
100
AcDbArc
50
270.00000000000159
51
329.99997686482686
0
LINE
5
484
100
AcDbEntity
8
0
100
AcDbLine
10
-74.162499999999937
20
-59.149735256472702
30
0
11
-78.662499999999937
21
-59.149735514641705
31
0
0
ARC
5
485
100
AcDbEntity
8
0
100
AcDbCircle
10
-78.662499999999937
20
-58.649735256472688
30
0
40
0.50000025816901172
210
0
220
0
230
1
100
AcDbArc
50
209.99998291969337
51
270
0
ARC
5
486
100
AcDbEntity
8
0
100
AcDbCircle
10
-79.528524999999931
20
-59.149735256472709
30
0
40
0.49999939214355427
210
0
220
-0
230
1
100
AcDbArc
50
30.000040215510985
51
90.000040215499311
0
LINE
5
487
100
AcDbEntity
8
0
100
AcDbLine
10
-79.528525350945941
20
-58.64973586432928
30
0
11
-83.72249999999994
21
-58.649735256472709
31
0
0
ARC
5
488
100
AcDbEntity
8
0
100
AcDbCircle
10
-83.72249999999994
20
-58.149735256472709
30
0
40
0.50000000000000711
210
0
220
0
230
1
100
AcDbArc
50
180
51
270
0
LINE
5
489
100
AcDbEntity
8
0
100
AcDbLine
10
-84.22249999999994
20
-58.149735256472695
30
0
11
-84.22249999999994
21
-43.529735256472705
31
0
0
ARC
5
490
100
AcDbEntity
8
0
100
AcDbCircle
10
-83.722499999999926
20
-43.529735256472755
30
0
40
0.50000000000003375
210
0
220
0
230
1
100
AcDbArc
50
90.000000000001634
51
180
0
LINE
5
491
100
AcDbEntity
8
0
100
AcDbLine
10
-83.72249999999994
20
-43.029735256472719
30
0
11
-69.102499999999907
21
-43.029735256472719
31
0
0
ARC
5
492
100
AcDbEntity
8
0
100
AcDbCircle
10
-69.102499999999935
20
-43.529735256472719
30
0
40
0.49999999999999822
210
0
220
0
230
1
100
AcDbArc
50
0
51
89.999999999996746
0
LINE
5
493
100
AcDbEntity
8
0
100
AcDbLine
10
-68.602499999999935
20
-43.529735256472719
30
0
11
-68.602499999999935
21
-58.149735256472717
31
0
0
ARC
5
494
100
AcDbEntity
8
0
100
AcDbCircle
10
-69.102499999999935
20
-58.149735256472688
30
0
40
0.50000000000001599
210
0
220
0
230
1
100
AcDbArc
50
270
51
360
0
ARC
5
495
100
AcDbEntity
8
0
100
AcDbCircle
10
-35.76499999999993
20
-24.479735256472726
30
0
40
0.49999999999999822
210
0
220
0
230
1
100
AcDbArc
50
0
51
90
0
LINE
5
496
100
AcDbEntity
8
0
100
AcDbLine
10
-35.26499999999993
20
-24.479735256472726
30
0
11
-35.264999999999915
21
-39.099735256472727
31
0
0
ARC
5
497
100
AcDbEntity
8
0
100
AcDbCircle
10
-35.76499999999993
20
-39.099735256472727
30
0
40
0.49999999999999822
210
0
220
0
230
1
100
AcDbArc
50
-90
51
0
0
LINE
5
498
100
AcDbEntity
8
0
100
AcDbLine
10
-35.76499999999993
20
-39.599735256472719
30
0
11
-39.95897499999991
21
-39.599735256472727
31
0
0
ARC
5
499
100
AcDbEntity
8
0
100
AcDbCircle
10
-39.958974999999924
20
-40.099735256472719
30
0
40
0.49999999999998934
210
0
220
-0
230
1
100
AcDbArc
50
89.99999999999838
51
150.00000000001188
0
ARC
5
500
100
AcDbEntity
8
0
100
AcDbCircle
10
-40.82499999999996
20
-39.599735256472691
30
0
40
0.50000000000003819
210
0
220
0
230
1
100
AcDbArc
50
270.00000000000324
51
329.99997686482703
0
LINE
5
501
100
AcDbEntity
8
0
100
AcDbLine
10
-40.824999999999932
20
-40.099735256472727
30
0
11
-45.324999999999918
21
-40.099735514641736
31
0
0
ARC
5
502
100
AcDbEntity
8
0
100
AcDbCircle
10
-45.324999999999932
20
-39.599735256472741
30
0
40
0.50000025816898841
210
0
220
0
230
1
100
AcDbArc
50
209.99998291969098
51
270.00000000000159
0
ARC
5
503
100
AcDbEntity
8
0
100
AcDbCircle
10
-46.191024999999939
20
-40.099735256472719
30
0
40
0.49999939214356853
210
0
220
-0
230
1
100
AcDbArc
50
30.000040215508346
51
90.000040215497691
0
LINE
5
504
100
AcDbEntity
8
0
100
AcDbLine
10
-46.191025350945935
20
-39.599735864329276
30
0
11
-50.38499999999992
21
-39.599735256472719
31
0
0
ARC
5
505
100
AcDbEntity
8
0
100
AcDbCircle
10
-50.384999999999927
20
-39.099735256472727
30
0
40
0.49999999999999822
210
0
220
0
230
1
100
AcDbArc
50
180
51
270.0000000000008
0
LINE
5
506
100
AcDbEntity
8
0
100
AcDbLine
10
-50.884999999999927
20
-39.099735256472727
30
0
11
-50.884999999999927
21
-24.479735256472726
31
0
0
ARC
5
507
100
AcDbEntity
8
0
100
AcDbCircle
10
-50.384999999999927
20
-24.479735256472726
30
0
40
0.50000000000000711
210
0
220
-0
230
1
100
AcDbArc
50
90
51
180
0
LINE
5
508
100
AcDbEntity
8
0
100
AcDbLine
10
-50.384999999999927
20
-23.979735256472718
30
0
11
-35.76499999999993
21
-23.979735256472729
31
0
0
LWPOLYLINE
5
509
100
AcDbEntity
8
0
100
AcDbPolyline
90
8
70
1
43
0.0
10
-114.78187499999993
20
-31.62348525647273
42
-0.41421356237310542
10
-114.28187499999993
20
-31.123485256472733
10
-102.58187499999993
20
-31.123485256472719
42
-0.41421356237308721
10
-102.08187499999994
20
-31.62348525647273
10
-102.08187499999994
20
-36.973485256472728
42
-0.41421356237310542
10
-102.58187499999994
20
-37.473485256472728
10
-114.28187499999994
20
-37.473485256472742
42
-0.41421356237308721
10
-114.78187499999993
20
-36.973485256472728
0
ARC
5
510
100
AcDbEntity
8
0
100
AcDbCircle
10
-69.137499999999946
20
-39.599735256472776
30
0
40
0.50000025816895532
210
0
220
0
230
1
100
AcDbArc
50
209.99998291968797
51
269.99998291967989
0
ARC
5
511
100
AcDbEntity
8
0
100
AcDbCircle
10
-70.003524999999939
20
-40.099735256472719
30
0
40
0.49999939214357075
210
0
220
-0
230
1
100
AcDbArc
50
30.000040215508644
51
90
0
LINE
5
512
100
AcDbEntity
8
0
100
AcDbLine
10
-70.003524999999939
20
-39.599735864329148
30
0
11
-74.197499999999934
21
-39.599735256472719
31
0
0
ARC
5
513
100
AcDbEntity
8
0
100
AcDbCircle
10
-74.19749999999992
20
-39.099735256472727
30
0
40
0.49999999999999822
210
0
220
0
230
1
100
AcDbArc
50
180
51
269.99999999999835
0
LINE
5
514
100
AcDbEntity
8
0
100
AcDbLine
10
-74.69749999999992
20
-39.099735256472727
30
0
11
-74.697499999999906
21
-24.479735256472726
31
0
0
ARC
5
515
100
AcDbEntity
8
0
100
AcDbCircle
10
-74.19749999999992
20
-24.479735256472726
30
0
40
0.49999999999999822
210
0
220
-0
230
1
100
AcDbArc
50
90
51
180
0
LINE
5
516
100
AcDbEntity
8
0
100
AcDbLine
10
-74.19749999999992
20
-23.979735256472729
30
0
11
-59.577499999999937
21
-23.979735256472729
31
0
0
ARC
5
517
100
AcDbEntity
8
0
100
AcDbCircle
10
-59.57749999999993
20
-24.479735256472726
30
0
40
0.49999999999999822
210
0
220
0
230
1
100
AcDbArc
50
0
51
90.00000000000081
0
LINE
5
518
100
AcDbEntity
8
0
100
AcDbLine
10
-59.07749999999993
20
-24.479735256472726
30
0
11
-59.07749999999993
21
-39.099735256472727
31
0
0
ARC
5
519
100
AcDbEntity
8
0
100
AcDbCircle
10
-59.57749999999993
20
-39.099735256472727
30
0
40
0.49999999999999822
210
0
220
0
230
1
100
AcDbArc
50
-90
51
0
0
LINE
5
520
100
AcDbEntity
8
0
100
AcDbLine
10
-59.57749999999993
20
-39.599735256472719
30
0
11
-63.771474999999924
21
-39.599735256472727
31
0
0
ARC
5
521
100
AcDbEntity
8
0
100
AcDbCircle
10
-63.771474999999931
20
-40.099735256472719
30
0
40
0.49999999999998934
210
0
220
-0
230
1
100
AcDbArc
50
89.99999999999919
51
149.9999768648232
0
ARC
5
522
100
AcDbEntity
8
0
100
AcDbCircle
10
-64.637499999999932
20
-39.599735256472719
30
0
40
0.49999999999999822
210
0
220
0
230
1
100
AcDbArc
50
270
51
330.00000000003268
0
LINE
5
523
100
AcDbEntity
8
0
100
AcDbLine
10
-64.637499999999932
20
-40.099735256472719
30
0
11
-69.137500149053935
21
-40.099735514641708
31
0
0
ARC
5
524
100
AcDbEntity
8
0
100
AcDbCircle
10
-78.627499999999927
20
-62.579735256472695
30
0
40
0.49999999999998934
210
0
220
0
230
1
100
AcDbArc
50
0
51
90.000000000001634
0
LINE
5
525
100
AcDbEntity
8
0
100
AcDbLine
10
-78.127499999999941
20
-62.579735256472695
30
0
11
-78.127499999999941
21
-77.199735256472707
31
0
0
ARC
5
526
100
AcDbEntity
8
0
100
AcDbCircle
10
-78.627499999999941
20
-77.199735256472707
30
0
40
0.49999999999999822
210
0
220
0
230
1
100
AcDbArc
50
-90
51
0
0
LINE
5
527
100
AcDbEntity
8
0
100
AcDbLine
10
-78.627499999999941
20
-77.699735256472707
30
0
11
-82.821474999999936
21
-77.699735256472707
31
0
0
ARC
5
528
100
AcDbEntity
8
0
100
AcDbCircle
10
-82.821474999999936
20
-78.199735256472707
30
0
40
0.50000000000000711
210
0
220
-0
230
1
100
AcDbArc
50
90
51
149.99997686436484
0
ARC
5
529
100
AcDbEntity
8
0
100
AcDbCircle
10
-83.687499999999929
20
-77.699735256472678
30
0
40
0.50000000000002487
210
0
220
0
230
1
100
AcDbArc
50
270.00000000000159
51
330.00000000048783
0
LINE
5
530
100
AcDbEntity
8
0
100
AcDbLine
10
-83.687499999999915
20
-78.199735256472692
30
0
11
-88.187500149049924
21
-78.199735514641674
31
0
0
ARC
5
531
100
AcDbEntity
8
0
100
AcDbCircle
10
-88.187499999999943
20
-77.699735256472678
30
0
40
0.50000025816900839
210
0
220
0
230
1
100
AcDbArc
50
209.99998291969561
51
269.99998292013908
0
ARC
5
532
100
AcDbEntity
8
0
100
AcDbCircle
10
-89.053524999999922
20
-78.199735256472707
30
0
40
0.49999939214354983
210
0
220
-0
230
1
100
AcDbArc
50
30.000040215510278
51
90
0
LINE
5
533
100
AcDbEntity
8
0
100
AcDbLine
10
-89.053524999999922
20
-77.699735864329142
30
0
11
-93.247499999999931
21
-77.699735256472721
31
0
0
ARC
5
534
100
AcDbEntity
8
0
100
AcDbCircle
10
-93.247499999999945
20
-77.199735256472721
30
0
40
0.50000000000000711
210
0
220
0
230
1
100
AcDbArc
50
180
51
270.00000000000159
0
LINE
5
535
100
AcDbEntity
8
0
100
AcDbLine
10
-93.747499999999945
20
-77.199735256472707
30
0
11
-93.747499999999931
21
-62.579735256472695
31
0
0
ARC
5
536
100
AcDbEntity
8
0
100
AcDbCircle
10
-93.24749999999996
20
-62.579735256472688
30
0
40
0.49999999999998046
210
0
220
-0
230
1
100
AcDbArc
50
89.99999999999838
51
180
0
LINE
5
537
100
AcDbEntity
8
0
100
AcDbLine
10
-93.247499999999945
20
-62.079735256472702
30
0
11
-78.627499999999941
21
-62.079735256472702
31
0
0
ARC
5
538
100
AcDbEntity
8
0
100
AcDbCircle
10
-88.152499999999932
20
-58.149735256472667
30
0
40
0.50000000000003375
210
0
220
0
230
1
100
AcDbArc
50
270.00000000000159
51
360
0
LINE
5
539
100
AcDbEntity
8
0
100
AcDbLine
10
-88.152499999999918
20
-58.649735256472695
30
0
11
-92.346474999999941
21
-58.649735256472709
31
0
0
ARC
5
540
100
AcDbEntity
8
0
100
AcDbCircle
10
-92.346474999999941
20
-59.149735256472709
30
0
40
0.50000000000000711
210
0
220
-0
230
1
100
AcDbArc
50
90
51
149.99999999988941
0
ARC
5
541
100
AcDbEntity
8
0
100
AcDbCircle
10
-93.212499999999935
20
-58.649735256472681
30
0
40
0.50000000000002487
210
0
220
0
230
1
100
AcDbArc
50
270.00000000000159
51
329.99997686494703
0
LINE
5
542
100
AcDbEntity
8
0
100
AcDbLine
10
-93.21249999999992
20
-59.149735256472702
30
0
11
-97.712499999999935
21
-59.149735514641705
31
0
0
ARC
5
543
100
AcDbEntity
8
0
100
AcDbCircle
10
-97.712499999999977
20
-58.649735256472752
30
0
40
0.50000025816894211
210
0
220
0
230
1
100
AcDbArc
50
209.99998291968947
51
270.00000000000489
0
ARC
5
544
100
AcDbEntity
8
0
100
AcDbCircle
10
-98.578524999999928
20
-59.149735256472709
30
0
40
0.49999939214355427
210
0
220
-0
230
1
100
AcDbArc
50
30.000040215510985
51
90.000040214812117
0
LINE
5
545
100
AcDbEntity
8
0
100
AcDbLine
10
-98.578525350939941
20
-58.64973586432928
30
0
11
-102.77249999999994
21
-58.649735256472709
31
0
0
ARC
5
546
100
AcDbEntity
8
0
100
AcDbCircle
10
-102.77249999999995
20
-58.149735256472709
30
0
40
0.50000000000000711
210
0
220
0
230
1
100
AcDbArc
50
180
51
270.00000000000159
0
LINE
5
547
100
AcDbEntity
8
0
100
AcDbLine
10
-103.27249999999995
20
-58.149735256472695
30
0
11
-103.27249999999995
21
-43.529735256472705
31
0
0
ARC
5
548
100
AcDbEntity
8
0
100
AcDbCircle
10
-102.77249999999994
20
-43.529735256472755
30
0
40
0.50000000000003375
210
0
220
0
230
1
100
AcDbArc
50
90.000000000001634
51
180
0
LINE
5
549
100
AcDbEntity
8
0
100
AcDbLine
10
-102.77249999999995
20
-43.029735256472719
30
0
11
-88.152499999999932
21
-43.029735256472748
31
0
0
ARC
5
550
100
AcDbEntity
8
0
100
AcDbCircle
10
-88.152499999999904
20
-43.529735256472712
30
0
40
0.49999999999995381
210
0
220
0
230
1
100
AcDbArc
50
0
51
90.000000000003254
0
LINE
5
551
100
AcDbEntity
8
0
100
AcDbLine
10
-87.652499999999947
20
-43.529735256472719
30
0
11
-87.652499999999918
21
-58.149735256472717
31
0
0
LINE
5
552
100
AcDbEntity
8
0
100
AcDbLine
10
-11.952499999999944
20
-39.599735256472727
30
0
11
-16.146474999999931
21
-39.599735256472727
31
0
0
ARC
5
553
100
AcDbEntity
8
0
100
AcDbCircle
10
-16.146474999999928
20
-40.099735256472719
30
0
40
0.49999999999998934
210
0
220
0
230
1
100
AcDbArc
50
90.000000000000398
51
150.00000000001148
0
ARC
5
554
100
AcDbEntity
8
0
100
AcDbCircle
10
-17.012499999999939
20
-39.599735256472705
30
0
40
0.50000000000002043
210
0
220
0
230
1
100
AcDbArc
50
270.00000000000119
51
329.99997686482737
0
LINE
5
555
100
AcDbEntity
8
0
100
AcDbLine
10
-17.012499999999928
20
-40.099735256472727
30
0
11
-21.512499999999939
21
-40.099735514641722
31
0
0
ARC
5
556
100
AcDbEntity
8
0
100
AcDbCircle
10
-21.512499999999942
20
-39.599735256472748
30
0
40
0.50000025816897853
210
0
220
0
230
1
100
AcDbArc
50
209.99998291969086
51
270.0000000000004
0
ARC
5
557
100
AcDbEntity
8
0
100
AcDbCircle
10
-22.378524999999925
20
-40.099735256472719
30
0
40
0.49999939214355699
210
0
220
-0
230
1
100
AcDbArc
50
30.000040215509166
51
90.000040215498501
0
LINE
5
558
100
AcDbEntity
8
0
100
AcDbLine
10
-22.378525350945928
20
-39.59973586432929
30
0
11
-26.572499999999941
21
-39.599735256472719
31
0
0
ARC
5
559
100
AcDbEntity
8
0
100
AcDbCircle
10
-26.572499999999934
20
-39.099735256472727
30
0
40
0.49999999999999822
210
0
220
0
230
1
100
AcDbArc
50
180
51
269.9999999999992
0
LINE
5
560
100
AcDbEntity
8
0
100
AcDbLine
10
-27.072499999999931
20
-39.099735256472727
30
0
11
-27.072499999999948
21
-24.479735256472726
31
0
0
ARC
5
561
100
AcDbEntity
8
0
100
AcDbCircle
10
-26.572499999999934
20
-24.479735256472726
30
0
40
0.49999999999999822
210
0
220
-0
230
1
100
AcDbArc
50
90
51
180
0
LINE
5
562
100
AcDbEntity
8
0
100
AcDbLine
10
-26.572499999999934
20
-23.979735256472729
30
0
11
-11.952499999999944
21
-23.979735256472729
31
0
0
ARC
5
563
100
AcDbEntity
8
0
100
AcDbCircle
10
-11.952499999999935
20
-24.479735256472726
30
0
40
0.50000000000000044
210
0
220
0
230
1
100
AcDbArc
50
0
51
90.000000000001009
0
LINE
5
564
100
AcDbEntity
8
0
100
AcDbLine
10
-11.452499999999935
20
-24.479735256472726
30
0
11
-11.452499999999937
21
-39.099735256472727
31
0
0
ARC
5
565
100
AcDbEntity
8
0
100
AcDbCircle
10
-11.952499999999935
20
-39.099735256472719
30
0
40
0.50000000000001155
210
0
220
0
230
1
100
AcDbArc
50
269.99999999999898
51
360
0
ARC
5
566
100
AcDbEntity
8
0
100
AcDbCircle
10
-59.612499999999962
20
-58.649735256472738
30
0
40
0.50000025816895421
210
0
220
0
230
1
100
AcDbArc
50
209.99998291969047
51
269.99998291968228
0
ARC
5
567
100
AcDbEntity
8
0
100
AcDbCircle
10
-60.478524999999934
20
-59.149735256472709
30
0
40
0.4999993921435697
210
0
220
-0
230
1
100
AcDbArc
50
30.000040215510186
51
90
0
LINE
5
568
100
AcDbEntity
8
0
100
AcDbLine
10
-60.478524999999934
20
-58.649735864329145
30
0
11
-64.672499999999928
21
-58.649735256472695
31
0
0
ARC
5
569
100
AcDbEntity
8
0
100
AcDbCircle
10
-64.672499999999914
20
-58.149735256472695
30
0
40
0.49999999999999822
210
0
220
0
230
1
100
AcDbArc
50
180
51
269.99999999999835
0
LINE
5
570
100
AcDbEntity
8
0
100
AcDbLine
10
-65.172499999999914
20
-58.149735256472695
30
0
11
-65.1724999999999
21
-43.529735256472705
31
0
0
ARC
5
571
100
AcDbEntity
8
0
100
AcDbCircle
10
-64.672499999999928
20
-43.529735256472719
30
0
40
0.49999999999999822
210
0
220
-0
230
1
100
AcDbArc
50
89.99999999999838
51
180
0
LINE
5
572
100
AcDbEntity
8
0
100
AcDbLine
10
-64.672499999999914
20
-43.029735256472719
30
0
11
-50.052499999999931
21
-43.029735256472719
31
0
0
ARC
5
573
100
AcDbEntity
8
0
100
AcDbCircle
10
-50.052499999999938
20
-43.529735256472719
30
0
40
0.49999999999999822
210
0
220
0
230
1
100
AcDbArc
50
0
51
89.99999999999919
0
LINE
5
574
100
AcDbEntity
8
0
100
AcDbLine
10
-49.552499999999938
20
-43.529735256472719
30
0
11
-49.552499999999924
21
-58.149735256472717
31
0
0
ARC
5
575
100
AcDbEntity
8
0
100
AcDbCircle
10
-50.052499999999931
20
-58.149735256472695
30
0
40
0.49999999999999822
210
0
220
0
230
1
100
AcDbArc
50
269.9999999999992
51
360
0
LINE
5
576
100
AcDbEntity
8
0
100
AcDbLine
10
-50.052499999999938
20
-58.649735256472695
30
0
11
-54.246474999999919
21
-58.649735256472709
31
0
0
ARC
5
577
100
AcDbEntity
8
0
100
AcDbCircle
10
-54.246474999999926
20
-59.149735256472709
30
0
40
0.50000000000000711
210
0
220
-0
230
1
100
AcDbArc
50
89.99999999999919
51
149.99997686482374
0
ARC
5
578
100
AcDbEntity
8
0
100
AcDbCircle
10
-55.112499999999955
20
-58.649735256472688
30
0
40
0.50000000000001599
210
0
220
0
230
1
100
AcDbArc
50
270.00000000000159
51
330.00000000003166
0
LINE
5
579
100
AcDbEntity
8
0
100
AcDbLine
10
-55.11249999999994
20
-59.149735256472702
30
0
11
-59.612500149053929
21
-59.149735514641662
31
0
0
LINE
5
580
100
AcDbEntity
8
0
100
AcDbLine
10
-188.16499999999991
20
-96.749735256472718
30
0
11
-192.35897499999993
21
-96.749735256472718
31
0
0
ARC
5
581
100
AcDbEntity
8
0
100
AcDbCircle
10
-192.35897499999993
20
-97.249735256472704
30
0
40
0.49999999999998934
210
0
220
-0
230
1
100
AcDbArc
50
90
51
149.99999999989583
0
ARC
5
582
100
AcDbEntity
8
0
100
AcDbCircle
10
-193.22499999999991
20
-96.749735256472661
30
0
40
0.5000000000000604
210
0
220
0
230
1
100
AcDbArc
50
270
51
329.99997686493839
0
LINE
5
583
100
AcDbEntity
8
0
100
AcDbLine
10
-193.22499999999991
20
-97.249735256472718
30
0
11
-197.72499999999994
21
-97.249735514641728
31
0
0
ARC
5
584
100
AcDbEntity
8
0
100
AcDbCircle
10
-197.72499999999994
20
-96.74973525647269
30
0
40
0.50000025816901927
210
0
220
0
230
1
100
AcDbArc
50
209.99998291969257
51
270
0
ARC
5
585
100
AcDbEntity
8
0
100
AcDbCircle
10
-198.59102499999992
20
-97.249735256472704
30
0
40
0.49999939214353001
210
0
220
-0
230
1
100
AcDbArc
50
30.000040215511909
51
90.000040214818625
0
LINE
5
586
100
AcDbEntity
8
0
100
AcDbLine
10
-198.59102535093999
20
-96.749735864329296
30
0
11
-202.78499999999994
21
-96.749735256472718
31
0
0
ARC
5
587
100
AcDbEntity
8
0
100
AcDbCircle
10
-202.78499999999994
20
-96.249735256472718
30
0
40
0.50000000000000711
210
0
220
0
230
1
100
AcDbArc
50
180
51
270
0
LINE
5
588
100
AcDbEntity
8
0
100
AcDbLine
10
-203.28499999999994
20
-96.249735256472704
30
0
11
-203.28499999999994
21
-81.629735256472713
31
0
0
ARC
5
589
100
AcDbEntity
8
0
100
AcDbCircle
10
-202.78499999999994
20
-81.629735256472685
30
0
40
0.49999999999998934
210
0
220
-0
230
1
100
AcDbArc
50
90
51
180
0
LINE
5
590
100
AcDbEntity
8
0
100
AcDbLine
10
-202.78499999999994
20
-81.129735256472699
30
0
11
-188.16499999999991
21
-81.129735256472699
31
0
0
ARC
5
591
100
AcDbEntity
8
0
100
AcDbCircle
10
-188.16499999999991
20
-81.629735256472685
30
0
40
0.50000000000000711
210
0
220
0
230
1
100
AcDbArc
50
0
51
90
0
LINE
5
592
100
AcDbEntity
8
0
100
AcDbLine
10
-187.66499999999991
20
-81.629735256472713
30
0
11
-187.66499999999991
21
-96.249735256472704
31
0
0
ARC
5
593
100
AcDbEntity
8
0
100
AcDbCircle
10
-188.16499999999991
20
-96.249735256472718
30
0
40
0.49999999999998934
210
0
220
0
230
1
100
AcDbArc
50
-90
51
0
0
ARC
5
594
100
AcDbEntity
8
0
100
AcDbCircle
10
-117.05999999999995
20
-100.6797352564727
30
0
40
0.49999999999998934
210
0
220
-0
230
1
100
AcDbArc
50
89.999999999996746
51
180
0
LINE
5
595
100
AcDbEntity
8
0
100
AcDbLine
10
-117.05999999999992
20
-100.17973525647271
30
0
11
-102.43999999999993
21
-100.17973525647271
31
0
0
ARC
5
596
100
AcDbEntity
8
0
100
AcDbCircle
10
-102.43999999999993
20
-100.67973525647272
30
0
40
0.50000000000000711
210
0
220
0
230
1
100
AcDbArc
50
0
51
90
0
LINE
5
597
100
AcDbEntity
8
0
100
AcDbLine
10
-101.93999999999991
20
-100.67973525647272
30
0
11
-101.93999999999991
21
-115.29973525647272
31
0
0
ARC
5
598
100
AcDbEntity
8
0
100
AcDbCircle
10
-102.43999999999988
20
-115.29973525647273
30
0
40
0.49999999999997158
210
0
220
0
230
1
100
AcDbArc
50
-90.000000000004889
51
0
0
LINE
5
599
100
AcDbEntity
8
0
100
AcDbLine
10
-102.43999999999993
20
-115.7997352564727
30
0
11
-106.63397499999994
21
-115.79973525647269
31
0
0
ARC
5
600
100
AcDbEntity
8
0
100
AcDbCircle
10
-106.63397499999995
20
-116.2997352564727
30
0
40
0.50000000000000711
210
0
220
-0
230
1
100
AcDbArc
50
89.99999999999838
51
149.99999999989305
0
ARC
5
601
100
AcDbEntity
8
0
100
AcDbCircle
10
-107.49999999999991
20
-115.79973525647273
30
0
40
0.49999999999997158
210
0
220
0
230
1
100
AcDbArc
50
269.99999999999835
51
329.99997686494748
0
LINE
5
602
100
AcDbEntity
8
0
100
AcDbLine
10
-107.49999999999993
20
-116.2997352564727
30
0
11
-111.99999999999994
21
-116.29973551464168
31
0
0
ARC
5
603
100
AcDbEntity
8
0
100
AcDbCircle
10
-111.99999999999994
20
-115.7997352564727
30
0
40
0.50000025816897731
210
0
220
0
230
1
100
AcDbArc
50
209.99998291968853
51
270
0
ARC
5
604
100
AcDbEntity
8
0
100
AcDbCircle
10
-112.86602499999994
20
-116.2997352564727
30
0
40
0.49999939214357858
210
0
220
-0
230
1
100
AcDbArc
50
30.00004021551371
51
90.000040214807228
0
LINE
5
605
100
AcDbEntity
8
0
100
AcDbLine
10
-112.86602535093991
20
-115.79973586432925
30
0
11
-117.05999999999992
21
-115.7997352564727
31
0
0
ARC
5
606
100
AcDbEntity
8
0
100
AcDbCircle
10
-117.0599999999999
20
-115.29973525647267
30
0
40
0.50000000000002487
210
0
220
0
230
1
100
AcDbArc
50
180
51
269.99999999999835
0
LINE
5
607
100
AcDbEntity
8
0
100
AcDbLine
10
-117.55999999999993
20
-115.2997352564727
30
0
11
-117.55999999999993
21
-100.6797352564727
31
0
0
ARC
5
608
100
AcDbEntity
8
0
100
AcDbCircle
10
-231.92852499999992
20
-59.149735256472709
30
0
40
0.4999993921439928
210
0
220
-0
230
1
100
AcDbArc
50
30.000040215513081
51
90.000040214808848
0
LINE
5
609
100
AcDbEntity
8
0
100
AcDbLine
10
-231.92852535093991
20
-58.649735864328846
30
0
11
-236.12249999999995
21
-58.649735256472709
31
0
0
ARC
5
610
100
AcDbEntity
8
0
100
AcDbCircle
10
-236.1225
20
-58.149735256472717
30
0
40
0.49999999999997158
210
0
220
0
230
1
100
AcDbArc
50
180
51
270.00000000000648
0
LINE
5
611
100
AcDbEntity
8
0
100
AcDbLine
10
-236.62249999999997
20
-58.149735256472695
30
0
11
-236.62249999999997
21
-43.529735256472705
31
0
0
ARC
5
612
100
AcDbEntity
8
0
100
AcDbCircle
10
-236.12249999999995
20
-43.529735256472733
30
0
40
0.50000000000001599
210
0
220
-0
230
1
100
AcDbArc
50
89.999999999996746
51
180
0
LINE
5
613
100
AcDbEntity
8
0
100
AcDbLine
10
-236.12249999999992
20
-43.029735256472719
30
0
11
-221.50249999999994
21
-43.029735256472712
31
0
0
ARC
5
614
100
AcDbEntity
8
0
100
AcDbCircle
10
-221.50249999999988
20
-43.529735256472705
30
0
40
0.49999999999997158
210
0
220
0
230
1
100
AcDbArc
50
0
51
90.000000000006523
0
LINE
5
615
100
AcDbEntity
8
0
100
AcDbLine
10
-221.00249999999991
20
-43.529735256472719
30
0
11
-221.00249999999991
21
-58.149735256472717
31
0
0
ARC
5
616
100
AcDbEntity
8
0
100
AcDbCircle
10
-221.50249999999994
20
-58.149735256472681
30
0
40
0.50000000000001599
210
0
220
0
230
1
100
AcDbArc
50
269.99999999999676
51
360
0
LINE
5
617
100
AcDbEntity
8
0
100
AcDbLine
10
-221.50249999999997
20
-58.649735256472695
30
0
11
-225.69647499999991
21
-58.649735256472709
31
0
0
ARC
5
618
100
AcDbEntity
8
0
100
AcDbCircle
10
-225.69647499999991
20
-59.149735256472709
30
0
40
0.50000000000000711
210
0
220
-0
230
1
100
AcDbArc
50
90
51
149.99999999989231
0
ARC
5
619
100
AcDbEntity
8
0
100
AcDbCircle
10
-226.56249999999997
20
-58.649735256472617
30
0
40
0.50000000000008704
210
0
220
0
230
1
100
AcDbArc
50
270.00000000000324
51
329.99997686494191
0
LINE
5
620
100
AcDbEntity
8
0
100
AcDbLine
10
-226.56249999999994
20
-59.149735256472702
30
0
11
-231.06249999999991
21
-59.149735514641293
31
0
0
ARC
5
621
100
AcDbEntity
8
0
100
AcDbCircle
10
-231.0625
20
-58.649735256472788
30
0
40
0.50000025816848581
210
0
220
0
230
1
100
AcDbArc
50
209.99998291968546
51
270.00000000000978
0
ARC
5
622
100
AcDbEntity
8
0
100
AcDbCircle
10
-235.78999999999996
20
-115.29973525647267
30
0
40
0.50000000000002487
210
0
220
0
230
1
100
AcDbArc
50
270.00000000000324
51
360
0
LINE
5
623
100
AcDbEntity
8
0
100
AcDbLine
10
-235.78999999999994
20
-115.7997352564727
30
0
11
-239.98397499999996
21
-115.79973525647269
31
0
0
ARC
5
624
100
AcDbEntity
8
0
100
AcDbCircle
10
-239.98397499999996
20
-116.2997352564727
30
0
40
0.50000000000000711
210
0
220
-0
230
1
100
AcDbArc
50
90
51
149.99999999989305
0
ARC
5
625
100
AcDbEntity
8
0
100
AcDbCircle
10
-240.84999999999994
20
-115.79973525647263
30
0
40
0.5000000000000604
210
0
220
0
230
1
100
AcDbArc
50
270
51
329.99997686493839
0
LINE
5
626
100
AcDbEntity
8
0
100
AcDbLine
10
-240.84999999999994
20
-116.2997352564727
30
0
11
-245.34999999999994
21
-116.2997355146417
31
0
0
ARC
5
627
100
AcDbEntity
8
0
100
AcDbCircle
10
-245.34999999999991
20
-115.79973525647262
30
0
40
0.50000025816907678
210
0
220
0
230
1
100
AcDbArc
50
209.9999829196982
51
269.99999999999676
0
ARC
5
628
100
AcDbEntity
8
0
100
AcDbCircle
10
-246.21602499999995
20
-116.2997352564727
30
0
40
0.4999993921435697
210
0
220
-0
230
1
100
AcDbArc
50
30.000040215510051
51
90.000040214805594
0
LINE
5
629
100
AcDbEntity
8
0
100
AcDbLine
10
-246.2160253509399
20
-115.79973586432925
30
0
11
-250.40999999999994
21
-115.7997352564727
31
0
0
ARC
5
630
100
AcDbEntity
8
0
100
AcDbCircle
10
-250.40999999999994
20
-115.2997352564727
30
0
40
0.50000000000000711
210
0
220
0
230
1
100
AcDbArc
50
180
51
270
0
LINE
5
631
100
AcDbEntity
8
0
100
AcDbLine
10
-250.90999999999994
20
-115.2997352564727
30
0
11
-250.90999999999994
21
-100.6797352564727
31
0
0
ARC
5
632
100
AcDbEntity
8
0
100
AcDbCircle
10
-250.40999999999994
20
-100.67973525647274
30
0
40
0.50000000000002487
210
0
220
-0
230
1
100
AcDbArc
50
90
51
180
0
LINE
5
633
100
AcDbEntity
8
0
100
AcDbLine
10
-250.40999999999994
20
-100.17973525647271
30
0
11
-235.78999999999994
21
-100.17973525647271
31
0
0
ARC
5
634
100
AcDbEntity
8
0
100
AcDbCircle
10
-235.78999999999994
20
-100.6797352564727
30
0
40
0.50000000000000711
210
0
220
0
230
1
100
AcDbArc
50
0
51
90
0
LINE
5
635
100
AcDbEntity
8
0
100
AcDbLine
10
-235.28999999999994
20
-100.67973525647272
30
0
11
-235.28999999999996
21
-115.29973525647272
31
0
0
ARC
5
636
100
AcDbEntity
8
0
100
AcDbCircle
10
-216.77499999999998
20
-96.749735256472775
30
0
40
0.50000025816892235
210
0
220
0
230
1
100
AcDbArc
50
209.99998291969018
51
269.99998292014237
0
ARC
5
637
100
AcDbEntity
8
0
100
AcDbCircle
10
-217.64102499999993
20
-97.249735256472704
30
0
40
0.49999939214355188
210
0
220
-0
230
1
100
AcDbArc
50
30.000040215507461
51
89.999999999996746
0
LINE
5
638
100
AcDbEntity
8
0
100
AcDbLine
10
-217.6410249999999
20
-96.749735864329139
30
0
11
-221.83499999999995
21
-96.749735256472718
31
0
0
ARC
5
639
100
AcDbEntity
8
0
100
AcDbCircle
10
-221.83499999999995
20
-96.249735256472718
30
0
40
0.50000000000000711
210
0
220
0
230
1
100
AcDbArc
50
180
51
270
0
LINE
5
640
100
AcDbEntity
8
0
100
AcDbLine
10
-222.33499999999995
20
-96.249735256472704
30
0
11
-222.33499999999995
21
-81.629735256472713
31
0
0
ARC
5
641
100
AcDbEntity
8
0
100
AcDbCircle
10
-221.83499999999995
20
-81.629735256472685
30
0
40
0.49999999999998934
210
0
220
-0
230
1
100
AcDbArc
50
90
51
180
0
LINE
5
642
100
AcDbEntity
8
0
100
AcDbLine
10
-221.83499999999995
20
-81.129735256472699
30
0
11
-207.21499999999992
21
-81.129735256472699
31
0
0
ARC
5
643
100
AcDbEntity
8
0
100
AcDbCircle
10
-207.21499999999992
20
-81.629735256472685
30
0
40
0.50000000000000711
210
0
220
0
230
1
100
AcDbArc
50
0
51
90
0
LINE
5
644
100
AcDbEntity
8
0
100
AcDbLine
10
-206.71499999999992
20
-81.629735256472713
30
0
11
-206.71499999999992
21
-96.249735256472704
31
0
0
ARC
5
645
100
AcDbEntity
8
0
100
AcDbCircle
10
-207.21499999999992
20
-96.249735256472718
30
0
40
0.49999999999998934
210
0
220
0
230
1
100
AcDbArc
50
-90
51
0
0
LINE
5
646
100
AcDbEntity
8
0
100
AcDbLine
10
-207.21499999999992
20
-96.749735256472718
30
0
11
-211.40897499999994
21
-96.749735256472718
31
0
0
ARC
5
647
100
AcDbEntity
8
0
100
AcDbCircle
10
-211.40897499999994
20
-97.249735256472704
30
0
40
0.49999999999998934
210
0
220
-0
230
1
100
AcDbArc
50
90
51
149.99997686436987
0
ARC
5
648
100
AcDbEntity
8
0
100
AcDbCircle
10
-212.27499999999995
20
-96.749735256472633
30
0
40
0.50000000000007816
210
0
220
0
230
1
100
AcDbArc
50
270.00000000000324
51
330.00000000047936
0
LINE
5
649
100
AcDbEntity
8
0
100
AcDbLine
10
-212.27499999999992
20
-97.249735256472718
30
0
11
-216.77500014904993
21
-97.249735514641685
31
0
0
ARC
5
650
100
AcDbEntity
8
0
100
AcDbCircle
10
-240.88499999999996
20
-96.249735256472718
30
0
40
0.50000000000000711
210
0
220
0
230
1
100
AcDbArc
50
180
51
270
0
LINE
5
651
100
AcDbEntity
8
0
100
AcDbLine
10
-241.38499999999996
20
-96.249735256472704
30
0
11
-241.38499999999996
21
-81.629735256472713
31
0
0
ARC
5
652
100
AcDbEntity
8
0
100
AcDbCircle
10
-240.88499999999996
20
-81.629735256472685
30
0
40
0.49999999999998934
210
0
220
-0
230
1
100
AcDbArc
50
90
51
180
0
LINE
5
653
100
AcDbEntity
8
0
100
AcDbLine
10
-240.88499999999996
20
-81.129735256472699
30
0
11
-226.26499999999993
21
-81.129735256472699
31
0
0
ARC
5
654
100
AcDbEntity
8
0
100
AcDbCircle
10
-226.26499999999993
20
-81.629735256472685
30
0
40
0.50000000000000711
210
0
220
0
230
1
100
AcDbArc
50
0
51
90
0
LINE
5
655
100
AcDbEntity
8
0
100
AcDbLine
10
-225.76499999999993
20
-81.629735256472713
30
0
11
-225.76499999999993
21
-96.249735256472704
31
0
0
ARC
5
656
100
AcDbEntity
8
0
100
AcDbCircle
10
-226.26499999999993
20
-96.249735256472718
30
0
40
0.49999999999998934
210
0
220
0
230
1
100
AcDbArc
50
-90
51
0
0
LINE
5
657
100
AcDbEntity
8
0
100
AcDbLine
10
-226.26499999999993
20
-96.749735256472718
30
0
11
-230.45897499999995
21
-96.749735256472718
31
0
0
ARC
5
658
100
AcDbEntity
8
0
100
AcDbCircle
10
-230.45897499999995
20
-97.249735256472704
30
0
40
0.49999999999998934
210
0
220
-0
230
1
100
AcDbArc
50
90
51
149.99997686436987
0
ARC
5
659
100
AcDbEntity
8
0
100
AcDbCircle
10
-231.32499999999996
20
-96.749735256472633
30
0
40
0.50000000000007816
210
0
220
0
230
1
100
AcDbArc
50
270.00000000000324
51
330.00000000047936
0
LINE
5
660
100
AcDbEntity
8
0
100
AcDbLine
10
-231.32499999999993
20
-97.249735256472718
30
0
11
-235.82500014904994
21
-97.249735514641685
31
0
0
ARC
5
661
100
AcDbEntity
8
0
100
AcDbCircle
10
-235.82499999999996
20
-96.749735256472718
30
0
40
0.50000025816901039
210
0
220
0
230
1
100
AcDbArc
50
209.99998291968973
51
269.99998292013908
0
ARC
5
662
100
AcDbEntity
8
0
100
AcDbCircle
10
-236.69102499999994
20
-97.249735256472704
30
0
40
0.49999939214353001
210
0
220
-0
230
1
100
AcDbArc
50
30.000040215511909
51
90
0
LINE
5
663
100
AcDbEntity
8
0
100
AcDbLine
10
-236.69102499999994
20
-96.749735864329182
30
0
11
-240.88499999999996
21
-96.749735256472732
31
0
0
ARC
5
664
100
AcDbEntity
8
0
100
AcDbCircle
10
-202.45249999999993
20
-43.529735256472684
30
0
40
0.49999999999997158
210
0
220
0
230
1
100
AcDbArc
50
0
51
90.000000000003254
0
LINE
5
665
100
AcDbEntity
8
0
100
AcDbLine
10
-201.95249999999993
20
-43.529735256472719
30
0
11
-201.95249999999993
21
-58.149735256472717
31
0
0
ARC
5
666
100
AcDbEntity
8
0
100
AcDbCircle
10
-202.45249999999996
20
-58.149735256472681
30
0
40
0.50000000000001599
210
0
220
0
230
1
100
AcDbArc
50
269.99999999999676
51
360
0
LINE
5
667
100
AcDbEntity
8
0
100
AcDbLine
10
-202.45249999999999
20
-58.649735256472695
30
0
11
-206.64647499999995
21
-58.649735256472717
31
0
0
ARC
5
668
100
AcDbEntity
8
0
100
AcDbCircle
10
-206.64647499999995
20
-59.149735256472709
30
0
40
0.49999999999999822
210
0
220
-0
230
1
100
AcDbArc
50
90
51
149.99997686436825
0
ARC
5
669
100
AcDbEntity
8
0
100
AcDbCircle
10
-207.51249999999993
20
-58.649735256472766
30
0
40
0.49999999999993605
210
0
220
0
230
1
100
AcDbArc
50
269.99999999999676
51
330.00000000049204
0
LINE
5
670
100
AcDbEntity
8
0
100
AcDbLine
10
-207.51249999999996
20
-59.149735256472702
30
0
11
-212.01250014904991
21
-59.149735514641684
31
0
0
ARC
5
671
100
AcDbEntity
8
0
100
AcDbCircle
10
-212.0124999999999
20
-58.649735256472596
30
0
40
0.50000025816909011
210
0
220
0
230
1
100
AcDbArc
50
209.99998291969939
51
269.99998292013584
0
ARC
5
672
100
AcDbEntity
8
0
100
AcDbCircle
10
-212.87852499999991
20
-59.149735256472709
30
0
40
0.49999939214354333
210
0
220
-0
230
1
100
AcDbArc
50
30.000040215513323
51
90.000000000006523
0
LINE
5
673
100
AcDbEntity
8
0
100
AcDbLine
10
-212.87852499999997
20
-58.649735864329166
30
0
11
-217.07249999999993
21
-58.649735256472709
31
0
0
ARC
5
674
100
AcDbEntity
8
0
100
AcDbCircle
10
-217.07249999999999
20
-58.149735256472717
30
0
40
0.49999999999997158
210
0
220
0
230
1
100
AcDbArc
50
180
51
270.00000000000648
0
LINE
5
675
100
AcDbEntity
8
0
100
AcDbLine
10
-217.57249999999996
20
-58.149735256472695
30
0
11
-217.57249999999996
21
-43.529735256472705
31
0
0
ARC
5
676
100
AcDbEntity
8
0
100
AcDbCircle
10
-217.07249999999993
20
-43.529735256472733
30
0
40
0.50000000000001599
210
0
220
-0
230
1
100
AcDbArc
50
89.999999999996746
51
180
0
LINE
5
677
100
AcDbEntity
8
0
100
AcDbLine
10
-217.07249999999991
20
-43.029735256472719
30
0
11
-202.45249999999996
21
-43.029735256472712
31
0
0
ARC
5
678
100
AcDbEntity
8
0
100
AcDbCircle
10
-212.30999999999995
20
-115.29973525647267
30
0
40
0.50000000000000711
210
0
220
0
230
1
100
AcDbArc
50
180
51
270
0
LINE
5
679
100
AcDbEntity
8
0
100
AcDbLine
10
-212.80999999999995
20
-115.2997352564727
30
0
11
-212.80999999999995
21
-100.6797352564727
31
0
0
ARC
5
680
100
AcDbEntity
8
0
100
AcDbCircle
10
-212.30999999999992
20
-100.67973525647275
30
0
40
0.50000000000004263
210
0
220
0
230
1
100
AcDbArc
50
90.000000000003254
51
180
0
LINE
5
681
100
AcDbEntity
8
0
100
AcDbLine
10
-212.30999999999995
20
-100.17973525647271
30
0
11
-197.68999999999991
21
-100.17973525647271
31
0
0
ARC
5
682
100
AcDbEntity
8
0
100
AcDbCircle
10
-197.68999999999991
20
-100.6797352564727
30
0
40
0.50000000000000711
210
0
220
0
230
1
100
AcDbArc
50
0
51
90
0
LINE
5
683
100
AcDbEntity
8
0
100
AcDbLine
10
-197.18999999999991
20
-100.67973525647272
30
0
11
-197.18999999999991
21
-115.29973525647272
31
0
0
ARC
5
684
100
AcDbEntity
8
0
100
AcDbCircle
10
-197.68999999999994
20
-115.29973525647267
30
0
40
0.50000000000002487
210
0
220
0
230
1
100
AcDbArc
50
270.00000000000324
51
360
0
LINE
5
685
100
AcDbEntity
8
0
100
AcDbLine
10
-197.68999999999991
20
-115.7997352564727
30
0
11
-201.88397499999994
21
-115.79973525647269
31
0
0
ARC
5
686
100
AcDbEntity
8
0
100
AcDbCircle
10
-201.88397499999994
20
-116.2997352564727
30
0
40
0.50000000000000711
210
0
220
-0
230
1
100
AcDbArc
50
90
51
149.9999768643612
0
ARC
5
687
100
AcDbEntity
8
0
100
AcDbCircle
10
-202.74999999999994
20
-115.79973525647263
30
0
40
0.5000000000000604
210
0
220
0
230
1
100
AcDbArc
50
270.00000000000324
51
330.00000000048806
0
LINE
5
688
100
AcDbEntity
8
0
100
AcDbLine
10
-202.74999999999991
20
-116.2997352564727
30
0
11
-207.25000014904992
21
-116.29973551464167
31
0
0
ARC
5
689
100
AcDbEntity
8
0
100
AcDbCircle
10
-207.24999999999994
20
-115.79973525647269
30
0
40
0.50000025816901039
210
0
220
0
230
1
100
AcDbArc
50
209.99998291969115
51
269.99998292013908
0
ARC
5
690
100
AcDbEntity
8
0
100
AcDbCircle
10
-208.11602499999992
20
-116.2997352564727
30
0
40
0.49999939214353889
210
0
220
-0
230
1
100
AcDbArc
50
30.000040215513323
51
90
0
LINE
5
691
100
AcDbEntity
8
0
100
AcDbLine
10
-208.11602499999992
20
-115.79973586432915
30
0
11
-212.30999999999995
21
-115.79973525647269
31
0
0
ARC
5
692
100
AcDbEntity
8
0
100
AcDbCircle
10
-202.4874999999999
20
-77.699735256472692
30
0
40
0.50000025816903682
210
0
220
0
230
1
100
AcDbArc
50
209.99998291968811
51
270
0
ARC
5
693
100
AcDbEntity
8
0
100
AcDbCircle
10
-203.35352499999996
20
-78.199735256472707
30
0
40
0.49999939214357858
210
0
220
-0
230
1
100
AcDbArc
50
30.000040215511468
51
90.000040214805594
0
LINE
5
694
100
AcDbEntity
8
0
100
AcDbLine
10
-203.35352535093992
20
-77.699735864329242
30
0
11
-207.54749999999996
21
-77.699735256472721
31
0
0
ARC
5
695
100
AcDbEntity
8
0
100
AcDbCircle
10
-207.54749999999999
20
-77.199735256472735
30
0
40
0.49999999999997158
210
0
220
0
230
1
100
AcDbArc
50
180
51
270.00000000000324
0
LINE
5
696
100
AcDbEntity
8
0
100
AcDbLine
10
-208.04749999999996
20
-77.199735256472707
30
0
11
-208.04749999999996
21
-62.579735256472695
31
0
0
ARC
5
697
100
AcDbEntity
8
0
100
AcDbCircle
10
-207.54749999999987
20
-62.579735256472745
30
0
40
0.50000000000005151
210
0
220
0
230
1
100
AcDbArc
50
90.000000000009777
51
180
0
LINE
5
698
100
AcDbEntity
8
0
100
AcDbLine
10
-207.54749999999996
20
-62.079735256472695
30
0
11
-192.92749999999995
21
-62.079735256472688
31
0
0
ARC
5
699
100
AcDbEntity
8
0
100
AcDbCircle
10
-192.9274999999999
20
-62.579735256472659
30
0
40
0.49999999999997158
210
0
220
0
230
1
100
AcDbArc
50
0
51
90.000000000006523
0
LINE
5
700
100
AcDbEntity
8
0
100
AcDbLine
10
-192.42749999999995
20
-62.579735256472695
30
0
11
-192.42749999999995
21
-77.199735256472707
31
0
0
ARC
5
701
100
AcDbEntity
8
0
100
AcDbCircle
10
-192.92749999999995
20
-77.199735256472678
30
0
40
0.50000000000003375
210
0
220
0
230
1
100
AcDbArc
50
270
51
360
0
LINE
5
702
100
AcDbEntity
8
0
100
AcDbLine
10
-192.92749999999995
20
-77.699735256472707
30
0
11
-197.12147499999992
21
-77.699735256472707
31
0
0
ARC
5
703
100
AcDbEntity
8
0
100
AcDbCircle
10
-197.12147499999992
20
-78.199735256472707
30
0
40
0.50000000000000711
210
0
220
-0
230
1
100
AcDbArc
50
90
51
149.99999999989444
0
ARC
5
704
100
AcDbEntity
8
0
100
AcDbCircle
10
-197.98749999999995
20
-77.699735256472707
30
0
40
0.50000000000000711
210
0
220
0
230
1
100
AcDbArc
50
270
51
329.99997686494731
0
LINE
5
705
100
AcDbEntity
8
0
100
AcDbLine
10
-197.98749999999995
20
-78.199735256472707
30
0
11
-202.4874999999999
21
-78.199735514641731
31
0
0
ARC
5
706
100
AcDbEntity
8
0
100
AcDbCircle
10
-221.53749999999988
20
-77.699735256472607
30
0
40
0.50000025816907678
210
0
220
0
230
1
100
AcDbArc
50
209.99998291969658
51
269.99999999999676
0
ARC
5
707
100
AcDbEntity
8
0
100
AcDbCircle
10
-222.40352499999995
20
-78.199735256472707
30
0
40
0.49999939214357858
210
0
220
-0
230
1
100
AcDbArc
50
30.000040215511468
51
90.000040214808848
0
LINE
5
708
100
AcDbEntity
8
0
100
AcDbLine
10
-222.40352535093993
20
-77.699735864329256
30
0
11
-226.59749999999991
21
-77.699735256472721
31
0
0
ARC
5
709
100
AcDbEntity
8
0
100
AcDbCircle
10
-226.59749999999997
20
-77.199735256472749
30
0
40
0.49999999999997158
210
0
220
0
230
1
100
AcDbArc
50
180
51
270.00000000000648
0
LINE
5
710
100
AcDbEntity
8
0
100
AcDbLine
10
-227.09749999999991
20
-77.199735256472707
30
0
11
-227.09749999999991
21
-62.579735256472695
31
0
0
ARC
5
711
100
AcDbEntity
8
0
100
AcDbCircle
10
-226.59749999999991
20
-62.57973525647273
30
0
40
0.50000000000003375
210
0
220
-0
230
1
100
AcDbArc
50
90
51
180
0
LINE
5
712
100
AcDbEntity
8
0
100
AcDbLine
10
-226.59749999999991
20
-62.079735256472695
30
0
11
-211.97749999999991
21
-62.079735256472688
31
0
0
ARC
5
713
100
AcDbEntity
8
0
100
AcDbCircle
10
-211.97749999999988
20
-62.579735256472674
30
0
40
0.49999999999997158
210
0
220
0
230
1
100
AcDbArc
50
0
51
90.000000000003254
0
LINE
5
714
100
AcDbEntity
8
0
100
AcDbLine
10
-211.47749999999991
20
-62.579735256472695
30
0
11
-211.47749999999991
21
-77.199735256472707
31
0
0
ARC
5
715
100
AcDbEntity
8
0
100
AcDbCircle
10
-211.97749999999999
20
-77.19973525647265
30
0
40
0.50000000000005151
210
0
220
0
230
1
100
AcDbArc
50
270.00000000000978
51
360
0
LINE
5
716
100
AcDbEntity
8
0
100
AcDbLine
10
-211.97749999999991
20
-77.699735256472707
30
0
11
-216.17147499999993
21
-77.699735256472707
31
0
0
ARC
5
717
100
AcDbEntity
8
0
100
AcDbCircle
10
-216.17147499999993
20
-78.199735256472707
30
0
40
0.50000000000000711
210
0
220
-0
230
1
100
AcDbArc
50
90
51
149.99999999988577
0
ARC
5
718
100
AcDbEntity
8
0
100
AcDbCircle
10
-217.03749999999991
20
-77.699735256472678
30
0
40
0.50000000000002487
210
0
220
0
230
1
100
AcDbArc
50
269.99999999999346
51
329.99997686494993
0
LINE
5
719
100
AcDbEntity
8
0
100
AcDbLine
10
-217.03749999999997
20
-78.199735256472707
30
0
11
-221.53749999999991
21
-78.199735514641688
31
0
0
ARC
5
720
100
AcDbEntity
8
0
100
AcDbCircle
10
-216.73999999999992
20
-100.6797352564727
30
0
40
0.50000000000000711
210
0
220
0
230
1
100
AcDbArc
50
0
51
90
0
LINE
5
721
100
AcDbEntity
8
0
100
AcDbLine
10
-216.23999999999992
20
-100.67973525647272
30
0
11
-216.23999999999992
21
-115.29973525647272
31
0
0
ARC
5
722
100
AcDbEntity
8
0
100
AcDbCircle
10
-216.73999999999995
20
-115.29973525647267
30
0
40
0.50000000000002487
210
0
220
0
230
1
100
AcDbArc
50
270.00000000000324
51
360
0
LINE
5
723
100
AcDbEntity
8
0
100
AcDbLine
10
-216.73999999999992
20
-115.7997352564727
30
0
11
-220.93397499999995
21
-115.79973525647269
31
0
0
ARC
5
724
100
AcDbEntity
8
0
100
AcDbCircle
10
-220.93397499999995
20
-116.2997352564727
30
0
40
0.50000000000000711
210
0
220
-0
230
1
100
AcDbArc
50
90
51
149.99997686436706
0
ARC
5
725
100
AcDbEntity
8
0
100
AcDbCircle
10
-221.79999999999995
20
-115.79973525647262
30
0
40
0.50000000000007816
210
0
220
0
230
1
100
AcDbArc
50
270.00000000000324
51
330.00000000048078
0
LINE
5
726
100
AcDbEntity
8
0
100
AcDbLine
10
-221.79999999999993
20
-116.2997352564727
30
0
11
-226.30000014904994
21
-116.29973551464167
31
0
0
ARC
5
727
100
AcDbEntity
8
0
100
AcDbCircle
10
-226.29999999999998
20
-115.79973525647276
30
0
40
0.50000025816892235
210
0
220
0
230
1
100
AcDbArc
50
209.99998291969044
51
269.99998292014237
0
ARC
5
728
100
AcDbEntity
8
0
100
AcDbCircle
10
-227.16602499999993
20
-116.2997352564727
30
0
40
0.49999939214356082
210
0
220
-0
230
1
100
AcDbArc
50
30.000040215508644
51
90
0
LINE
5
729
100
AcDbEntity
8
0
100
AcDbLine
10
-227.16602499999993
20
-115.79973586432914
30
0
11
-231.35999999999996
21
-115.7997352564727
31
0
0
ARC
5
730
100
AcDbEntity
8
0
100
AcDbCircle
10
-231.35999999999996
20
-115.29973525647267
30
0
40
0.50000000000000711
210
0
220
0
230
1
100
AcDbArc
50
180
51
270
0
LINE
5
731
100
AcDbEntity
8
0
100
AcDbLine
10
-231.85999999999996
20
-115.2997352564727
30
0
11
-231.85999999999996
21
-100.6797352564727
31
0
0
ARC
5
732
100
AcDbEntity
8
0
100
AcDbCircle
10
-231.35999999999993
20
-100.67973525647275
30
0
40
0.50000000000004263
210
0
220
0
230
1
100
AcDbArc
50
90.000000000003254
51
180
0
LINE
5
733
100
AcDbEntity
8
0
100
AcDbLine
10
-231.35999999999996
20
-100.17973525647271
30
0
11
-216.73999999999992
21
-100.1797352564727
31
0
0
ARC
5
734
100
AcDbEntity
8
0
100
AcDbCircle
10
-231.92852499999992
20
-40.099735256472719
30
0
40
0.49999939214400579
210
0
220
-0
230
1
100
AcDbArc
50
30.000040215507944
51
90.000040214808848
0
LINE
5
735
100
AcDbEntity
8
0
100
AcDbLine
10
-231.92852535093991
20
-39.599735864328835
30
0
11
-236.12249999999995
21
-39.599735256472727
31
0
0
ARC
5
736
100
AcDbEntity
8
0
100
AcDbCircle
10
-236.12249999999995
20
-39.099735256472734
30
0
40
0.50000000000000711
210
0
220
0
230
1
100
AcDbArc
50
180
51
270
0
LINE
5
737
100
AcDbEntity
8
0
100
AcDbLine
10
-236.62249999999997
20
-39.099735256472727
30
0
11
-236.62249999999997
21
-24.479735256472726
31
0
0
ARC
5
738
100
AcDbEntity
8
0
100
AcDbCircle
10
-236.12249999999992
20
-24.479735256472775
30
0
40
0.50000000000004707
210
0
220
0
230
1
100
AcDbArc
50
90.000000000003254
51
180
0
LINE
5
739
100
AcDbEntity
8
0
100
AcDbLine
10
-236.12249999999995
20
-23.979735256472729
30
0
11
-221.50249999999994
21
-23.979735256472718
31
0
0
ARC
5
740
100
AcDbEntity
8
0
100
AcDbCircle
10
-221.50249999999994
20
-24.479735256472715
30
0
40
0.50000000000000711
210
0
220
0
230
1
100
AcDbArc
50
0
51
90
0
LINE
5
741
100
AcDbEntity
8
0
100
AcDbLine
10
-221.00249999999991
20
-24.479735256472726
30
0
11
-221.00249999999991
21
-39.099735256472727
31
0
0
ARC
5
742
100
AcDbEntity
8
0
100
AcDbCircle
10
-221.50249999999997
20
-39.099735256472677
30
0
40
0.50000000000004707
210
0
220
0
230
1
100
AcDbArc
50
270.00000000000324
51
360
0
LINE
5
743
100
AcDbEntity
8
0
100
AcDbLine
10
-221.50249999999994
20
-39.599735256472719
30
0
11
-225.69647499999991
21
-39.599735256472727
31
0
0
ARC
5
744
100
AcDbEntity
8
0
100
AcDbCircle
10
-225.69647499999991
20
-40.099735256472719
30
0
40
0.49999999999998934
210
0
220
-0
230
1
100
AcDbArc
50
90
51
149.99999999989373
0
ARC
5
745
100
AcDbEntity
8
0
100
AcDbCircle
10
-226.56249999999994
20
-39.599735256472776
30
0
40
0.49999999999995381
210
0
220
0
230
1
100
AcDbArc
50
270
51
329.99997686495362
0
LINE
5
746
100
AcDbEntity
8
0
100
AcDbLine
10
-226.56249999999994
20
-40.099735256472727
30
0
11
-231.06249999999991
21
-40.099735514641296
31
0
0
ARC
5
747
100
AcDbEntity
8
0
100
AcDbCircle
10
-231.06249999999989
20
-39.599735256472705
30
0
40
0.5000002581686096
210
0
220
0
230
1
100
AcDbArc
50
209.99998291969328
51
269.99999999999676
0
ARC
5
748
100
AcDbEntity
8
0
100
AcDbCircle
10
-307.26249999999987
20
-39.599735256472719
30
0
40
0.50000025816904348
210
0
220
0
230
1
100
AcDbArc
50
209.99998291968788
51
269.9999829201326
0
ARC
5
749
100
AcDbEntity
8
0
100
AcDbCircle
10
-308.12852499999991
20
-40.099735256472719
30
0
40
0.49999939214353445
210
0
220
-0
230
1
100
AcDbArc
50
30.000040215511909
51
90
0
LINE
5
750
100
AcDbEntity
8
0
100
AcDbLine
10
-308.12852499999991
20
-39.599735864329183
30
0
11
-312.32249999999993
21
-39.599735256472727
31
0
0
ARC
5
751
100
AcDbEntity
8
0
100
AcDbCircle
10
-312.32249999999993
20
-39.099735256472734
30
0
40
0.50000000000000711
210
0
220
0
230
1
100
AcDbArc
50
180
51
270
0
LINE
5
752
100
AcDbEntity
8
0
100
AcDbLine
10
-312.82249999999993
20
-39.099735256472727
30
0
11
-312.82249999999993
21
-24.479735256472726
31
0
0
ARC
5
753
100
AcDbEntity
8
0
100
AcDbCircle
10
-312.32249999999988
20
-24.479735256472775
30
0
40
0.50000000000004707
210
0
220
0
230
1
100
AcDbArc
50
90.000000000006523
51
180
0
LINE
5
754
100
AcDbEntity
8
0
100
AcDbLine
10
-312.32249999999993
20
-23.979735256472729
30
0
11
-297.70249999999993
21
-23.979735256472718
31
0
0
ARC
5
755
100
AcDbEntity
8
0
100
AcDbCircle
10
-297.70249999999987
20
-24.479735256472701
30
0
40
0.49999999999997158
210
0
220
0
230
1
100
AcDbArc
50
0
51
90.000000000006523
0
LINE
5
756
100
AcDbEntity
8
0
100
AcDbLine
10
-297.20249999999993
20
-24.479735256472726
30
0
11
-297.20249999999993
21
-39.099735256472727
31
0
0
ARC
5
757
100
AcDbEntity
8
0
100
AcDbCircle
10
-297.70249999999993
20
-39.099735256472691
30
0
40
0.50000000000002931
210
0
220
0
230
1
100
AcDbArc
50
270
51
360
0
LINE
5
758
100
AcDbEntity
8
0
100
AcDbLine
10
-297.70249999999993
20
-39.599735256472719
30
0
11
-301.8964749999999
21
-39.599735256472727
31
0
0
ARC
5
759
100
AcDbEntity
8
0
100
AcDbCircle
10
-301.8964749999999
20
-40.099735256472719
30
0
40
0.49999999999998934
210
0
220
-0
230
1
100
AcDbArc
50
90
51
149.99997686437217
0
ARC
5
760
100
AcDbEntity
8
0
100
AcDbCircle
10
-302.76249999999999
20
-39.599735256472755
30
0
40
0.49999999999996714
210
0
220
0
230
1
100
AcDbArc
50
270
51
330.00000000049249
0
LINE
5
761
100
AcDbEntity
8
0
100
AcDbLine
10
-302.76249999999999
20
-40.099735256472719
30
0
11
-307.26250014904991
21
-40.099735514641743
31
0
0
ARC
5
762
100
AcDbEntity
8
0
100
AcDbCircle
10
-346.22852499999993
20
-40.099735256472719
30
0
40
0.49999939214398614
210
0
220
-0
230
1
100
AcDbArc
50
30.000040215511664
51
90.000040214818625
0
LINE
5
763
100
AcDbEntity
8
0
100
AcDbLine
10
-346.22852535094
20
-39.599735864328856
30
0
11
-350.4224999999999
21
-39.599735256472698
31
0
0
ARC
5
764
100
AcDbEntity
8
0
100
AcDbCircle
10
-350.42249999999979
20
-39.09973525647267
30
0
40
0.50000000000004263
210
0
220
0
230
1
100
AcDbArc
50
180
51
269.99999999998698
0
LINE
5
765
100
AcDbEntity
8
0
100
AcDbLine
10
-350.92249999999984
20
-39.099735256472727
30
0
11
-350.92249999999984
21
-24.479735256472726
31
0
0
ARC
5
766
100
AcDbEntity
8
0
100
AcDbCircle
10
-350.42249999999996
20
-24.47973525647263
30
0
40
0.49999999999990052
210
0
220
-0
230
1
100
AcDbArc
50
89.999999999993491
51
180
0
LINE
5
767
100
AcDbEntity
8
0
100
AcDbLine
10
-350.4224999999999
20
-23.979735256472729
30
0
11
-335.8024999999999
21
-23.979735256472754
31
0
0
ARC
5
768
100
AcDbEntity
8
0
100
AcDbCircle
10
-335.80250000000001
20
-24.479735256472779
30
0
40
0.50000000000004263
210
0
220
-0
230
1
100
AcDbArc
50
0
51
89.999999999986969
0
LINE
5
769
100
AcDbEntity
8
0
100
AcDbLine
10
-335.30249999999995
20
-24.479735256472726
30
0
11
-335.30249999999995
21
-39.099735256472727
31
0
0
ARC
5
770
100
AcDbEntity
8
0
100
AcDbCircle
10
-335.8024999999999
20
-39.099735256472748
30
0
40
0.49999999999997158
210
0
220
0
230
1
100
AcDbArc
50
-90
51
0
0
LINE
5
771
100
AcDbEntity
8
0
100
AcDbLine
10
-335.8024999999999
20
-39.599735256472719
30
0
11
-339.99647499999992
21
-39.599735256472727
31
0
0
ARC
5
772
100
AcDbEntity
8
0
100
AcDbCircle
10
-339.99647499999992
20
-40.099735256472719
30
0
40
0.49999999999998934
210
0
220
-0
230
1
100
AcDbArc
50
90
51
149.999999999897
0
ARC
5
773
100
AcDbEntity
8
0
100
AcDbCircle
10
-340.86249999999995
20
-39.599735256472719
30
0
40
0.50000000000000711
210
0
220
0
230
1
100
AcDbArc
50
270
51
329.99997686494476
0
LINE
5
774
100
AcDbEntity
8
0
100
AcDbLine
10
-340.86249999999995
20
-40.099735256472727
30
0
11
-345.3624999999999
21
-40.099735514641345
31
0
0
ARC
5
775
100
AcDbEntity
8
0
100
AcDbCircle
10
-345.3624999999999
20
-39.599735256472776
30
0
40
0.5000002581685915
210
0
220
0
230
1
100
AcDbArc
50
209.99998291968251
51
270
0
ARC
5
776
100
AcDbEntity
8
0
100
AcDbCircle
10
-316.7525
20
-58.149735256472681
30
0
40
0.50000000000001599
210
0
220
0
230
1
100
AcDbArc
50
270
51
360
0
LINE
5
777
100
AcDbEntity
8
0
100
AcDbLine
10
-316.7525
20
-58.649735256472695
30
0
11
-320.94647499999996
21
-58.649735256472709
31
0
0
ARC
5
778
100
AcDbEntity
8
0
100
AcDbCircle
10
-320.94647499999996
20
-59.149735256472709
30
0
40
0.50000000000000711
210
0
220
-0
230
1
100
AcDbArc
50
90
51
149.99997686436541
0
ARC
5
779
100
AcDbEntity
8
0
100
AcDbCircle
10
-321.81250000000006
20
-58.649735256472539
30
0
40
0.50000000000016698
210
0
220
0
230
1
100
AcDbArc
50
270.00000000000648
51
330.00000000047885
0
LINE
5
780
100
AcDbEntity
8
0
100
AcDbLine
10
-321.8125
20
-59.149735256472702
30
0
11
-326.31250014904992
21
-59.149735514641684
31
0
0
ARC
5
781
100
AcDbEntity
8
0
100
AcDbCircle
10
-326.31249999999994
20
-58.649735256472731
30
0
40
0.50000025816898863
210
0
220
0
230
1
100
AcDbArc
50
209.99998291969581
51
269.99998292013908
0
ARC
5
782
100
AcDbEntity
8
0
100
AcDbCircle
10
-327.17852499999992
20
-59.149735256472709
30
0
40
0.49999939214354749
210
0
220
-0
230
1
100
AcDbArc
50
30.00004021550512
51
90
0
LINE
5
783
100
AcDbEntity
8
0
100
AcDbLine
10
-327.17852499999992
20
-58.649735864329166
30
0
11
-331.37249999999995
21
-58.649735256472667
31
0
0
ARC
5
784
100
AcDbEntity
8
0
100
AcDbCircle
10
-331.37249999999989
20
-58.149735256472646
30
0
40
0.50000000000004263
210
0
220
0
230
1
100
AcDbArc
50
180
51
269.99999999999346
0
LINE
5
785
100
AcDbEntity
8
0
100
AcDbLine
10
-331.87249999999995
20
-58.149735256472695
30
0
11
-331.87249999999995
21
-43.529735256472705
31
0
0
ARC
5
786
100
AcDbEntity
8
0
100
AcDbCircle
10
-331.37249999999995
20
-43.529735256472676
30
0
40
0.49999999999995381
210
0
220
-0
230
1
100
AcDbArc
50
90
51
180
0
LINE
5
787
100
AcDbEntity
8
0
100
AcDbLine
10
-331.37249999999995
20
-43.029735256472719
30
0
11
-316.7525
21
-43.029735256472712
31
0
0
ARC
5
788
100
AcDbEntity
8
0
100
AcDbCircle
10
-316.75249999999994
20
-43.529735256472705
30
0
40
0.49999999999997158
210
0
220
0
230
1
100
AcDbArc
50
0
51
90.000000000006523
0
LINE
5
789
100
AcDbEntity
8
0
100
AcDbLine
10
-316.2525
20
-43.529735256472719
30
0
11
-316.2525
21
-58.149735256472717
31
0
0
ARC
5
790
100
AcDbEntity
8
0
100
AcDbCircle
10
-271.84124999999995
20
-43.529735256472733
30
0
40
0.50000000000001599
210
0
220
-0
230
1
100
AcDbArc
50
89.999999999993491
51
180
0
LINE
5
791
100
AcDbEntity
8
0
100
AcDbLine
10
-271.84124999999989
20
-43.029735256472719
30
0
11
-257.22124999999994
21
-43.029735256472712
31
0
0
ARC
5
792
100
AcDbEntity
8
0
100
AcDbCircle
10
-257.22124999999994
20
-43.529735256472684
30
0
40
0.49999999999997158
210
0
220
0
230
1
100
AcDbArc
50
0
51
90
0
LINE
5
793
100
AcDbEntity
8
0
100
AcDbLine
10
-256.72124999999994
20
-43.529735256472719
30
0
11
-256.72124999999994
21
-58.149735256472717
31
0
0
ARC
5
794
100
AcDbEntity
8
0
100
AcDbCircle
10
-257.22124999999994
20
-58.149735256472681
30
0
40
0.50000000000001599
210
0
220
0
230
1
100
AcDbArc
50
269.99999999999346
51
360
0
LINE
5
795
100
AcDbEntity
8
0
100
AcDbLine
10
-257.22125
20
-58.649735256472695
30
0
11
-261.41522499999996
21
-58.649735256472709
31
0
0
ARC
5
796
100
AcDbEntity
8
0
100
AcDbCircle
10
-261.41522499999996
20
-59.149735256472709
30
0
40
0.50000000000000711
210
0
220
-0
230
1
100
AcDbArc
50
90
51
149.99999999989117
0
ARC
5
797
100
AcDbEntity
8
0
100
AcDbCircle
10
-262.28124999999994
20
-58.649735256472688
30
0
40
0.50000000000001599
210
0
220
0
230
1
100
AcDbArc
50
270
51
329.99997686494515
0
LINE
5
798
100
AcDbEntity
8
0
100
AcDbLine
10
-262.28124999999994
20
-59.149735256472702
30
0
11
-266.78124999999994
21
-59.149735514641712
31
0
0
ARC
5
799
100
AcDbEntity
8
0
100
AcDbCircle
10
-266.78125
20
-58.649735256472781
30
0
40
0.50000025816893123
210
0
220
0
230
1
100
AcDbArc
50
209.99998291969342
51
270.00000000000648
0
ARC
5
800
100
AcDbEntity
8
0
100
AcDbCircle
10
-267.64727499999992
20
-59.149735256472709
30
0
40
0.49999939214355188
210
0
220
-0
230
1
100
AcDbArc
50
30.000040215505848
51
90.000040214812117
0
LINE
5
801
100
AcDbEntity
8
0
100
AcDbLine
10
-267.64727535093994
20
-58.649735864329287
30
0
11
-271.84124999999995
21
-58.649735256472709
31
0
0
ARC
5
802
100
AcDbEntity
8
0
100
AcDbCircle
10
-271.84125
20
-58.149735256472717
30
0
40
0.49999999999997158
210
0
220
0
230
1
100
AcDbArc
50
180
51
270.00000000000648
0
LINE
5
803
100
AcDbEntity
8
0
100
AcDbLine
10
-272.34124999999995
20
-58.149735256472695
30
0
11
-272.34124999999995
21
-43.529735256472705
31
0
0
LINE
5
804
100
AcDbEntity
8
0
100
AcDbLine
10
-316.7525
20
-39.599735256472727
30
0
11
-320.94647499999996
21
-39.599735256472727
31
0
0
ARC
5
805
100
AcDbEntity
8
0
100
AcDbCircle
10
-320.94647499999996
20
-40.099735256472719
30
0
40
0.49999999999998934
210
0
220
-0
230
1
100
AcDbArc
50
90
51
149.99999999987804
0
ARC
5
806
100
AcDbEntity
8
0
100
AcDbCircle
10
-321.81250000000006
20
-39.599735256472698
30
0
40
0.50000000000003375
210
0
220
0
230
1
100
AcDbArc
50
270.00000000000648
51
329.99997686496482
0
LINE
5
807
100
AcDbEntity
8
0
100
AcDbLine
10
-321.8125
20
-40.099735256472727
30
0
11
-326.31249999999994
21
-40.099735514641722
31
0
0
ARC
5
808
100
AcDbEntity
8
0
100
AcDbCircle
10
-326.31249999999994
20
-39.599735256472719
30
0
40
0.50000025816899973
210
0
220
0
230
1
100
AcDbArc
50
209.99998291969794
51
270
0
ARC
5
809
100
AcDbEntity
8
0
100
AcDbCircle
10
-327.17852499999992
20
-40.099735256472719
30
0
40
0.49999939214354749
210
0
220
-0
230
1
100
AcDbArc
50
30.00004021550512
51
90.000040214812117
0
LINE
5
810
100
AcDbEntity
8
0
100
AcDbLine
10
-327.17852535093994
20
-39.599735864329297
30
0
11
-331.37249999999995
21
-39.599735256472698
31
0
0
ARC
5
811
100
AcDbEntity
8
0
100
AcDbCircle
10
-331.37249999999989
20
-39.09973525647267
30
0
40
0.50000000000004263
210
0
220
0
230
1
100
AcDbArc
50
180
51
269.99999999999346
0
LINE
5
812
100
AcDbEntity
8
0
100
AcDbLine
10
-331.87249999999995
20
-39.099735256472727
30
0
11
-331.87249999999995
21
-24.479735256472726
31
0
0
ARC
5
813
100
AcDbEntity
8
0
100
AcDbCircle
10
-331.37249999999995
20
-24.479735256472701
30
0
40
0.49999999999997158
210
0
220
-0
230
1
100
AcDbArc
50
90
51
180
0
LINE
5
814
100
AcDbEntity
8
0
100
AcDbLine
10
-331.37249999999995
20
-23.979735256472729
30
0
11
-316.7525
21
-23.979735256472718
31
0
0
ARC
5
815
100
AcDbEntity
8
0
100
AcDbCircle
10
-316.7525
20
-24.479735256472715
30
0
40
0.50000000000000711
210
0
220
0
230
1
100
AcDbArc
50
0
51
90
0
LINE
5
816
100
AcDbEntity
8
0
100
AcDbLine
10
-316.2525
20
-24.479735256472726
30
0
11
-316.2525
21
-39.099735256472727
31
0
0
ARC
5
817
100
AcDbEntity
8
0
100
AcDbCircle
10
-316.7525
20
-39.099735256472734
30
0
40
0.49999999999999822
210
0
220
0
230
1
100
AcDbArc
50
-90
51
0
0
ARC
5
818
100
AcDbEntity
8
0
100
AcDbCircle
10
-245.64749999999992
20
-62.57973525647273
30
0
40
0.50000000000003375
210
0
220
-0
230
1
100
AcDbArc
50
90
51
180
0
LINE
5
819
100
AcDbEntity
8
0
100
AcDbLine
10
-245.64749999999992
20
-62.079735256472695
30
0
11
-231.02749999999992
21
-62.079735256472688
31
0
0
ARC
5
820
100
AcDbEntity
8
0
100
AcDbCircle
10
-231.02749999999989
20
-62.579735256472674
30
0
40
0.49999999999997158
210
0
220
0
230
1
100
AcDbArc
50
0
51
90.000000000003254
0
LINE
5
821
100
AcDbEntity
8
0
100
AcDbLine
10
-230.52749999999992
20
-62.579735256472695
30
0
11
-230.52749999999992
21
-77.199735256472707
31
0
0
ARC
5
822
100
AcDbEntity
8
0
100
AcDbCircle
10
-231.0275
20
-77.19973525647265
30
0
40
0.50000000000005151
210
0
220
0
230
1
100
AcDbArc
50
270.00000000000978
51
360
0
LINE
5
823
100
AcDbEntity
8
0
100
AcDbLine
10
-231.02749999999992
20
-77.699735256472707
30
0
11
-235.22147499999991
21
-77.699735256472707
31
0
0
ARC
5
824
100
AcDbEntity
8
0
100
AcDbCircle
10
-235.22147499999991
20
-78.199735256472707
30
0
40
0.50000000000000711
210
0
220
-0
230
1
100
AcDbArc
50
90
51
149.99999999989163
0
ARC
5
825
100
AcDbEntity
8
0
100
AcDbCircle
10
-236.08749999999992
20
-77.699735256472735
30
0
40
0.4999999999999627
210
0
220
0
230
1
100
AcDbArc
50
270
51
329.99997686495129
0
LINE
5
826
100
AcDbEntity
8
0
100
AcDbLine
10
-236.08749999999992
20
-78.199735256472692
30
0
11
-240.58749999999992
21
-78.199735514641702
31
0
0
ARC
5
827
100
AcDbEntity
8
0
100
AcDbCircle
10
-240.58749999999989
20
-77.699735256472607
30
0
40
0.50000025816907678
210
0
220
0
230
1
100
AcDbArc
50
209.99998291969658
51
269.99999999999676
0
ARC
5
828
100
AcDbEntity
8
0
100
AcDbCircle
10
-241.4535249999999
20
-78.199735256472707
30
0
40
0.49999939214354783
210
0
220
-0
230
1
100
AcDbArc
50
30.000040215514726
51
90.000040214812117
0
LINE
5
829
100
AcDbEntity
8
0
100
AcDbLine
10
-241.45352535093991
20
-77.699735864329284
30
0
11
-245.64749999999992
21
-77.699735256472721
31
0
0
ARC
5
830
100
AcDbEntity
8
0
100
AcDbCircle
10
-245.64749999999998
20
-77.199735256472749
30
0
40
0.49999999999997158
210
0
220
0
230
1
100
AcDbArc
50
180
51
270.00000000000648
0
LINE
5
831
100
AcDbEntity
8
0
100
AcDbLine
10
-246.14749999999992
20
-77.199735256472707
30
0
11
-246.14749999999998
21
-62.579735256472695
31
0
0
ARC
5
832
100
AcDbEntity
8
0
100
AcDbCircle
10
-245.31499999999997
20
-39.099735256472677
30
0
40
0.50000000000004707
210
0
220
0
230
1
100
AcDbArc
50
270.00000000000324
51
360
0
LINE
5
833
100
AcDbEntity
8
0
100
AcDbLine
10
-245.31499999999994
20
-39.599735256472719
30
0
11
-249.50897499999994
21
-39.599735256472727
31
0
0
ARC
5
834
100
AcDbEntity
8
0
100
AcDbCircle
10
-249.50897499999994
20
-40.099735256472719
30
0
40
0.49999999999998934
210
0
220
-0
230
1
100
AcDbArc
50
90
51
149.99997686437055
0
ARC
5
835
100
AcDbEntity
8
0
100
AcDbCircle
10
-250.37499999999994
20
-39.599735256472741
30
0
40
0.4999999999999849
210
0
220
0
230
1
100
AcDbArc
50
270
51
330.00000000048783
0
LINE
5
836
100
AcDbEntity
8
0
100
AcDbLine
10
-250.37499999999994
20
-40.099735256472727
30
0
11
-254.87500014904995
21
-40.099735514641708
31
0
0
ARC
5
837
100
AcDbEntity
8
0
100
AcDbCircle
10
-254.875
20
-39.599735256472776
30
0
40
0.50000025816894011
210
0
220
0
230
1
100
AcDbArc
50
209.99998291969231
51
269.99998292014237
0
ARC
5
838
100
AcDbEntity
8
0
100
AcDbCircle
10
-255.74102499999995
20
-40.099735256472719
30
0
40
0.49999939214354749
210
0
220
-0
230
1
100
AcDbArc
50
30.000040215506761
51
89.999999999996746
0
LINE
5
839
100
AcDbEntity
8
0
100
AcDbLine
10
-255.74102499999992
20
-39.599735864329169
30
0
11
-259.93499999999995
21
-39.599735256472727
31
0
0
ARC
5
840
100
AcDbEntity
8
0
100
AcDbCircle
10
-259.93499999999995
20
-39.099735256472734
30
0
40
0.50000000000000711
210
0
220
0
230
1
100
AcDbArc
50
180
51
270
0
LINE
5
841
100
AcDbEntity
8
0
100
AcDbLine
10
-260.435
20
-39.099735256472727
30
0
11
-260.435
21
-24.479735256472726
31
0
0
ARC
5
842
100
AcDbEntity
8
0
100
AcDbCircle
10
-259.93499999999995
20
-24.479735256472775
30
0
40
0.50000000000004707
210
0
220
0
230
1
100
AcDbArc
50
90
51
180
0
LINE
5
843
100
AcDbEntity
8
0
100
AcDbLine
10
-259.93499999999995
20
-23.979735256472729
30
0
11
-245.31499999999994
21
-23.979735256472718
31
0
0
ARC
5
844
100
AcDbEntity
8
0
100
AcDbCircle
10
-245.31499999999994
20
-24.479735256472715
30
0
40
0.50000000000000711
210
0
220
0
230
1
100
AcDbArc
50
0
51
90
0
LINE
5
845
100
AcDbEntity
8
0
100
AcDbLine
10
-244.81499999999994
20
-24.479735256472726
30
0
11
-244.81499999999994
21
-39.099735256472727
31
0
0
ARC
5
846
100
AcDbEntity
8
0
100
AcDbCircle
10
-269.12749999999994
20
-24.479735256472715
30
0
40
0.50000000000000711
210
0
220
0
230
1
100
AcDbArc
50
0
51
90
0
LINE
5
847
100
AcDbEntity
8
0
100
AcDbLine
10
-268.62749999999994
20
-24.479735256472726
30
0
11
-268.62749999999994
21
-39.099735256472727
31
0
0
ARC
5
848
100
AcDbEntity
8
0
100
AcDbCircle
10
-269.1275
20
-39.099735256472677
30
0
40
0.50000000000004707
210
0
220
0
230
1
100
AcDbArc
50
270.00000000000648
51
360
0
LINE
5
849
100
AcDbEntity
8
0
100
AcDbLine
10
-269.12749999999994
20
-39.599735256472719
30
0
11
-273.32147499999991
21
-39.599735256472727
31
0
0
ARC
5
850
100
AcDbEntity
8
0
100
AcDbCircle
10
-273.32147499999991
20
-40.099735256472719
30
0
40
0.49999999999998934
210
0
220
-0
230
1
100
AcDbArc
50
90
51
149.99999999989515
0
ARC
5
851
100
AcDbEntity
8
0
100
AcDbCircle
10
-274.18749999999994
20
-39.599735256472769
30
0
40
0.4999999999999627
210
0
220
0
230
1
100
AcDbArc
50
270
51
329.99997686495152
0
LINE
5
852
100
AcDbEntity
8
0
100
AcDbLine
10
-274.18749999999994
20
-40.099735256472727
30
0
11
-278.68749999999994
21
-40.099735514641722
31
0
0
ARC
5
853
100
AcDbEntity
8
0
100
AcDbCircle
10
-278.6875
20
-39.599735256472769
30
0
40
0.50000025816894456
210
0
220
0
230
1
100
AcDbArc
50
209.99998291969627
51
270.00000000000648
0
ARC
5
854
100
AcDbEntity
8
0
100
AcDbCircle
10
-279.55352499999992
20
-40.099735256472719
30
0
40
0.49999939214354749
210
0
220
-0
230
1
100
AcDbArc
50
30.00004021550512
51
90.000040214812117
0
LINE
5
855
100
AcDbEntity
8
0
100
AcDbLine
10
-279.55352535093994
20
-39.599735864329297
30
0
11
-283.74749999999995
21
-39.599735256472727
31
0
0
ARC
5
856
100
AcDbEntity
8
0
100
AcDbCircle
10
-283.7475
20
-39.099735256472748
30
0
40
0.49999999999997158
210
0
220
0
230
1
100
AcDbArc
50
180
51
270.00000000000648
0
LINE
5
857
100
AcDbEntity
8
0
100
AcDbLine
10
-284.24749999999995
20
-39.099735256472727
30
0
11
-284.24749999999995
21
-24.479735256472726
31
0
0
ARC
5
858
100
AcDbEntity
8
0
100
AcDbCircle
10
-283.7475
20
-24.479735256472701
30
0
40
0.49999999999998046
210
0
220
-0
230
1
100
AcDbArc
50
89.999999999993491
51
180
0
LINE
5
859
100
AcDbEntity
8
0
100
AcDbLine
10
-283.74749999999995
20
-23.979735256472718
30
0
11
-269.12749999999994
21
-23.979735256472708
31
0
0
ARC
5
860
100
AcDbEntity
8
0
100
AcDbCircle
10
-307.26249999999993
20
-115.79973525647269
30
0
40
0.50000025816901039
210
0
220
0
230
1
100
AcDbArc
50
209.99998291969115
51
269.99998292013908
0
ARC
5
861
100
AcDbEntity
8
0
100
AcDbCircle
10
-308.12852499999991
20
-116.2997352564727
30
0
40
0.49999939214353889
210
0
220
-0
230
1
100
AcDbArc
50
30.000040215513323
51
90
0
LINE
5
862
100
AcDbEntity
8
0
100
AcDbLine
10
-308.12852499999991
20
-115.79973586432915
30
0
11
-312.32249999999993
21
-115.7997352564727
31
0
0
ARC
5
863
100
AcDbEntity
8
0
100
AcDbCircle
10
-312.32249999999993
20
-115.29973525647267
30
0
40
0.50000000000000711
210
0
220
0
230
1
100
AcDbArc
50
180
51
270
0
LINE
5
864
100
AcDbEntity
8
0
100
AcDbLine
10
-312.82249999999993
20
-115.2997352564727
30
0
11
-312.82249999999993
21
-100.67973525647272
31
0
0
ARC
5
865
100
AcDbEntity
8
0
100
AcDbCircle
10
-312.32249999999993
20
-100.6797352564727
30
0
40
0.49999999999998934
210
0
220
-0
230
1
100
AcDbArc
50
90
51
180
0
LINE
5
866
100
AcDbEntity
8
0
100
AcDbLine
10
-312.32249999999993
20
-100.17973525647271
30
0
11
-297.70249999999993
21
-100.17973525647271
31
0
0
ARC
5
867
100
AcDbEntity
8
0
100
AcDbCircle
10
-297.70249999999987
20
-100.67973525647268
30
0
40
0.49999999999997158
210
0
220
0
230
1
100
AcDbArc
50
0
51
90.000000000006523
0
LINE
5
868
100
AcDbEntity
8
0
100
AcDbLine
10
-297.20249999999993
20
-100.67973525647272
30
0
11
-297.20249999999993
21
-115.29973525647272
31
0
0
ARC
5
869
100
AcDbEntity
8
0
100
AcDbCircle
10
-297.70249999999993
20
-115.2997352564727
30
0
40
0.50000000000000711
210
0
220
0
230
1
100
AcDbArc
50
270
51
360
0
LINE
5
870
100
AcDbEntity
8
0
100
AcDbLine
10
-297.70249999999993
20
-115.7997352564727
30
0
11
-301.8964749999999
21
-115.79973525647269
31
0
0
ARC
5
871
100
AcDbEntity
8
0
100
AcDbCircle
10
-301.8964749999999
20
-116.2997352564727
30
0
40
0.50000000000000711
210
0
220
-0
230
1
100
AcDbArc
50
90
51
149.99997686436402
0
ARC
5
872
100
AcDbEntity
8
0
100
AcDbCircle
10
-302.76249999999999
20
-115.79973525647264
30
0
40
0.50000000000004263
210
0
220
0
230
1
100
AcDbArc
50
270
51
330.00000000049153
0
LINE
5
873
100
AcDbEntity
8
0
100
AcDbLine
10
-302.76249999999999
20
-116.2997352564727
30
0
11
-307.26250014904991
21
-116.29973551464167
31
0
0
ARC
5
874
100
AcDbEntity
8
0
100
AcDbCircle
10
-331.37249999999995
20
-100.67973525647268
30
0
40
0.49999999999997158
210
0
220
-0
230
1
100
AcDbArc
50
90
51
180
0
LINE
5
875
100
AcDbEntity
8
0
100
AcDbLine
10
-331.37249999999995
20
-100.17973525647271
30
0
11
-316.7525
21
-100.17973525647271
31
0
0
ARC
5
876
100
AcDbEntity
8
0
100
AcDbCircle
10
-316.7525
20
-100.6797352564727
30
0
40
0.50000000000000711
210
0
220
0
230
1
100
AcDbArc
50
0
51
90
0
LINE
5
877
100
AcDbEntity
8
0
100
AcDbLine
10
-316.2525
20
-100.67973525647272
30
0
11
-316.2525
21
-115.29973525647272
31
0
0
ARC
5
878
100
AcDbEntity
8
0
100
AcDbCircle
10
-316.7525
20
-115.29973525647267
30
0
40
0.50000000000002487
210
0
220
0
230
1
100
AcDbArc
50
270
51
360
0
LINE
5
879
100
AcDbEntity
8
0
100
AcDbLine
10
-316.7525
20
-115.7997352564727
30
0
11
-320.94647499999996
21
-115.79973525647269
31
0
0
ARC
5
880
100
AcDbEntity
8
0
100
AcDbCircle
10
-320.94647499999996
20
-116.2997352564727
30
0
40
0.50000000000000711
210
0
220
-0
230
1
100
AcDbArc
50
90
51
149.99997686436402
0
ARC
5
881
100
AcDbEntity
8
0
100
AcDbCircle
10
-321.81250000000006
20
-115.7997352564725
30
0
40
0.50000000000018474
210
0
220
0
230
1
100
AcDbArc
50
270.00000000000648
51
330.00000000047743
0
LINE
5
882
100
AcDbEntity
8
0
100
AcDbLine
10
-321.8125
20
-116.2997352564727
30
0
11
-326.31250014904992
21
-116.29973551464167
31
0
0
ARC
5
883
100
AcDbEntity
8
0
100
AcDbCircle
10
-326.3125
20
-115.79973525647281
30
0
40
0.50000025816886484
210
0
220
0
230
1
100
AcDbArc
50
209.99998291968637
51
269.99998292014561
0
ARC
5
884
100
AcDbEntity
8
0
100
AcDbCircle
10
-327.17852499999992
20
-116.2997352564727
30
0
40
0.49999939214356082
210
0
220
-0
230
1
100
AcDbArc
50
30.000040215508644
51
90
0
LINE
5
885
100
AcDbEntity
8
0
100
AcDbLine
10
-327.17852499999992
20
-115.79973586432914
30
0
11
-331.37249999999995
21
-115.79973525647274
31
0
0
ARC
5
886
100
AcDbEntity
8
0
100
AcDbCircle
10
-331.37249999999989
20
-115.29973525647267
30
0
40
0.50000000000011369
210
0
220
0
230
1
100
AcDbArc
50
180
51
269.99999999999346
0
LINE
5
887
100
AcDbEntity
8
0
100
AcDbLine
10
-331.8725
20
-115.2997352564727
30
0
11
-331.87249999999995
21
-100.6797352564727
31
0
0
ARC
5
888
100
AcDbEntity
8
0
100
AcDbCircle
10
-346.22852499999993
20
-97.249735256472704
30
0
40
0.49999939214398392
210
0
220
-0
230
1
100
AcDbArc
50
30.000040215511664
51
90
0
LINE
5
889
100
AcDbEntity
8
0
100
AcDbLine
10
-346.22852499999993
20
-96.749735864328713
30
0
11
-350.4224999999999
21
-96.749735256472675
31
0
0
ARC
5
890
100
AcDbEntity
8
0
100
AcDbCircle
10
-350.42249999999979
20
-96.249735256472647
30
0
40
0.50000000000004263
210
0
220
0
230
1
100
AcDbArc
50
180
51
269.99999999998698
0
LINE
5
891
100
AcDbEntity
8
0
100
AcDbLine
10
-350.92249999999984
20
-96.249735256472704
30
0
11
-350.9224999999999
21
-81.629735256472713
31
0
0
ARC
5
892
100
AcDbEntity
8
0
100
AcDbCircle
10
-350.42249999999996
20
-81.629735256472713
30
0
40
0.50000000000000711
210
0
220
-0
230
1
100
AcDbArc
50
89.999999999993491
51
180
0
LINE
5
893
100
AcDbEntity
8
0
100
AcDbLine
10
-350.4224999999999
20
-81.129735256472699
30
0
11
-335.8024999999999
21
-81.129735256472742
31
0
0
ARC
5
894
100
AcDbEntity
8
0
100
AcDbCircle
10
-335.80250000000001
20
-81.629735256472756
30
0
40
0.50000000000004263
210
0
220
-0
230
1
100
AcDbArc
50
0
51
89.999999999986969
0
LINE
5
895
100
AcDbEntity
8
0
100
AcDbLine
10
-335.30249999999995
20
-81.629735256472713
30
0
11
-335.30249999999995
21
-96.249735256472704
31
0
0
ARC
5
896
100
AcDbEntity
8
0
100
AcDbCircle
10
-335.8024999999999
20
-96.249735256472761
30
0
40
0.49999999999995381
210
0
220
0
230
1
100
AcDbArc
50
-90
51
0
0
LINE
5
897
100
AcDbEntity
8
0
100
AcDbLine
10
-335.8024999999999
20
-96.749735256472718
30
0
11
-339.99647499999992
21
-96.749735256472718
31
0
0
ARC
5
898
100
AcDbEntity
8
0
100
AcDbCircle
10
-339.99647499999992
20
-97.249735256472704
30
0
40
0.49999999999998934
210
0
220
-0
230
1
100
AcDbArc
50
90
51
149.9999768643743
0
ARC
5
899
100
AcDbEntity
8
0
100
AcDbCircle
10
-340.86249999999995
20
-96.749735256472746
30
0
40
0.49999999999997158
210
0
220
0
230
1
100
AcDbArc
50
270
51
330.00000000048783
0
LINE
5
900
100
AcDbEntity
8
0
100
AcDbLine
10
-340.86249999999995
20
-97.249735256472718
30
0
11
-345.36250014904994
21
-97.249735514641301
31
0
0
ARC
5
901
100
AcDbEntity
8
0
100
AcDbCircle
10
-345.36249999999995
20
-96.749735256473002
30
0
40
0.50000025816841442
210
0
220
0
230
1
100
AcDbArc
50
209.99998291966179
51
269.99998292013908
0
ARC
5
902
100
AcDbEntity
8
0
100
AcDbCircle
10
-312.32249999999993
20
-81.629735256472685
30
0
40
0.49999999999998934
210
0
220
-0
230
1
100
AcDbArc
50
90
51
180
0
LINE
5
903
100
AcDbEntity
8
0
100
AcDbLine
10
-312.32249999999993
20
-81.129735256472699
30
0
11
-297.70249999999993
21
-81.129735256472699
31
0
0
ARC
5
904
100
AcDbEntity
8
0
100
AcDbCircle
10
-297.70249999999987
20
-81.629735256472671
30
0
40
0.49999999999997158
210
0
220
0
230
1
100
AcDbArc
50
0
51
90.000000000006523
0
LINE
5
905
100
AcDbEntity
8
0
100
AcDbLine
10
-297.20249999999993
20
-81.629735256472713
30
0
11
-297.20249999999993
21
-96.249735256472704
31
0
0
ARC
5
906
100
AcDbEntity
8
0
100
AcDbCircle
10
-297.70249999999987
20
-96.249735256472746
30
0
40
0.49999999999997158
210
0
220
0
230
1
100
AcDbArc
50
-90.000000000006523
51
0
0
LINE
5
907
100
AcDbEntity
8
0
100
AcDbLine
10
-297.70249999999993
20
-96.749735256472718
30
0
11
-301.8964749999999
21
-96.749735256472718
31
0
0
ARC
5
908
100
AcDbEntity
8
0
100
AcDbCircle
10
-301.8964749999999
20
-97.249735256472704
30
0
40
0.49999999999998934
210
0
220
-0
230
1
100
AcDbArc
50
90
51
149.99997686436825
0
ARC
5
909
100
AcDbEntity
8
0
100
AcDbCircle
10
-302.76249999999999
20
-96.749735256472661
30
0
40
0.5000000000000604
210
0
220
0
230
1
100
AcDbArc
50
270
51
330.00000000048874
0
LINE
5
910
100
AcDbEntity
8
0
100
AcDbLine
10
-302.76249999999999
20
-97.249735256472718
30
0
11
-307.26250014904991
21
-97.249735514641685
31
0
0
ARC
5
911
100
AcDbEntity
8
0
100
AcDbCircle
10
-307.26249999999993
20
-96.749735256472718
30
0
40
0.50000025816901039
210
0
220
0
230
1
100
AcDbArc
50
209.99998291968973
51
269.99998292013908
0
ARC
5
912
100
AcDbEntity
8
0
100
AcDbCircle
10
-308.12852499999991
20
-97.249735256472704
30
0
40
0.49999939214353001
210
0
220
-0
230
1
100
AcDbArc
50
30.000040215511909
51
90
0
LINE
5
913
100
AcDbEntity
8
0
100
AcDbLine
10
-308.12852499999991
20
-96.749735864329182
30
0
11
-312.32249999999993
21
-96.749735256472746
31
0
0
ARC
5
914
100
AcDbEntity
8
0
100
AcDbCircle
10
-312.32249999999993
20
-96.24973525647269
30
0
40
0.50000000000004263
210
0
220
0
230
1
100
AcDbArc
50
180
51
270
0
LINE
5
915
100
AcDbEntity
8
0
100
AcDbLine
10
-312.82249999999999
20
-96.249735256472704
30
0
11
-312.82249999999988
21
-81.629735256472713
31
0
0
ARC
5
916
100
AcDbEntity
8
0
100
AcDbCircle
10
-335.80250000000001
20
-100.67973525647277
30
0
40
0.50000000000004263
210
0
220
-0
230
1
100
AcDbArc
50
0
51
89.999999999986969
0
LINE
5
917
100
AcDbEntity
8
0
100
AcDbLine
10
-335.30249999999995
20
-100.67973525647272
30
0
11
-335.30249999999995
21
-115.29973525647272
31
0
0
ARC
5
918
100
AcDbEntity
8
0
100
AcDbCircle
10
-335.8024999999999
20
-115.29973525647273
30
0
40
0.49999999999997158
210
0
220
0
230
1
100
AcDbArc
50
-90
51
0
0
LINE
5
919
100
AcDbEntity
8
0
100
AcDbLine
10
-335.8024999999999
20
-115.7997352564727
30
0
11
-339.99647499999992
21
-115.79973525647269
31
0
0
ARC
5
920
100
AcDbEntity
8
0
100
AcDbCircle
10
-339.99647499999992
20
-116.2997352564727
30
0
40
0.50000000000000711
210
0
220
-0
230
1
100
AcDbArc
50
90
51
149.99997686437291
0
ARC
5
921
100
AcDbEntity
8
0
100
AcDbCircle
10
-340.86249999999995
20
-115.79973525647273
30
0
40
0.49999999999997158
210
0
220
0
230
1
100
AcDbArc
50
270
51
330.00000000048783
0
LINE
5
922
100
AcDbEntity
8
0
100
AcDbLine
10
-340.86249999999995
20
-116.2997352564727
30
0
11
-345.36250014904994
21
-116.29973551464164
31
0
0
ARC
5
923
100
AcDbEntity
8
0
100
AcDbCircle
10
-345.36249999999995
20
-115.79973525647259
30
0
40
0.50000025816904192
210
0
220
0
230
1
100
AcDbArc
50
209.99998291970567
51
269.99998292013908
0
ARC
5
924
100
AcDbEntity
8
0
100
AcDbCircle
10
-346.22852499999993
20
-116.2997352564727
30
0
40
0.49999939214356082
210
0
220
-0
230
1
100
AcDbArc
50
30.000040215508644
51
90
0
LINE
5
925
100
AcDbEntity
8
0
100
AcDbLine
10
-346.22852499999993
20
-115.79973586432907
30
0
11
-350.4224999999999
21
-115.79973525647267
31
0
0
ARC
5
926
100
AcDbEntity
8
0
100
AcDbCircle
10
-350.42249999999979
20
-115.29973525647264
30
0
40
0.50000000000004263
210
0
220
0
230
1
100
AcDbArc
50
180
51
269.99999999998698
0
LINE
5
927
100
AcDbEntity
8
0
100
AcDbLine
10
-350.92249999999984
20
-115.2997352564727
30
0
11
-350.9224999999999
21
-100.6797352564727
31
0
0
ARC
5
928
100
AcDbEntity
8
0
100
AcDbCircle
10
-350.42249999999996
20
-100.67973525647274
30
0
40
0.50000000000002487
210
0
220
-0
230
1
100
AcDbArc
50
89.999999999993491
51
180
0
LINE
5
929
100
AcDbEntity
8
0
100
AcDbLine
10
-350.4224999999999
20
-100.17973525647271
30
0
11
-335.8024999999999
21
-100.17973525647272
31
0
0
ARC
5
930
100
AcDbEntity
8
0
100
AcDbCircle
10
-173.87749999999994
20
-77.199735256472678
30
0
40
0.50000000000003375
210
0
220
0
230
1
100
AcDbArc
50
270
51
360
0
LINE
5
931
100
AcDbEntity
8
0
100
AcDbLine
10
-173.87749999999994
20
-77.699735256472707
30
0
11
-178.07147499999991
21
-77.699735256472707
31
0
0
ARC
5
932
100
AcDbEntity
8
0
100
AcDbCircle
10
-178.07147499999991
20
-78.199735256472707
30
0
40
0.50000000000000711
210
0
220
-0
230
1
100
AcDbArc
50
90
51
149.99997686437007
0
ARC
5
933
100
AcDbEntity
8
0
100
AcDbCircle
10
-178.93749999999994
20
-77.699735256472678
30
0
40
0.50000000000001599
210
0
220
0
230
1
100
AcDbArc
50
270
51
330.00000000048504
0
LINE
5
934
100
AcDbEntity
8
0
100
AcDbLine
10
-178.93749999999994
20
-78.199735256472692
30
0
11
-183.43750014904995
21
-78.199735514641674
31
0
0
ARC
5
935
100
AcDbEntity
8
0
100
AcDbCircle
10
-183.43749999999994
20
-77.699735256472707
30
0
40
0.50000025816900151
210
0
220
0
230
1
100
AcDbArc
50
209.99998291968996
51
269.99998292013584
0
ARC
5
936
100
AcDbEntity
8
0
100
AcDbCircle
10
-184.30352499999995
20
-78.199735256472707
30
0
40
0.49999939214357858
210
0
220
-0
230
1
100
AcDbArc
50
30.000040215511468
51
90
0
LINE
5
937
100
AcDbEntity
8
0
100
AcDbLine
10
-184.30352499999995
20
-77.699735864329128
30
0
11
-188.49749999999995
21
-77.699735256472721
31
0
0
ARC
5
938
100
AcDbEntity
8
0
100
AcDbCircle
10
-188.49749999999997
20
-77.199735256472735
30
0
40
0.49999999999997158
210
0
220
0
230
1
100
AcDbArc
50
180
51
270.00000000000324
0
LINE
5
939
100
AcDbEntity
8
0
100
AcDbLine
10
-188.99749999999995
20
-77.199735256472707
30
0
11
-188.99749999999995
21
-62.579735256472695
31
0
0
ARC
5
940
100
AcDbEntity
8
0
100
AcDbCircle
10
-188.49749999999986
20
-62.579735256472745
30
0
40
0.50000000000005151
210
0
220
0
230
1
100
AcDbArc
50
90.000000000009777
51
180
0
LINE
5
941
100
AcDbEntity
8
0
100
AcDbLine
10
-188.49749999999995
20
-62.079735256472695
30
0
11
-173.87749999999994
21
-62.079735256472688
31
0
0
ARC
5
942
100
AcDbEntity
8
0
100
AcDbCircle
10
-173.87749999999988
20
-62.579735256472659
30
0
40
0.49999999999997158
210
0
220
0
230
1
100
AcDbArc
50
0
51
90.000000000006523
0
LINE
5
943
100
AcDbEntity
8
0
100
AcDbLine
10
-173.37749999999994
20
-62.579735256472695
30
0
11
-173.37749999999988
21
-77.199735256472707
31
0
0
ARC
5
944
100
AcDbEntity
8
0
100
AcDbCircle
10
-154.8274999999999
20
-77.199735256472707
30
0
40
0.49999999999999822
210
0
220
0
230
1
100
AcDbArc
50
-90.000000000003254
51
0
0
LINE
5
945
100
AcDbEntity
8
0
100
AcDbLine
10
-154.82749999999993
20
-77.699735256472707
30
0
11
-159.02147499999995
21
-77.699735256472707
31
0
0
ARC
5
946
100
AcDbEntity
8
0
100
AcDbCircle
10
-159.02147499999995
20
-78.199735256472707
30
0
40
0.50000000000000711
210
0
220
-0
230
1
100
AcDbArc
50
90
51
149.99999999988859
0
ARC
5
947
100
AcDbEntity
8
0
100
AcDbCircle
10
-159.88749999999993
20
-77.699735256472692
30
0
40
0.50000000000000711
210
0
220
0
230
1
100
AcDbArc
50
270
51
329.99997686494845
0
LINE
5
948
100
AcDbEntity
8
0
100
AcDbLine
10
-159.88749999999993
20
-78.199735256472692
30
0
11
-164.38749999999996
21
-78.199735514641702
31
0
0
ARC
5
949
100
AcDbEntity
8
0
100
AcDbCircle
10
-164.38749999999999
20
-77.699735256472763
30
0
40
0.50000025816893123
210
0
220
0
230
1
100
AcDbArc
50
209.99998291969322
51
270.00000000000324
0
ARC
5
950
100
AcDbEntity
8
0
100
AcDbCircle
10
-165.25352499999994
20
-78.199735256472707
30
0
40
0.49999939214355188
210
0
220
-0
230
1
100
AcDbArc
50
30.000040215505848
51
90.000040214808848
0
LINE
5
951
100
AcDbEntity
8
0
100
AcDbLine
10
-165.25352535093992
20
-77.699735864329284
30
0
11
-169.44749999999996
21
-77.699735256472721
31
0
0
ARC
5
952
100
AcDbEntity
8
0
100
AcDbCircle
10
-169.44749999999999
20
-77.199735256472749
30
0
40
0.49999999999997158
210
0
220
0
230
1
100
AcDbArc
50
180
51
270.00000000000324
0
LINE
5
953
100
AcDbEntity
8
0
100
AcDbLine
10
-169.94749999999996
20
-77.199735256472707
30
0
11
-169.94749999999996
21
-62.579735256472695
31
0
0
ARC
5
954
100
AcDbEntity
8
0
100
AcDbCircle
10
-169.44749999999996
20
-62.57973525647273
30
0
40
0.50000000000003375
210
0
220
-0
230
1
100
AcDbArc
50
90
51
180
0
LINE
5
955
100
AcDbEntity
8
0
100
AcDbLine
10
-169.44749999999996
20
-62.079735256472695
30
0
11
-154.82749999999993
21
-62.079735256472723
31
0
0
ARC
5
956
100
AcDbEntity
8
0
100
AcDbCircle
10
-154.82749999999993
20
-62.579735256472688
30
0
40
0.49999999999997158
210
0
220
0
230
1
100
AcDbArc
50
0
51
90
0
LINE
5
957
100
AcDbEntity
8
0
100
AcDbLine
10
-154.32749999999996
20
-62.579735256472695
30
0
11
-154.32749999999993
21
-77.199735256472707
31
0
0
ARC
5
958
100
AcDbEntity
8
0
100
AcDbCircle
10
-111.96499999999993
20
-96.249735256472704
30
0
40
0.50000000000000711
210
0
220
0
230
1
100
AcDbArc
50
-90
51
0
0
LINE
5
959
100
AcDbEntity
8
0
100
AcDbLine
10
-111.96499999999993
20
-96.749735256472718
30
0
11
-116.15897499999991
21
-96.749735256472718
31
0
0
ARC
5
960
100
AcDbEntity
8
0
100
AcDbCircle
10
-116.15897499999991
20
-97.249735256472704
30
0
40
0.49999999999998934
210
0
220
-0
230
1
100
AcDbArc
50
90
51
149.99999999989305
0
ARC
5
961
100
AcDbEntity
8
0
100
AcDbCircle
10
-117.02499999999995
20
-96.74973525647269
30
0
40
0.50000000000002487
210
0
220
0
230
1
100
AcDbArc
50
270.00000000000159
51
329.99997686494731
0
LINE
5
962
100
AcDbEntity
8
0
100
AcDbLine
10
-117.02499999999993
20
-97.249735256472718
30
0
11
-121.52499999999995
21
-97.249735514641714
31
0
0
ARC
5
963
100
AcDbEntity
8
0
100
AcDbCircle
10
-121.52499999999996
20
-96.749735256472817
30
0
40
0.50000025816889571
210
0
220
0
230
1
100
AcDbArc
50
209.99998291968396
51
270.00000000000159
0
ARC
5
964
100
AcDbEntity
8
0
100
AcDbCircle
10
-122.39102499999994
20
-97.249735256472704
30
0
40
0.49999939214359157
210
0
220
-0
230
1
100
AcDbArc
50
30.000040215507823
51
90.000040214807228
0
LINE
5
965
100
AcDbEntity
8
0
100
AcDbLine
10
-122.39102535093991
20
-96.749735864329253
30
0
11
-126.58499999999992
21
-96.749735256472718
31
0
0
ARC
5
966
100
AcDbEntity
8
0
100
AcDbCircle
10
-126.58499999999992
20
-96.249735256472704
30
0
40
0.50000000000000711
210
0
220
0
230
1
100
AcDbArc
50
180
51
270
0
LINE
5
967
100
AcDbEntity
8
0
100
AcDbLine
10
-127.08499999999994
20
-96.249735256472704
30
0
11
-127.08499999999994
21
-81.629735256472713
31
0
0
ARC
5
968
100
AcDbEntity
8
0
100
AcDbCircle
10
-126.58499999999992
20
-81.629735256472713
30
0
40
0.50000000000000711
210
0
220
-0
230
1
100
AcDbArc
50
90
51
180
0
LINE
5
969
100
AcDbEntity
8
0
100
AcDbLine
10
-126.58499999999992
20
-81.129735256472699
30
0
11
-111.96499999999993
21
-81.129735256472699
31
0
0
ARC
5
970
100
AcDbEntity
8
0
100
AcDbCircle
10
-111.96499999999993
20
-81.629735256472713
30
0
40
0.50000000000000711
210
0
220
0
230
1
100
AcDbArc
50
0
51
90
0
LINE
5
971
100
AcDbEntity
8
0
100
AcDbLine
10
-111.46499999999992
20
-81.629735256472713
30
0
11
-111.46499999999992
21
-96.249735256472704
31
0
0
ARC
5
972
100
AcDbEntity
8
0
100
AcDbCircle
10
-127.15352499999995
20
-78.199735256472707
30
0
40
0.49999939214399935
210
0
220
-0
230
1
100
AcDbArc
50
30.00004021551085
51
90
0
LINE
5
973
100
AcDbEntity
8
0
100
AcDbLine
10
-127.15352499999995
20
-77.699735864328716
30
0
11
-131.34749999999994
21
-77.699735256472721
31
0
0
ARC
5
974
100
AcDbEntity
8
0
100
AcDbCircle
10
-131.34749999999994
20
-77.199735256472721
30
0
40
0.50000000000000711
210
0
220
0
230
1
100
AcDbArc
50
180
51
270
0
LINE
5
975
100
AcDbEntity
8
0
100
AcDbLine
10
-131.84749999999994
20
-77.199735256472707
30
0
11
-131.84749999999994
21
-62.579735256472695
31
0
0
ARC
5
976
100
AcDbEntity
8
0
100
AcDbCircle
10
-131.34749999999994
20
-62.579735256472695
30
0
40
0.49999999999999822
210
0
220
-0
230
1
100
AcDbArc
50
90
51
180
0
LINE
5
977
100
AcDbEntity
8
0
100
AcDbLine
10
-131.34749999999994
20
-62.079735256472695
30
0
11
-116.72749999999994
21
-62.079735256472688
31
0
0
ARC
5
978
100
AcDbEntity
8
0
100
AcDbCircle
10
-116.72749999999994
20
-62.579735256472688
30
0
40
0.50000000000000711
210
0
220
0
230
1
100
AcDbArc
50
0
51
90
0
LINE
5
979
100
AcDbEntity
8
0
100
AcDbLine
10
-116.22749999999994
20
-62.579735256472695
30
0
11
-116.22749999999994
21
-77.199735256472707
31
0
0
ARC
5
980
100
AcDbEntity
8
0
100
AcDbCircle
10
-116.72749999999992
20
-77.199735256472707
30
0
40
0.49999999999999822
210
0
220
0
230
1
100
AcDbArc
50
-90.000000000001634
51
0
0
LINE
5
981
100
AcDbEntity
8
0
100
AcDbLine
10
-116.72749999999994
20
-77.699735256472707
30
0
11
-120.92147499999996
21
-77.699735256472707
31
0
0
ARC
5
982
100
AcDbEntity
8
0
100
AcDbCircle
10
-120.92147499999996
20
-78.199735256472707
30
0
40
0.50000000000000711
210
0
220
-0
230
1
100
AcDbArc
50
90
51
149.99997686436706
0
ARC
5
983
100
AcDbEntity
8
0
100
AcDbCircle
10
-121.78749999999994
20
-77.699735256472692
30
0
40
0.50000000000000711
210
0
220
0
230
1
100
AcDbArc
50
270
51
330.00000000048624
0
LINE
5
984
100
AcDbEntity
8
0
100
AcDbLine
10
-121.78749999999994
20
-78.199735256472692
30
0
11
-126.28750014904995
21
-78.199735514641262
31
0
0
ARC
5
985
100
AcDbEntity
8
0
100
AcDbCircle
10
-126.28749999999991
20
-77.699735256472664
30
0
40
0.50000025816861393
210
0
220
0
230
1
100
AcDbArc
50
209.99998291969314
51
269.9999829201326
0
ARC
5
986
100
AcDbEntity
8
0
100
AcDbCircle
10
-145.30249999999992
20
-58.149735256472667
30
0
40
0.50000000000003375
210
0
220
0
230
1
100
AcDbArc
50
270
51
360
0
LINE
5
987
100
AcDbEntity
8
0
100
AcDbLine
10
-145.30249999999992
20
-58.649735256472695
30
0
11
-149.49647499999995
21
-58.649735256472709
31
0
0
ARC
5
988
100
AcDbEntity
8
0
100
AcDbCircle
10
-149.49647499999995
20
-59.149735256472709
30
0
40
0.50000000000000711
210
0
220
-0
230
1
100
AcDbArc
50
90
51
149.99999999988859
0
ARC
5
989
100
AcDbEntity
8
0
100
AcDbCircle
10
-150.36249999999993
20
-58.649735256472667
30
0
40
0.50000000000003375
210
0
220
0
230
1
100
AcDbArc
50
270
51
329.99997686494567
0
LINE
5
990
100
AcDbEntity
8
0
100
AcDbLine
10
-150.36249999999993
20
-59.149735256472702
30
0
11
-154.86249999999995
21
-59.149735514641712
31
0
0
ARC
5
991
100
AcDbEntity
8
0
100
AcDbCircle
10
-154.86249999999995
20
-58.649735256472724
30
0
40
0.50000025816898419
210
0
220
0
230
1
100
AcDbArc
50
209.99998291969351
51
270
0
ARC
5
992
100
AcDbEntity
8
0
100
AcDbCircle
10
-155.72852499999993
20
-59.149735256472709
30
0
40
0.49999939214354094
210
0
220
-0
230
1
100
AcDbArc
50
30.000040215508154
51
90.000040214812117
0
LINE
5
993
100
AcDbEntity
8
0
100
AcDbLine
10
-155.72852535093995
20
-58.649735864329301
30
0
11
-159.92249999999996
21
-58.649735256472709
31
0
0
ARC
5
994
100
AcDbEntity
8
0
100
AcDbCircle
10
-159.92249999999999
20
-58.149735256472738
30
0
40
0.49999999999997158
210
0
220
0
230
1
100
AcDbArc
50
180
51
270.00000000000324
0
LINE
5
995
100
AcDbEntity
8
0
100
AcDbLine
10
-160.42249999999996
20
-58.149735256472695
30
0
11
-160.42249999999996
21
-43.529735256472705
31
0
0
ARC
5
996
100
AcDbEntity
8
0
100
AcDbCircle
10
-159.92249999999996
20
-43.529735256472748
30
0
40
0.50000000000002487
210
0
220
-0
230
1
100
AcDbArc
50
90
51
180
0
LINE
5
997
100
AcDbEntity
8
0
100
AcDbLine
10
-159.92249999999996
20
-43.029735256472719
30
0
11
-145.30249999999992
21
-43.029735256472748
31
0
0
ARC
5
998
100
AcDbEntity
8
0
100
AcDbCircle
10
-145.30249999999992
20
-43.529735256472712
30
0
40
0.49999999999997158
210
0
220
0
230
1
100
AcDbArc
50
0
51
90
0
LINE
5
999
100
AcDbEntity
8
0
100
AcDbLine
10
-144.80249999999995
20
-43.529735256472719
30
0
11
-144.8024999999999
21
-58.149735256472717
31
0
0
ARC
5
1000
100
AcDbEntity
8
0
100
AcDbCircle
10
-207.24999999999991
20
-39.599735256472719
30
0
40
0.50000025816904348
210
0
220
0
230
1
100
AcDbArc
50
209.99998291968953
51
269.99998292013584
0
ARC
5
1001
100
AcDbEntity
8
0
100
AcDbCircle
10
-208.11602499999992
20
-40.099735256472719
30
0
40
0.49999939214353445
210
0
220
-0
230
1
100
AcDbArc
50
30.000040215511909
51
90
0
LINE
5
1002
100
AcDbEntity
8
0
100
AcDbLine
10
-208.11602499999992
20
-39.599735864329183
30
0
11
-212.30999999999995
21
-39.599735256472727
31
0
0
ARC
5
1003
100
AcDbEntity
8
0
100
AcDbCircle
10
-212.30999999999995
20
-39.099735256472734
30
0
40
0.50000000000000711
210
0
220
0
230
1
100
AcDbArc
50
180
51
270
0
LINE
5
1004
100
AcDbEntity
8
0
100
AcDbLine
10
-212.80999999999995
20
-39.099735256472727
30
0
11
-212.80999999999995
21
-24.479735256472726
31
0
0
ARC
5
1005
100
AcDbEntity
8
0
100
AcDbCircle
10
-212.30999999999992
20
-24.479735256472775
30
0
40
0.50000000000004707
210
0
220
0
230
1
100
AcDbArc
50
90.000000000003254
51
180
0
LINE
5
1006
100
AcDbEntity
8
0
100
AcDbLine
10
-212.30999999999995
20
-23.979735256472729
30
0
11
-197.68999999999991
21
-23.979735256472718
31
0
0
ARC
5
1007
100
AcDbEntity
8
0
100
AcDbCircle
10
-197.68999999999991
20
-24.479735256472715
30
0
40
0.50000000000000711
210
0
220
0
230
1
100
AcDbArc
50
0
51
90
0
LINE
5
1008
100
AcDbEntity
8
0
100
AcDbLine
10
-197.18999999999991
20
-24.479735256472726
30
0
11
-197.18999999999991
21
-39.099735256472727
31
0
0
ARC
5
1009
100
AcDbEntity
8
0
100
AcDbCircle
10
-197.68999999999994
20
-39.099735256472677
30
0
40
0.50000000000004707
210
0
220
0
230
1
100
AcDbArc
50
270.00000000000324
51
360
0
LINE
5
1010
100
AcDbEntity
8
0
100
AcDbLine
10
-197.68999999999991
20
-39.599735256472719
30
0
11
-201.88397499999994
21
-39.599735256472727
31
0
0
ARC
5
1011
100
AcDbEntity
8
0
100
AcDbCircle
10
-201.88397499999994
20
-40.099735256472719
30
0
40
0.49999999999998934
210
0
220
-0
230
1
100
AcDbArc
50
90
51
149.99997686436188
0
ARC
5
1012
100
AcDbEntity
8
0
100
AcDbCircle
10
-202.74999999999994
20
-39.599735256472698
30
0
40
0.50000000000002931
210
0
220
0
230
1
100
AcDbArc
50
270.00000000000324
51
330.00000000049226
0
LINE
5
1013
100
AcDbEntity
8
0
100
AcDbLine
10
-202.74999999999991
20
-40.099735256472727
30
0
11
-207.25000014904992
21
-40.099735514641743
31
0
0
ARC
5
1014
100
AcDbEntity
8
0
100
AcDbCircle
10
-121.82249999999995
20
-43.529735256472755
30
0
40
0.50000000000003375
210
0
220
0
230
1
100
AcDbArc
50
90.000000000001634
51
180
0
LINE
5
1015
100
AcDbEntity
8
0
100
AcDbLine
10
-121.82249999999996
20
-43.029735256472719
30
0
11
-107.20249999999994
21
-43.029735256472712
31
0
0
ARC
5
1016
100
AcDbEntity
8
0
100
AcDbCircle
10
-107.20249999999993
20
-43.529735256472712
30
0
40
0.50000000000000711
210
0
220
0
230
1
100
AcDbArc
50
0
51
90.000000000001634
0
LINE
5
1017
100
AcDbEntity
8
0
100
AcDbLine
10
-106.70249999999993
20
-43.529735256472719
30
0
11
-106.70249999999993
21
-58.149735256472717
31
0
0
ARC
5
1018
100
AcDbEntity
8
0
100
AcDbCircle
10
-107.20249999999994
20
-58.149735256472667
30
0
40
0.50000000000003375
210
0
220
0
230
1
100
AcDbArc
50
270.00000000000159
51
360
0
LINE
5
1019
100
AcDbEntity
8
0
100
AcDbLine
10
-107.20249999999993
20
-58.649735256472695
30
0
11
-111.39647499999994
21
-58.649735256472709
31
0
0
ARC
5
1020
100
AcDbEntity
8
0
100
AcDbCircle
10
-111.39647499999995
20
-59.149735256472709
30
0
40
0.50000000000000711
210
0
220
-0
230
1
100
AcDbArc
50
89.99999999999838
51
149.99999999989305
0
ARC
5
1021
100
AcDbEntity
8
0
100
AcDbCircle
10
-112.26249999999993
20
-58.649735256472709
30
0
40
0.49999999999999822
210
0
220
0
230
1
100
AcDbArc
50
270
51
329.99997686494544
0
LINE
5
1022
100
AcDbEntity
8
0
100
AcDbLine
10
-112.26249999999993
20
-59.149735256472702
30
0
11
-116.76249999999995
21
-59.149735514641705
31
0
0
ARC
5
1023
100
AcDbEntity
8
0
100
AcDbCircle
10
-116.76249999999999
20
-58.649735256472752
30
0
40
0.50000025816894211
210
0
220
0
230
1
100
AcDbArc
50
209.99998291968947
51
270.00000000000489
0
ARC
5
1024
100
AcDbEntity
8
0
100
AcDbCircle
10
-117.62852499999994
20
-59.149735256472709
30
0
40
0.49999939214355427
210
0
220
-0
230
1
100
AcDbArc
50
30.000040215510985
51
90.000040214812117
0
LINE
5
1025
100
AcDbEntity
8
0
100
AcDbLine
10
-117.62852535093995
20
-58.64973586432928
30
0
11
-121.82249999999996
21
-58.649735256472667
31
0
0
ARC
5
1026
100
AcDbEntity
8
0
100
AcDbCircle
10
-121.82249999999996
20
-58.149735256472709
30
0
40
0.49999999999997158
210
0
220
0
230
1
100
AcDbArc
50
180
51
270
0
LINE
5
1027
100
AcDbEntity
8
0
100
AcDbLine
10
-122.32249999999993
20
-58.149735256472695
30
0
11
-122.32249999999996
21
-43.529735256472705
31
0
0
ARC
5
1028
100
AcDbEntity
8
0
100
AcDbCircle
10
-69.137499999999932
20
-77.699735256472707
30
0
40
0.50000025816898619
210
0
220
0
230
1
100
AcDbArc
50
209.99998291969138
51
270.00000000000159
0
ARC
5
1029
100
AcDbEntity
8
0
100
AcDbCircle
10
-70.003524999999939
20
-78.199735256472707
30
0
40
0.49999939214358186
210
0
220
-0
230
1
100
AcDbArc
50
30.000040215510051
51
90.000040215497691
0
LINE
5
1030
100
AcDbEntity
8
0
100
AcDbLine
10
-70.003525350945935
20
-77.699735864329242
30
0
11
-74.197499999999934
21
-77.699735256472707
31
0
0
ARC
5
1031
100
AcDbEntity
8
0
100
AcDbCircle
10
-74.19749999999992
20
-77.199735256472707
30
0
40
0.49999999999999822
210
0
220
0
230
1
100
AcDbArc
50
180
51
269.99999999999835
0
LINE
5
1032
100
AcDbEntity
8
0
100
AcDbLine
10
-74.69749999999992
20
-77.199735256472707
30
0
11
-74.697499999999906
21
-62.579735256472695
31
0
0
ARC
5
1033
100
AcDbEntity
8
0
100
AcDbCircle
10
-74.19749999999992
20
-62.579735256472695
30
0
40
0.49999999999999822
210
0
220
-0
230
1
100
AcDbArc
50
90
51
180
0
LINE
5
1034
100
AcDbEntity
8
0
100
AcDbLine
10
-74.19749999999992
20
-62.079735256472695
30
0
11
-59.577499999999937
21
-62.079735256472695
31
0
0
ARC
5
1035
100
AcDbEntity
8
0
100
AcDbCircle
10
-59.57749999999993
20
-62.579735256472695
30
0
40
0.49999999999999822
210
0
220
0
230
1
100
AcDbArc
50
0
51
90.00000000000081
0
LINE
5
1036
100
AcDbEntity
8
0
100
AcDbLine
10
-59.07749999999993
20
-62.579735256472695
30
0
11
-59.07749999999993
21
-77.199735256472707
31
0
0
ARC
5
1037
100
AcDbEntity
8
0
100
AcDbCircle
10
-59.57749999999993
20
-77.199735256472707
30
0
40
0.49999999999999822
210
0
220
0
230
1
100
AcDbArc
50
-90
51
0
0
LINE
5
1038
100
AcDbEntity
8
0
100
AcDbLine
10
-59.57749999999993
20
-77.699735256472707
30
0
11
-63.771474999999924
21
-77.699735256472707
31
0
0
ARC
5
1039
100
AcDbEntity
8
0
100
AcDbCircle
10
-63.771474999999931
20
-78.199735256472707
30
0
40
0.50000000000000711
210
0
220
-0
230
1
100
AcDbArc
50
89.99999999999919
51
150.00000000001239
0
ARC
5
1040
100
AcDbEntity
8
0
100
AcDbCircle
10
-64.637499999999932
20
-77.699735256472707
30
0
40
0.49999999999999822
210
0
220
0
230
1
100
AcDbArc
50
270
51
329.99997686482726
0
LINE
5
1041
100
AcDbEntity
8
0
100
AcDbLine
10
-64.637499999999932
20
-78.199735256472707
30
0
11
-69.137499999999918
21
-78.199735514641702
31
0
0
ARC
5
1042
100
AcDbEntity
8
0
100
AcDbCircle
10
-83.389999999999901
20
-100.6797352564727
30
0
40
0.49999999999998934
210
0
220
0
230
1
100
AcDbArc
50
0
51
90.000000000003254
0
LINE
5
1043
100
AcDbEntity
8
0
100
AcDbLine
10
-82.889999999999901
20
-100.67973525647272
30
0
11
-82.889999999999901
21
-115.29973525647272
31
0
0
ARC
5
1044
100
AcDbEntity
8
0
100
AcDbCircle
10
-83.389999999999873
20
-115.29973525647273
30
0
40
0.49999999999997158
210
0
220
0
230
1
100
AcDbArc
50
-90.000000000004889
51
0
0
LINE
5
1045
100
AcDbEntity
8
0
100
AcDbLine
10
-83.389999999999915
20
-115.7997352564727
30
0
11
-87.583974999999938
21
-115.79973525647269
31
0
0
ARC
5
1046
100
AcDbEntity
8
0
100
AcDbCircle
10
-87.583974999999938
20
-116.2997352564727
30
0
40
0.50000000000000711
210
0
220
-0
230
1
100
AcDbArc
50
90
51
149.99997686436203
0
ARC
5
1047
100
AcDbEntity
8
0
100
AcDbCircle
10
-88.449999999999918
20
-115.7997352564727
30
0
40
0.49999999999998934
210
0
220
0
230
1
100
AcDbArc
50
270
51
330.00000000049261
0
LINE
5
1048
100
AcDbEntity
8
0
100
AcDbLine
10
-88.449999999999918
20
-116.2997352564727
30
0
11
-92.950000149049927
21
-116.29973551464164
31
0
0
ARC
5
1049
100
AcDbEntity
8
0
100
AcDbCircle
10
-92.949999999999903
20
-115.79973525647264
30
0
40
0.50000025816904359
210
0
220
0
230
1
100
AcDbArc
50
209.99998291969459
51
269.99998292013419
0
ARC
5
1050
100
AcDbEntity
8
0
100
AcDbCircle
10
-93.816024999999925
20
-116.2997352564727
30
0
40
0.49999939214355427
210
0
220
-0
230
1
100
AcDbArc
50
30.000040215511678
51
90
0
LINE
5
1051
100
AcDbEntity
8
0
100
AcDbLine
10
-93.816024999999925
20
-115.79973586432914
30
0
11
-98.009999999999934
21
-115.7997352564727
31
0
0
ARC
5
1052
100
AcDbEntity
8
0
100
AcDbCircle
10
-98.009999999999962
20
-115.29973525647272
30
0
40
0.49999999999998934
210
0
220
0
230
1
100
AcDbArc
50
180
51
270.00000000000324
0
LINE
5
1053
100
AcDbEntity
8
0
100
AcDbLine
10
-98.509999999999962
20
-115.2997352564727
30
0
11
-98.509999999999962
21
-100.6797352564727
31
0
0
ARC
5
1054
100
AcDbEntity
8
0
100
AcDbCircle
10
-98.009999999999962
20
-100.6797352564727
30
0
40
0.49999999999998934
210
0
220
-0
230
1
100
AcDbArc
50
89.99999999999838
51
180
0
LINE
5
1055
100
AcDbEntity
8
0
100
AcDbLine
10
-98.009999999999948
20
-100.17973525647271
30
0
11
-83.38999999999993
21
-100.17973525647271
31
0
0
LINE
5
1056
100
AcDbEntity
8
0
100
AcDbLine
10
-183.40249999999995
20
-58.649735256472709
30
0
11
-187.59647499999994
21
-58.649735256472709
31
0
0
ARC
5
1057
100
AcDbEntity
8
0
100
AcDbCircle
10
-187.59647499999994
20
-59.149735256472709
30
0
40
0.50000000000000711
210
0
220
-0
230
1
100
AcDbArc
50
90
51
149.99999999989444
0
ARC
5
1058
100
AcDbEntity
8
0
100
AcDbCircle
10
-188.46249999999995
20
-58.649735256472688
30
0
40
0.50000000000001599
210
0
220
0
230
1
100
AcDbArc
50
270
51
329.99997686494356
0
LINE
5
1059
100
AcDbEntity
8
0
100
AcDbLine
10
-188.46249999999995
20
-59.149735256472702
30
0
11
-192.96249999999992
21
-59.149735514641712
31
0
0
ARC
5
1060
100
AcDbEntity
8
0
100
AcDbCircle
10
-192.96249999999989
20
-58.64973525647266
30
0
40
0.50000025816905458
210
0
220
0
230
1
100
AcDbArc
50
209.99998291969163
51
269.99999999999676
0
ARC
5
1061
100
AcDbEntity
8
0
100
AcDbCircle
10
-193.82852499999996
20
-59.149735256472709
30
0
40
0.49999939214357858
210
0
220
-0
230
1
100
AcDbArc
50
30.000040215511468
51
90.000040214805594
0
LINE
5
1062
100
AcDbEntity
8
0
100
AcDbLine
10
-193.82852535093991
20
-58.649735864329251
30
0
11
-198.02249999999992
21
-58.649735256472709
31
0
0
ARC
5
1063
100
AcDbEntity
8
0
100
AcDbCircle
10
-198.02249999999998
20
-58.149735256472717
30
0
40
0.49999999999997158
210
0
220
0
230
1
100
AcDbArc
50
180
51
270.00000000000648
0
LINE
5
1064
100
AcDbEntity
8
0
100
AcDbLine
10
-198.52249999999995
20
-58.149735256472695
30
0
11
-198.52249999999995
21
-43.529735256472705
31
0
0
ARC
5
1065
100
AcDbEntity
8
0
100
AcDbCircle
10
-198.02249999999992
20
-43.529735256472733
30
0
40
0.50000000000001599
210
0
220
-0
230
1
100
AcDbArc
50
89.999999999996746
51
180
0
LINE
5
1066
100
AcDbEntity
8
0
100
AcDbLine
10
-198.02249999999989
20
-43.029735256472719
30
0
11
-183.40249999999995
21
-43.029735256472712
31
0
0
ARC
5
1067
100
AcDbEntity
8
0
100
AcDbCircle
10
-183.40249999999992
20
-43.529735256472684
30
0
40
0.49999999999997158
210
0
220
0
230
1
100
AcDbArc
50
0
51
90.000000000003254
0
LINE
5
1068
100
AcDbEntity
8
0
100
AcDbLine
10
-182.90249999999992
20
-43.529735256472719
30
0
11
-182.90249999999992
21
-58.149735256472717
31
0
0
ARC
5
1069
100
AcDbEntity
8
0
100
AcDbCircle
10
-183.40249999999995
20
-58.149735256472667
30
0
40
0.50000000000004263
210
0
220
0
230
1
100
AcDbArc
50
270
51
360
0
ARC
5
1070
100
AcDbEntity
8
0
100
AcDbCircle
10
-121.48999999999994
20
-100.67973525647272
30
0
40
0.50000000000000711
210
0
220
0
230
1
100
AcDbArc
50
0
51
90
0
LINE
5
1071
100
AcDbEntity
8
0
100
AcDbLine
10
-120.98999999999992
20
-100.67973525647272
30
0
11
-120.98999999999992
21
-115.29973525647272
31
0
0
ARC
5
1072
100
AcDbEntity
8
0
100
AcDbCircle
10
-121.4899999999999
20
-115.29973525647273
30
0
40
0.49999999999997158
210
0
220
0
230
1
100
AcDbArc
50
-90.000000000004889
51
0
0
LINE
5
1073
100
AcDbEntity
8
0
100
AcDbLine
10
-121.48999999999994
20
-115.7997352564727
30
0
11
-125.68397499999992
21
-115.79973525647269
31
0
0
ARC
5
1074
100
AcDbEntity
8
0
100
AcDbCircle
10
-125.68397499999992
20
-116.2997352564727
30
0
40
0.50000000000000711
210
0
220
-0
230
1
100
AcDbArc
50
90
51
149.99999999989163
0
ARC
5
1075
100
AcDbEntity
8
0
100
AcDbCircle
10
-126.54999999999995
20
-115.79973525647267
30
0
40
0.50000000000002487
210
0
220
0
230
1
100
AcDbArc
50
270.00000000000159
51
329.99997686494731
0
LINE
5
1076
100
AcDbEntity
8
0
100
AcDbLine
10
-126.54999999999994
20
-116.2997352564727
30
0
11
-131.04999999999995
21
-116.29973551464168
31
0
0
ARC
5
1077
100
AcDbEntity
8
0
100
AcDbCircle
10
-131.04999999999995
20
-115.79973525647279
30
0
40
0.50000025816889571
210
0
220
0
230
1
100
AcDbArc
50
209.99998291968453
51
270
0
ARC
5
1078
100
AcDbEntity
8
0
100
AcDbCircle
10
-131.91602499999993
20
-116.2997352564727
30
0
40
0.49999939214360045
210
0
220
-0
230
1
100
AcDbArc
50
30.000040215510051
51
90.000040214808848
0
LINE
5
1079
100
AcDbEntity
8
0
100
AcDbLine
10
-131.91602535093992
20
-115.79973586432922
30
0
11
-136.10999999999993
21
-115.7997352564727
31
0
0
ARC
5
1080
100
AcDbEntity
8
0
100
AcDbCircle
10
-136.10999999999993
20
-115.29973525647267
30
0
40
0.50000000000002487
210
0
220
0
230
1
100
AcDbArc
50
180
51
270
0
LINE
5
1081
100
AcDbEntity
8
0
100
AcDbLine
10
-136.60999999999996
20
-115.2997352564727
30
0
11
-136.60999999999996
21
-100.6797352564727
31
0
0
ARC
5
1082
100
AcDbEntity
8
0
100
AcDbCircle
10
-136.10999999999996
20
-100.6797352564727
30
0
40
0.49999999999998934
210
0
220
-0
230
1
100
AcDbArc
50
89.999999999996746
51
180
0
LINE
5
1083
100
AcDbEntity
8
0
100
AcDbLine
10
-136.10999999999993
20
-100.17973525647271
30
0
11
-121.48999999999994
21
-100.17973525647271
31
0
0
ARC
5
1084
100
AcDbEntity
8
0
100
AcDbCircle
10
-126.25249999999994
20
-43.529735256472712
30
0
40
0.50000000000000711
210
0
220
0
230
1
100
AcDbArc
50
0
51
89.999999999996746
0
LINE
5
1085
100
AcDbEntity
8
0
100
AcDbLine
10
-125.75249999999994
20
-43.529735256472719
30
0
11
-125.75249999999994
21
-58.149735256472717
31
0
0
ARC
5
1086
100
AcDbEntity
8
0
100
AcDbCircle
10
-126.25249999999996
20
-58.149735256472667
30
0
40
0.50000000000003375
210
0
220
0
230
1
100
AcDbArc
50
270.00000000000159
51
360
0
LINE
5
1087
100
AcDbEntity
8
0
100
AcDbLine
10
-126.25249999999994
20
-58.649735256472695
30
0
11
-130.44647499999994
21
-58.649735256472717
31
0
0
ARC
5
1088
100
AcDbEntity
8
0
100
AcDbCircle
10
-130.44647499999994
20
-59.149735256472709
30
0
40
0.49999999999999822
210
0
220
-0
230
1
100
AcDbArc
50
90
51
149.99999999989444
0
ARC
5
1089
100
AcDbEntity
8
0
100
AcDbCircle
10
-131.31249999999994
20
-58.649735256472717
30
0
40
0.49999999999998934
210
0
220
0
230
1
100
AcDbArc
50
270
51
329.99997686494635
0
LINE
5
1090
100
AcDbEntity
8
0
100
AcDbLine
10
-131.31249999999994
20
-59.149735256472702
30
0
11
-135.81249999999994
21
-59.149735514641705
31
0
0
ARC
5
1091
100
AcDbEntity
8
0
100
AcDbCircle
10
-135.81249999999994
20
-58.649735256472752
30
0
40
0.5000002581689531
210
0
220
0
230
1
100
AcDbArc
50
209.99998291968717
51
270
0
ARC
5
1092
100
AcDbEntity
8
0
100
AcDbCircle
10
-136.67852499999995
20
-59.149735256472709
30
0
40
0.49999939214358946
210
0
220
-0
230
1
100
AcDbArc
50
30.000040215510051
51
90.000040214808848
0
LINE
5
1093
100
AcDbEntity
8
0
100
AcDbLine
10
-136.67852535093994
20
-58.649735864329244
30
0
11
-140.87249999999995
21
-58.649735256472709
31
0
0
ARC
5
1094
100
AcDbEntity
8
0
100
AcDbCircle
10
-140.87249999999995
20
-58.149735256472709
30
0
40
0.50000000000000711
210
0
220
0
230
1
100
AcDbArc
50
180
51
270
0
LINE
5
1095
100
AcDbEntity
8
0
100
AcDbLine
10
-141.37249999999995
20
-58.149735256472695
30
0
11
-141.37249999999995
21
-43.529735256472705
31
0
0
ARC
5
1096
100
AcDbEntity
8
0
100
AcDbCircle
10
-140.87249999999992
20
-43.529735256472755
30
0
40
0.50000000000003375
210
0
220
0
230
1
100
AcDbArc
50
90.000000000003254
51
180
0
LINE
5
1097
100
AcDbEntity
8
0
100
AcDbLine
10
-140.87249999999995
20
-43.029735256472719
30
0
11
-126.25249999999991
21
-43.029735256472705
31
0
0
LWPOLYLINE
5
1098
100
AcDbEntity
8
0
100
AcDbPolyline
90
8
70
1
43
0.0
10
-193.11812499999991
20
-37.473485256472728
42
-0.41421356237313145
10
-193.61812499999991
20
-36.973485256472728
10
-193.61812499999996
20
-31.62348525647273
42
-0.41421356237307683
10
-193.11812499999991
20
-31.123485256472733
10
-181.41812499999992
20
-31.123485256472712
42
-0.41421356237310025
10
-180.91812499999992
20
-31.62348525647273
10
-180.91812499999997
20
-36.973485256472728
42
-0.41421356237307422
10
-181.41812499999992
20
-37.473485256472721
0
ARC
5
1099
100
AcDbEntity
8
0
100
AcDbCircle
10
-164.35249999999994
20
-58.149735256472681
30
0
40
0.50000000000001599
210
0
220
0
230
1
100
AcDbArc
50
269.99999999999676
51
360
0
LINE
5
1100
100
AcDbEntity
8
0
100
AcDbLine
10
-164.35249999999996
20
-58.649735256472695
30
0
11
-168.54647499999996
21
-58.649735256472709
31
0
0
ARC
5
1101
100
AcDbEntity
8
0
100
AcDbCircle
10
-168.54647499999996
20
-59.149735256472709
30
0
40
0.50000000000000711
210
0
220
-0
230
1
100
AcDbArc
50
90
51
149.99999999989163
0
ARC
5
1102
100
AcDbEntity
8
0
100
AcDbCircle
10
-169.41249999999994
20
-58.649735256472688
30
0
40
0.50000000000001599
210
0
220
0
230
1
100
AcDbArc
50
270
51
329.99997686494476
0
LINE
5
1103
100
AcDbEntity
8
0
100
AcDbLine
10
-169.41249999999994
20
-59.149735256472702
30
0
11
-173.91249999999991
21
-59.149735514641712
31
0
0
ARC
5
1104
100
AcDbEntity
8
0
100
AcDbCircle
10
-173.91249999999988
20
-58.64973525647266
30
0
40
0.50000025816905458
210
0
220
0
230
1
100
AcDbArc
50
209.99998291969163
51
269.99999999999676
0
ARC
5
1105
100
AcDbEntity
8
0
100
AcDbCircle
10
-174.77852499999995
20
-59.149735256472709
30
0
40
0.49999939214357858
210
0
220
-0
230
1
100
AcDbArc
50
30.000040215511468
51
90.000040214812117
0
LINE
5
1106
100
AcDbEntity
8
0
100
AcDbLine
10
-174.77852535093996
20
-58.649735864329259
30
0
11
-178.97249999999991
21
-58.649735256472709
31
0
0
ARC
5
1107
100
AcDbEntity
8
0
100
AcDbCircle
10
-178.97249999999997
20
-58.149735256472717
30
0
40
0.49999999999997158
210
0
220
0
230
1
100
AcDbArc
50
180
51
270.00000000000648
0
LINE
5
1108
100
AcDbEntity
8
0
100
AcDbLine
10
-179.47249999999994
20
-58.149735256472695
30
0
11
-179.47249999999994
21
-43.529735256472705
31
0
0
ARC
5
1109
100
AcDbEntity
8
0
100
AcDbCircle
10
-178.97249999999991
20
-43.529735256472733
30
0
40
0.50000000000001599
210
0
220
-0
230
1
100
AcDbArc
50
89.999999999996746
51
180
0
LINE
5
1110
100
AcDbEntity
8
0
100
AcDbLine
10
-178.97249999999988
20
-43.029735256472719
30
0
11
-164.35249999999994
21
-43.029735256472712
31
0
0
ARC
5
1111
100
AcDbEntity
8
0
100
AcDbCircle
10
-164.35249999999991
20
-43.529735256472684
30
0
40
0.49999999999997158
210
0
220
0
230
1
100
AcDbArc
50
0
51
90.000000000003254
0
LINE
5
1112
100
AcDbEntity
8
0
100
AcDbLine
10
-163.85249999999991
20
-43.529735256472719
30
0
11
-163.85249999999991
21
-58.149735256472717
31
0
0
ARC
5
1113
100
AcDbEntity
8
0
100
AcDbCircle
10
-84.291024999999919
20
-97.249735256472704
30
0
40
0.49999939214399935
210
0
220
-0
230
1
100
AcDbArc
50
30.00004021551085
51
90
0
LINE
5
1114
100
AcDbEntity
8
0
100
AcDbLine
10
-84.291024999999919
20
-96.749735864328699
30
0
11
-88.484999999999928
21
-96.749735256472718
31
0
0
ARC
5
1115
100
AcDbEntity
8
0
100
AcDbCircle
10
-88.484999999999957
20
-96.249735256472718
30
0
40
0.49999999999998934
210
0
220
0
230
1
100
AcDbArc
50
180
51
270.00000000000324
0
LINE
5
1116
100
AcDbEntity
8
0
100
AcDbLine
10
-88.984999999999957
20
-96.249735256472704
30
0
11
-88.984999999999957
21
-81.629735256472713
31
0
0
ARC
5
1117
100
AcDbEntity
8
0
100
AcDbCircle
10
-88.484999999999943
20
-81.629735256472713
30
0
40
0.50000000000000711
210
0
220
-0
230
1
100
AcDbArc
50
90
51
180
0
LINE
5
1118
100
AcDbEntity
8
0
100
AcDbLine
10
-88.484999999999943
20
-81.129735256472699
30
0
11
-73.864999999999952
21
-81.129735256472699
31
0
0
ARC
5
1119
100
AcDbEntity
8
0
100
AcDbCircle
10
-73.864999999999938
20
-81.629735256472713
30
0
40
0.49999999999999822
210
0
220
0
230
1
100
AcDbArc
50
0
51
90.000000000001634
0
LINE
5
1120
100
AcDbEntity
8
0
100
AcDbLine
10
-73.364999999999938
20
-81.629735256472713
30
0
11
-73.364999999999938
21
-96.249735256472704
31
0
0
ARC
5
1121
100
AcDbEntity
8
0
100
AcDbCircle
10
-73.864999999999938
20
-96.249735256472704
30
0
40
0.50000000000000711
210
0
220
0
230
1
100
AcDbArc
50
-90
51
0
0
LINE
5
1122
100
AcDbEntity
8
0
100
AcDbLine
10
-73.864999999999938
20
-96.749735256472718
30
0
11
-78.058974999999933
21
-96.749735256472718
31
0
0
ARC
5
1123
100
AcDbEntity
8
0
100
AcDbCircle
10
-78.058974999999947
20
-97.249735256472704
30
0
40
0.49999999999998934
210
0
220
-0
230
1
100
AcDbArc
50
89.99999999999838
51
149.99997686482351
0
ARC
5
1124
100
AcDbEntity
8
0
100
AcDbCircle
10
-78.924999999999955
20
-96.749735256472675
30
0
40
0.50000000000004263
210
0
220
0
230
1
100
AcDbArc
50
270.00000000000159
51
330.00000000002996
0
LINE
5
1125
100
AcDbEntity
8
0
100
AcDbLine
10
-78.92499999999994
20
-97.249735256472718
30
0
11
-83.425000149049922
21
-97.24973551464123
31
0
0
ARC
5
1126
100
AcDbEntity
8
0
100
AcDbCircle
10
-83.42499999999994
20
-96.74973525647269
30
0
40
0.50000025816855009
210
0
220
0
230
1
100
AcDbArc
50
209.99998291969362
51
269.99998292013908
0
ARC
5
1127
100
AcDbEntity
8
0
100
AcDbCircle
10
-259.93499999999995
20
-81.629735256472685
30
0
40
0.49999999999998934
210
0
220
-0
230
1
100
AcDbArc
50
90
51
180
0
LINE
5
1128
100
AcDbEntity
8
0
100
AcDbLine
10
-259.93499999999995
20
-81.129735256472699
30
0
11
-245.31499999999994
21
-81.129735256472699
31
0
0
ARC
5
1129
100
AcDbEntity
8
0
100
AcDbCircle
10
-245.31499999999994
20
-81.629735256472685
30
0
40
0.50000000000000711
210
0
220
0
230
1
100
AcDbArc
50
0
51
90
0
LINE
5
1130
100
AcDbEntity
8
0
100
AcDbLine
10
-244.81499999999994
20
-81.629735256472713
30
0
11
-244.81499999999994
21
-96.249735256472704
31
0
0
ARC
5
1131
100
AcDbEntity
8
0
100
AcDbCircle
10
-245.31499999999994
20
-96.249735256472718
30
0
40
0.49999999999998934
210
0
220
0
230
1
100
AcDbArc
50
-90
51
0
0
LINE
5
1132
100
AcDbEntity
8
0
100
AcDbLine
10
-245.31499999999994
20
-96.749735256472718
30
0
11
-249.50897499999994
21
-96.749735256472718
31
0
0
ARC
5
1133
100
AcDbEntity
8
0
100
AcDbCircle
10
-249.50897499999994
20
-97.249735256472704
30
0
40
0.49999999999998934
210
0
220
-0
230
1
100
AcDbArc
50
90
51
149.99997686436987
0
ARC
5
1134
100
AcDbEntity
8
0
100
AcDbCircle
10
-250.37499999999997
20
-96.74973525647269
30
0
40
0.50000000000002487
210
0
220
0
230
1
100
AcDbArc
50
270.00000000000324
51
330.00000000048664
0
LINE
5
1135
100
AcDbEntity
8
0
100
AcDbLine
10
-250.37499999999994
20
-97.249735256472718
30
0
11
-254.87500014904995
21
-97.249735514641685
31
0
0
ARC
5
1136
100
AcDbEntity
8
0
100
AcDbCircle
10
-254.875
20
-96.749735256472775
30
0
40
0.50000025816892235
210
0
220
0
230
1
100
AcDbArc
50
209.99998291969018
51
269.99998292014237
0
ARC
5
1137
100
AcDbEntity
8
0
100
AcDbCircle
10
-255.74102499999995
20
-97.249735256472704
30
0
40
0.49999939214355188
210
0
220
-0
230
1
100
AcDbArc
50
30.000040215507461
51
89.999999999996746
0
LINE
5
1138
100
AcDbEntity
8
0
100
AcDbLine
10
-255.74102499999992
20
-96.749735864329139
30
0
11
-259.93499999999995
21
-96.749735256472675
31
0
0
ARC
5
1139
100
AcDbEntity
8
0
100
AcDbCircle
10
-259.93499999999995
20
-96.249735256472704
30
0
40
0.49999999999997158
210
0
220
0
230
1
100
AcDbArc
50
180
51
270
0
LINE
5
1140
100
AcDbEntity
8
0
100
AcDbLine
10
-260.43499999999995
20
-96.249735256472704
30
0
11
-260.43499999999995
21
-81.629735256472713
31
0
0
ARC
5
1141
100
AcDbEntity
8
0
100
AcDbCircle
10
-160.49102499999992
20
-97.249735256472704
30
0
40
0.4999993921439928
210
0
220
-0
230
1
100
AcDbArc
50
30.000040215513081
51
90
0
LINE
5
1142
100
AcDbEntity
8
0
100
AcDbLine
10
-160.49102499999992
20
-96.749735864328699
30
0
11
-164.68499999999992
21
-96.749735256472718
31
0
0
ARC
5
1143
100
AcDbEntity
8
0
100
AcDbCircle
10
-164.68499999999992
20
-96.249735256472718
30
0
40
0.50000000000000711
210
0
220
0
230
1
100
AcDbArc
50
180
51
270
0
LINE
5
1144
100
AcDbEntity
8
0
100
AcDbLine
10
-165.18499999999992
20
-96.249735256472704
30
0
11
-165.18499999999992
21
-81.629735256472713
31
0
0
ARC
5
1145
100
AcDbEntity
8
0
100
AcDbCircle
10
-164.68499999999992
20
-81.629735256472685
30
0
40
0.49999999999998934
210
0
220
-0
230
1
100
AcDbArc
50
90
51
180
0
LINE
5
1146
100
AcDbEntity
8
0
100
AcDbLine
10
-164.68499999999992
20
-81.129735256472699
30
0
11
-150.06499999999991
21
-81.129735256472699
31
0
0
ARC
5
1147
100
AcDbEntity
8
0
100
AcDbCircle
10
-150.06499999999991
20
-81.629735256472713
30
0
40
0.50000000000000711
210
0
220
0
230
1
100
AcDbArc
50
0
51
90
0
LINE
5
1148
100
AcDbEntity
8
0
100
AcDbLine
10
-149.56499999999991
20
-81.629735256472713
30
0
11
-149.56499999999991
21
-96.249735256472704
31
0
0
ARC
5
1149
100
AcDbEntity
8
0
100
AcDbCircle
10
-150.06499999999991
20
-96.249735256472704
30
0
40
0.50000000000000711
210
0
220
0
230
1
100
AcDbArc
50
-90
51
0
0
LINE
5
1150
100
AcDbEntity
8
0
100
AcDbLine
10
-150.06499999999991
20
-96.749735256472718
30
0
11
-154.25897499999991
21
-96.749735256472718
31
0
0
ARC
5
1151
100
AcDbEntity
8
0
100
AcDbCircle
10
-154.25897499999991
20
-97.249735256472704
30
0
40
0.49999999999998934
210
0
220
-0
230
1
100
AcDbArc
50
90
51
149.99997686436825
0
ARC
5
1152
100
AcDbEntity
8
0
100
AcDbCircle
10
-155.12499999999994
20
-96.749735256472675
30
0
40
0.50000000000004263
210
0
220
0
230
1
100
AcDbArc
50
270.00000000000324
51
330.00000000048681
0
LINE
5
1153
100
AcDbEntity
8
0
100
AcDbLine
10
-155.12499999999991
20
-97.249735256472718
30
0
11
-159.62500014904992
21
-97.249735514641259
31
0
0
ARC
5
1154
100
AcDbEntity
8
0
100
AcDbCircle
10
-159.62499999999994
20
-96.749735256472746
30
0
40
0.50000025816854532
210
0
220
0
230
1
100
AcDbArc
50
209.99998291968572
51
269.99998292013908
0
LINE
5
1155
100
AcDbEntity
8
0
100
AcDbLine
10
-131.01499999999993
20
-96.749735256472718
30
0
11
-135.20897499999992
21
-96.749735256472718
31
0
0
ARC
5
1156
100
AcDbEntity
8
0
100
AcDbCircle
10
-135.20897499999992
20
-97.249735256472704
30
0
40
0.49999999999998934
210
0
220
-0
230
1
100
AcDbArc
50
90
51
149.99999999989305
0
ARC
5
1157
100
AcDbEntity
8
0
100
AcDbCircle
10
-136.07499999999996
20
-96.74973525647269
30
0
40
0.50000000000002487
210
0
220
0
230
1
100
AcDbArc
50
270.00000000000324
51
329.99997686494731
0
LINE
5
1158
100
AcDbEntity
8
0
100
AcDbLine
10
-136.07499999999993
20
-97.249735256472718
30
0
11
-140.57499999999993
21
-97.249735514641714
31
0
0
ARC
5
1159
100
AcDbEntity
8
0
100
AcDbCircle
10
-140.57499999999993
20
-96.749735256472718
30
0
40
0.50000025816899507
210
0
220
0
230
1
100
AcDbArc
50
209.99998291969138
51
270
0
ARC
5
1160
100
AcDbEntity
8
0
100
AcDbCircle
10
-141.44102499999991
20
-97.249735256472704
30
0
40
0.49999939214354538
210
0
220
-0
230
1
100
AcDbArc
50
30.000040215510278
51
90.000040214812117
0
LINE
5
1161
100
AcDbEntity
8
0
100
AcDbLine
10
-141.44102535093992
20
-96.749735864329267
30
0
11
-145.63499999999993
21
-96.749735256472718
31
0
0
ARC
5
1162
100
AcDbEntity
8
0
100
AcDbCircle
10
-145.63499999999993
20
-96.249735256472704
30
0
40
0.50000000000000711
210
0
220
0
230
1
100
AcDbArc
50
180
51
270
0
LINE
5
1163
100
AcDbEntity
8
0
100
AcDbLine
10
-146.13499999999993
20
-96.249735256472704
30
0
11
-146.13499999999993
21
-81.629735256472713
31
0
0
ARC
5
1164
100
AcDbEntity
8
0
100
AcDbCircle
10
-145.63499999999993
20
-81.629735256472713
30
0
40
0.50000000000000711
210
0
220
-0
230
1
100
AcDbArc
50
90
51
180
0
LINE
5
1165
100
AcDbEntity
8
0
100
AcDbLine
10
-145.63499999999993
20
-81.129735256472699
30
0
11
-131.01499999999993
21
-81.129735256472699
31
0
0
ARC
5
1166
100
AcDbEntity
8
0
100
AcDbCircle
10
-131.01499999999993
20
-81.629735256472713
30
0
40
0.50000000000000711
210
0
220
0
230
1
100
AcDbArc
50
0
51
90
0
LINE
5
1167
100
AcDbEntity
8
0
100
AcDbLine
10
-130.51499999999993
20
-81.629735256472713
30
0
11
-130.51499999999993
21
-96.249735256472704
31
0
0
ARC
5
1168
100
AcDbEntity
8
0
100
AcDbCircle
10
-131.01499999999993
20
-96.249735256472704
30
0
40
0.50000000000000711
210
0
220
0
230
1
100
AcDbArc
50
-90
51
0
0
LINE
5
1169
100
AcDbEntity
8
0
100
AcDbLine
10
-98.509999999999962
20
-39.099735256472727
30
0
11
-98.509999999999962
21
-24.479735256472726
31
0
0
ARC
5
1170
100
AcDbEntity
8
0
100
AcDbCircle
10
-98.009999999999948
20
-24.479735256472726
30
0
40
0.50000000000000711
210
0
220
-0
230
1
100
AcDbArc
50
90
51
180
0
LINE
5
1171
100
AcDbEntity
8
0
100
AcDbLine
10
-98.009999999999948
20
-23.979735256472718
30
0
11
-83.389999999999915
21
-23.979735256472718
31
0
0
ARC
5
1172
100
AcDbEntity
8
0
100
AcDbCircle
10
-83.389999999999915
20
-24.479735256472715
30
0
40
0.50000000000000711
210
0
220
0
230
1
100
AcDbArc
50
0
51
90
0
LINE
5
1173
100
AcDbEntity
8
0
100
AcDbLine
10
-82.889999999999901
20
-24.479735256472726
30
0
11
-82.889999999999901
21
-39.099735256472727
31
0
0
ARC
5
1174
100
AcDbEntity
8
0
100
AcDbCircle
10
-83.389999999999901
20
-39.099735256472727
30
0
40
0.49999999999999822
210
0
220
0
230
1
100
AcDbArc
50
-90.000000000001634
51
0
0
LINE
5
1175
100
AcDbEntity
8
0
100
AcDbLine
10
-83.389999999999915
20
-39.599735256472719
30
0
11
-87.583974999999938
21
-39.599735256472727
31
0
0
ARC
5
1176
100
AcDbEntity
8
0
100
AcDbCircle
10
-87.583974999999938
20
-40.099735256472719
30
0
40
0.49999999999998934
210
0
220
-0
230
1
100
AcDbArc
50
90
51
149.9999999998922
0
ARC
5
1177
100
AcDbEntity
8
0
100
AcDbCircle
10
-88.449999999999918
20
-39.599735256472705
30
0
40
0.50000000000002043
210
0
220
0
230
1
100
AcDbArc
50
270.00000000000159
51
329.99997686494487
0
LINE
5
1178
100
AcDbEntity
8
0
100
AcDbLine
10
-88.449999999999903
20
-40.099735256472727
30
0
11
-92.949999999999932
21
-40.099735514641736
31
0
0
ARC
5
1179
100
AcDbEntity
8
0
100
AcDbCircle
10
-92.949999999999946
20
-39.599735256472741
30
0
40
0.50000025816899507
210
0
220
0
230
1
100
AcDbArc
50
209.99998291969209
51
270.00000000000159
0
ARC
5
1180
100
AcDbEntity
8
0
100
AcDbCircle
10
-93.816024999999925
20
-40.099735256472719
30
0
40
0.49999939214354094
210
0
220
-0
230
1
100
AcDbArc
50
30.000040215508871
51
90.000040214810483
0
LINE
5
1181
100
AcDbEntity
8
0
100
AcDbLine
10
-93.816025350939924
20
-39.599735864329297
30
0
11
-98.009999999999934
21
-39.599735256472727
31
0
0
ARC
5
1182
100
AcDbEntity
8
0
100
AcDbCircle
10
-98.009999999999948
20
-39.099735256472734
30
0
40
0.50000000000000711
210
0
220
0
230
1
100
AcDbArc
50
180
51
270.00000000000159
0
LWPOLYLINE
5
1183
100
AcDbEntity
8
0
100
AcDbPolyline
90
8
70
1
43
0.0
10
-291.69999984685523
20
-115.79973540961697
10
-291.69999984685637
20
-23.979735103327936
42
0.41421356237309243
10
-292.19999984685637
20
-23.479735103327943
10
-294.01250015314463
20
-23.479735103327933
42
0.41421356237309503
10
-294.51250015314463
20
-23.979735103327933
10
-294.51250015314463
20
-115.799735409617
42
0.41421356237309503
10
-294.01250015314463
20
-116.299735409617
10
-292.19999984685523
20
-116.29973540961699
42
0.41421356237309503
0
LWPOLYLINE
5
1184
100
AcDbEntity
8
0
100
AcDbPolyline
90
16
70
1
43
0.0
10
-334.80250000000001
20
-62.079735256472688
42
-0.41421356237310542
10
-335.30249999999995
20
-61.579735256472702
10
-335.30249999999995
20
-43.529735256472719
42
0.41421356237309503
10
-335.8024999999999
20
-43.029735256472719
10
-350.42249999999996
20
-43.02973525647274
42
0.41421356237309503
10
-350.9224999999999
20
-43.529735256472733
10
-350.9224999999999
20
-77.199735256472721
42
0.41421356237309503
10
-350.42249999999996
20
-77.699735256472721
10
-297.70249999999993
20
-77.699735256472721
42
0.41421356237309503
10
-297.20249999999993
20
-77.199735256472721
10
-297.20249999999993
20
-43.529735256472719
42
0.41421356237309503
10
-297.70249999999993
20
-43.029735256472719
10
-312.32249999999993
20
-43.029735256472719
42
0.41421356237309503
10
-312.82249999999993
20
-43.529735256472719
10
-312.82249999999988
20
-61.579735256472702
42
-0.41421356237307422
10
-313.32249999999993
20
-62.079735256472695
0
LINE
5
1185
100
AcDbEntity
8
0
100
AcDbLine
10
-24.191249999999911
20
-43.029735256472719
30
0
11
-9.5712499999999245
21
-43.029735256472719
31
0
0
ARC
5
1186
100
AcDbEntity
8
0
100
AcDbCircle
10
-9.5712499999999263
20
-43.529735256472712
30
0
40
0.49999999999999045
210
0
220
0
230
1
100
AcDbArc
50
0
51
89.999999999999801
0
LINE
5
1187
100
AcDbEntity
8
0
100
AcDbLine
10
-9.0712499999999352
20
-43.529735256472719
30
0
11
-9.0712499999999263
21
-58.149735256472717
31
0
0
ARC
5
1188
100
AcDbEntity
8
0
100
AcDbCircle
10
-9.5712499999999263
20
-58.149735256472688
30
0
40
0.50000000000000711
210
0
220
0
230
1
100
AcDbArc
50
269.9999999999992
51
360
0
LINE
5
1189
100
AcDbEntity
8
0
100
AcDbLine
10
-9.5712499999999334
20
-58.649735256472695
30
0
11
-13.765224999999912
21
-58.649735256472709
31
0
0
ARC
5
1190
100
AcDbEntity
8
0
100
AcDbCircle
10
-13.765224999999921
20
-59.149735256472709
30
0
40
0.50000000000000711
210
0
220
-0
230
1
100
AcDbArc
50
89.999999999998991
51
149.99997686480756
0
ARC
5
1191
100
AcDbEntity
8
0
100
AcDbCircle
10
-14.631249999999943
20
-58.649735256472695
30
0
40
0.50000000000000711
210
0
220
0
230
1
100
AcDbArc
50
270.0000000000008
51
330.00000000004809
0
LINE
5
1192
100
AcDbEntity
8
0
100
AcDbLine
10
-14.631249999999936
20
-59.149735256472702
30
0
11
-19.131250149053926
21
-59.149735514641662
31
0
0
ARC
5
1193
100
AcDbEntity
8
0
100
AcDbCircle
10
-19.131249999999959
20
-58.649735256472738
30
0
40
0.50000025816895233
210
0
220
0
230
1
100
AcDbArc
50
209.99998291969086
51
269.99998291968228
0
ARC
5
1194
100
AcDbEntity
8
0
100
AcDbCircle
10
-19.997274999999924
20
-59.149735256472709
30
0
40
0.4999993921435697
210
0
220
-0
230
1
100
AcDbArc
50
30.000040215510186
51
90
0
LINE
5
1195
100
AcDbEntity
8
0
100
AcDbLine
10
-19.997274999999924
20
-58.649735864329145
30
0
11
-23.290224999999936
21
-58.649735256472709
31
0
0
LINE
5
1196
100
AcDbEntity
8
0
100
AcDbLine
10
-23.290224999999936
20
-58.649735256472709
30
0
11
-24.191249999999922
21
-58.649735256472695
31
0
0
ARC
5
1197
100
AcDbEntity
8
0
100
AcDbCircle
10
-24.191249999999911
20
-58.149735256472695
30
0
40
0.49999999999999822
210
0
220
0
230
1
100
AcDbArc
50
180
51
269.99999999999881
0
LINE
5
1198
100
AcDbEntity
8
0
100
AcDbLine
10
-24.691249999999911
20
-58.149735256472695
30
0
11
-24.691249999999918
21
-43.529735256472705
31
0
0
ARC
5
1199
100
AcDbEntity
8
0
100
AcDbCircle
10
-24.191249999999922
20
-43.529735256472719
30
0
40
0.49999999999999822
210
0
220
-0
230
1
100
AcDbArc
50
89.999999999998778
51
180
0
LINE
5
1200
100
AcDbEntity
8
0
100
AcDbLine
10
-264.69749999999993
20
-62.079735256472695
30
0
11
-250.07749999999993
21
-62.079735256472702
31
0
0
ARC
5
1201
100
AcDbEntity
8
0
100
AcDbCircle
10
-250.07749999999987
20
-62.579735256472659
30
0
40
0.49999999999993605
210
0
220
0
230
1
100
AcDbArc
50
0
51
90.000000000006523
0
LINE
5
1202
100
AcDbEntity
8
0
100
AcDbLine
10
-249.57749999999993
20
-62.579735256472695
30
0
11
-249.57749999999999
21
-77.199735256472707
31
0
0
ARC
5
1203
100
AcDbEntity
8
0
100
AcDbCircle
10
-250.07750000000001
20
-77.199735256472678
30
0
40
0.50000000000002487
210
0
220
0
230
1
100
AcDbArc
50
270.00000000000978
51
360
0
LINE
5
1204
100
AcDbEntity
8
0
100
AcDbLine
10
-250.07749999999993
20
-77.699735256472707
30
0
11
-254.27147499999992
21
-77.699735256472707
31
0
0
ARC
5
1205
100
AcDbEntity
8
0
100
AcDbCircle
10
-254.27147499999992
20
-78.199735256472707
30
0
40
0.50000000000000711
210
0
220
-0
230
1
100
AcDbArc
50
90
51
149.99999999990777
0
ARC
5
1206
100
AcDbEntity
8
0
100
AcDbCircle
10
-255.13749999999999
20
-77.69973525647265
30
0
40
0.50000000000004263
210
0
220
0
230
1
100
AcDbArc
50
270.00000000000648
51
329.99997686492992
0
LINE
5
1207
100
AcDbEntity
8
0
100
AcDbLine
10
-255.13749999999993
20
-78.199735256472692
30
0
11
-259.63749999999993
21
-78.199735514641688
31
0
0
ARC
5
1208
100
AcDbEntity
8
0
100
AcDbCircle
10
-259.63749999999987
20
-77.699735256472565
30
0
40
0.50000025816913418
210
0
220
0
230
1
100
AcDbArc
50
209.99998291969914
51
269.99999999999346
0
ARC
5
1209
100
AcDbEntity
8
0
100
AcDbCircle
10
-260.50352499999991
20
-78.199735256472707
30
0
40
0.49999939214354783
210
0
220
-0
230
1
100
AcDbArc
50
30.000040215514726
51
90.000040214812117
0
LINE
5
1210
100
AcDbEntity
8
0
100
AcDbLine
10
-260.50352535093992
20
-77.699735864329284
30
0
11
-264.69749999999993
21
-77.699735256472721
31
0
0
ARC
5
1211
100
AcDbEntity
8
0
100
AcDbCircle
10
-264.69749999999999
20
-77.199735256472763
30
0
40
0.49999999999997158
210
0
220
0
230
1
100
AcDbArc
50
180
51
270.00000000000648
0
LINE
5
1212
100
AcDbEntity
8
0
100
AcDbLine
10
-265.19749999999993
20
-77.199735256472707
30
0
11
-265.19749999999999
21
-62.579735256472695
31
0
0
ARC
5
1213
100
AcDbEntity
8
0
100
AcDbCircle
10
-264.69749999999999
20
-62.579735256472723
30
0
40
0.50000000000002487
210
0
220
-0
230
1
100
AcDbArc
50
89.999999999993491
51
180
0
LINE
5
1214
100
AcDbEntity
8
0
100
AcDbLine
10
-288.50999999999993
20
-100.17973525647271
30
0
11
-254.83999999999995
21
-100.17973525647271
31
0
0
ARC
5
1215
100
AcDbEntity
8
0
100
AcDbCircle
10
-254.83999999999995
20
-100.6797352564727
30
0
40
0.50000000000000711
210
0
220
0
230
1
100
AcDbArc
50
0
51
90
0
LINE
5
1216
100
AcDbEntity
8
0
100
AcDbLine
10
-254.33999999999995
20
-100.67973525647272
30
0
11
-254.33999999999995
21
-115.29973525647272
31
0
0
ARC
5
1217
100
AcDbEntity
8
0
100
AcDbCircle
10
-254.83999999999997
20
-115.29973525647267
30
0
40
0.50000000000002487
210
0
220
0
230
1
100
AcDbArc
50
270.00000000000324
51
360
0
LINE
5
1218
100
AcDbEntity
8
0
100
AcDbLine
10
-254.83999999999995
20
-115.7997352564727
30
0
11
-259.03397499999994
21
-115.79973525647269
31
0
0
ARC
5
1219
100
AcDbEntity
8
0
100
AcDbCircle
10
-259.03397499999994
20
-116.2997352564727
30
0
40
0.50000000000000711
210
0
220
-0
230
1
100
AcDbArc
50
90
51
149.99999999989626
0
ARC
5
1220
100
AcDbEntity
8
0
100
AcDbCircle
10
-259.89999999999998
20
-115.79973525647263
30
0
40
0.5000000000000604
210
0
220
0
230
1
100
AcDbArc
50
270
51
329.99997686493839
0
LINE
5
1221
100
AcDbEntity
8
0
100
AcDbLine
10
-259.89999999999998
20
-116.2997352564727
30
0
11
-264.39999999999992
21
-116.2997355146417
31
0
0
ARC
5
1222
100
AcDbEntity
8
0
100
AcDbCircle
10
-264.39999999999992
20
-115.79973525647262
30
0
40
0.50000025816907678
210
0
220
0
230
1
100
AcDbArc
50
209.9999829196982
51
270
0
ARC
5
1223
100
AcDbEntity
8
0
100
AcDbCircle
10
-265.2660249999999
20
-116.2997352564727
30
0
40
0.49999939214353889
210
0
220
-0
230
1
100
AcDbArc
50
30.000040215513323
51
90.000040214812117
0
LINE
5
1224
100
AcDbEntity
8
0
100
AcDbLine
10
-265.26602535093991
20
-115.79973586432928
30
0
11
-268.55897499999992
21
-115.79973525647269
31
0
0
ARC
5
1225
100
AcDbEntity
8
0
100
AcDbCircle
10
-268.55897499999992
20
-116.2997352564727
30
0
40
0.50000000000000711
210
0
220
-0
230
1
100
AcDbArc
50
90
51
149.99997686436686
0
ARC
5
1226
100
AcDbEntity
8
0
100
AcDbCircle
10
-269.42500000000001
20
-115.7997352564726
30
0
40
0.50000000000009592
210
0
220
0
230
1
100
AcDbArc
50
270.00000000000648
51
330.00000000048453
0
LINE
5
1227
100
AcDbEntity
8
0
100
AcDbLine
10
-269.42499999999995
20
-116.2997352564727
30
0
11
-273.92500014904994
21
-116.29973551464167
31
0
0
ARC
5
1228
100
AcDbEntity
8
0
100
AcDbCircle
10
-273.92500000000007
20
-115.79973525647291
30
0
40
0.50000025816877192
210
0
220
0
230
1
100
AcDbArc
50
209.99998291967833
51
269.99998292015215
0
ARC
5
1229
100
AcDbEntity
8
0
100
AcDbCircle
10
-274.79102499999993
20
-116.2997352564727
30
0
40
0.4999993921435697
210
0
220
-0
230
1
100
AcDbArc
50
30.000040215510051
51
90
0
LINE
5
1230
100
AcDbEntity
8
0
100
AcDbLine
10
-274.79102499999993
20
-115.79973586432915
30
0
11
-278.0839749999999
21
-115.79973525647269
31
0
0
ARC
5
1231
100
AcDbEntity
8
0
100
AcDbCircle
10
-278.0839749999999
20
-116.2997352564727
30
0
40
0.50000000000000711
210
0
220
-0
230
1
100
AcDbArc
50
90
51
149.99997686437007
0
ARC
5
1232
100
AcDbEntity
8
0
100
AcDbCircle
10
-278.94999999999999
20
-115.79973525647267
30
0
40
0.50000000000002487
210
0
220
0
230
1
100
AcDbArc
50
270.00000000000648
51
330.00000000048828
0
LINE
5
1233
100
AcDbEntity
8
0
100
AcDbLine
10
-278.94999999999993
20
-116.2997352564727
30
0
11
-283.45000014904991
21
-116.29973551464167
31
0
0
ARC
5
1234
100
AcDbEntity
8
0
100
AcDbCircle
10
-283.44999999999999
20
-115.79973525647274
30
0
40
0.5000002581689531
210
0
220
0
230
1
100
AcDbArc
50
209.99998291968879
51
269.99998292014561
0
ARC
5
1235
100
AcDbEntity
8
0
100
AcDbCircle
10
-284.31602499999991
20
-116.2997352564727
30
0
40
0.49999939214353889
210
0
220
-0
230
1
100
AcDbArc
50
30.000040215513323
51
90
0
LINE
5
1236
100
AcDbEntity
8
0
100
AcDbLine
10
-284.31602499999991
20
-115.79973586432915
30
0
11
-288.50999999999993
21
-115.7997352564727
31
0
0
ARC
5
1237
100
AcDbEntity
8
0
100
AcDbCircle
10
-288.50999999999993
20
-115.2997352564727
30
0
40
0.50000000000000711
210
0
220
0
230
1
100
AcDbArc
50
180
51
270
0
LINE
5
1238
100
AcDbEntity
8
0
100
AcDbLine
10
-289.00999999999999
20
-115.2997352564727
30
0
11
-289.00999999999999
21
-100.6797352564727
31
0
0
ARC
5
1239
100
AcDbEntity
8
0
100
AcDbCircle
10
-288.50999999999993
20
-100.67973525647274
30
0
40
0.50000000000002487
210
0
220
-0
230
1
100
AcDbArc
50
90
51
180
0
LINE
5
1240
100
AcDbEntity
8
0
100
AcDbLine
10
-45.622499999999917
20
-43.029735256472719
30
0
11
-31.002499999999927
21
-43.029735256472719
31
0
0
ARC
5
1241
100
AcDbEntity
8
0
100
AcDbCircle
10
-31.002499999999937
20
-43.529735256472719
30
0
40
0.49999999999999822
210
0
220
-0
230
1
100
AcDbArc
50
0
51
89.999999999998778
0
LINE
5
1242
100
AcDbEntity
8
0
100
AcDbLine
10
-30.502499999999941
20
-43.529735256472719
30
0
11
-30.50249999999993
21
-58.149735256472717
31
0
0
ARC
5
1243
100
AcDbEntity
8
0
100
AcDbCircle
10
-31.002499999999927
20
-58.149735256472695
30
0
40
0.49999999999999822
210
0
220
0
230
1
100
AcDbArc
50
269.99999999999881
51
360
0
LINE
5
1244
100
AcDbEntity
8
0
100
AcDbLine
10
-31.002499999999937
20
-58.649735256472695
30
0
11
-33.716249999999945
21
-58.649735256472695
31
0
0
LINE
5
1245
100
AcDbEntity
8
0
100
AcDbLine
10
-33.716249999999945
20
-58.649735256472695
30
0
11
-35.196474999999914
21
-58.649735256472709
31
0
0
ARC
5
1246
100
AcDbEntity
8
0
100
AcDbCircle
10
-35.196474999999921
20
-59.149735256472709
30
0
40
0.50000000000000711
210
0
220
-0
230
1
100
AcDbArc
50
89.99999999999919
51
149.99997686482374
0
ARC
5
1247
100
AcDbEntity
8
0
100
AcDbCircle
10
-36.06249999999995
20
-58.649735256472688
30
0
40
0.50000000000001599
210
0
220
0
230
1
100
AcDbArc
50
270.0000000000008
51
330.00000000003166
0
LINE
5
1248
100
AcDbEntity
8
0
100
AcDbLine
10
-36.062499999999943
20
-59.149735256472702
30
0
11
-40.562500149053932
21
-59.149735514641662
31
0
0
ARC
5
1249
100
AcDbEntity
8
0
100
AcDbCircle
10
-40.562499999999943
20
-58.649735256472695
30
0
40
0.50000025816899951
210
0
220
0
230
1
100
AcDbArc
50
209.99998291969351
51
269.99998291967989
0
ARC
5
1250
100
AcDbEntity
8
0
100
AcDbCircle
10
-41.428524999999929
20
-59.149735256472709
30
0
40
0.49999939214356193
210
0
220
-0
230
1
100
AcDbArc
50
30.000040215510573
51
90
0
LINE
5
1251
100
AcDbEntity
8
0
100
AcDbLine
10
-41.428524999999929
20
-58.649735864329145
30
0
11
-45.622499999999924
21
-58.649735256472695
31
0
0
ARC
5
1252
100
AcDbEntity
8
0
100
AcDbCircle
10
-45.622499999999924
20
-58.149735256472709
30
0
40
0.49999999999998934
210
0
220
0
230
1
100
AcDbArc
50
180
51
270
0
LINE
5
1253
100
AcDbEntity
8
0
100
AcDbLine
10
-46.122499999999917
20
-58.149735256472695
30
0
11
-46.122499999999924
21
-43.529735256472705
31
0
0
ARC
5
1254
100
AcDbEntity
8
0
100
AcDbCircle
10
-45.622499999999924
20
-43.529735256472719
30
0
40
0.49999999999999822
210
0
220
-0
230
1
100
AcDbArc
50
89.99999999999919
51
180
0
CIRCLE
5
1255
100
AcDbEntity
8
0
100
AcDbCircle
10
-333.58749999999998
20
-121.2397352564725
30
0
40
1.25
210
0
220
0
230
1
0
CIRCLE
5
1256
100
AcDbEntity
8
0
100
AcDbCircle
10
-29.978124999999899
20
-18.53973525647266
30
0
40
1.25
210
0
220
0
230
1
0
CIRCLE
5
1257
100
AcDbEntity
8
0
100
AcDbCircle
10
-333.58749999999998
20
-18.539735256472618
30
0
40
1.25
210
0
220
0
230
1
0
CIRCLE
5
1258
100
AcDbEntity
8
0
100
AcDbCircle
10
-90.699999999999918
20
-18.539735256472643
30
0
40
1.25
210
0
220
0
230
1
0
CIRCLE
5
1259
100
AcDbEntity
8
0
100
AcDbCircle
10
-209.76249999999999
20
-121.23973525647258
30
0
40
1.25
210
0
220
0
230
1
0
CIRCLE
5
1260
100
AcDbEntity
8
0
100
AcDbCircle
10
-33.549999999999912
20
-121.23973525647258
30
0
40
1.25
210
0
220
0
230
1
0
CIRCLE
5
1261
100
AcDbEntity
8
0
100
AcDbCircle
10
-265.72187500000001
20
-18.539735256472625
30
0
40
1.25
210
0
220
0
230
1
0
CIRCLE
5
1262
100
AcDbEntity
8
0
100
AcDbCircle
10
-185.94374999999999
20
-18.539735256472632
30
0
40
1.25
210
0
220
0
230
1
0
CIRCLE
5
1263
100
AcDbEntity
8
0
100
AcDbCircle
10
-124.03750000000001
20
-121.23973525647258
30
0
40
1.25
210
0
220
0
230
1
0
ENDSEC
0
SECTION
2
OBJECTS
0
DICTIONARY
5
C
100
AcDbDictionary
3
ACAD_GROUP
350
D
3
ACAD_MLINESTYLE
350
17
0
DICTIONARY
5
D
100
AcDbDictionary
0
DICTIONARY
5
1A
330
C
100
AcDbDictionary
0
DICTIONARY
5
17
100
AcDbDictionary
0
ENDSEC
0
EOF
