G04 #@! TF.GenerationSoftware,KiCad,Pcbnew,(6.0.8)*
G04 #@! TF.CreationDate,2022-11-13T23:10:32+08:00*
G04 #@! TF.ProjectId,SI_FRL,53495f46-524c-42e6-9b69-6361645f7063,rev?*
G04 #@! TF.SameCoordinates,Original*
G04 #@! TF.FileFunction,Paste,Bot*
G04 #@! TF.FilePolarity,Positive*
%FSLAX46Y46*%
G04 Gerber Fmt 4.6, Leading zero omitted, Abs format (unit mm)*
G04 Created by KiCad (PCBNEW (6.0.8)) date 2022-11-13 23:10:32*
%MOMM*%
%LPD*%
G01*
G04 APERTURE LIST*
G04 Aperture macros list*
%AMRoundRect*
0 Rectangle with rounded corners*
0 $1 Rounding radius*
0 $2 $3 $4 $5 $6 $7 $8 $9 X,Y pos of 4 corners*
0 Add a 4 corners polygon primitive as box body*
4,1,4,$2,$3,$4,$5,$6,$7,$8,$9,$2,$3,0*
0 Add four circle primitives for the rounded corners*
1,1,$1+$1,$2,$3*
1,1,$1+$1,$4,$5*
1,1,$1+$1,$6,$7*
1,1,$1+$1,$8,$9*
0 Add four rect primitives between the rounded corners*
20,1,$1+$1,$2,$3,$4,$5,0*
20,1,$1+$1,$4,$5,$6,$7,0*
20,1,$1+$1,$6,$7,$8,$9,0*
20,1,$1+$1,$8,$9,$2,$3,0*%
G04 Aperture macros list end*
%ADD10R,1.200000X0.900000*%
%ADD11RoundRect,0.140000X-0.140000X-0.170000X0.140000X-0.170000X0.140000X0.170000X-0.140000X0.170000X0*%
%ADD12RoundRect,0.225000X0.250000X-0.225000X0.250000X0.225000X-0.250000X0.225000X-0.250000X-0.225000X0*%
%ADD13RoundRect,0.140000X0.140000X0.170000X-0.140000X0.170000X-0.140000X-0.170000X0.140000X-0.170000X0*%
%ADD14RoundRect,0.140000X-0.170000X0.140000X-0.170000X-0.140000X0.170000X-0.140000X0.170000X0.140000X0*%
%ADD15RoundRect,0.140000X0.170000X-0.140000X0.170000X0.140000X-0.170000X0.140000X-0.170000X-0.140000X0*%
%ADD16RoundRect,0.150000X0.150000X-0.587500X0.150000X0.587500X-0.150000X0.587500X-0.150000X-0.587500X0*%
%ADD17RoundRect,0.250001X-0.624999X0.462499X-0.624999X-0.462499X0.624999X-0.462499X0.624999X0.462499X0*%
%ADD18R,1.400000X1.200000*%
%ADD19R,1.000000X1.700000*%
%ADD20RoundRect,0.135000X-0.185000X0.135000X-0.185000X-0.135000X0.185000X-0.135000X0.185000X0.135000X0*%
%ADD21RoundRect,0.200000X0.275000X-0.200000X0.275000X0.200000X-0.275000X0.200000X-0.275000X-0.200000X0*%
%ADD22RoundRect,0.150000X0.150000X-0.512500X0.150000X0.512500X-0.150000X0.512500X-0.150000X-0.512500X0*%
%ADD23RoundRect,0.150000X0.650000X0.150000X-0.650000X0.150000X-0.650000X-0.150000X0.650000X-0.150000X0*%
%ADD24RoundRect,0.150000X0.625000X-0.150000X0.625000X0.150000X-0.625000X0.150000X-0.625000X-0.150000X0*%
%ADD25RoundRect,0.250000X0.650000X-0.350000X0.650000X0.350000X-0.650000X0.350000X-0.650000X-0.350000X0*%
%ADD26RoundRect,0.050000X0.387500X0.050000X-0.387500X0.050000X-0.387500X-0.050000X0.387500X-0.050000X0*%
%ADD27RoundRect,0.050000X0.050000X0.387500X-0.050000X0.387500X-0.050000X-0.387500X0.050000X-0.387500X0*%
%ADD28RoundRect,0.200000X-0.275000X0.200000X-0.275000X-0.200000X0.275000X-0.200000X0.275000X0.200000X0*%
G04 APERTURE END LIST*
D10*
X222250000Y-64356250D03*
X222250000Y-61056250D03*
X93662500Y-26256250D03*
X93662500Y-22956250D03*
X136525000Y-45306250D03*
X136525000Y-42006250D03*
X15081250Y-45306250D03*
X15081250Y-42006250D03*
D11*
X293320000Y-50100000D03*
X294280000Y-50100000D03*
D10*
X150812500Y-26256250D03*
X150812500Y-22956250D03*
X250825000Y-45306250D03*
X250825000Y-42006250D03*
X193675000Y-45306250D03*
X193675000Y-42006250D03*
X179387500Y-7206250D03*
X179387500Y-3906250D03*
D12*
X283600000Y-40075000D03*
X283600000Y-38525000D03*
D13*
X281680000Y-45900000D03*
X280720000Y-45900000D03*
D14*
X285600000Y-56220000D03*
X285600000Y-57180000D03*
D10*
X74612500Y-26256250D03*
X74612500Y-22956250D03*
X317500000Y-7206250D03*
X317500000Y-3906250D03*
X7937500Y-7206250D03*
X7937500Y-3906250D03*
X298450000Y-7206250D03*
X298450000Y-3906250D03*
X26987500Y-7206250D03*
X26987500Y-3906250D03*
D15*
X287900000Y-40380000D03*
X287900000Y-39420000D03*
D10*
X269875000Y-77850000D03*
X269875000Y-74550000D03*
X217487500Y-7206250D03*
X217487500Y-3906250D03*
X36512500Y-77850000D03*
X36512500Y-74550000D03*
X212725000Y-45306250D03*
X212725000Y-42006250D03*
D14*
X286600000Y-56220000D03*
X286600000Y-57180000D03*
D10*
X141287500Y-77850000D03*
X141287500Y-74550000D03*
X60325000Y-45306250D03*
X60325000Y-42006250D03*
X320675000Y-7206250D03*
X320675000Y-3906250D03*
X320675000Y-26256250D03*
X320675000Y-22956250D03*
D16*
X301350000Y-34037500D03*
X299450000Y-34037500D03*
X300400000Y-32162500D03*
D10*
X320675000Y-77850000D03*
X320675000Y-74550000D03*
X84137500Y-7206250D03*
X84137500Y-3906250D03*
X131762500Y-26256250D03*
X131762500Y-22956250D03*
D17*
X190500000Y-10418750D03*
X190500000Y-13393750D03*
D10*
X246062500Y-77850000D03*
X246062500Y-74550000D03*
X31750000Y-64356250D03*
X31750000Y-61056250D03*
X98425000Y-45306250D03*
X98425000Y-42006250D03*
X117475000Y-45306250D03*
X117475000Y-42006250D03*
X122237500Y-7206250D03*
X122237500Y-3906250D03*
X160337500Y-7206250D03*
X160337500Y-3906250D03*
X55562500Y-26256250D03*
X55562500Y-22956250D03*
D11*
X293320000Y-45900000D03*
X294280000Y-45900000D03*
D10*
X41275000Y-45306250D03*
X41275000Y-42006250D03*
X203200000Y-64356250D03*
X203200000Y-61056250D03*
D15*
X289900001Y-40380000D03*
X289900001Y-39420000D03*
D10*
X298450000Y-77850000D03*
X298450000Y-74550000D03*
X236537500Y-7206250D03*
X236537500Y-3906250D03*
X165100000Y-64356250D03*
X165100000Y-61056250D03*
X198437500Y-7206250D03*
X198437500Y-3906250D03*
X112712500Y-26256250D03*
X112712500Y-22956250D03*
X12700000Y-77850000D03*
X12700000Y-74550000D03*
D18*
X288000000Y-61250000D03*
X285800000Y-61250000D03*
X285800000Y-59550000D03*
X288000000Y-59550000D03*
D15*
X280800000Y-40380000D03*
X280800000Y-39420000D03*
D10*
X298450000Y-26256250D03*
X298450000Y-22956250D03*
X227012500Y-26256250D03*
X227012500Y-22956250D03*
X188912500Y-26256250D03*
X188912500Y-22956250D03*
X103187500Y-7206250D03*
X103187500Y-3906250D03*
X174625000Y-45306250D03*
X174625000Y-42006250D03*
X231775000Y-45306250D03*
X231775000Y-42006250D03*
X36512500Y-26256250D03*
X36512500Y-22956250D03*
D13*
X281679999Y-49800000D03*
X280719999Y-49800000D03*
D12*
X302900000Y-33475000D03*
X302900000Y-31925000D03*
D14*
X289600000Y-60620000D03*
X289600000Y-61580000D03*
D10*
X60325000Y-77850000D03*
X60325000Y-74550000D03*
D19*
X273100000Y-55850000D03*
X273100000Y-62150000D03*
X276900000Y-62150000D03*
X276900000Y-55850000D03*
D20*
X282400000Y-53640000D03*
X282400000Y-54660000D03*
D10*
X317500000Y-77850000D03*
X317500000Y-74550000D03*
X207962500Y-26256250D03*
X207962500Y-22956250D03*
X88900000Y-64356250D03*
X88900000Y-61056250D03*
X65087500Y-7206250D03*
X65087500Y-3906250D03*
D12*
X297899998Y-33475000D03*
X297899998Y-31925000D03*
D10*
X254000000Y-45306250D03*
X254000000Y-42006250D03*
X11906250Y-64356250D03*
X11906250Y-61056250D03*
D21*
X285100000Y-40125000D03*
X285100000Y-38475000D03*
D22*
X194625000Y-13043750D03*
X193675000Y-13043750D03*
X192725000Y-13043750D03*
X192725000Y-10768750D03*
X193675000Y-10768750D03*
X194625000Y-10768750D03*
D20*
X287600000Y-56190000D03*
X287600000Y-57210000D03*
D10*
X141287500Y-7206250D03*
X141287500Y-3906250D03*
X127000000Y-64356250D03*
X127000000Y-61056250D03*
X249237500Y-26256250D03*
X249237500Y-22956250D03*
X239712500Y-7206250D03*
X239712500Y-3906250D03*
X246062500Y-26256250D03*
X246062500Y-22956250D03*
X184150000Y-64356250D03*
X184150000Y-61056250D03*
X317500000Y-26256250D03*
X317500000Y-22956250D03*
X107950000Y-64356250D03*
X107950000Y-61056250D03*
D23*
X290500000Y-30795000D03*
X290500000Y-32065000D03*
X290500000Y-33335000D03*
X290500000Y-34605000D03*
X283300000Y-34605000D03*
X283300000Y-33335000D03*
X283300000Y-32065000D03*
X283300000Y-30795000D03*
D10*
X146050000Y-64356250D03*
X146050000Y-61056250D03*
X257175000Y-64356250D03*
X257175000Y-61056250D03*
D15*
X284200000Y-60180000D03*
X284200000Y-59220000D03*
D24*
X186150000Y-13406250D03*
X186150000Y-12406250D03*
X186150000Y-11406250D03*
X186150000Y-10406250D03*
D25*
X182275000Y-14706250D03*
X182275000Y-9106250D03*
D10*
X69850000Y-64356250D03*
X69850000Y-61056250D03*
X46037500Y-7206250D03*
X46037500Y-3906250D03*
X79375000Y-45306250D03*
X79375000Y-42006250D03*
X317500000Y-64356250D03*
X317500000Y-61056250D03*
D15*
X288900000Y-40380000D03*
X288900000Y-39420000D03*
D26*
X290337500Y-46200000D03*
X290337500Y-46600000D03*
X290337500Y-47000000D03*
X290337500Y-47400000D03*
X290337500Y-47800000D03*
X290337500Y-48200000D03*
X290337500Y-48600000D03*
X290337500Y-49000000D03*
X290337500Y-49400000D03*
X290337500Y-49800000D03*
X290337500Y-50200000D03*
X290337500Y-50600000D03*
X290337500Y-51000000D03*
X290337500Y-51400000D03*
D27*
X289500000Y-52237500D03*
X289100000Y-52237500D03*
X288700000Y-52237500D03*
X288300000Y-52237500D03*
X287900000Y-52237500D03*
X287500000Y-52237500D03*
X287100000Y-52237500D03*
X286700000Y-52237500D03*
X286300000Y-52237500D03*
X285900000Y-52237500D03*
X285500000Y-52237500D03*
X285100000Y-52237500D03*
X284700000Y-52237500D03*
X284300000Y-52237500D03*
D26*
X283462500Y-51400000D03*
X283462500Y-51000000D03*
X283462500Y-50600000D03*
X283462500Y-50200000D03*
X283462500Y-49800000D03*
X283462500Y-49400000D03*
X283462500Y-49000000D03*
X283462500Y-48600000D03*
X283462500Y-48200000D03*
X283462500Y-47800000D03*
X283462500Y-47400000D03*
X283462500Y-47000000D03*
X283462500Y-46600000D03*
X283462500Y-46200000D03*
D27*
X284300000Y-45362500D03*
X284700000Y-45362500D03*
X285100000Y-45362500D03*
X285500000Y-45362500D03*
X285900000Y-45362500D03*
X286300000Y-45362500D03*
X286700000Y-45362500D03*
X287100000Y-45362500D03*
X287500000Y-45362500D03*
X287900000Y-45362500D03*
X288300000Y-45362500D03*
X288700000Y-45362500D03*
X289100000Y-45362500D03*
X289500000Y-45362500D03*
D10*
X169862500Y-26256250D03*
X169862500Y-22956250D03*
D28*
X286600000Y-38475000D03*
X286600000Y-40125000D03*
D14*
X281700000Y-30220000D03*
X281700000Y-31180000D03*
D10*
X155575000Y-45306250D03*
X155575000Y-42006250D03*
X12700000Y-26256250D03*
X12700000Y-22956250D03*
X222250000Y-77850000D03*
X222250000Y-74550000D03*
D12*
X282100000Y-40075000D03*
X282100000Y-38525000D03*
D10*
X50800000Y-64356250D03*
X50800000Y-61056250D03*
M02*
