G04 #@! TF.GenerationSoftware,KiCad,Pcbnew,(6.0.8)*
G04 #@! TF.CreationDate,2022-11-13T23:10:32+08:00*
G04 #@! TF.ProjectId,SI_FRL,53495f46-524c-42e6-9b69-6361645f7063,rev?*
G04 #@! TF.SameCoordinates,Original*
G04 #@! TF.FileFunction,Soldermask,Bot*
G04 #@! TF.FilePolarity,Negative*
%FSLAX46Y46*%
G04 Gerber Fmt 4.6, Leading zero omitted, Abs format (unit mm)*
G04 Created by KiCad (PCBNEW (6.0.8)) date 2022-11-13 23:10:32*
%MOMM*%
%LPD*%
G01*
G04 APERTURE LIST*
G04 Aperture macros list*
%AMRoundRect*
0 Rectangle with rounded corners*
0 $1 Rounding radius*
0 $2 $3 $4 $5 $6 $7 $8 $9 X,Y pos of 4 corners*
0 Add a 4 corners polygon primitive as box body*
4,1,4,$2,$3,$4,$5,$6,$7,$8,$9,$2,$3,0*
0 Add four circle primitives for the rounded corners*
1,1,$1+$1,$2,$3*
1,1,$1+$1,$4,$5*
1,1,$1+$1,$6,$7*
1,1,$1+$1,$8,$9*
0 Add four rect primitives between the rounded corners*
20,1,$1+$1,$2,$3,$4,$5,0*
20,1,$1+$1,$4,$5,$6,$7,0*
20,1,$1+$1,$6,$7,$8,$9,0*
20,1,$1+$1,$8,$9,$2,$3,0*%
G04 Aperture macros list end*
%ADD10C,0.100000*%
%ADD11C,3.282000*%
%ADD12C,1.502000*%
%ADD13RoundRect,0.051000X0.600000X-0.450000X0.600000X0.450000X-0.600000X0.450000X-0.600000X-0.450000X0*%
%ADD14RoundRect,0.191000X-0.140000X-0.170000X0.140000X-0.170000X0.140000X0.170000X-0.140000X0.170000X0*%
%ADD15RoundRect,0.051000X0.850000X0.850000X-0.850000X0.850000X-0.850000X-0.850000X0.850000X-0.850000X0*%
%ADD16O,1.802000X1.802000*%
%ADD17RoundRect,0.276000X0.250000X-0.225000X0.250000X0.225000X-0.250000X0.225000X-0.250000X-0.225000X0*%
%ADD18RoundRect,0.191000X0.140000X0.170000X-0.140000X0.170000X-0.140000X-0.170000X0.140000X-0.170000X0*%
%ADD19RoundRect,0.191000X-0.170000X0.140000X-0.170000X-0.140000X0.170000X-0.140000X0.170000X0.140000X0*%
%ADD20RoundRect,0.191000X0.170000X-0.140000X0.170000X0.140000X-0.170000X0.140000X-0.170000X-0.140000X0*%
%ADD21RoundRect,0.201000X0.150000X-0.587500X0.150000X0.587500X-0.150000X0.587500X-0.150000X-0.587500X0*%
%ADD22RoundRect,0.301001X-0.624999X0.462499X-0.624999X-0.462499X0.624999X-0.462499X0.624999X0.462499X0*%
%ADD23RoundRect,0.051000X0.700000X0.600000X-0.700000X0.600000X-0.700000X-0.600000X0.700000X-0.600000X0*%
%ADD24RoundRect,0.051000X-0.500000X0.850000X-0.500000X-0.850000X0.500000X-0.850000X0.500000X0.850000X0*%
%ADD25RoundRect,0.186000X-0.185000X0.135000X-0.185000X-0.135000X0.185000X-0.135000X0.185000X0.135000X0*%
%ADD26RoundRect,0.251000X0.275000X-0.200000X0.275000X0.200000X-0.275000X0.200000X-0.275000X-0.200000X0*%
%ADD27RoundRect,0.201000X0.150000X-0.512500X0.150000X0.512500X-0.150000X0.512500X-0.150000X-0.512500X0*%
%ADD28RoundRect,0.201000X0.650000X0.150000X-0.650000X0.150000X-0.650000X-0.150000X0.650000X-0.150000X0*%
%ADD29RoundRect,0.201000X0.625000X-0.150000X0.625000X0.150000X-0.625000X0.150000X-0.625000X-0.150000X0*%
%ADD30RoundRect,0.301000X0.650000X-0.350000X0.650000X0.350000X-0.650000X0.350000X-0.650000X-0.350000X0*%
%ADD31C,1.092600*%
%ADD32C,0.889400*%
%ADD33RoundRect,0.101000X0.387500X0.050000X-0.387500X0.050000X-0.387500X-0.050000X0.387500X-0.050000X0*%
%ADD34RoundRect,0.101000X0.050000X0.387500X-0.050000X0.387500X-0.050000X-0.387500X0.050000X-0.387500X0*%
%ADD35RoundRect,0.195000X1.456000X1.456000X-1.456000X1.456000X-1.456000X-1.456000X1.456000X-1.456000X0*%
%ADD36RoundRect,0.251000X-0.275000X0.200000X-0.275000X-0.200000X0.275000X-0.200000X0.275000X0.200000X0*%
G04 APERTURE END LIST*
G36*
X162662500Y-78406250D02*
G01*
X151662500Y-78406250D01*
X151662500Y-72156250D01*
X162662500Y-72156250D01*
X162662500Y-78406250D01*
G37*
D10*
X162662500Y-78406250D02*
X151662500Y-78406250D01*
X151662500Y-72156250D01*
X162662500Y-72156250D01*
X162662500Y-78406250D01*
G36*
X162662500Y-78406250D02*
G01*
X151662500Y-78406250D01*
X151662500Y-72156250D01*
X162662500Y-72156250D01*
X162662500Y-78406250D01*
G37*
X162662500Y-78406250D02*
X151662500Y-78406250D01*
X151662500Y-72156250D01*
X162662500Y-72156250D01*
X162662500Y-78406250D01*
D11*
X168150000Y640000D03*
X168150000Y-5080000D03*
X174750000Y640000D03*
X174750000Y-5080000D03*
X306262500Y-81280000D03*
X306262500Y-75560000D03*
X312862500Y-75560000D03*
X312862500Y-81280000D03*
X3843750Y-37460000D03*
X3843750Y-43180000D03*
X10443750Y-43180000D03*
X10443750Y-37460000D03*
X234825000Y-81280000D03*
X234825000Y-75560000D03*
X241425000Y-75560000D03*
X241425000Y-81280000D03*
X134812500Y-56510000D03*
X134812500Y-62230000D03*
X141412500Y-62230000D03*
X141412500Y-56510000D03*
X91950000Y-5080000D03*
X91950000Y640000D03*
X98550000Y640000D03*
X98550000Y-5080000D03*
X115762500Y-56510000D03*
X115762500Y-62230000D03*
X122362500Y-56510000D03*
X122362500Y-62230000D03*
X201487500Y-37460000D03*
X201487500Y-43180000D03*
X208087500Y-37460000D03*
X208087500Y-43180000D03*
X25275000Y-24130000D03*
X25275000Y-18410000D03*
X31875000Y-24130000D03*
X31875000Y-18410000D03*
X63375000Y-18410000D03*
X63375000Y-24130000D03*
X69975000Y-18410000D03*
X69975000Y-24130000D03*
D12*
X250950000Y-5080000D03*
D11*
X244350000Y640000D03*
X244350000Y-5080000D03*
X250950000Y640000D03*
D12*
X253875000Y640000D03*
D11*
X253875000Y-5080000D03*
X260475000Y-5080000D03*
X260475000Y640000D03*
X15750000Y640000D03*
X15750000Y-5080000D03*
X22350000Y640000D03*
X22350000Y-5080000D03*
X106237500Y-37460000D03*
X106237500Y-43180000D03*
X112837500Y-37460000D03*
X112837500Y-43180000D03*
X163387500Y-43180000D03*
X163387500Y-37460000D03*
X169987500Y-37460000D03*
X169987500Y-43180000D03*
X306262500Y-62230000D03*
X306262500Y-56510000D03*
X312862500Y-56510000D03*
X312862500Y-62230000D03*
X225300000Y-5080000D03*
X225300000Y640000D03*
X231900000Y-5080000D03*
X231900000Y640000D03*
X234825000Y-18410000D03*
X234825000Y-24130000D03*
X241425000Y-18410000D03*
X241425000Y-24130000D03*
X287212500Y-5080000D03*
X287212500Y640000D03*
X293812500Y640000D03*
X293812500Y-5080000D03*
X130050000Y640000D03*
X130050000Y-5080000D03*
X136650000Y-5080000D03*
X136650000Y640000D03*
X287212500Y-18410000D03*
X287212500Y-24130000D03*
X293812500Y-24130000D03*
X293812500Y-18410000D03*
X1462500Y-24130000D03*
X1462500Y-18410000D03*
X8062500Y-18410000D03*
X8062500Y-24130000D03*
X263660000Y-31875000D03*
X269380000Y-31875000D03*
X269380000Y-25275000D03*
X263660000Y-25275000D03*
X68137500Y-43180000D03*
X68137500Y-37460000D03*
X74737500Y-43180000D03*
X74737500Y-37460000D03*
X34800000Y640000D03*
X34800000Y-5080000D03*
X41400000Y-5080000D03*
X41400000Y640000D03*
X130050000Y-75560000D03*
X130050000Y-81280000D03*
X136650000Y-75560000D03*
X136650000Y-81280000D03*
X306262500Y-5080000D03*
X306262500Y640000D03*
X312862500Y-5080000D03*
X312862500Y640000D03*
X49087500Y-37460000D03*
X49087500Y-43180000D03*
X55687500Y-43180000D03*
X55687500Y-37460000D03*
X149100000Y640000D03*
X149100000Y-5080000D03*
X155700000Y640000D03*
X155700000Y-5080000D03*
X177675000Y-18410000D03*
X177675000Y-24130000D03*
X184275000Y-24130000D03*
X184275000Y-18410000D03*
X287212500Y-81280000D03*
X287212500Y-75560000D03*
X293812500Y-81280000D03*
X293812500Y-75560000D03*
X325312500Y640000D03*
X325312500Y-5080000D03*
X331912500Y640000D03*
X331912500Y-5080000D03*
X72900000Y-5080000D03*
X72900000Y640000D03*
X79500000Y-5080000D03*
X79500000Y640000D03*
X20512500Y-56510000D03*
X20512500Y-62230000D03*
X27112500Y-62230000D03*
X27112500Y-56510000D03*
X125287500Y-43180000D03*
X125287500Y-37460000D03*
X131887500Y-43180000D03*
X131887500Y-37460000D03*
X25275000Y-75560000D03*
X25275000Y-81280000D03*
X31875000Y-81280000D03*
X31875000Y-75560000D03*
X1462500Y-75560000D03*
X1462500Y-81280000D03*
X8062500Y-75560000D03*
X8062500Y-81280000D03*
X139575000Y-24130000D03*
X139575000Y-18410000D03*
X146175000Y-18410000D03*
X146175000Y-24130000D03*
X153862500Y-56510000D03*
X153862500Y-62230000D03*
X160462500Y-56510000D03*
X160462500Y-62230000D03*
X77662500Y-62230000D03*
X77662500Y-56510000D03*
X84262500Y-62230000D03*
X84262500Y-56510000D03*
X172912500Y-56510000D03*
X172912500Y-62230000D03*
X179512500Y-62230000D03*
X179512500Y-56510000D03*
X30037500Y-37460000D03*
X30037500Y-43180000D03*
X36637500Y-43180000D03*
X36637500Y-37460000D03*
X49087500Y-81280000D03*
X49087500Y-75560000D03*
X55687500Y-81280000D03*
X55687500Y-75560000D03*
X206250000Y-5080000D03*
X206250000Y640000D03*
X212850000Y-5080000D03*
X212850000Y640000D03*
X325312500Y-75560000D03*
X325312500Y-81280000D03*
X331912500Y-75560000D03*
X331912500Y-81280000D03*
X306262500Y-18410000D03*
X306262500Y-24130000D03*
X312862500Y-18410000D03*
X312862500Y-24130000D03*
X101475000Y-18410000D03*
X101475000Y-24130000D03*
X108075000Y-24130000D03*
X108075000Y-18410000D03*
X263400224Y640000D03*
X263400224Y-5080000D03*
X270000224Y640000D03*
X270000224Y-5080000D03*
X111000000Y-5080000D03*
X111000000Y640000D03*
X117600000Y-5080000D03*
X117600000Y640000D03*
X191962500Y-56510000D03*
X191962500Y-62230000D03*
X198562500Y-62230000D03*
X198562500Y-56510000D03*
X53850000Y-5080000D03*
X53850000Y640000D03*
X60450000Y640000D03*
X60450000Y-5080000D03*
X211012500Y-56510000D03*
X211012500Y-62230000D03*
X217612500Y-56510000D03*
X217612500Y-62230000D03*
X246731250Y-62230000D03*
X246731250Y-56510000D03*
X253331250Y-62230000D03*
X253331250Y-56510000D03*
X211012500Y-75560000D03*
X211012500Y-81280000D03*
X217612500Y-75560000D03*
X217612500Y-81280000D03*
X82425000Y-24130000D03*
X82425000Y-18410000D03*
X89025000Y-24130000D03*
X89025000Y-18410000D03*
X44325000Y-18410000D03*
X44325000Y-24130000D03*
X50925000Y-24130000D03*
X50925000Y-18410000D03*
X196725000Y-24130000D03*
X196725000Y-18410000D03*
X203325000Y-18410000D03*
X203325000Y-24130000D03*
X258637500Y-81280000D03*
X258637500Y-75560000D03*
X265237500Y-75560000D03*
X265237500Y-81280000D03*
X120525000Y-18410000D03*
X120525000Y-24130000D03*
X127125000Y-24130000D03*
X127125000Y-18410000D03*
X58612500Y-62230000D03*
X58612500Y-56510000D03*
X65212500Y-56510000D03*
X65212500Y-62230000D03*
X325312500Y-24130000D03*
X325312500Y-18410000D03*
X331912500Y-24130000D03*
X331912500Y-18410000D03*
X182437500Y-37460000D03*
X182437500Y-43180000D03*
X189037500Y-43180000D03*
X189037500Y-37460000D03*
X144337500Y-37460000D03*
X144337500Y-43180000D03*
X150937500Y-37460000D03*
X150937500Y-43180000D03*
X87187500Y-43180000D03*
X87187500Y-37460000D03*
X93787500Y-37460000D03*
X93787500Y-43180000D03*
X215775000Y-24130000D03*
X215775000Y-18410000D03*
X222375000Y-24130000D03*
X222375000Y-18410000D03*
X220537500Y-37460000D03*
X220537500Y-43180000D03*
X227137500Y-43180000D03*
X227137500Y-37460000D03*
X239587500Y-37460000D03*
X239587500Y-43180000D03*
X246187500Y-43180000D03*
X246187500Y-37460000D03*
X187200000Y-5080000D03*
X187200000Y640000D03*
X193800000Y-5080000D03*
X193800000Y640000D03*
X-918750Y-56510000D03*
X-918750Y-62230000D03*
X5681250Y-56510000D03*
X5681250Y-62230000D03*
X96712500Y-56510000D03*
X96712500Y-62230000D03*
X103312500Y-62230000D03*
X103312500Y-56510000D03*
X-3300000Y-5080000D03*
X-3300000Y640000D03*
X3300000Y-5080000D03*
X3300000Y640000D03*
X39562500Y-56510000D03*
X39562500Y-62230000D03*
X46162500Y-62230000D03*
X46162500Y-56510000D03*
X158625000Y-18410000D03*
X158625000Y-24130000D03*
X165225000Y-18410000D03*
X165225000Y-24130000D03*
D13*
X222250000Y-64356250D03*
X222250000Y-61056250D03*
X93662500Y-26256250D03*
X93662500Y-22956250D03*
X136525000Y-45306250D03*
X136525000Y-42006250D03*
X15081250Y-45306250D03*
X15081250Y-42006250D03*
D14*
X293320000Y-50100000D03*
X294280000Y-50100000D03*
D13*
X150812500Y-26256250D03*
X150812500Y-22956250D03*
X250825000Y-45306250D03*
X250825000Y-42006250D03*
X193675000Y-45306250D03*
X193675000Y-42006250D03*
X179387500Y-7206250D03*
X179387500Y-3906250D03*
D15*
X295175000Y-38250000D03*
D16*
X295175000Y-40790000D03*
D17*
X283600000Y-40075000D03*
X283600000Y-38525000D03*
D18*
X281680000Y-45900000D03*
X280720000Y-45900000D03*
D19*
X285600000Y-56220000D03*
X285600000Y-57180000D03*
D13*
X74612500Y-26256250D03*
X74612500Y-22956250D03*
X317500000Y-7206250D03*
X317500000Y-3906250D03*
X7937500Y-7206250D03*
X7937500Y-3906250D03*
X298450000Y-7206250D03*
X298450000Y-3906250D03*
X26987500Y-7206250D03*
X26987500Y-3906250D03*
D20*
X287900000Y-40380000D03*
X287900000Y-39420000D03*
D13*
X269875000Y-77850000D03*
X269875000Y-74550000D03*
X217487500Y-7206250D03*
X217487500Y-3906250D03*
X36512500Y-77850000D03*
X36512500Y-74550000D03*
X212725000Y-45306250D03*
X212725000Y-42006250D03*
D19*
X286600000Y-56220000D03*
X286600000Y-57180000D03*
D13*
X141287500Y-77850000D03*
X141287500Y-74550000D03*
X60325000Y-45306250D03*
X60325000Y-42006250D03*
X320675000Y-7206250D03*
X320675000Y-3906250D03*
X320675000Y-26256250D03*
X320675000Y-22956250D03*
D21*
X301350000Y-34037500D03*
X299450000Y-34037500D03*
X300400000Y-32162500D03*
D13*
X320675000Y-77850000D03*
X320675000Y-74550000D03*
X84137500Y-7206250D03*
X84137500Y-3906250D03*
X131762500Y-26256250D03*
X131762500Y-22956250D03*
D22*
X190500000Y-10418750D03*
X190500000Y-13393750D03*
D13*
X246062500Y-77850000D03*
X246062500Y-74550000D03*
X31750000Y-64356250D03*
X31750000Y-61056250D03*
X98425000Y-45306250D03*
X98425000Y-42006250D03*
X117475000Y-45306250D03*
X117475000Y-42006250D03*
X122237500Y-7206250D03*
X122237500Y-3906250D03*
X160337500Y-7206250D03*
X160337500Y-3906250D03*
X55562500Y-26256250D03*
X55562500Y-22956250D03*
D14*
X293320000Y-45900000D03*
X294280000Y-45900000D03*
D13*
X41275000Y-45306250D03*
X41275000Y-42006250D03*
X203200000Y-64356250D03*
X203200000Y-61056250D03*
D20*
X289900001Y-40380000D03*
X289900001Y-39420000D03*
D13*
X298450000Y-77850000D03*
X298450000Y-74550000D03*
X236537500Y-7206250D03*
X236537500Y-3906250D03*
X165100000Y-64356250D03*
X165100000Y-61056250D03*
X198437500Y-7206250D03*
X198437500Y-3906250D03*
X112712500Y-26256250D03*
X112712500Y-22956250D03*
X12700000Y-77850000D03*
X12700000Y-74550000D03*
D23*
X288000000Y-61250000D03*
X285800000Y-61250000D03*
X285800000Y-59550000D03*
X288000000Y-59550000D03*
D20*
X280800000Y-40380000D03*
X280800000Y-39420000D03*
D13*
X298450000Y-26256250D03*
X298450000Y-22956250D03*
X227012500Y-26256250D03*
X227012500Y-22956250D03*
X188912500Y-26256250D03*
X188912500Y-22956250D03*
X103187500Y-7206250D03*
X103187500Y-3906250D03*
X174625000Y-45306250D03*
X174625000Y-42006250D03*
X231775000Y-45306250D03*
X231775000Y-42006250D03*
X36512500Y-26256250D03*
X36512500Y-22956250D03*
D18*
X281679999Y-49800000D03*
X280719999Y-49800000D03*
D17*
X302900000Y-33475000D03*
X302900000Y-31925000D03*
D19*
X289600000Y-60620000D03*
X289600000Y-61580000D03*
D13*
X60325000Y-77850000D03*
X60325000Y-74550000D03*
D24*
X273100000Y-55850000D03*
X273100000Y-62150000D03*
X276900000Y-62150000D03*
X276900000Y-55850000D03*
D25*
X282400000Y-53640000D03*
X282400000Y-54660000D03*
D13*
X317500000Y-77850000D03*
X317500000Y-74550000D03*
X207962500Y-26256250D03*
X207962500Y-22956250D03*
X88900000Y-64356250D03*
X88900000Y-61056250D03*
X65087500Y-7206250D03*
X65087500Y-3906250D03*
D17*
X297899998Y-33475000D03*
X297899998Y-31925000D03*
D13*
X254000000Y-45306250D03*
X254000000Y-42006250D03*
X11906250Y-64356250D03*
X11906250Y-61056250D03*
D26*
X285100000Y-40125000D03*
X285100000Y-38475000D03*
D27*
X194625000Y-13043750D03*
X193675000Y-13043750D03*
X192725000Y-13043750D03*
X192725000Y-10768750D03*
X193675000Y-10768750D03*
X194625000Y-10768750D03*
D25*
X287600000Y-56190000D03*
X287600000Y-57210000D03*
D13*
X141287500Y-7206250D03*
X141287500Y-3906250D03*
X127000000Y-64356250D03*
X127000000Y-61056250D03*
X249237500Y-26256250D03*
X249237500Y-22956250D03*
X239712500Y-7206250D03*
X239712500Y-3906250D03*
X246062500Y-26256250D03*
X246062500Y-22956250D03*
X184150000Y-64356250D03*
X184150000Y-61056250D03*
X317500000Y-26256250D03*
X317500000Y-22956250D03*
X107950000Y-64356250D03*
X107950000Y-61056250D03*
D28*
X290500000Y-30795000D03*
X290500000Y-32065000D03*
X290500000Y-33335000D03*
X290500000Y-34605000D03*
X283300000Y-34605000D03*
X283300000Y-33335000D03*
X283300000Y-32065000D03*
X283300000Y-30795000D03*
D13*
X146050000Y-64356250D03*
X146050000Y-61056250D03*
X257175000Y-64356250D03*
X257175000Y-61056250D03*
D20*
X284200000Y-60180000D03*
X284200000Y-59220000D03*
D29*
X186150000Y-13406250D03*
X186150000Y-12406250D03*
X186150000Y-11406250D03*
X186150000Y-10406250D03*
D30*
X182275000Y-14706250D03*
X182275000Y-9106250D03*
D13*
X69850000Y-64356250D03*
X69850000Y-61056250D03*
D31*
X282216000Y-61640000D03*
X280184000Y-61640000D03*
X281200000Y-56560000D03*
D32*
X281835000Y-57830000D03*
X280565000Y-57830000D03*
X281835000Y-59100000D03*
X280565000Y-59100000D03*
X281835000Y-60370000D03*
X280565000Y-60370000D03*
D13*
X46037500Y-7206250D03*
X46037500Y-3906250D03*
X79375000Y-45306250D03*
X79375000Y-42006250D03*
X317500000Y-64356250D03*
X317500000Y-61056250D03*
D20*
X288900000Y-40380000D03*
X288900000Y-39420000D03*
D33*
X290337500Y-46200000D03*
X290337500Y-46600000D03*
X290337500Y-47000000D03*
X290337500Y-47400000D03*
X290337500Y-47800000D03*
X290337500Y-48200000D03*
X290337500Y-48600000D03*
X290337500Y-49000000D03*
X290337500Y-49400000D03*
X290337500Y-49800000D03*
X290337500Y-50200000D03*
X290337500Y-50600000D03*
X290337500Y-51000000D03*
X290337500Y-51400000D03*
D34*
X289500000Y-52237500D03*
X289100000Y-52237500D03*
X288700000Y-52237500D03*
X288300000Y-52237500D03*
X287900000Y-52237500D03*
X287500000Y-52237500D03*
X287100000Y-52237500D03*
X286700000Y-52237500D03*
X286300000Y-52237500D03*
X285900000Y-52237500D03*
X285500000Y-52237500D03*
X285100000Y-52237500D03*
X284700000Y-52237500D03*
X284300000Y-52237500D03*
D33*
X283462500Y-51400000D03*
X283462500Y-51000000D03*
X283462500Y-50600000D03*
X283462500Y-50200000D03*
X283462500Y-49800000D03*
X283462500Y-49400000D03*
X283462500Y-49000000D03*
X283462500Y-48600000D03*
X283462500Y-48200000D03*
X283462500Y-47800000D03*
X283462500Y-47400000D03*
X283462500Y-47000000D03*
X283462500Y-46600000D03*
X283462500Y-46200000D03*
D34*
X284300000Y-45362500D03*
X284700000Y-45362500D03*
X285100000Y-45362500D03*
X285500000Y-45362500D03*
X285900000Y-45362500D03*
X286300000Y-45362500D03*
X286700000Y-45362500D03*
X287100000Y-45362500D03*
X287500000Y-45362500D03*
X287900000Y-45362500D03*
X288300000Y-45362500D03*
X288700000Y-45362500D03*
X289100000Y-45362500D03*
X289500000Y-45362500D03*
D35*
X286900000Y-48800000D03*
D13*
X169862500Y-26256250D03*
X169862500Y-22956250D03*
D36*
X286600000Y-38475000D03*
X286600000Y-40125000D03*
D19*
X281700000Y-30220000D03*
X281700000Y-31180000D03*
D13*
X155575000Y-45306250D03*
X155575000Y-42006250D03*
X12700000Y-26256250D03*
X12700000Y-22956250D03*
X222250000Y-77850000D03*
X222250000Y-74550000D03*
D17*
X282100000Y-40075000D03*
X282100000Y-38525000D03*
D13*
X50800000Y-64356250D03*
X50800000Y-61056250D03*
G36*
X288026017Y-51782139D02*
G01*
X288031425Y-51785752D01*
X288097788Y-51806532D01*
X288168589Y-51785743D01*
X288173983Y-51782139D01*
X288175979Y-51782008D01*
X288177090Y-51783671D01*
X288176757Y-51784913D01*
X288158573Y-51812128D01*
X288151000Y-51850199D01*
X288151000Y-52624801D01*
X288158573Y-52662872D01*
X288176757Y-52690087D01*
X288176888Y-52692083D01*
X288175225Y-52693194D01*
X288173983Y-52692861D01*
X288168575Y-52689248D01*
X288102212Y-52668468D01*
X288031411Y-52689257D01*
X288026017Y-52692861D01*
X288024021Y-52692992D01*
X288022910Y-52691329D01*
X288023243Y-52690087D01*
X288041427Y-52662872D01*
X288049000Y-52624801D01*
X288049000Y-51850199D01*
X288041427Y-51812128D01*
X288023243Y-51784913D01*
X288023112Y-51782917D01*
X288024775Y-51781806D01*
X288026017Y-51782139D01*
G37*
G36*
X286826017Y-51782139D02*
G01*
X286831425Y-51785752D01*
X286897788Y-51806532D01*
X286968589Y-51785743D01*
X286973983Y-51782139D01*
X286975979Y-51782008D01*
X286977090Y-51783671D01*
X286976757Y-51784913D01*
X286958573Y-51812128D01*
X286951000Y-51850199D01*
X286951000Y-52624801D01*
X286958573Y-52662872D01*
X286976757Y-52690087D01*
X286976888Y-52692083D01*
X286975225Y-52693194D01*
X286973983Y-52692861D01*
X286968575Y-52689248D01*
X286902212Y-52668468D01*
X286831411Y-52689257D01*
X286826017Y-52692861D01*
X286824021Y-52692992D01*
X286822910Y-52691329D01*
X286823243Y-52690087D01*
X286841427Y-52662872D01*
X286849000Y-52624801D01*
X286849000Y-51850199D01*
X286841427Y-51812128D01*
X286823243Y-51784913D01*
X286823112Y-51782917D01*
X286824775Y-51781806D01*
X286826017Y-51782139D01*
G37*
G36*
X284826017Y-51782139D02*
G01*
X284831425Y-51785752D01*
X284897788Y-51806532D01*
X284968589Y-51785743D01*
X284973983Y-51782139D01*
X284975979Y-51782008D01*
X284977090Y-51783671D01*
X284976757Y-51784913D01*
X284958573Y-51812128D01*
X284951000Y-51850199D01*
X284951000Y-52624801D01*
X284958573Y-52662872D01*
X284976757Y-52690087D01*
X284976888Y-52692083D01*
X284975225Y-52693194D01*
X284973983Y-52692861D01*
X284968575Y-52689248D01*
X284902212Y-52668468D01*
X284831411Y-52689257D01*
X284826017Y-52692861D01*
X284824021Y-52692992D01*
X284822910Y-52691329D01*
X284823243Y-52690087D01*
X284841427Y-52662872D01*
X284849000Y-52624801D01*
X284849000Y-51850199D01*
X284841427Y-51812128D01*
X284823243Y-51784913D01*
X284823112Y-51782917D01*
X284824775Y-51781806D01*
X284826017Y-51782139D01*
G37*
G36*
X287626017Y-51782139D02*
G01*
X287631425Y-51785752D01*
X287697788Y-51806532D01*
X287768589Y-51785743D01*
X287773983Y-51782139D01*
X287775979Y-51782008D01*
X287777090Y-51783671D01*
X287776757Y-51784913D01*
X287758573Y-51812128D01*
X287751000Y-51850199D01*
X287751000Y-52624801D01*
X287758573Y-52662872D01*
X287776757Y-52690087D01*
X287776888Y-52692083D01*
X287775225Y-52693194D01*
X287773983Y-52692861D01*
X287768575Y-52689248D01*
X287702212Y-52668468D01*
X287631411Y-52689257D01*
X287626017Y-52692861D01*
X287624021Y-52692992D01*
X287622910Y-52691329D01*
X287623243Y-52690087D01*
X287641427Y-52662872D01*
X287649000Y-52624801D01*
X287649000Y-51850199D01*
X287641427Y-51812128D01*
X287623243Y-51784913D01*
X287623112Y-51782917D01*
X287624775Y-51781806D01*
X287626017Y-51782139D01*
G37*
G36*
X289226017Y-51782139D02*
G01*
X289231425Y-51785752D01*
X289297788Y-51806532D01*
X289368589Y-51785743D01*
X289373983Y-51782139D01*
X289375979Y-51782008D01*
X289377090Y-51783671D01*
X289376757Y-51784913D01*
X289358573Y-51812128D01*
X289351000Y-51850199D01*
X289351000Y-52624801D01*
X289358573Y-52662872D01*
X289376757Y-52690087D01*
X289376888Y-52692083D01*
X289375225Y-52693194D01*
X289373983Y-52692861D01*
X289368575Y-52689248D01*
X289302212Y-52668468D01*
X289231411Y-52689257D01*
X289226017Y-52692861D01*
X289224021Y-52692992D01*
X289222910Y-52691329D01*
X289223243Y-52690087D01*
X289241427Y-52662872D01*
X289249000Y-52624801D01*
X289249000Y-51850199D01*
X289241427Y-51812128D01*
X289223243Y-51784913D01*
X289223112Y-51782917D01*
X289224775Y-51781806D01*
X289226017Y-51782139D01*
G37*
G36*
X286426017Y-51782139D02*
G01*
X286431425Y-51785752D01*
X286497788Y-51806532D01*
X286568589Y-51785743D01*
X286573983Y-51782139D01*
X286575979Y-51782008D01*
X286577090Y-51783671D01*
X286576757Y-51784913D01*
X286558573Y-51812128D01*
X286551000Y-51850199D01*
X286551000Y-52624801D01*
X286558573Y-52662872D01*
X286576757Y-52690087D01*
X286576888Y-52692083D01*
X286575225Y-52693194D01*
X286573983Y-52692861D01*
X286568575Y-52689248D01*
X286502212Y-52668468D01*
X286431411Y-52689257D01*
X286426017Y-52692861D01*
X286424021Y-52692992D01*
X286422910Y-52691329D01*
X286423243Y-52690087D01*
X286441427Y-52662872D01*
X286449000Y-52624801D01*
X286449000Y-51850199D01*
X286441427Y-51812128D01*
X286423243Y-51784913D01*
X286423112Y-51782917D01*
X286424775Y-51781806D01*
X286426017Y-51782139D01*
G37*
G36*
X287226017Y-51782139D02*
G01*
X287231425Y-51785752D01*
X287297788Y-51806532D01*
X287368589Y-51785743D01*
X287373983Y-51782139D01*
X287375979Y-51782008D01*
X287377090Y-51783671D01*
X287376757Y-51784913D01*
X287358573Y-51812128D01*
X287351000Y-51850199D01*
X287351000Y-52624801D01*
X287358573Y-52662872D01*
X287376757Y-52690087D01*
X287376888Y-52692083D01*
X287375225Y-52693194D01*
X287373983Y-52692861D01*
X287368575Y-52689248D01*
X287302212Y-52668468D01*
X287231411Y-52689257D01*
X287226017Y-52692861D01*
X287224021Y-52692992D01*
X287222910Y-52691329D01*
X287223243Y-52690087D01*
X287241427Y-52662872D01*
X287249000Y-52624801D01*
X287249000Y-51850199D01*
X287241427Y-51812128D01*
X287223243Y-51784913D01*
X287223112Y-51782917D01*
X287224775Y-51781806D01*
X287226017Y-51782139D01*
G37*
G36*
X288826017Y-51782139D02*
G01*
X288831425Y-51785752D01*
X288897788Y-51806532D01*
X288968589Y-51785743D01*
X288973983Y-51782139D01*
X288975979Y-51782008D01*
X288977090Y-51783671D01*
X288976757Y-51784913D01*
X288958573Y-51812128D01*
X288951000Y-51850199D01*
X288951000Y-52624801D01*
X288958573Y-52662872D01*
X288976757Y-52690087D01*
X288976888Y-52692083D01*
X288975225Y-52693194D01*
X288973983Y-52692861D01*
X288968575Y-52689248D01*
X288902212Y-52668468D01*
X288831411Y-52689257D01*
X288826017Y-52692861D01*
X288824021Y-52692992D01*
X288822910Y-52691329D01*
X288823243Y-52690087D01*
X288841427Y-52662872D01*
X288849000Y-52624801D01*
X288849000Y-51850199D01*
X288841427Y-51812128D01*
X288823243Y-51784913D01*
X288823112Y-51782917D01*
X288824775Y-51781806D01*
X288826017Y-51782139D01*
G37*
G36*
X285226017Y-51782139D02*
G01*
X285231425Y-51785752D01*
X285297788Y-51806532D01*
X285368589Y-51785743D01*
X285373983Y-51782139D01*
X285375979Y-51782008D01*
X285377090Y-51783671D01*
X285376757Y-51784913D01*
X285358573Y-51812128D01*
X285351000Y-51850199D01*
X285351000Y-52624801D01*
X285358573Y-52662872D01*
X285376757Y-52690087D01*
X285376888Y-52692083D01*
X285375225Y-52693194D01*
X285373983Y-52692861D01*
X285368575Y-52689248D01*
X285302212Y-52668468D01*
X285231411Y-52689257D01*
X285226017Y-52692861D01*
X285224021Y-52692992D01*
X285222910Y-52691329D01*
X285223243Y-52690087D01*
X285241427Y-52662872D01*
X285249000Y-52624801D01*
X285249000Y-51850199D01*
X285241427Y-51812128D01*
X285223243Y-51784913D01*
X285223112Y-51782917D01*
X285224775Y-51781806D01*
X285226017Y-51782139D01*
G37*
G36*
X286026017Y-51782139D02*
G01*
X286031425Y-51785752D01*
X286097788Y-51806532D01*
X286168589Y-51785743D01*
X286173983Y-51782139D01*
X286175979Y-51782008D01*
X286177090Y-51783671D01*
X286176757Y-51784913D01*
X286158573Y-51812128D01*
X286151000Y-51850199D01*
X286151000Y-52624801D01*
X286158573Y-52662872D01*
X286176757Y-52690087D01*
X286176888Y-52692083D01*
X286175225Y-52693194D01*
X286173983Y-52692861D01*
X286168575Y-52689248D01*
X286102212Y-52668468D01*
X286031411Y-52689257D01*
X286026017Y-52692861D01*
X286024021Y-52692992D01*
X286022910Y-52691329D01*
X286023243Y-52690087D01*
X286041427Y-52662872D01*
X286049000Y-52624801D01*
X286049000Y-51850199D01*
X286041427Y-51812128D01*
X286023243Y-51784913D01*
X286023112Y-51782917D01*
X286024775Y-51781806D01*
X286026017Y-51782139D01*
G37*
G36*
X285626017Y-51782139D02*
G01*
X285631425Y-51785752D01*
X285697788Y-51806532D01*
X285768589Y-51785743D01*
X285773983Y-51782139D01*
X285775979Y-51782008D01*
X285777090Y-51783671D01*
X285776757Y-51784913D01*
X285758573Y-51812128D01*
X285751000Y-51850199D01*
X285751000Y-52624801D01*
X285758573Y-52662872D01*
X285776757Y-52690087D01*
X285776888Y-52692083D01*
X285775225Y-52693194D01*
X285773983Y-52692861D01*
X285768575Y-52689248D01*
X285702212Y-52668468D01*
X285631411Y-52689257D01*
X285626017Y-52692861D01*
X285624021Y-52692992D01*
X285622910Y-52691329D01*
X285623243Y-52690087D01*
X285641427Y-52662872D01*
X285649000Y-52624801D01*
X285649000Y-51850199D01*
X285641427Y-51812128D01*
X285623243Y-51784913D01*
X285623112Y-51782917D01*
X285624775Y-51781806D01*
X285626017Y-51782139D01*
G37*
G36*
X284426017Y-51782139D02*
G01*
X284431425Y-51785752D01*
X284497788Y-51806532D01*
X284568589Y-51785743D01*
X284573983Y-51782139D01*
X284575979Y-51782008D01*
X284577090Y-51783671D01*
X284576757Y-51784913D01*
X284558573Y-51812128D01*
X284551000Y-51850199D01*
X284551000Y-52624801D01*
X284558573Y-52662872D01*
X284576757Y-52690087D01*
X284576888Y-52692083D01*
X284575225Y-52693194D01*
X284573983Y-52692861D01*
X284568575Y-52689248D01*
X284502212Y-52668468D01*
X284431411Y-52689257D01*
X284426017Y-52692861D01*
X284424021Y-52692992D01*
X284422910Y-52691329D01*
X284423243Y-52690087D01*
X284441427Y-52662872D01*
X284449000Y-52624801D01*
X284449000Y-51850199D01*
X284441427Y-51812128D01*
X284423243Y-51784913D01*
X284423112Y-51782917D01*
X284424775Y-51781806D01*
X284426017Y-51782139D01*
G37*
G36*
X288426017Y-51782139D02*
G01*
X288431425Y-51785752D01*
X288497788Y-51806532D01*
X288568589Y-51785743D01*
X288573983Y-51782139D01*
X288575979Y-51782008D01*
X288577090Y-51783671D01*
X288576757Y-51784913D01*
X288558573Y-51812128D01*
X288551000Y-51850199D01*
X288551000Y-52624801D01*
X288558573Y-52662872D01*
X288576757Y-52690087D01*
X288576888Y-52692083D01*
X288575225Y-52693194D01*
X288573983Y-52692861D01*
X288568575Y-52689248D01*
X288502212Y-52668468D01*
X288431411Y-52689257D01*
X288426017Y-52692861D01*
X288424021Y-52692992D01*
X288422910Y-52691329D01*
X288423243Y-52690087D01*
X288441427Y-52662872D01*
X288449000Y-52624801D01*
X288449000Y-51850199D01*
X288441427Y-51812128D01*
X288423243Y-51784913D01*
X288423112Y-51782917D01*
X288424775Y-51781806D01*
X288426017Y-51782139D01*
G37*
G36*
X283009913Y-51123243D02*
G01*
X283037128Y-51141427D01*
X283075199Y-51149000D01*
X283849801Y-51149000D01*
X283887872Y-51141427D01*
X283915087Y-51123243D01*
X283917083Y-51123112D01*
X283918194Y-51124775D01*
X283917861Y-51126017D01*
X283914248Y-51131425D01*
X283893468Y-51197788D01*
X283914257Y-51268589D01*
X283917861Y-51273983D01*
X283917992Y-51275979D01*
X283916329Y-51277090D01*
X283915087Y-51276757D01*
X283887872Y-51258573D01*
X283849801Y-51251000D01*
X283075199Y-51251000D01*
X283037128Y-51258573D01*
X283009913Y-51276757D01*
X283007917Y-51276888D01*
X283006806Y-51275225D01*
X283007139Y-51273983D01*
X283010752Y-51268575D01*
X283031532Y-51202212D01*
X283010743Y-51131411D01*
X283007139Y-51126017D01*
X283007008Y-51124021D01*
X283008671Y-51122910D01*
X283009913Y-51123243D01*
G37*
G36*
X289884913Y-51123243D02*
G01*
X289912128Y-51141427D01*
X289950199Y-51149000D01*
X290724801Y-51149000D01*
X290762872Y-51141427D01*
X290790087Y-51123243D01*
X290792083Y-51123112D01*
X290793194Y-51124775D01*
X290792861Y-51126017D01*
X290789248Y-51131425D01*
X290768468Y-51197788D01*
X290789257Y-51268589D01*
X290792861Y-51273983D01*
X290792992Y-51275979D01*
X290791329Y-51277090D01*
X290790087Y-51276757D01*
X290762872Y-51258573D01*
X290724801Y-51251000D01*
X289950199Y-51251000D01*
X289912128Y-51258573D01*
X289884913Y-51276757D01*
X289882917Y-51276888D01*
X289881806Y-51275225D01*
X289882139Y-51273983D01*
X289885752Y-51268575D01*
X289906532Y-51202212D01*
X289885743Y-51131411D01*
X289882139Y-51126017D01*
X289882008Y-51124021D01*
X289883671Y-51122910D01*
X289884913Y-51123243D01*
G37*
G36*
X283009913Y-50723243D02*
G01*
X283037128Y-50741427D01*
X283075199Y-50749000D01*
X283849801Y-50749000D01*
X283887872Y-50741427D01*
X283915087Y-50723243D01*
X283917083Y-50723112D01*
X283918194Y-50724775D01*
X283917861Y-50726017D01*
X283914248Y-50731425D01*
X283893468Y-50797788D01*
X283914257Y-50868589D01*
X283917861Y-50873983D01*
X283917992Y-50875979D01*
X283916329Y-50877090D01*
X283915087Y-50876757D01*
X283887872Y-50858573D01*
X283849801Y-50851000D01*
X283075199Y-50851000D01*
X283037128Y-50858573D01*
X283009913Y-50876757D01*
X283007917Y-50876888D01*
X283006806Y-50875225D01*
X283007139Y-50873983D01*
X283010752Y-50868575D01*
X283031532Y-50802212D01*
X283010743Y-50731411D01*
X283007139Y-50726017D01*
X283007008Y-50724021D01*
X283008671Y-50722910D01*
X283009913Y-50723243D01*
G37*
G36*
X289884913Y-50723243D02*
G01*
X289912128Y-50741427D01*
X289950199Y-50749000D01*
X290724801Y-50749000D01*
X290762872Y-50741427D01*
X290790087Y-50723243D01*
X290792083Y-50723112D01*
X290793194Y-50724775D01*
X290792861Y-50726017D01*
X290789248Y-50731425D01*
X290768468Y-50797788D01*
X290789257Y-50868589D01*
X290792861Y-50873983D01*
X290792992Y-50875979D01*
X290791329Y-50877090D01*
X290790087Y-50876757D01*
X290762872Y-50858573D01*
X290724801Y-50851000D01*
X289950199Y-50851000D01*
X289912128Y-50858573D01*
X289884913Y-50876757D01*
X289882917Y-50876888D01*
X289881806Y-50875225D01*
X289882139Y-50873983D01*
X289885752Y-50868575D01*
X289906532Y-50802212D01*
X289885743Y-50731411D01*
X289882139Y-50726017D01*
X289882008Y-50724021D01*
X289883671Y-50722910D01*
X289884913Y-50723243D01*
G37*
G36*
X283009913Y-50323243D02*
G01*
X283037128Y-50341427D01*
X283075199Y-50349000D01*
X283849801Y-50349000D01*
X283887872Y-50341427D01*
X283915087Y-50323243D01*
X283917083Y-50323112D01*
X283918194Y-50324775D01*
X283917861Y-50326017D01*
X283914248Y-50331425D01*
X283893468Y-50397788D01*
X283914257Y-50468589D01*
X283917861Y-50473983D01*
X283917992Y-50475979D01*
X283916329Y-50477090D01*
X283915087Y-50476757D01*
X283887872Y-50458573D01*
X283849801Y-50451000D01*
X283075199Y-50451000D01*
X283037128Y-50458573D01*
X283009913Y-50476757D01*
X283007917Y-50476888D01*
X283006806Y-50475225D01*
X283007139Y-50473983D01*
X283010752Y-50468575D01*
X283031532Y-50402212D01*
X283010743Y-50331411D01*
X283007139Y-50326017D01*
X283007008Y-50324021D01*
X283008671Y-50322910D01*
X283009913Y-50323243D01*
G37*
G36*
X289884913Y-50323243D02*
G01*
X289912128Y-50341427D01*
X289950199Y-50349000D01*
X290724801Y-50349000D01*
X290762872Y-50341427D01*
X290790087Y-50323243D01*
X290792083Y-50323112D01*
X290793194Y-50324775D01*
X290792861Y-50326017D01*
X290789248Y-50331425D01*
X290768468Y-50397788D01*
X290789257Y-50468589D01*
X290792861Y-50473983D01*
X290792992Y-50475979D01*
X290791329Y-50477090D01*
X290790087Y-50476757D01*
X290762872Y-50458573D01*
X290724801Y-50451000D01*
X289950199Y-50451000D01*
X289912128Y-50458573D01*
X289884913Y-50476757D01*
X289882917Y-50476888D01*
X289881806Y-50475225D01*
X289882139Y-50473983D01*
X289885752Y-50468575D01*
X289906532Y-50402212D01*
X289885743Y-50331411D01*
X289882139Y-50326017D01*
X289882008Y-50324021D01*
X289883671Y-50322910D01*
X289884913Y-50323243D01*
G37*
G36*
X289884913Y-49923243D02*
G01*
X289912128Y-49941427D01*
X289950199Y-49949000D01*
X290724801Y-49949000D01*
X290762872Y-49941427D01*
X290790087Y-49923243D01*
X290792083Y-49923112D01*
X290793194Y-49924775D01*
X290792861Y-49926017D01*
X290789248Y-49931425D01*
X290768468Y-49997788D01*
X290789257Y-50068589D01*
X290792861Y-50073983D01*
X290792992Y-50075979D01*
X290791329Y-50077090D01*
X290790087Y-50076757D01*
X290762872Y-50058573D01*
X290724801Y-50051000D01*
X289950199Y-50051000D01*
X289912128Y-50058573D01*
X289884913Y-50076757D01*
X289882917Y-50076888D01*
X289881806Y-50075225D01*
X289882139Y-50073983D01*
X289885752Y-50068575D01*
X289906532Y-50002212D01*
X289885743Y-49931411D01*
X289882139Y-49926017D01*
X289882008Y-49924021D01*
X289883671Y-49922910D01*
X289884913Y-49923243D01*
G37*
G36*
X283009913Y-49923243D02*
G01*
X283037128Y-49941427D01*
X283075199Y-49949000D01*
X283849801Y-49949000D01*
X283887872Y-49941427D01*
X283915087Y-49923243D01*
X283917083Y-49923112D01*
X283918194Y-49924775D01*
X283917861Y-49926017D01*
X283914248Y-49931425D01*
X283893468Y-49997788D01*
X283914257Y-50068589D01*
X283917861Y-50073983D01*
X283917992Y-50075979D01*
X283916329Y-50077090D01*
X283915087Y-50076757D01*
X283887872Y-50058573D01*
X283849801Y-50051000D01*
X283075199Y-50051000D01*
X283037128Y-50058573D01*
X283009913Y-50076757D01*
X283007917Y-50076888D01*
X283006806Y-50075225D01*
X283007139Y-50073983D01*
X283010752Y-50068575D01*
X283031532Y-50002212D01*
X283010743Y-49931411D01*
X283007139Y-49926017D01*
X283007008Y-49924021D01*
X283008671Y-49922910D01*
X283009913Y-49923243D01*
G37*
G36*
X283009913Y-49523243D02*
G01*
X283037128Y-49541427D01*
X283075199Y-49549000D01*
X283849801Y-49549000D01*
X283887872Y-49541427D01*
X283915087Y-49523243D01*
X283917083Y-49523112D01*
X283918194Y-49524775D01*
X283917861Y-49526017D01*
X283914248Y-49531425D01*
X283893468Y-49597788D01*
X283914257Y-49668589D01*
X283917861Y-49673983D01*
X283917992Y-49675979D01*
X283916329Y-49677090D01*
X283915087Y-49676757D01*
X283887872Y-49658573D01*
X283849801Y-49651000D01*
X283075199Y-49651000D01*
X283037128Y-49658573D01*
X283009913Y-49676757D01*
X283007917Y-49676888D01*
X283006806Y-49675225D01*
X283007139Y-49673983D01*
X283010752Y-49668575D01*
X283031532Y-49602212D01*
X283010743Y-49531411D01*
X283007139Y-49526017D01*
X283007008Y-49524021D01*
X283008671Y-49522910D01*
X283009913Y-49523243D01*
G37*
G36*
X289884913Y-49523243D02*
G01*
X289912128Y-49541427D01*
X289950199Y-49549000D01*
X290724801Y-49549000D01*
X290762872Y-49541427D01*
X290790087Y-49523243D01*
X290792083Y-49523112D01*
X290793194Y-49524775D01*
X290792861Y-49526017D01*
X290789248Y-49531425D01*
X290768468Y-49597788D01*
X290789257Y-49668589D01*
X290792861Y-49673983D01*
X290792992Y-49675979D01*
X290791329Y-49677090D01*
X290790087Y-49676757D01*
X290762872Y-49658573D01*
X290724801Y-49651000D01*
X289950199Y-49651000D01*
X289912128Y-49658573D01*
X289884913Y-49676757D01*
X289882917Y-49676888D01*
X289881806Y-49675225D01*
X289882139Y-49673983D01*
X289885752Y-49668575D01*
X289906532Y-49602212D01*
X289885743Y-49531411D01*
X289882139Y-49526017D01*
X289882008Y-49524021D01*
X289883671Y-49522910D01*
X289884913Y-49523243D01*
G37*
G36*
X283009913Y-49123243D02*
G01*
X283037128Y-49141427D01*
X283075199Y-49149000D01*
X283849801Y-49149000D01*
X283887872Y-49141427D01*
X283915087Y-49123243D01*
X283917083Y-49123112D01*
X283918194Y-49124775D01*
X283917861Y-49126017D01*
X283914248Y-49131425D01*
X283893468Y-49197788D01*
X283914257Y-49268589D01*
X283917861Y-49273983D01*
X283917992Y-49275979D01*
X283916329Y-49277090D01*
X283915087Y-49276757D01*
X283887872Y-49258573D01*
X283849801Y-49251000D01*
X283075199Y-49251000D01*
X283037128Y-49258573D01*
X283009913Y-49276757D01*
X283007917Y-49276888D01*
X283006806Y-49275225D01*
X283007139Y-49273983D01*
X283010752Y-49268575D01*
X283031532Y-49202212D01*
X283010743Y-49131411D01*
X283007139Y-49126017D01*
X283007008Y-49124021D01*
X283008671Y-49122910D01*
X283009913Y-49123243D01*
G37*
G36*
X289884913Y-49123243D02*
G01*
X289912128Y-49141427D01*
X289950199Y-49149000D01*
X290724801Y-49149000D01*
X290762872Y-49141427D01*
X290790087Y-49123243D01*
X290792083Y-49123112D01*
X290793194Y-49124775D01*
X290792861Y-49126017D01*
X290789248Y-49131425D01*
X290768468Y-49197788D01*
X290789257Y-49268589D01*
X290792861Y-49273983D01*
X290792992Y-49275979D01*
X290791329Y-49277090D01*
X290790087Y-49276757D01*
X290762872Y-49258573D01*
X290724801Y-49251000D01*
X289950199Y-49251000D01*
X289912128Y-49258573D01*
X289884913Y-49276757D01*
X289882917Y-49276888D01*
X289881806Y-49275225D01*
X289882139Y-49273983D01*
X289885752Y-49268575D01*
X289906532Y-49202212D01*
X289885743Y-49131411D01*
X289882139Y-49126017D01*
X289882008Y-49124021D01*
X289883671Y-49122910D01*
X289884913Y-49123243D01*
G37*
G36*
X289884913Y-48723243D02*
G01*
X289912128Y-48741427D01*
X289950199Y-48749000D01*
X290724801Y-48749000D01*
X290762872Y-48741427D01*
X290790087Y-48723243D01*
X290792083Y-48723112D01*
X290793194Y-48724775D01*
X290792861Y-48726017D01*
X290789248Y-48731425D01*
X290768468Y-48797788D01*
X290789257Y-48868589D01*
X290792861Y-48873983D01*
X290792992Y-48875979D01*
X290791329Y-48877090D01*
X290790087Y-48876757D01*
X290762872Y-48858573D01*
X290724801Y-48851000D01*
X289950199Y-48851000D01*
X289912128Y-48858573D01*
X289884913Y-48876757D01*
X289882917Y-48876888D01*
X289881806Y-48875225D01*
X289882139Y-48873983D01*
X289885752Y-48868575D01*
X289906532Y-48802212D01*
X289885743Y-48731411D01*
X289882139Y-48726017D01*
X289882008Y-48724021D01*
X289883671Y-48722910D01*
X289884913Y-48723243D01*
G37*
G36*
X283009913Y-48723243D02*
G01*
X283037128Y-48741427D01*
X283075199Y-48749000D01*
X283849801Y-48749000D01*
X283887872Y-48741427D01*
X283915087Y-48723243D01*
X283917083Y-48723112D01*
X283918194Y-48724775D01*
X283917861Y-48726017D01*
X283914248Y-48731425D01*
X283893468Y-48797788D01*
X283914257Y-48868589D01*
X283917861Y-48873983D01*
X283917992Y-48875979D01*
X283916329Y-48877090D01*
X283915087Y-48876757D01*
X283887872Y-48858573D01*
X283849801Y-48851000D01*
X283075199Y-48851000D01*
X283037128Y-48858573D01*
X283009913Y-48876757D01*
X283007917Y-48876888D01*
X283006806Y-48875225D01*
X283007139Y-48873983D01*
X283010752Y-48868575D01*
X283031532Y-48802212D01*
X283010743Y-48731411D01*
X283007139Y-48726017D01*
X283007008Y-48724021D01*
X283008671Y-48722910D01*
X283009913Y-48723243D01*
G37*
G36*
X289884913Y-48323243D02*
G01*
X289912128Y-48341427D01*
X289950199Y-48349000D01*
X290724801Y-48349000D01*
X290762872Y-48341427D01*
X290790087Y-48323243D01*
X290792083Y-48323112D01*
X290793194Y-48324775D01*
X290792861Y-48326017D01*
X290789248Y-48331425D01*
X290768468Y-48397788D01*
X290789257Y-48468589D01*
X290792861Y-48473983D01*
X290792992Y-48475979D01*
X290791329Y-48477090D01*
X290790087Y-48476757D01*
X290762872Y-48458573D01*
X290724801Y-48451000D01*
X289950199Y-48451000D01*
X289912128Y-48458573D01*
X289884913Y-48476757D01*
X289882917Y-48476888D01*
X289881806Y-48475225D01*
X289882139Y-48473983D01*
X289885752Y-48468575D01*
X289906532Y-48402212D01*
X289885743Y-48331411D01*
X289882139Y-48326017D01*
X289882008Y-48324021D01*
X289883671Y-48322910D01*
X289884913Y-48323243D01*
G37*
G36*
X283009913Y-48323243D02*
G01*
X283037128Y-48341427D01*
X283075199Y-48349000D01*
X283849801Y-48349000D01*
X283887872Y-48341427D01*
X283915087Y-48323243D01*
X283917083Y-48323112D01*
X283918194Y-48324775D01*
X283917861Y-48326017D01*
X283914248Y-48331425D01*
X283893468Y-48397788D01*
X283914257Y-48468589D01*
X283917861Y-48473983D01*
X283917992Y-48475979D01*
X283916329Y-48477090D01*
X283915087Y-48476757D01*
X283887872Y-48458573D01*
X283849801Y-48451000D01*
X283075199Y-48451000D01*
X283037128Y-48458573D01*
X283009913Y-48476757D01*
X283007917Y-48476888D01*
X283006806Y-48475225D01*
X283007139Y-48473983D01*
X283010752Y-48468575D01*
X283031532Y-48402212D01*
X283010743Y-48331411D01*
X283007139Y-48326017D01*
X283007008Y-48324021D01*
X283008671Y-48322910D01*
X283009913Y-48323243D01*
G37*
G36*
X289884913Y-47923243D02*
G01*
X289912128Y-47941427D01*
X289950199Y-47949000D01*
X290724801Y-47949000D01*
X290762872Y-47941427D01*
X290790087Y-47923243D01*
X290792083Y-47923112D01*
X290793194Y-47924775D01*
X290792861Y-47926017D01*
X290789248Y-47931425D01*
X290768468Y-47997788D01*
X290789257Y-48068589D01*
X290792861Y-48073983D01*
X290792992Y-48075979D01*
X290791329Y-48077090D01*
X290790087Y-48076757D01*
X290762872Y-48058573D01*
X290724801Y-48051000D01*
X289950199Y-48051000D01*
X289912128Y-48058573D01*
X289884913Y-48076757D01*
X289882917Y-48076888D01*
X289881806Y-48075225D01*
X289882139Y-48073983D01*
X289885752Y-48068575D01*
X289906532Y-48002212D01*
X289885743Y-47931411D01*
X289882139Y-47926017D01*
X289882008Y-47924021D01*
X289883671Y-47922910D01*
X289884913Y-47923243D01*
G37*
G36*
X283009913Y-47923243D02*
G01*
X283037128Y-47941427D01*
X283075199Y-47949000D01*
X283849801Y-47949000D01*
X283887872Y-47941427D01*
X283915087Y-47923243D01*
X283917083Y-47923112D01*
X283918194Y-47924775D01*
X283917861Y-47926017D01*
X283914248Y-47931425D01*
X283893468Y-47997788D01*
X283914257Y-48068589D01*
X283917861Y-48073983D01*
X283917992Y-48075979D01*
X283916329Y-48077090D01*
X283915087Y-48076757D01*
X283887872Y-48058573D01*
X283849801Y-48051000D01*
X283075199Y-48051000D01*
X283037128Y-48058573D01*
X283009913Y-48076757D01*
X283007917Y-48076888D01*
X283006806Y-48075225D01*
X283007139Y-48073983D01*
X283010752Y-48068575D01*
X283031532Y-48002212D01*
X283010743Y-47931411D01*
X283007139Y-47926017D01*
X283007008Y-47924021D01*
X283008671Y-47922910D01*
X283009913Y-47923243D01*
G37*
G36*
X283009913Y-47523243D02*
G01*
X283037128Y-47541427D01*
X283075199Y-47549000D01*
X283849801Y-47549000D01*
X283887872Y-47541427D01*
X283915087Y-47523243D01*
X283917083Y-47523112D01*
X283918194Y-47524775D01*
X283917861Y-47526017D01*
X283914248Y-47531425D01*
X283893468Y-47597788D01*
X283914257Y-47668589D01*
X283917861Y-47673983D01*
X283917992Y-47675979D01*
X283916329Y-47677090D01*
X283915087Y-47676757D01*
X283887872Y-47658573D01*
X283849801Y-47651000D01*
X283075199Y-47651000D01*
X283037128Y-47658573D01*
X283009913Y-47676757D01*
X283007917Y-47676888D01*
X283006806Y-47675225D01*
X283007139Y-47673983D01*
X283010752Y-47668575D01*
X283031532Y-47602212D01*
X283010743Y-47531411D01*
X283007139Y-47526017D01*
X283007008Y-47524021D01*
X283008671Y-47522910D01*
X283009913Y-47523243D01*
G37*
G36*
X289884913Y-47523243D02*
G01*
X289912128Y-47541427D01*
X289950199Y-47549000D01*
X290724801Y-47549000D01*
X290762872Y-47541427D01*
X290790087Y-47523243D01*
X290792083Y-47523112D01*
X290793194Y-47524775D01*
X290792861Y-47526017D01*
X290789248Y-47531425D01*
X290768468Y-47597788D01*
X290789257Y-47668589D01*
X290792861Y-47673983D01*
X290792992Y-47675979D01*
X290791329Y-47677090D01*
X290790087Y-47676757D01*
X290762872Y-47658573D01*
X290724801Y-47651000D01*
X289950199Y-47651000D01*
X289912128Y-47658573D01*
X289884913Y-47676757D01*
X289882917Y-47676888D01*
X289881806Y-47675225D01*
X289882139Y-47673983D01*
X289885752Y-47668575D01*
X289906532Y-47602212D01*
X289885743Y-47531411D01*
X289882139Y-47526017D01*
X289882008Y-47524021D01*
X289883671Y-47522910D01*
X289884913Y-47523243D01*
G37*
G36*
X283009913Y-47123243D02*
G01*
X283037128Y-47141427D01*
X283075199Y-47149000D01*
X283849801Y-47149000D01*
X283887872Y-47141427D01*
X283915087Y-47123243D01*
X283917083Y-47123112D01*
X283918194Y-47124775D01*
X283917861Y-47126017D01*
X283914248Y-47131425D01*
X283893468Y-47197788D01*
X283914257Y-47268589D01*
X283917861Y-47273983D01*
X283917992Y-47275979D01*
X283916329Y-47277090D01*
X283915087Y-47276757D01*
X283887872Y-47258573D01*
X283849801Y-47251000D01*
X283075199Y-47251000D01*
X283037128Y-47258573D01*
X283009913Y-47276757D01*
X283007917Y-47276888D01*
X283006806Y-47275225D01*
X283007139Y-47273983D01*
X283010752Y-47268575D01*
X283031532Y-47202212D01*
X283010743Y-47131411D01*
X283007139Y-47126017D01*
X283007008Y-47124021D01*
X283008671Y-47122910D01*
X283009913Y-47123243D01*
G37*
G36*
X289884913Y-47123243D02*
G01*
X289912128Y-47141427D01*
X289950199Y-47149000D01*
X290724801Y-47149000D01*
X290762872Y-47141427D01*
X290790087Y-47123243D01*
X290792083Y-47123112D01*
X290793194Y-47124775D01*
X290792861Y-47126017D01*
X290789248Y-47131425D01*
X290768468Y-47197788D01*
X290789257Y-47268589D01*
X290792861Y-47273983D01*
X290792992Y-47275979D01*
X290791329Y-47277090D01*
X290790087Y-47276757D01*
X290762872Y-47258573D01*
X290724801Y-47251000D01*
X289950199Y-47251000D01*
X289912128Y-47258573D01*
X289884913Y-47276757D01*
X289882917Y-47276888D01*
X289881806Y-47275225D01*
X289882139Y-47273983D01*
X289885752Y-47268575D01*
X289906532Y-47202212D01*
X289885743Y-47131411D01*
X289882139Y-47126017D01*
X289882008Y-47124021D01*
X289883671Y-47122910D01*
X289884913Y-47123243D01*
G37*
G36*
X283009913Y-46723243D02*
G01*
X283037128Y-46741427D01*
X283075199Y-46749000D01*
X283849801Y-46749000D01*
X283887872Y-46741427D01*
X283915087Y-46723243D01*
X283917083Y-46723112D01*
X283918194Y-46724775D01*
X283917861Y-46726017D01*
X283914248Y-46731425D01*
X283893468Y-46797788D01*
X283914257Y-46868589D01*
X283917861Y-46873983D01*
X283917992Y-46875979D01*
X283916329Y-46877090D01*
X283915087Y-46876757D01*
X283887872Y-46858573D01*
X283849801Y-46851000D01*
X283075199Y-46851000D01*
X283037128Y-46858573D01*
X283009913Y-46876757D01*
X283007917Y-46876888D01*
X283006806Y-46875225D01*
X283007139Y-46873983D01*
X283010752Y-46868575D01*
X283031532Y-46802212D01*
X283010743Y-46731411D01*
X283007139Y-46726017D01*
X283007008Y-46724021D01*
X283008671Y-46722910D01*
X283009913Y-46723243D01*
G37*
G36*
X289884913Y-46723243D02*
G01*
X289912128Y-46741427D01*
X289950199Y-46749000D01*
X290724801Y-46749000D01*
X290762872Y-46741427D01*
X290790087Y-46723243D01*
X290792083Y-46723112D01*
X290793194Y-46724775D01*
X290792861Y-46726017D01*
X290789248Y-46731425D01*
X290768468Y-46797788D01*
X290789257Y-46868589D01*
X290792861Y-46873983D01*
X290792992Y-46875979D01*
X290791329Y-46877090D01*
X290790087Y-46876757D01*
X290762872Y-46858573D01*
X290724801Y-46851000D01*
X289950199Y-46851000D01*
X289912128Y-46858573D01*
X289884913Y-46876757D01*
X289882917Y-46876888D01*
X289881806Y-46875225D01*
X289882139Y-46873983D01*
X289885752Y-46868575D01*
X289906532Y-46802212D01*
X289885743Y-46731411D01*
X289882139Y-46726017D01*
X289882008Y-46724021D01*
X289883671Y-46722910D01*
X289884913Y-46723243D01*
G37*
G36*
X283009913Y-46323243D02*
G01*
X283037128Y-46341427D01*
X283075199Y-46349000D01*
X283849801Y-46349000D01*
X283887872Y-46341427D01*
X283915087Y-46323243D01*
X283917083Y-46323112D01*
X283918194Y-46324775D01*
X283917861Y-46326017D01*
X283914248Y-46331425D01*
X283893468Y-46397788D01*
X283914257Y-46468589D01*
X283917861Y-46473983D01*
X283917992Y-46475979D01*
X283916329Y-46477090D01*
X283915087Y-46476757D01*
X283887872Y-46458573D01*
X283849801Y-46451000D01*
X283075199Y-46451000D01*
X283037128Y-46458573D01*
X283009913Y-46476757D01*
X283007917Y-46476888D01*
X283006806Y-46475225D01*
X283007139Y-46473983D01*
X283010752Y-46468575D01*
X283031532Y-46402212D01*
X283010743Y-46331411D01*
X283007139Y-46326017D01*
X283007008Y-46324021D01*
X283008671Y-46322910D01*
X283009913Y-46323243D01*
G37*
G36*
X289884913Y-46323243D02*
G01*
X289912128Y-46341427D01*
X289950199Y-46349000D01*
X290724801Y-46349000D01*
X290762872Y-46341427D01*
X290790087Y-46323243D01*
X290792083Y-46323112D01*
X290793194Y-46324775D01*
X290792861Y-46326017D01*
X290789248Y-46331425D01*
X290768468Y-46397788D01*
X290789257Y-46468589D01*
X290792861Y-46473983D01*
X290792992Y-46475979D01*
X290791329Y-46477090D01*
X290790087Y-46476757D01*
X290762872Y-46458573D01*
X290724801Y-46451000D01*
X289950199Y-46451000D01*
X289912128Y-46458573D01*
X289884913Y-46476757D01*
X289882917Y-46476888D01*
X289881806Y-46475225D01*
X289882139Y-46473983D01*
X289885752Y-46468575D01*
X289906532Y-46402212D01*
X289885743Y-46331411D01*
X289882139Y-46326017D01*
X289882008Y-46324021D01*
X289883671Y-46322910D01*
X289884913Y-46323243D01*
G37*
G36*
X289226017Y-44907139D02*
G01*
X289231425Y-44910752D01*
X289297788Y-44931532D01*
X289368589Y-44910743D01*
X289373983Y-44907139D01*
X289375979Y-44907008D01*
X289377090Y-44908671D01*
X289376757Y-44909913D01*
X289358573Y-44937128D01*
X289351000Y-44975199D01*
X289351000Y-45749801D01*
X289358573Y-45787872D01*
X289376757Y-45815087D01*
X289376888Y-45817083D01*
X289375225Y-45818194D01*
X289373983Y-45817861D01*
X289368575Y-45814248D01*
X289302212Y-45793468D01*
X289231411Y-45814257D01*
X289226017Y-45817861D01*
X289224021Y-45817992D01*
X289222910Y-45816329D01*
X289223243Y-45815087D01*
X289241427Y-45787872D01*
X289249000Y-45749801D01*
X289249000Y-44975199D01*
X289241427Y-44937128D01*
X289223243Y-44909913D01*
X289223112Y-44907917D01*
X289224775Y-44906806D01*
X289226017Y-44907139D01*
G37*
G36*
X288026017Y-44907139D02*
G01*
X288031425Y-44910752D01*
X288097788Y-44931532D01*
X288168589Y-44910743D01*
X288173983Y-44907139D01*
X288175979Y-44907008D01*
X288177090Y-44908671D01*
X288176757Y-44909913D01*
X288158573Y-44937128D01*
X288151000Y-44975199D01*
X288151000Y-45749801D01*
X288158573Y-45787872D01*
X288176757Y-45815087D01*
X288176888Y-45817083D01*
X288175225Y-45818194D01*
X288173983Y-45817861D01*
X288168575Y-45814248D01*
X288102212Y-45793468D01*
X288031411Y-45814257D01*
X288026017Y-45817861D01*
X288024021Y-45817992D01*
X288022910Y-45816329D01*
X288023243Y-45815087D01*
X288041427Y-45787872D01*
X288049000Y-45749801D01*
X288049000Y-44975199D01*
X288041427Y-44937128D01*
X288023243Y-44909913D01*
X288023112Y-44907917D01*
X288024775Y-44906806D01*
X288026017Y-44907139D01*
G37*
G36*
X288426017Y-44907139D02*
G01*
X288431425Y-44910752D01*
X288497788Y-44931532D01*
X288568589Y-44910743D01*
X288573983Y-44907139D01*
X288575979Y-44907008D01*
X288577090Y-44908671D01*
X288576757Y-44909913D01*
X288558573Y-44937128D01*
X288551000Y-44975199D01*
X288551000Y-45749801D01*
X288558573Y-45787872D01*
X288576757Y-45815087D01*
X288576888Y-45817083D01*
X288575225Y-45818194D01*
X288573983Y-45817861D01*
X288568575Y-45814248D01*
X288502212Y-45793468D01*
X288431411Y-45814257D01*
X288426017Y-45817861D01*
X288424021Y-45817992D01*
X288422910Y-45816329D01*
X288423243Y-45815087D01*
X288441427Y-45787872D01*
X288449000Y-45749801D01*
X288449000Y-44975199D01*
X288441427Y-44937128D01*
X288423243Y-44909913D01*
X288423112Y-44907917D01*
X288424775Y-44906806D01*
X288426017Y-44907139D01*
G37*
G36*
X286426017Y-44907139D02*
G01*
X286431425Y-44910752D01*
X286497788Y-44931532D01*
X286568589Y-44910743D01*
X286573983Y-44907139D01*
X286575979Y-44907008D01*
X286577090Y-44908671D01*
X286576757Y-44909913D01*
X286558573Y-44937128D01*
X286551000Y-44975199D01*
X286551000Y-45749801D01*
X286558573Y-45787872D01*
X286576757Y-45815087D01*
X286576888Y-45817083D01*
X286575225Y-45818194D01*
X286573983Y-45817861D01*
X286568575Y-45814248D01*
X286502212Y-45793468D01*
X286431411Y-45814257D01*
X286426017Y-45817861D01*
X286424021Y-45817992D01*
X286422910Y-45816329D01*
X286423243Y-45815087D01*
X286441427Y-45787872D01*
X286449000Y-45749801D01*
X286449000Y-44975199D01*
X286441427Y-44937128D01*
X286423243Y-44909913D01*
X286423112Y-44907917D01*
X286424775Y-44906806D01*
X286426017Y-44907139D01*
G37*
G36*
X285626017Y-44907139D02*
G01*
X285631425Y-44910752D01*
X285697788Y-44931532D01*
X285768589Y-44910743D01*
X285773983Y-44907139D01*
X285775979Y-44907008D01*
X285777090Y-44908671D01*
X285776757Y-44909913D01*
X285758573Y-44937128D01*
X285751000Y-44975199D01*
X285751000Y-45749801D01*
X285758573Y-45787872D01*
X285776757Y-45815087D01*
X285776888Y-45817083D01*
X285775225Y-45818194D01*
X285773983Y-45817861D01*
X285768575Y-45814248D01*
X285702212Y-45793468D01*
X285631411Y-45814257D01*
X285626017Y-45817861D01*
X285624021Y-45817992D01*
X285622910Y-45816329D01*
X285623243Y-45815087D01*
X285641427Y-45787872D01*
X285649000Y-45749801D01*
X285649000Y-44975199D01*
X285641427Y-44937128D01*
X285623243Y-44909913D01*
X285623112Y-44907917D01*
X285624775Y-44906806D01*
X285626017Y-44907139D01*
G37*
G36*
X285226017Y-44907139D02*
G01*
X285231425Y-44910752D01*
X285297788Y-44931532D01*
X285368589Y-44910743D01*
X285373983Y-44907139D01*
X285375979Y-44907008D01*
X285377090Y-44908671D01*
X285376757Y-44909913D01*
X285358573Y-44937128D01*
X285351000Y-44975199D01*
X285351000Y-45749801D01*
X285358573Y-45787872D01*
X285376757Y-45815087D01*
X285376888Y-45817083D01*
X285375225Y-45818194D01*
X285373983Y-45817861D01*
X285368575Y-45814248D01*
X285302212Y-45793468D01*
X285231411Y-45814257D01*
X285226017Y-45817861D01*
X285224021Y-45817992D01*
X285222910Y-45816329D01*
X285223243Y-45815087D01*
X285241427Y-45787872D01*
X285249000Y-45749801D01*
X285249000Y-44975199D01*
X285241427Y-44937128D01*
X285223243Y-44909913D01*
X285223112Y-44907917D01*
X285224775Y-44906806D01*
X285226017Y-44907139D01*
G37*
G36*
X284826017Y-44907139D02*
G01*
X284831425Y-44910752D01*
X284897788Y-44931532D01*
X284968589Y-44910743D01*
X284973983Y-44907139D01*
X284975979Y-44907008D01*
X284977090Y-44908671D01*
X284976757Y-44909913D01*
X284958573Y-44937128D01*
X284951000Y-44975199D01*
X284951000Y-45749801D01*
X284958573Y-45787872D01*
X284976757Y-45815087D01*
X284976888Y-45817083D01*
X284975225Y-45818194D01*
X284973983Y-45817861D01*
X284968575Y-45814248D01*
X284902212Y-45793468D01*
X284831411Y-45814257D01*
X284826017Y-45817861D01*
X284824021Y-45817992D01*
X284822910Y-45816329D01*
X284823243Y-45815087D01*
X284841427Y-45787872D01*
X284849000Y-45749801D01*
X284849000Y-44975199D01*
X284841427Y-44937128D01*
X284823243Y-44909913D01*
X284823112Y-44907917D01*
X284824775Y-44906806D01*
X284826017Y-44907139D01*
G37*
G36*
X284426017Y-44907139D02*
G01*
X284431425Y-44910752D01*
X284497788Y-44931532D01*
X284568589Y-44910743D01*
X284573983Y-44907139D01*
X284575979Y-44907008D01*
X284577090Y-44908671D01*
X284576757Y-44909913D01*
X284558573Y-44937128D01*
X284551000Y-44975199D01*
X284551000Y-45749801D01*
X284558573Y-45787872D01*
X284576757Y-45815087D01*
X284576888Y-45817083D01*
X284575225Y-45818194D01*
X284573983Y-45817861D01*
X284568575Y-45814248D01*
X284502212Y-45793468D01*
X284431411Y-45814257D01*
X284426017Y-45817861D01*
X284424021Y-45817992D01*
X284422910Y-45816329D01*
X284423243Y-45815087D01*
X284441427Y-45787872D01*
X284449000Y-45749801D01*
X284449000Y-44975199D01*
X284441427Y-44937128D01*
X284423243Y-44909913D01*
X284423112Y-44907917D01*
X284424775Y-44906806D01*
X284426017Y-44907139D01*
G37*
G36*
X286826017Y-44907139D02*
G01*
X286831425Y-44910752D01*
X286897788Y-44931532D01*
X286968589Y-44910743D01*
X286973983Y-44907139D01*
X286975979Y-44907008D01*
X286977090Y-44908671D01*
X286976757Y-44909913D01*
X286958573Y-44937128D01*
X286951000Y-44975199D01*
X286951000Y-45749801D01*
X286958573Y-45787872D01*
X286976757Y-45815087D01*
X286976888Y-45817083D01*
X286975225Y-45818194D01*
X286973983Y-45817861D01*
X286968575Y-45814248D01*
X286902212Y-45793468D01*
X286831411Y-45814257D01*
X286826017Y-45817861D01*
X286824021Y-45817992D01*
X286822910Y-45816329D01*
X286823243Y-45815087D01*
X286841427Y-45787872D01*
X286849000Y-45749801D01*
X286849000Y-44975199D01*
X286841427Y-44937128D01*
X286823243Y-44909913D01*
X286823112Y-44907917D01*
X286824775Y-44906806D01*
X286826017Y-44907139D01*
G37*
G36*
X288826017Y-44907139D02*
G01*
X288831425Y-44910752D01*
X288897788Y-44931532D01*
X288968589Y-44910743D01*
X288973983Y-44907139D01*
X288975979Y-44907008D01*
X288977090Y-44908671D01*
X288976757Y-44909913D01*
X288958573Y-44937128D01*
X288951000Y-44975199D01*
X288951000Y-45749801D01*
X288958573Y-45787872D01*
X288976757Y-45815087D01*
X288976888Y-45817083D01*
X288975225Y-45818194D01*
X288973983Y-45817861D01*
X288968575Y-45814248D01*
X288902212Y-45793468D01*
X288831411Y-45814257D01*
X288826017Y-45817861D01*
X288824021Y-45817992D01*
X288822910Y-45816329D01*
X288823243Y-45815087D01*
X288841427Y-45787872D01*
X288849000Y-45749801D01*
X288849000Y-44975199D01*
X288841427Y-44937128D01*
X288823243Y-44909913D01*
X288823112Y-44907917D01*
X288824775Y-44906806D01*
X288826017Y-44907139D01*
G37*
G36*
X287226017Y-44907139D02*
G01*
X287231425Y-44910752D01*
X287297788Y-44931532D01*
X287368589Y-44910743D01*
X287373983Y-44907139D01*
X287375979Y-44907008D01*
X287377090Y-44908671D01*
X287376757Y-44909913D01*
X287358573Y-44937128D01*
X287351000Y-44975199D01*
X287351000Y-45749801D01*
X287358573Y-45787872D01*
X287376757Y-45815087D01*
X287376888Y-45817083D01*
X287375225Y-45818194D01*
X287373983Y-45817861D01*
X287368575Y-45814248D01*
X287302212Y-45793468D01*
X287231411Y-45814257D01*
X287226017Y-45817861D01*
X287224021Y-45817992D01*
X287222910Y-45816329D01*
X287223243Y-45815087D01*
X287241427Y-45787872D01*
X287249000Y-45749801D01*
X287249000Y-44975199D01*
X287241427Y-44937128D01*
X287223243Y-44909913D01*
X287223112Y-44907917D01*
X287224775Y-44906806D01*
X287226017Y-44907139D01*
G37*
G36*
X287626017Y-44907139D02*
G01*
X287631425Y-44910752D01*
X287697788Y-44931532D01*
X287768589Y-44910743D01*
X287773983Y-44907139D01*
X287775979Y-44907008D01*
X287777090Y-44908671D01*
X287776757Y-44909913D01*
X287758573Y-44937128D01*
X287751000Y-44975199D01*
X287751000Y-45749801D01*
X287758573Y-45787872D01*
X287776757Y-45815087D01*
X287776888Y-45817083D01*
X287775225Y-45818194D01*
X287773983Y-45817861D01*
X287768575Y-45814248D01*
X287702212Y-45793468D01*
X287631411Y-45814257D01*
X287626017Y-45817861D01*
X287624021Y-45817992D01*
X287622910Y-45816329D01*
X287623243Y-45815087D01*
X287641427Y-45787872D01*
X287649000Y-45749801D01*
X287649000Y-44975199D01*
X287641427Y-44937128D01*
X287623243Y-44909913D01*
X287623112Y-44907917D01*
X287624775Y-44906806D01*
X287626017Y-44907139D01*
G37*
G36*
X286026017Y-44907139D02*
G01*
X286031425Y-44910752D01*
X286097788Y-44931532D01*
X286168589Y-44910743D01*
X286173983Y-44907139D01*
X286175979Y-44907008D01*
X286177090Y-44908671D01*
X286176757Y-44909913D01*
X286158573Y-44937128D01*
X286151000Y-44975199D01*
X286151000Y-45749801D01*
X286158573Y-45787872D01*
X286176757Y-45815087D01*
X286176888Y-45817083D01*
X286175225Y-45818194D01*
X286173983Y-45817861D01*
X286168575Y-45814248D01*
X286102212Y-45793468D01*
X286031411Y-45814257D01*
X286026017Y-45817861D01*
X286024021Y-45817992D01*
X286022910Y-45816329D01*
X286023243Y-45815087D01*
X286041427Y-45787872D01*
X286049000Y-45749801D01*
X286049000Y-44975199D01*
X286041427Y-44937128D01*
X286023243Y-44909913D01*
X286023112Y-44907917D01*
X286024775Y-44906806D01*
X286026017Y-44907139D01*
G37*
G36*
X193325218Y-12537859D02*
G01*
X193326000Y-12539445D01*
X193326000Y-13548045D01*
X193325000Y-13549777D01*
X193323000Y-13549777D01*
X193322017Y-13548306D01*
X193321985Y-13548067D01*
X193293846Y-13484454D01*
X193236035Y-13446320D01*
X193166780Y-13445494D01*
X193108086Y-13482233D01*
X193078015Y-13548075D01*
X193077983Y-13548317D01*
X193076764Y-13549903D01*
X193074782Y-13549641D01*
X193074000Y-13548055D01*
X193074000Y-12539455D01*
X193075000Y-12537723D01*
X193077000Y-12537723D01*
X193077983Y-12539194D01*
X193078015Y-12539433D01*
X193106154Y-12603046D01*
X193163965Y-12641180D01*
X193233220Y-12642006D01*
X193291914Y-12605267D01*
X193321985Y-12539425D01*
X193322017Y-12539183D01*
X193323236Y-12537597D01*
X193325218Y-12537859D01*
G37*
G36*
X194275218Y-12537859D02*
G01*
X194276000Y-12539445D01*
X194276000Y-13548045D01*
X194275000Y-13549777D01*
X194273000Y-13549777D01*
X194272017Y-13548306D01*
X194271985Y-13548067D01*
X194243846Y-13484454D01*
X194186035Y-13446320D01*
X194116780Y-13445494D01*
X194058086Y-13482233D01*
X194028015Y-13548075D01*
X194027983Y-13548317D01*
X194026764Y-13549903D01*
X194024782Y-13549641D01*
X194024000Y-13548055D01*
X194024000Y-12539455D01*
X194025000Y-12537723D01*
X194027000Y-12537723D01*
X194027983Y-12539194D01*
X194028015Y-12539433D01*
X194056154Y-12603046D01*
X194113965Y-12641180D01*
X194183220Y-12642006D01*
X194241914Y-12605267D01*
X194271985Y-12539425D01*
X194272017Y-12539183D01*
X194273236Y-12537597D01*
X194275218Y-12537859D01*
G37*
G36*
X193325218Y-10262859D02*
G01*
X193326000Y-10264445D01*
X193326000Y-11273045D01*
X193325000Y-11274777D01*
X193323000Y-11274777D01*
X193322017Y-11273306D01*
X193321985Y-11273067D01*
X193293846Y-11209454D01*
X193236035Y-11171320D01*
X193166780Y-11170494D01*
X193108086Y-11207233D01*
X193078015Y-11273075D01*
X193077983Y-11273317D01*
X193076764Y-11274903D01*
X193074782Y-11274641D01*
X193074000Y-11273055D01*
X193074000Y-10264455D01*
X193075000Y-10262723D01*
X193077000Y-10262723D01*
X193077983Y-10264194D01*
X193078015Y-10264433D01*
X193106154Y-10328046D01*
X193163965Y-10366180D01*
X193233220Y-10367006D01*
X193291914Y-10330267D01*
X193321985Y-10264425D01*
X193322017Y-10264183D01*
X193323236Y-10262597D01*
X193325218Y-10262859D01*
G37*
G36*
X194275218Y-10262859D02*
G01*
X194276000Y-10264445D01*
X194276000Y-11273045D01*
X194275000Y-11274777D01*
X194273000Y-11274777D01*
X194272017Y-11273306D01*
X194271985Y-11273067D01*
X194243846Y-11209454D01*
X194186035Y-11171320D01*
X194116780Y-11170494D01*
X194058086Y-11207233D01*
X194028015Y-11273075D01*
X194027983Y-11273317D01*
X194026764Y-11274903D01*
X194024782Y-11274641D01*
X194024000Y-11273055D01*
X194024000Y-10264455D01*
X194025000Y-10262723D01*
X194027000Y-10262723D01*
X194027983Y-10264194D01*
X194028015Y-10264433D01*
X194056154Y-10328046D01*
X194113965Y-10366180D01*
X194183220Y-10367006D01*
X194241914Y-10330267D01*
X194271985Y-10264425D01*
X194272017Y-10264183D01*
X194273236Y-10262597D01*
X194275218Y-10262859D01*
G37*
G36*
X261939199Y-5822645D02*
G01*
X261939460Y-5823098D01*
X261939870Y-5824089D01*
X262047403Y-5999566D01*
X262047456Y-6001565D01*
X262045750Y-6002610D01*
X262044096Y-6001808D01*
X262035244Y-5989954D01*
X261979610Y-5948203D01*
X261910532Y-5943180D01*
X261849542Y-5976389D01*
X261837718Y-5991038D01*
X261835852Y-5991758D01*
X261834296Y-5990502D01*
X261834457Y-5988737D01*
X261935354Y-5824089D01*
X261935764Y-5823098D01*
X261937351Y-5821880D01*
X261939199Y-5822645D01*
G37*
G36*
X262069616Y-4122727D02*
G01*
X262069445Y-4124464D01*
X261939870Y-4335911D01*
X261939460Y-4336902D01*
X261937873Y-4338120D01*
X261936025Y-4337355D01*
X261935764Y-4336902D01*
X261935354Y-4335911D01*
X261816856Y-4142539D01*
X261816803Y-4140540D01*
X261818509Y-4139495D01*
X261820132Y-4140256D01*
X261841249Y-4167043D01*
X261842686Y-4165910D01*
X261844665Y-4165622D01*
X261845311Y-4166039D01*
X261882410Y-4201755D01*
X261950354Y-4215189D01*
X262014876Y-4189717D01*
X262044503Y-4156431D01*
X262062832Y-4126226D01*
X262063004Y-4125985D01*
X262066202Y-4122140D01*
X262068079Y-4121448D01*
X262069616Y-4122727D01*
G37*
G36*
X261939199Y-102645D02*
G01*
X261939460Y-103098D01*
X261939870Y-104089D01*
X262047403Y-279566D01*
X262047456Y-281565D01*
X262045750Y-282610D01*
X262044096Y-281808D01*
X262035244Y-269954D01*
X261979610Y-228203D01*
X261910532Y-223180D01*
X261849542Y-256389D01*
X261837718Y-271038D01*
X261835852Y-271758D01*
X261834296Y-270502D01*
X261834457Y-268737D01*
X261935354Y-104089D01*
X261935764Y-103098D01*
X261937351Y-101880D01*
X261939199Y-102645D01*
G37*
G36*
X262069616Y1597273D02*
G01*
X262069445Y1595536D01*
X261939870Y1384089D01*
X261939460Y1383098D01*
X261937873Y1381880D01*
X261936025Y1382645D01*
X261935764Y1383098D01*
X261935354Y1384089D01*
X261816856Y1577461D01*
X261816803Y1579460D01*
X261818509Y1580505D01*
X261820132Y1579744D01*
X261841249Y1552957D01*
X261842686Y1554090D01*
X261844665Y1554378D01*
X261845311Y1553961D01*
X261882410Y1518245D01*
X261950354Y1504811D01*
X262014876Y1530283D01*
X262044503Y1563569D01*
X262062832Y1593774D01*
X262063004Y1594015D01*
X262066202Y1597860D01*
X262068079Y1598552D01*
X262069616Y1597273D01*
G37*
M02*
