M48
; DRILL file {KiCad (6.0.8)} date Sun Nov 13 23:10:34 2022
; FORMAT={-:-/ absolute / inch / decimal}
; #@! TF.CreationDate,2022-11-13T23:10:34+08:00
; #@! TF.GenerationSoftware,Kicad,Pcbnew,(6.0.8)
; #@! TF.FileFunction,Plated,1,2,PTH
FMAT,2
INCH
; #@! TA.AperFunction,Plated,PTH,ViaDrill
T1C0.0157
; #@! TA.AperFunction,Plated,PTH,ComponentDrill
T2C0.0394
; #@! TA.AperFunction,Plated,PTH,ComponentDrill
T3C0.0551
; #@! TA.AperFunction,Plated,PTH,ViaDrill
T4C0.1000
%
G90
G05
T1
X0.7205Y-1.752
X0.7205Y-1.8189
X1.752Y-1.752
X1.752Y-1.8189
X2.5Y-1.752
X2.5Y-1.8189
X3.248Y-1.752
X3.248Y-1.8189
X4.0Y-1.752
X4.0Y-1.8189
X4.752Y-1.752
X4.752Y-1.8189
X5.5Y-1.752
X5.5Y-1.8189
X6.252Y-1.752
X6.252Y-1.8189
X7.0Y-1.752
X7.0Y-1.8189
X7.2869Y-0.4094
X7.378Y-0.4094
X7.626Y-0.5551
X7.748Y-1.752
X7.748Y-1.8189
X8.1063Y-0.3976
X8.2244Y-0.5157
X8.2323Y-0.3976
X8.3504Y-0.5157
X8.5Y-1.752
X8.5Y-1.8189
X8.8622Y-0.4016
X8.9724Y-0.5157
X8.9843Y-0.3976
X9.0984Y-0.5157
X9.248Y-1.752
X9.248Y-1.8189
X10.0Y-1.6024
X10.126Y-1.752
X10.126Y-1.8189
X10.2087Y-0.3976
X10.2087Y-0.5157
X10.2992Y-0.3976
X10.2992Y-0.5157
X10.3803Y-2.2425
X10.6496Y-0.3976
X10.6496Y-0.5157
X10.7126Y-2.1969
X10.7126Y-2.4488
X10.7362Y-0.3976
X10.7362Y-0.5157
X10.7677Y-0.9803
X10.811Y-0.9094
X10.8268Y-1.063
X10.8406Y-0.9688
X10.9213Y-1.752
X10.9213Y-1.8189
X10.9291Y-1.063
X10.9375Y-0.9688
X10.9567Y-0.9094
X10.9724Y-2.6024
X10.9764Y-1.5039
X10.9803Y-1.378
X11.0157Y-0.9803
X11.0236Y-1.8071
X11.0236Y-1.9606
X11.063Y-1.2283
X11.0945Y-1.6181
X11.1063Y-1.4813
X11.1181Y-2.0866
X11.1181Y-1.8071
X11.1181Y-1.9606
X11.1299Y-2.2756
X11.1299Y-2.3268
X11.1457Y-1.6181
X11.1654Y-1.4813
X11.189Y-2.4134
X11.1947Y-1.6282
X11.2008Y-1.2126
X11.2126Y-2.252
X11.2441Y-2.185
X11.248Y-1.874
X11.248Y-1.9213
X11.248Y-1.9685
X11.2835Y-2.185
X11.2953Y-1.874
X11.2953Y-1.9213
X11.2953Y-1.9685
X11.3346Y-1.5236
X11.3346Y-1.6181
X11.3425Y-1.874
X11.3425Y-1.9213
X11.3425Y-1.9685
X11.374Y-1.5236
X11.374Y-1.6181
X11.3898Y-1.3622
X11.4016Y-2.3425
X11.4134Y-1.5236
X11.4134Y-1.6181
X11.437Y-1.3898
X11.5197Y-1.8071
X11.5197Y-1.9724
X11.6142Y-1.8071
X11.6142Y-1.9724
X11.7005Y-3.065
X11.7283Y-1.2244
X11.7283Y-2.063
X11.7656Y-2.6719
X11.7677Y-2.063
X11.7992Y-1.2638
X11.8541Y-0.2837
X11.8622Y-1.3937
X11.8661Y-1.2992
X11.8999Y-1.0337
X11.9252Y-1.3504
X11.9803Y-1.9134
X12.0197Y-1.9134
X12.8076Y-2.0202
T2
X11.6211Y-1.5059
X11.6211Y-1.6059
T3
X-0.1299Y0.0252
X-0.1299Y-0.2
X-0.0362Y-2.2248
X-0.0362Y-2.45
X0.0576Y-0.7248
X0.0576Y-0.95
X0.0576Y-2.9748
X0.0576Y-3.2
X0.1299Y0.0252
X0.1299Y-0.2
X0.1513Y-1.4748
X0.1513Y-1.7
X0.2237Y-2.2248
X0.2237Y-2.45
X0.3174Y-0.7248
X0.3174Y-0.95
X0.3174Y-2.9748
X0.3174Y-3.2
X0.4112Y-1.4748
X0.4112Y-1.7
X0.6201Y0.0252
X0.6201Y-0.2
X0.8076Y-2.2248
X0.8076Y-2.45
X0.8799Y0.0252
X0.8799Y-0.2
X0.9951Y-0.7248
X0.9951Y-0.95
X0.9951Y-2.9748
X0.9951Y-3.2
X1.0674Y-2.2248
X1.0674Y-2.45
X1.1826Y-1.4748
X1.1826Y-1.7
X1.2549Y-0.7248
X1.2549Y-0.95
X1.2549Y-2.9748
X1.2549Y-3.2
X1.3701Y0.0252
X1.3701Y-0.2
X1.4424Y-1.4748
X1.4424Y-1.7
X1.5576Y-2.2248
X1.5576Y-2.45
X1.6299Y0.0252
X1.6299Y-0.2
X1.7451Y-0.7248
X1.7451Y-0.95
X1.8174Y-2.2248
X1.8174Y-2.45
X1.9326Y-1.4748
X1.9326Y-1.7
X1.9326Y-2.9748
X1.9326Y-3.2
X2.0049Y-0.7248
X2.0049Y-0.95
X2.1201Y0.0252
X2.1201Y-0.2
X2.1924Y-1.4748
X2.1924Y-1.7
X2.1924Y-2.9748
X2.1924Y-3.2
X2.3076Y-2.2248
X2.3076Y-2.45
X2.3799Y0.0252
X2.3799Y-0.2
X2.4951Y-0.7248
X2.4951Y-0.95
X2.5674Y-2.2248
X2.5674Y-2.45
X2.6826Y-1.4748
X2.6826Y-1.7
X2.7549Y-0.7248
X2.7549Y-0.95
X2.8701Y0.0252
X2.8701Y-0.2
X2.9424Y-1.4748
X2.9424Y-1.7
X3.0576Y-2.2248
X3.0576Y-2.45
X3.1299Y0.0252
X3.1299Y-0.2
X3.2451Y-0.7248
X3.2451Y-0.95
X3.3174Y-2.2248
X3.3174Y-2.45
X3.4326Y-1.4748
X3.4326Y-1.7
X3.5049Y-0.7248
X3.5049Y-0.95
X3.6201Y0.0252
X3.6201Y-0.2
X3.6924Y-1.4748
X3.6924Y-1.7
X3.8076Y-2.2248
X3.8076Y-2.45
X3.8799Y0.0252
X3.8799Y-0.2
X3.9951Y-0.7248
X3.9951Y-0.95
X4.0674Y-2.2248
X4.0674Y-2.45
X4.1826Y-1.4748
X4.1826Y-1.7
X4.2549Y-0.7248
X4.2549Y-0.95
X4.3701Y0.0252
X4.3701Y-0.2
X4.4424Y-1.4748
X4.4424Y-1.7
X4.5576Y-2.2248
X4.5576Y-2.45
X4.6299Y0.0252
X4.6299Y-0.2
X4.7451Y-0.7248
X4.7451Y-0.95
X4.8174Y-2.2248
X4.8174Y-2.45
X4.9326Y-1.4748
X4.9326Y-1.7
X5.0049Y-0.7248
X5.0049Y-0.95
X5.1201Y0.0252
X5.1201Y-0.2
X5.1201Y-2.9748
X5.1201Y-3.2
X5.1924Y-1.4748
X5.1924Y-1.7
X5.3076Y-2.2248
X5.3076Y-2.45
X5.3799Y0.0252
X5.3799Y-0.2
X5.3799Y-2.9748
X5.3799Y-3.2
X5.4951Y-0.7248
X5.4951Y-0.95
X5.5674Y-2.2248
X5.5674Y-2.45
X5.6826Y-1.4748
X5.6826Y-1.7
X5.7549Y-0.7248
X5.7549Y-0.95
X5.8701Y0.0252
X5.8701Y-0.2
X5.9424Y-1.4748
X5.9424Y-1.7
X6.0576Y-2.2248
X6.0576Y-2.45
X6.1299Y0.0252
X6.1299Y-0.2
X6.2451Y-0.7248
X6.2451Y-0.95
X6.3174Y-2.2248
X6.3174Y-2.45
X6.4326Y-1.4748
X6.4326Y-1.7
X6.5049Y-0.7248
X6.5049Y-0.95
X6.6201Y0.0252
X6.6201Y-0.2
X6.6924Y-1.4748
X6.6924Y-1.7
X6.8076Y-2.2248
X6.8076Y-2.45
X6.8799Y0.0252
X6.8799Y-0.2
X6.9951Y-0.7248
X6.9951Y-0.95
X7.0674Y-2.2248
X7.0674Y-2.45
X7.1826Y-1.4748
X7.1826Y-1.7
X7.2549Y-0.7248
X7.2549Y-0.95
X7.3701Y0.0252
X7.3701Y-0.2
X7.4424Y-1.4748
X7.4424Y-1.7
X7.5576Y-2.2248
X7.5576Y-2.45
X7.6299Y0.0252
X7.6299Y-0.2
X7.7451Y-0.7248
X7.7451Y-0.95
X7.8174Y-2.2248
X7.8174Y-2.45
X7.9326Y-1.4748
X7.9326Y-1.7
X8.0049Y-0.7248
X8.0049Y-0.95
X8.1201Y0.0252
X8.1201Y-0.2
X8.1924Y-1.4748
X8.1924Y-1.7
X8.3076Y-2.2248
X8.3076Y-2.45
X8.3076Y-2.9748
X8.3076Y-3.2
X8.3799Y0.0252
X8.3799Y-0.2
X8.4951Y-0.7248
X8.4951Y-0.95
X8.5674Y-2.2248
X8.5674Y-2.45
X8.5674Y-2.9748
X8.5674Y-3.2
X8.6826Y-1.4748
X8.6826Y-1.7
X8.7549Y-0.7248
X8.7549Y-0.95
X8.8701Y0.0252
X8.8701Y-0.2
X8.9424Y-1.4748
X8.9424Y-1.7
X9.1299Y0.0252
X9.1299Y-0.2
X9.2451Y-0.7248
X9.2451Y-0.95
X9.2451Y-2.9748
X9.2451Y-3.2
X9.4326Y-1.4748
X9.4326Y-1.7
X9.5049Y-0.7248
X9.5049Y-0.95
X9.5049Y-2.9748
X9.5049Y-3.2
X9.6201Y0.0252
X9.6201Y-0.2
X9.6924Y-1.4748
X9.6924Y-1.7
X9.7138Y-2.2248
X9.7138Y-2.45
X9.8799Y0.0252
X9.9737Y-2.2248
X9.9737Y-2.45
X9.9951Y-0.2
X10.1826Y-2.9748
X10.1826Y-3.2
X10.2549Y0.0252
X10.2549Y-0.2
X10.3701Y0.0252
X10.3701Y-0.2
X10.3803Y-0.9951
X10.3803Y-1.2549
X10.4424Y-2.9748
X10.4424Y-3.2
X10.6055Y-0.9951
X10.6055Y-1.2549
X10.6299Y0.0252
X10.6299Y-0.2
X11.3076Y0.0252
X11.3076Y-0.2
X11.3076Y-0.7248
X11.3076Y-0.95
X11.3076Y-2.9748
X11.3076Y-3.2
X11.5674Y0.0252
X11.5674Y-0.2
X11.5674Y-0.7248
X11.5674Y-0.95
X11.5674Y-2.9748
X11.5674Y-3.2
X12.0576Y0.0252
X12.0576Y-0.2
X12.0576Y-0.7248
X12.0576Y-0.95
X12.0576Y-2.2248
X12.0576Y-2.45
X12.0576Y-2.9748
X12.0576Y-3.2
X12.3174Y0.0252
X12.3174Y-0.2
X12.3174Y-0.7248
X12.3174Y-0.95
X12.3174Y-2.2248
X12.3174Y-2.45
X12.3174Y-2.9748
X12.3174Y-3.2
X12.8076Y0.0252
X12.8076Y-0.2
X12.8076Y-0.7248
X12.8076Y-0.95
X12.8076Y-2.9748
X12.8076Y-3.2
X13.0674Y0.0252
X13.0674Y-0.2
X13.0674Y-0.7248
X13.0674Y-0.95
X13.0674Y-2.9748
X13.0674Y-3.2
T4
X0.2098Y0.2098
X0.3973Y-2.7902
X1.5223Y-1.2902
X2.7902Y0.2098
X5.0848Y-0.5402
X5.2277Y-2.0402
X5.4598Y-2.7902
X6.2098Y0.2098
X9.0223Y-1.2902
X9.1652Y-2.7902
X9.5402Y0.2098
X9.9152Y0.2098
X10.3348Y0.2098
X10.7099Y0.2098
X12.7277Y0.2098
X13.1473Y-2.7902
T0
M30
